<svg xmlns="http://www.w3.org/2000/svg" viewBox="0 0 207.56 215.3"><defs><style>.cls-1{fill:#19398a;}</style></defs><g id="Layer_2" data-name="Layer 2"><g id="_π_ÃæÓ_1" data-name="∑π¿ÃæÓ 1"><path class="cls-1" d="M121.46,26.16c-3.38-7.56-14.78-2.37-14.78-2.37C116.27,29.89,121.46,26.16,121.46,26.16ZM102.61,25a2.15,2.15,0,1,0-2.15-2.17A2.14,2.14,0,0,0,102.61,25Zm26.1,1.87a16.35,16.35,0,0,0-7.9,2.18l12.13.18.44-.33s-6-16.36-22.15-18.38A27.47,27.47,0,0,0,128.71,26.91Zm8.51,3.17a1.6,1.6,0,1,0-1.6,1.61A1.6,1.6,0,0,0,137.22,30.08Zm-64.8-.81,12.14-.18a16.35,16.35,0,0,0-7.9-2.18A27.44,27.44,0,0,0,94.13,10.56C78,12.58,72,28.94,72,28.94ZM68.52,31a1.62,1.62,0,0,0,1.62,1.61,1.61,1.61,0,0,0,0-3.22A1.62,1.62,0,0,0,68.52,31Zm1,12.95C60.77,37.68,48,42.5,48,42.5c11.32-8.62,11.25-22.4,11.25-22.4C44.84,27.49,44.77,45,44.77,45,62.41,50.18,69.52,43.91,69.52,43.91Zm4.87-3.42.13-5.9a31.86,31.86,0,0,0-13.21-.68c12.66-6.51,15-20.1,15-20.1-15.48,4.78-18.6,21.94-18.6,21.94C64.82,39.3,70.39,40.4,74.39,40.49ZM144.27,33a20.87,20.87,0,0,0-11.91.66v6.06c4.05-.08,8.17-1.07,15.61-5,0,0-3.52-17.09-19.12-21.49C128.84,13.2,131.47,26.72,144.27,33ZM83.9,26.88S89.23,30.4,98.59,24C98.59,24,87,19.19,83.9,26.88ZM165,108.77h-6.76v8.56H165ZM146.74,50l-3.5,4.18,19,19L166,69.27Zm36.89-.57L166.26,32,150.68,49l16.71,16.48ZM42,47.47a1.6,1.6,0,0,0,3.2,0,1.6,1.6,0,1,0-3.2,0ZM170.63,65.78a48,48,0,0,0,11.14,1.66A33.64,33.64,0,0,0,182.92,54l-5.86,5.61a28.11,28.11,0,0,0,2.42,4.48,30.65,30.65,0,0,0-4.2-2.78Zm-5.27,85h-6.77v8.58h6.77ZM155.5,39.53l3.92-4c-1.67-5.64-5-12.43-13.42-16.47A28,28,0,0,0,155.5,39.53Zm35.27,60.06a1.61,1.61,0,1,0,3.22,0,1.61,1.61,0,1,0-3.22,0Zm-21.13-79.7a9.64,9.64,0,0,0,9.14-.12,8.8,8.8,0,0,1,9.75,1.07A8,8,0,0,1,191.81,28c0,3.1-.89,3.32-.89,3.32-1.87,1.29-1.41-.9-1.41-.9s.42-1.53.42-1.53c.75-7-5.55-8-5.55-8a7.08,7.08,0,0,0-8.33,5,11.78,11.78,0,0,0-.28,4.53L167.45,22l.39,7.05,18.62,18.62h6.65L186.35,41a28.78,28.78,0,0,0,6.71,1.24c9.51-.58,10.5-9.68,10.5-9.68,2.51-9.49-6.5-17.17-6.5-17.17-6-5.17-15.09-5.59-15.09-5.59C169,8.26,164.47,0,164.47,0c-1.53,3.76-1.14,9.33-1.14,9.33C164.2,17.89,169.64,19.89,169.64,19.89ZM193.05,97s10.84-13.68,4.18-28.46c0,0-8.65,10.72-5.19,24.53,0,0-7-11.73-17.68-12.34C174.36,80.68,176,90,193.05,97Zm-11-25.1a1.61,1.61,0,1,0-1.62-1.6A1.61,1.61,0,0,0,182.07,71.85Zm-32.4-26,4.87-5c-4.15-1-11.95-2.33-18.24,2.36C136.3,43.12,139.54,46.79,149.67,45.8Zm39,35.91S197,66.35,187.88,53c0,0-6.67,12.06-.87,25.06,0,0-8.89-10.34-19.53-9.08C167.48,68.93,170.72,77.83,188.7,81.71ZM131.85,199a1.61,1.61,0,1,0,1.6-1.61A1.61,1.61,0,0,0,131.85,199Zm8.06-1.54s9.1-7.82,9.2-17.6l-3.26.13c-2.94,2.57-7.26,8.07-9.65,19.16,0,0,15.38,8.28,28.77-.81C165,198.33,152.91,191.65,139.91,197.45Zm-15,5s11.73-6.95,12.33-17.66c0,0-9.34,1.65-16.27,18.7,0,0,13.68,10.83,28.46,4.18C149.43,207.67,138.72,199,124.91,202.45Zm-15.75,3.35c12.18-5.63,14.89-15.11,14.89-15.11-9.48.67-17.6,14.91-17.6,14.91a32.36,32.36,0,0,0,24.36,9.46C124.5,206.7,109.16,205.8,109.16,205.8Zm-6.77-5v4c-1.85-2.92-9.09-13.49-17.25-14,0,0,2.77,9.45,15,15,0,0-15.34,1-21.59,9.42a32.36,32.36,0,0,0,23.84-9.21v6.53h4.06V200.84Zm56.2-37v8.57L197,204.22h7.67l-39-40.39Zm-4.77,26.06a30.75,30.75,0,0,0,5.2-10l-6.53-.1a45.29,45.29,0,0,0-2,12.46s14.13,4.69,25.45-3.5l-4.36-3.5A28.67,28.67,0,0,0,153.82,189.89ZM77.7,199.61a1.61,1.61,0,1,0-1.6,1.6A1.61,1.61,0,0,0,77.7,199.61ZM185,154.71s2.2-13.45-5.62-20.79c0,0-4.74,8.2,3.85,24.48,0,0,17.1-3.52,21.51-19.12C204.73,139.28,191.2,141.91,185,154.71Zm-15.85,28.48-5.64-4.61c.12,1.43.3,3,.57,4.58A28.85,28.85,0,0,0,169.14,183.19Zm-8.54,2.08a1.61,1.61,0,1,0-1.6-1.6A1.61,1.61,0,0,0,160.6,185.27ZM26,161.81a1.61,1.61,0,1,0,1.61-1.63A1.61,1.61,0,0,0,26,161.81ZM14.29,130.65c13.35-12.68,11.48-22,11.48-22-9.76,4.47-12,17.92-12,17.92C12,112.49,0,105.64,0,105.64-.78,121.84,14.29,130.65,14.29,130.65Zm.05,2.22a1.6,1.6,0,1,0,3.2,0,1.6,1.6,0,1,0-3.2,0ZM37.25,32.34,24.81,19.78C17.11,12.08,8,17.15,8,17.15L32.48,41.56C34.12,35.3,37.25,32.34,37.25,32.34ZM27.67,40,6.52,18.88s-8.85,6.34-2,21.16ZM18.5,145.92C29.44,131.13,26,122.3,26,122.3,17.17,128.4,17.33,142,17.33,142,13.11,128.43.14,123.79.14,123.79,2.14,139.88,18.5,145.92,18.5,145.92Zm9.82,41.92a18.61,18.61,0,0,1,6.14-2l-4-1-.38.51c.23-.32.38-.51.38-.51L12.56,203.67s-2,2.92-.11,4.85a3.55,3.55,0,0,0,4.28-.23l17.41-15.22C32.38,192.17,28.54,189,28.32,187.84Zm33.9-7.64H59.93c-.14,10.11,9.6,18.1,9.6,18.1-13.13-5.51-25,1.44-25,1.44,13.61,8.79,28.77.14,28.77.14C70.31,187.58,65.16,182.3,62.22,180.2Zm-36.9-20c8.21-16.46,3.29-24.56,3.29-24.56-7.66,7.52-5.12,20.93-5.12,20.93-6.53-12.65-20.12-15-20.12-15C8.15,157.12,25.32,160.24,25.32,160.24Zm46.59,25.32c.85,10.69,12.74,17.37,12.74,17.37-13.88-3.13-24.4,5.79-24.4,5.79,14.94,6.29,28.36-4.85,28.36-4.85C81.28,187,71.91,185.56,71.91,185.56ZM33.63,56.23c18.29,2.08,24.22-5.32,24.22-5.32-9.71-4.58-21.43,2.36-21.43,2.36,9.65-10.45,7.19-24,7.19-24C30.69,39,33.63,56.23,33.63,56.23Zm.88,116.94c5.21-17.65-1-24.76-1-24.76-6.21,8.74-1.39,21.49-1.39,21.49-8.62-11.32-22.41-11.24-22.41-11.24C17.05,173.07,34.51,173.17,34.51,173.17Zm133.65-14.44a6.74,6.74,0,0,0-1.52,3l3.4,3.53A16.7,16.7,0,0,0,168.16,158.73ZM54.45,88.11l6.28,5.52H74.86c-.68-1.11-.47-5.41-.47-5.41ZM89.52,46.72V38.83h24.6V50.11h8.13v8.13h-7.9v3.61h7.9v8.81h-7.9v26.4h-6.78L98.2,87.69l-8.57,8.57-6.2-6.2L97.65,75.84,105,83.17V46.72ZM76.87,84.57C76.87,103.3,88.61,112,103.1,112s26.26-8.61,26.26-27.38V31.16H76.88S76.87,65.84,76.87,84.57ZM57.53,53.75S56,56.06,49.91,57.36l7.62,7Zm67.08,78c1.73,0,1.73-1.27,1.75-2.59V116.9h3.5v12.91c0,1.88-.21,5.08-5.26,5.08-3.26,0-5.21-1.53-5.21-4.85V116.9h3.49v11.46C122.88,129.71,122.72,131.71,124.61,131.71Zm9,6.75v3.27h-3.54v3.86h3.13v3.3h-3.13v4h3.6v3.3h-7.1V138.46Zm-1-21.56h4l1,2.48a21.08,21.08,0,0,1,.85,2.69h.05a18.52,18.52,0,0,1,.79-2.69l1.05-2.48h3.8l-3.8,8.56,4.08,9.15h-4.08l-1.12-2.82c-.32-.9-.53-1.77-.77-2.65h0c-.26.88-.47,1.75-.79,2.65l-1,2.82h-4l3.76-9.15Zm10.66,39.27-.66-3h-3.54l-.64,3H135l4.11-17.71h3.67l4.26,17.71Zm-22.39,0-.86-12.76h0l-.57,4.37-1.5,8.39h-2.7l-1.71-8.49-.59-3.94v-.33h0l-.53,12.76h-3.75l1.55-17.71h4.6l1.71,10.44h0L118,138.46h4.7l1.84,17.71ZM109.59,116.9h3.5v14.43h3.65v3.28h-7.15Zm-4.5-2.72v60a12.67,12.67,0,0,1,8.12-3.38h37.25V96.36H130.38S124.67,113.92,105.09,114.18Zm-15,7.71a2,2,0,0,0-2.36-2.21h-.47v4.72l.6,0C89.42,124.42,90.05,123.35,90.05,121.89ZM140.86,143h-.05l-.37,2.68-.75,4.71h2.45l-.88-4.71ZM46.65,64.15h0a23,23,0,0,1-11.9,5.42l2.31,2.18,24.36-.11-7.55-7.56h0L50,60.24A44,44,0,0,1,46.65,64.15ZM182.58,160a1.62,1.62,0,1,0-1.61,1.61A1.62,1.62,0,0,0,182.58,160Zm9.4-27.52a1.61,1.61,0,1,0-1.61-1.6A1.6,1.6,0,0,0,192,132.43Zm-10.33-12s-3.24,8.92,8,23.45c0,0,16.23-6.44,17.86-22.56,0,0-12.87,5-16.77,18.64C190.79,140,190.62,126.35,181.65,120.47Zm12.31,4s-2.53-13.42-12.4-17.65c0,0-1.64,9.35,12,21.69,0,0,14.86-9.16,13.67-25.32C207.23,103.22,195.41,110.33,194,124.5ZM174.8,146.74s-6.1,7.26-.45,24.78c0,0,17.45-.49,24.48-15.07,0,0-13.77.23-22.14,11.76C176.69,168.21,181.22,155.34,174.8,146.74Zm19.57-38.08s-4.82-12.74-15.26-15.22c0,0,0,9.49,15.58,19.28,0,0,13-11.6,9.06-27.3C203.75,85.42,193.35,94.47,194.37,108.66Zm-11.18,70.21a24.49,24.49,0,0,0,7.32-7,30.91,30.91,0,0,0-12.61,1.54ZM81.6,145.58l-.41-2.68h0l-.38,2.68L80,150.29H82.5ZM29.77,41c-11,11.88-5.14,28.3-5.14,28.3C43,68.17,47.54,59.85,47.54,59.85c-10.34-2.84-20.68,6-20.68,6C34.55,53.91,29.77,41,29.77,41Zm68.9,142.16h10.59s.7-4.6,3.69-4.6h44V101.19l-4.38-4.61v76.66H113.19a15,15,0,0,0-9.45,5.52,13.59,13.59,0,0,0-10.12-5.29H55.17V97.27L50.45,102v76.55H93.38S98.67,178.76,98.67,183.14ZM16.4,101.72a1.61,1.61,0,1,0-1.61,1.6A1.61,1.61,0,0,0,16.4,101.72ZM15,95.09c3.13-13.88-5.78-24.4-5.78-24.4-6.3,14.94,4.85,28.36,4.85,28.36,16.87-7.33,18.31-16.7,18.31-16.7C21.67,83.21,15,95.09,15,95.09ZM3.09,87.76c-3.61,15.81,9.69,27.09,9.69,27.09C28.12,104.7,27.91,95.21,27.91,95.21,17.53,97.92,13,110.79,13,110.79,13.69,96.58,3.09,87.76,3.09,87.76ZM20.6,56.26s-.93-5.73,5-14.3H5.45S6.31,44.3,20.6,56.26ZM74,86.14v-2.2L63.45,73.45H38.85l13.9,12.69ZM48.6,174.94c.07.73.2-.16.2-.16V164.31l-1.72,1.92A36.45,36.45,0,0,1,48.6,174.94ZM22.76,72.07a1.61,1.61,0,1,0,1.61-1.61A1.6,1.6,0,0,0,22.76,72.07ZM48.52,186.66a1.61,1.61,0,1,0-1.61-1.61A1.6,1.6,0,0,0,48.52,186.66ZM59.73,66.79,74,80.77V70L59.73,55.72ZM48.67,150H41.9v8.57h6.77ZM142.9,57.87l-11.07,12L132,89.13a21.64,21.64,0,0,1-1,4.73h7.11l20.31-20.31ZM83,116.79v3.29H79.45v3.86h3.12v3.28H79.45v4h3.6v3.28H76V116.82l-4.89,17.67H68.18l-5.1-17.7h3.75l2.11,8.49c.31,1,.43,2,.64,3h0c.19-1,.26-2,.54-3.08l2.13-8.45Zm4.4,39.26H83.66l-.66-3H79.46l-.63,3H75.34l4.12-17.71h3.69Zm-3.68-39.26h3.52c2.22,0,6.21.24,6.21,5.08a4.92,4.92,0,0,1-2.5,4.57L94,134.49H90.34l-3.09-8.16h0v8.16h-3.5Zm11,0H98.2v17.7H94.71Zm-2.6,39.53a5.37,5.37,0,0,1-3-.89V152.1a4.4,4.4,0,0,0,2.64.94,1.9,1.9,0,0,0,2-1.92c0-1.37-1.09-1.89-2.06-2.59-2-1.36-3.27-2.66-3.27-5.26,0-2.79,1.63-5.21,4.63-5.21a6.08,6.08,0,0,1,3.1.88v3.4a4,4,0,0,0-2.54-1.13,1.63,1.63,0,0,0-1.77,1.73c0,2.93,5.34,3.08,5.34,7.87C97.21,154,95.41,156.32,92.11,156.32ZM74.73,141.63H71.94v14.42H68.45V141.63H65.71v-3.29h9ZM57.25,96.36v74.47h36.9c4.17.11,8.46,3.38,8.46,3.38V114.62c-22.35-.48-26.85-18.26-26.85-18.26Zm1.61,96.93a43.23,43.23,0,0,0-2.66-13.13H49.66a32.61,32.61,0,0,0,5.79,10.9c-12-7.7-24.9-2.91-24.9-2.91C42.43,199.18,58.86,193.29,58.86,193.29ZM36.66,74,33.38,70.9c-8,2-13.73,9.08-13.73,9.08,3.73-8.94,1.71-17.3,0-21.74l-2.4-2c-6.89,13.07.76,27.42.76,27.42C28.65,81.16,34,77,36.66,74ZM18.82,174.31c9.79,12.93,27,10,27,10,2.08-18.29-5.32-24.22-5.32-24.22-4.6,9.71,2.34,21.43,2.34,21.43C32.38,171.84,18.82,174.31,18.82,174.31Zm29.63-64.87H41.68V118h6.77Z"/></g></g></svg>