<svg id="Layer_1" data-name="Layer 1" xmlns="http://www.w3.org/2000/svg" viewBox="0 0 1500 300.01"><defs><style>.cls-1{fill:#010101;}</style></defs><title>Mini-K Logo-Landscape-Black</title><path class="cls-1" d="M280.76.68a25,25,0,0,0-28.1,13.11L149.59,219.1,47.38,13.86A25,25,0,0,0,0,25V274.29a25,25,0,0,0,50,0v-143l77.12,154.86A25,25,0,0,0,149.46,300h0a25,25,0,0,0,22.34-13.78L250,130.53V275a25,25,0,0,0,50,0V25A25,25,0,0,0,280.76.68Z"/><path class="cls-1" d="M425.09,0a25,25,0,0,0-25,25V275a25,25,0,0,0,50,0V25A25,25,0,0,0,425.09,0Z"/><path class="cls-1" d="M924.91,0a25,25,0,0,0-25,25V275a25,25,0,0,0,50,0V25A25,25,0,0,0,924.91,0Z"/><path class="cls-1" d="M775,0a25,25,0,0,0-25,25V203.73L594.52,9.39A25,25,0,0,0,550,25V275a25,25,0,0,0,50,0V96.27L755.48,290.62A25,25,0,0,0,800,275V25A25,25,0,0,0,775,0Z"/><path class="cls-1" d="M1125,128h-50a25,25,0,0,0,0,50h50a25,25,0,0,0,0-50Z"/><path class="cls-1" d="M1486.29,253.71,1322,152.59,1488.48,46.06a25,25,0,1,0-27-42.11L1300,107.32V25a25,25,0,0,0-50,0V275a25,25,0,0,0,50,0V197.75l160.08,98.54a25,25,0,0,0,26.21-42.58Z"/></svg>