<svg xmlns="http://www.w3.org/2000/svg" viewBox="0 0 503.75 620.89"><defs><style>.cls-1,.cls-2{stroke:#000;stroke-miterlimit:10;}.cls-2{fill:none;stroke-linecap:round;stroke-width:10px;}</style></defs><g id="Layer_2" data-name="Layer 2"><g id="Layer_1-2" data-name="Layer 1"><path class="cls-1" d="M239,103.54c-3.69-5-8.65-7.62-14.58-8.6a21.28,21.28,0,0,0-7.55,0,31.54,31.54,0,0,1-3.65.36c-1.43.1-2.81-.23-2.91-1.87A2.55,2.55,0,0,1,212.6,91a97.32,97.32,0,0,1,15.05-1.86c8.56-.48,16.24,2.18,23.7,5.87a2.46,2.46,0,0,0,2.71-.27c3.92-2.51,7.81-5.07,11.79-7.48,1.28-.78,1.13-1.35.47-2.48-4.51-7.85-11.81-11.91-19.95-14.79a99.68,99.68,0,0,0-13.54-4.26,60.29,60.29,0,0,0-20.5-.32,2.72,2.72,0,0,0-1.87,1.44c-4.88,7.58-8.53,15.78-12.11,24a45.81,45.81,0,0,0-2.26,7.73,37.41,37.41,0,0,1-2.05,6.79c-.5,1.12-.51,2.71-2.4,2.45s-3.15-1.08-3.5-3.11a15.23,15.23,0,0,1,.53-5.83,136.47,136.47,0,0,1,8.51-26.21c.89-2,2.74-3.42,3.72-5.8a57.84,57.84,0,0,0-12.59,2.3c-8.13,2.28-15.67,6-23.21,9.74-1.29.64-1.22,1.61-1.17,2.66.43,9.92-2.42,19.23-5.53,28.42a43.69,43.69,0,0,1-8.27,14.64c-1,1.12-.93,1.66.46,2.23,7.7,3.18,12.95,9.48,18.88,14.93.42.38.9.88.71,1.47s-.94.77-1.62.84a3.88,3.88,0,0,1-3.09-1.18c-3.15-2.84-5.9-6.11-9.38-8.57-2.4-1.69-4.76-3.46-7.27-5-6.51-3.89-13.21-2.26-19.84-.34a36.46,36.46,0,0,0-4.25,1.89c-5.39,2.33-6.51,7.34-7.81,12.28-1.72,6.54.37,12.47,3,18.26a64.7,64.7,0,0,0,9.89,16.25,1.59,1.59,0,0,0,1.35.82,54.47,54.47,0,0,1,.8-8.14A16.67,16.67,0,0,1,139,159.73a56.63,56.63,0,0,1,12.26-6.53,9,9,0,0,1,8.62.9c.46.28,1.11.62.82,1.31s-1,.52-1.51.38c-4.76-1.34-8.11,1.16-11.79,3.7-10.44,7.23-9.76,24.24-4.68,32.26a35.07,35.07,0,0,0,12.71,11.66c4.64,2.55,8.66,6.15,13.77,7.87,1.25.42,1.49,1.06.1,1.94-2.69,1.73-5.22.5-7.37-.69a176.37,176.37,0,0,1-32.74-23.47l-.17-.17c-4.07-4-4.07-4-9-.84a43,43,0,0,0-9.14,7.33c-2.41,2.71-2.54,3.61-.52,6.53a69.83,69.83,0,0,0,16.53,16.55,32.37,32.37,0,0,1,6,5.65c1.26,1.54,1.28,2.87-.39,4.18-2,1.54-4.46,2.45-6.55.05-5.06-5.81-11.73-9.9-17.08-15.43-1.53-1.59-3.22-3-4.73-4.63-4.14-4.37-4.38-10.39,1.36-15.93a69.51,69.51,0,0,1,14.29-10.25c1.35-.75,1.78-1.41.63-2.78-4-4.77-6.09-10.57-8.48-16.19a39.07,39.07,0,0,1-3.07-14.27c-.21-7.27,3.44-12.49,8.75-16.9,6.73-5.58,14.68-7.38,23.15-7.62a2.86,2.86,0,0,0,1.92-.75c4.09-3.37,6.39-8,8.7-12.54,4-8,5.43-16.7,7.1-25.35a6.5,6.5,0,0,0-.3-2.4c-.22-1.25-.81-1-1.49-.49-8.28,6.33-16.09,13-20.61,22.83a45.73,45.73,0,0,0-4.43,15.13,1.54,1.54,0,0,1-1,1.47,15.68,15.68,0,0,1-1.62.59c-4.74,1.43-5.29.94-4.22-3.85A20.58,20.58,0,0,1,127,112.5c.94-1.54.66-3-.53-4.47-8.76-10.92-16-22.83-22.87-35C98.42,64,92.62,55.35,85,47.92A133.49,133.49,0,0,1,70.15,30.44C66.64,25,63.2,19.2,60,13.5c-.7-1.26-1.65-2.41-1.87-3.86s1.57-2,3.06-2.7A64.17,64.17,0,0,1,80.55,1.7C84.83,1.15,89.14.84,93.47.58c12-.74,22,3.83,31.2,10.75a95.25,95.25,0,0,1,15.2,14.16,69.73,69.73,0,0,1,5.42,7.82c3.71,5.75,7.86,11.2,10.94,17.37,2.89,5.77,5.84,11.48,6.88,17.94a28.26,28.26,0,0,1,.38,3.17c.14,2.75.16,2.85,2.78,1.69,10.47-4.66,21.28-8.39,32.62-10,4.66-.68,7.72-2.89,10.83-6.09a99.26,99.26,0,0,1,34.43-22.79c7.74-3.13,16-3.85,24-5.51,10.3-2.11,20.1.44,29.89,3.06s19,6,27.49,11.39a28.26,28.26,0,0,1,4.28,3.23c1.63,1.56,1.07,2.58-.59,3.32a56.42,56.42,0,0,0-10.31,6.08c-7.23,5.29-15,9.77-22,15.44-4.1,3.34-8.45,6.38-12.43,9.9-1.16,1-1.2,1.52.18,2.15A141.75,141.75,0,0,1,301.56,93a76.66,76.66,0,0,1,9.84,6.81c2.75,2.4,3.9,5.81,5.46,8.86a95.39,95.39,0,0,1,8.54,24.12c1.42,6.77,2.55,14.34,1.55,21.09a35.75,35.75,0,0,1-2.64,11,78.08,78.08,0,0,1-4.05,8.64q-5.44,9.81-11.2,19.45c-1.44,2.41-5.08,3.75-7.21,3.11-.48-.15-1-.27-1.08-.84a1,1,0,0,1,.74-1.15c2.94-1,4.45-3.5,5.88-5.86a97.2,97.2,0,0,0,9.68-23.18c1.19-4.07,2.15-8.19,3-12.34a21.63,21.63,0,0,0-.83-10.84c-.85-2.79-6.9-5.49-10.29-4.68a55.56,55.56,0,0,0-18,8,22.48,22.48,0,0,1-3.24,1.58c-4.54,2.12-5,5.85-5.52,10.64-.36,3.62-.41,7.09-1,10.63-.23,2.46-.24,5.05-.55,7.56-.78,6.33-2.44,12.48-3.84,18.69-.54,2.38-.86,4.81-1.27,7.22-.65,3.83-4.94,6-8,6-.48,0-1-.14-1.11-.74a1.13,1.13,0,0,1,.55-1.27c1.55-.72,1.46-2.16,1.72-3.51.64-3.37.64-7,1.47-10.31.42-7.41,1.45-12.83,1.92-19.41.35-5,1.51-10.28,2.18-15.52.45-3.56.85-7.15,1-10.73.09-2.92-.95-3.32-3.69-2.45-5,1.58-8,5.43-11.15,9.13-2.08,2.42-4.25,4.75-6.41,7.09a4,4,0,0,1-2.46,1.46c-2.31.34-3.25-.25-3.39-2.59-.24-4.16-.63-8.33-.5-12.49.32-10.15-3.89-18.4-10.27-25.83a4,4,0,0,0-4.84-1.11A82.71,82.71,0,0,1,209,124.16c-1.3.08-3.38.75-3.7-.75s1.88-1.57,3.06-2c3.72-1.42,6.59-4.17,10-6.12,6.14-3.55,12.34-7,18.51-10.46C237.54,104.4,238.23,104,239,103.54ZM95.69,5.71A57.1,57.1,0,0,1,89.46,6c-7.54-.6-14,2.43-20.44,5.75C65.68,13.45,65.77,13.6,67.6,17c.47.87.87,1.76,1.34,2.62,2.15,3.91,5.13,7.47,7.8,11.08,2.1,2.85,3.48,5.75,6.1,8.09,10.18,9.11,19,19.34,24.66,31.87,5.34,11.91,13.49,21.85,21,32.28,1.23,1.71,1.92,1.25,2.66-.35,2.54-5.46,6.63-9.59,11.25-13.32s9.28-7.48,14.2-10.83A2.93,2.93,0,0,0,158,75a90.83,90.83,0,0,0-3.7-13.89c-4.78-12.27-12.25-23-19.77-33.65-.71-1-1.81-1.6-2.61-.42-3,4.49-7.7,7-12,9.91a35,35,0,0,1-16.79,5.95,4.68,4.68,0,0,1-2.81-.69A2,2,0,0,1,99.2,40.7c-.09-.88.77-.92,1.27-1.27,1.23-.86,2.7-.56,4-.81,6.08-1.13,10.8-4.84,15.7-8.2a27.55,27.55,0,0,0,7.22-7.26,2.3,2.3,0,0,0-.41-3.41C118,11.22,106.86,7.47,95.69,5.71ZM323.22,48a7.48,7.48,0,0,0-.78-1c-5.26-4.66-11.16-8.41-17.91-10.27a114.07,114.07,0,0,0-19.89-4A82,82,0,0,0,244,39.26,93.76,93.76,0,0,0,219.4,55.47c-1.47,1.31-2.82,2.73-4.17,4.15-.43.45-1,1.08-.61,1.72s1,.29,1.6.21c1.45-.22,2.89-.6,4.34-.73,15.33-1.41,29,2.87,41.37,11.89a19.23,19.23,0,0,0,5.3,3,61.56,61.56,0,0,1,9.39,3.49,1.84,1.84,0,0,0,2.05-.12,29.44,29.44,0,0,1,3.72-2.31c1.83-.81,1.81-1.9,1.15-3.51C279.28,62.73,271.16,56.6,260.77,53c-2.92-1-5.93-1.72-8.87-2.64-1.6-.5-1.76-1.59-.47-2.69,1.82-1.56,3.95-1.53,6-.88,7.77,2.41,15.16,5.62,21.16,11.3,4,3.78,8.48,7.26,10.19,12.9.32,1,1.12.72,1.79.29q6.19-3.93,12.37-7.9c.62-.4,1.25-.82.8-1.77-1.62-3.38-3-6.87-6-9.36a16.61,16.61,0,0,0-6.28-3.65c-.88-.23-1.76-.78-1.62-1.86s1.22-.85,2-.91A8.38,8.38,0,0,1,298,47.66a36.51,36.51,0,0,1,9.24,10.67c.47.85.83,1.68,2,.77,4.35-3.43,9.28-6.11,13.17-10.14C322.66,48.67,322.9,48.35,323.22,48Zm-62.47,93a13.37,13.37,0,0,0,1.56-1.17,56.47,56.47,0,0,1,13.25-10.37c2.41-1.42,5.17-1.69,6.82,0,1.28,1.3,1.55.44,2-.49a41.57,41.57,0,0,0,3.8-18.07c0-4.49.47-8.31,4.45-11.32,2.5-1.88,4.7-2.37,7.43-1.27a14.5,14.5,0,0,1,8.82,9.82c1.5,5,1.19,10,.73,15.05-.27,3-1.43,5.92-2.22,9.34,3.69-1.59,7.05-2.86,10.73-2,2.4.59,2.36-.53,1.8-2.36-1.58-5.24-3.52-10.35-5.59-15.41A32.5,32.5,0,0,0,302.81,97.9c-3.83-2.65-8.06-4.55-12.2-6.64a51.26,51.26,0,0,0-11-3.77,2.28,2.28,0,0,0-2.47.51c-4.24,4.33-9.28,7.72-13.8,11.72-1.16,1-1.27,1.86-.92,3.35,2.1,8.87,3,17.78,1.17,26.9C262.86,133.47,261.6,136.82,260.75,141Zm8.3-62.28A5.47,5.47,0,0,0,270.76,82c.44.49.73,1.46,1.67.86.72-.47,1.89-.66,2-1.57s-1.05-1.08-1.73-1.38A8.88,8.88,0,0,0,269.05,78.72Z"/><path class="cls-1" d="M192.67,178c-.14,6.38-2.81,11.67-4.53,17.24a6.24,6.24,0,0,1-1.14,1.85,1.84,1.84,0,0,1-2.62.43,2,2,0,0,1-1.13-2.62c2.2-6.14,2-12.55,1.81-18.9a11.44,11.44,0,0,0-3.49-7.85c-2-1.92-4.5-1.61-6.92-.85-.85.27-1.61.81-2.45,1.12a1.92,1.92,0,0,1-2.59-.71,2.49,2.49,0,0,1,.45-3.08c3.15-2.44,6.39-4.54,10.64-4.95a9.82,9.82,0,0,1,9.61,4.38c2.34,3.18,3.26,6.9,4.11,10.64a5.63,5.63,0,0,0,2.6,4c1.6.94,3,.29,3.48-1.5.56-2.16-.29-4.05-1.05-5.91-2.28-5.56-3.94-11.46-8.33-15.93a11.6,11.6,0,0,0-10.92-3.49,8.74,8.74,0,0,1-4.13,0c-.59-.19-1.31-.46-1.35-1.25a2,2,0,0,1,.95-1.64c3.69-2.59,16.41-1.89,20.14.76,6.77,4.79,9.75,11.37,9.92,19.47,0,1.46.26,2.93.42,4.39,0,.37,0,.86.47,1s.74-.27.91-.61c4.63-9.1,7.85-18.29,2.88-28.42-3.82-7.77-11.23-9.66-18.53-7.54-6.41,1.87-12.48,4.32-17.25,9.21-.57.58-1,.6-1.64,0-.76-.77-.57-1.41,0-2.14a40,40,0,0,1,8.9-7.92,37.68,37.68,0,0,1,16.58-6.09,13.93,13.93,0,0,1,5.76.72c9.26,2.7,14.92,8.35,15.14,18.78.14,6.36.23,12.75-2.86,18.8a4.21,4.21,0,0,0,3-.72,38.43,38.43,0,0,1,19.19-3.86,18.12,18.12,0,0,1,8.23,2.86c1.76,1,1.73,3.12,1.39,4.9a73.86,73.86,0,0,1-3.21,12c-3.77,9.92-8.65,19.33-13.51,28.76-1.27,2.45-2.37,5-3.64,7.45a4.21,4.21,0,0,1-2.58,2.45c-3,.74-5.59,2.21-8.34,3.44-.67.3-1.59,1.07-2.19.13a2.18,2.18,0,0,1,.4-2.46,163.29,163.29,0,0,0,18.37-35.5,27.32,27.32,0,0,0,2.21-11.2c-.27-5.06-2.69-7-7.54-5.56-5,1.47-10,2.84-14.67,5.4-2.5,1.38-3.62,3.75-5.08,5.8-3.73,5.26-8.71,9.25-13.3,13.61-5.55,5.28-11.53,10.12-17.29,15.19a20.4,20.4,0,0,1-5.15,3.26c-.48.22-1,.82-1.52.21s-.05-1.09.34-1.66c2.9-4.28,7.35-6.9,11-10.4,6.14-6,12.89-11.3,18.43-17.91,1.33-1.59,1.42-2.39-.66-2.91C197.43,182,195.27,180,192.67,178Z"/><path class="cls-1" d="M190.26,602.57c0-.65,0-1.31,0-2,.45-8.13,5.87-14,14-15.77,5.66-1.24,10.78-.8,15.53,2.71,9.59,7.09,8.74,23.19-1.55,29.16a25.81,25.81,0,0,1-13.77,3.67c-7.73-.17-14.07-7.25-14.23-15.85,0-.65,0-1.3,0-2Z"/><path class="cls-1" d="M127.54,158.42a10.73,10.73,0,0,1,.17-2c.59-1.75.6-2.69-1.81-2.15-1.62.36-2.41-.95-1.64-2.47,3.24-6.38,8.11-10.65,15.41-11.7,1.44-.21,2.86-.53,4.3-.74a1.88,1.88,0,0,1,2.17,1.22c.27.81-.29,1.47-1,2-5.19,4.23-9.53,9.1-11.84,15.53a6,6,0,0,1-.88,1.47c-.87,1.17-2,2.9-3.29,2.5C127.45,161.63,127.61,159.53,127.54,158.42Z"/><path class="cls-1" d="M112.85,56.2c-.78-.29-2.84.71-3-1.21-.17-1.65,1.54-2.22,3-2.59,2.69-.65,5.34-1.47,8-2.1a18.31,18.31,0,0,0,10-6.67,14.93,14.93,0,0,1,2-1.67,1.79,1.79,0,0,1,2.45,0c1,.73.21,1.56-.11,2.14A23.56,23.56,0,0,1,130,49.83,24.17,24.17,0,0,1,112.85,56.2Z"/><path class="cls-2" d="M330.81,92.53s250.76,46.83-87.12,226c0,0-188.52,109.31-52.68,233.58"/><path d="M34.14,291.38a6.76,6.76,0,0,1-.1,1,8.38,8.38,0,0,1-.31,1.19c-.13.42-.28.81-.44,1.19a3.47,3.47,0,0,1-.56.9h0c-.62.73-2.07,1.1-4.35,1.1a18.94,18.94,0,0,0-.11-2.15,4.86,4.86,0,0,0-.33-1.45,1.68,1.68,0,0,0-.72-.78,4.92,4.92,0,0,0-1.16-.52,8.84,8.84,0,0,0-1.31-.3,7.56,7.56,0,0,0-1.16-.1c-.82,0-1.63,0-2.42.05s-1.56.12-2.32.23a22,22,0,0,0-2.3.49,22.31,22.31,0,0,0-2.38.81c-.57.23-1.18.52-1.83.86a13.9,13.9,0,0,0-1.8,1.17,7.9,7.9,0,0,0-1.42,1.41,3.64,3.64,0,0,0-.74,1.63l0-.06a3.3,3.3,0,0,0,.46,1.55,8,8,0,0,0,1.26,1.67A10.43,10.43,0,0,0,12,302.74a7.7,7.7,0,0,0,2.19,1l.49.17,1,.33,1.23.42,1.21.42,1,.31.44.16q6.69,1.71,9.91,4.09a7.11,7.11,0,0,1,3.23,5.88,5.41,5.41,0,0,1-.49,2.23,11.08,11.08,0,0,1-1.24,2.12,15.29,15.29,0,0,1-1.63,1.86,15,15,0,0,1-1.65,1.42l0,0q-.84.66-1.89,1.35c-.7.46-1.45.91-2.26,1.35s-1.64.86-2.51,1.24a24.91,24.91,0,0,1-2.65,1c-.84.27-1.73.52-2.66.76s-1.86.45-2.78.62-1.81.31-2.67.41a22.4,22.4,0,0,1-2.32.14,8.19,8.19,0,0,1-1.34-.13c-.52-.09-1.08-.21-1.67-.36s-1.17-.34-1.75-.55a9.15,9.15,0,0,1-1.57-.72,4.78,4.78,0,0,1-1.13-.86,1.4,1.4,0,0,1-.43-1,4.77,4.77,0,0,1,.17-1.12A6.19,6.19,0,0,1,.68,324a4.48,4.48,0,0,1,.78-1.06,1.31,1.31,0,0,1,1-.45,5.31,5.31,0,0,1,1.35.17l1.43.39c.53.15,1.14.28,1.84.41a15.83,15.83,0,0,0,2.61.18,16.81,16.81,0,0,0,3.24-.33,26,26,0,0,0,3.33-.89,28.24,28.24,0,0,0,3.14-1.28,25.17,25.17,0,0,0,2.71-1.5l1.14-.79a10.81,10.81,0,0,0,1.15-1,6.87,6.87,0,0,0,.89-1.11,2.22,2.22,0,0,0,.36-1.18c0-.46-.34-.9-1-1.33v0a14.88,14.88,0,0,0-3-1.41c-1-.33-1.87-.59-2.62-.81a68.08,68.08,0,0,1-7.72-2.56h0a19.71,19.71,0,0,1-3.69-1.93,19.38,19.38,0,0,1-3.08-2.48,10.65,10.65,0,0,1-2.89-7.37,6.16,6.16,0,0,1,.93-3.2A12,12,0,0,1,5,291.59a21.59,21.59,0,0,1,3.68-2.52,29.4,29.4,0,0,1,4.45-2A33.22,33.22,0,0,1,18,285.82a25.65,25.65,0,0,1,4.77-.46c.48,0,1.08,0,1.8.1s1.46.16,2.22.29,1.48.28,2.17.46a6.91,6.91,0,0,1,1.65.62h0A8,8,0,0,1,33.17,289,3.94,3.94,0,0,1,34.14,291.38Z"/><path d="M76.69,307.48a2.72,2.72,0,0,1-.16,1,3.28,3.28,0,0,1-.49.83,8.45,8.45,0,0,1-.85.91c-.35.33-.77.74-1.27,1.24L71.39,314c-.54.54-1,1-1.41,1.36l-1.17,1c-.37.32-.76.64-1.17,1l-1.47,1.22c-1.25,1.06-2.47,2.05-3.68,3s-2.4,1.75-3.55,2.48a22.37,22.37,0,0,1-5.56,2.53,21.52,21.52,0,0,1-6.28.9,8.8,8.8,0,0,1-3.83-.8,8.29,8.29,0,0,1-2.82-2.13,9.17,9.17,0,0,1-1.75-3.14,12.17,12.17,0,0,1-.59-3.79A19.66,19.66,0,0,1,39.7,310a34.33,34.33,0,0,1,4.35-7.5,21.77,21.77,0,0,1,1.63-1.93,17.8,17.8,0,0,1,2-1.83,11.17,11.17,0,0,1,2.13-1.35,4.8,4.8,0,0,1,2.13-.54,2.56,2.56,0,0,1,1.34.39,5.75,5.75,0,0,1,1.27,1.05,11.29,11.29,0,0,1,1.17,1.54,18.72,18.72,0,0,1,1,1.89,8.36,8.36,0,0,1,.92,2.94,10.13,10.13,0,0,1-.1,1.2,5.56,5.56,0,0,1-.38,1.34,3.43,3.43,0,0,1-.73,1.08,1.66,1.66,0,0,1-1.18.44,2.38,2.38,0,0,1-1.76-.68,5.84,5.84,0,0,1-1.15-1.57,10.76,10.76,0,0,1-.74-1.75,6.06,6.06,0,0,0-.5-1.24,4.33,4.33,0,0,0-1.46,1,12.29,12.29,0,0,0-1.51,1.84,18.94,18.94,0,0,0-1.41,2.46,25.23,25.23,0,0,0-1.17,2.91,25.64,25.64,0,0,0-.8,3.16,16.6,16.6,0,0,0-.31,3.2,3.56,3.56,0,0,0,1.07,2.56,3.35,3.35,0,0,0,2.25,1.21,16.87,16.87,0,0,0,6.32-1.21,27.46,27.46,0,0,0,5.86-3.23c1.27-.9,2.59-1.91,4-3s2.9-2.47,4.55-4c.59-.58,1.2-1.13,1.8-1.66a19.48,19.48,0,0,1,1.79-1.4,12,12,0,0,1,1.67-1,3.43,3.43,0,0,1,1.48-.37C76.19,305.9,76.69,306.43,76.69,307.48Z"/><path d="M102.73,308.89a4.1,4.1,0,0,1-.5,1.69,18.18,18.18,0,0,1-1.39,2.28c-.58.83-1.28,1.72-2.08,2.68s-1.68,1.92-2.63,2.92a46.12,46.12,0,0,1-3.31,3.22Q91,323.27,89,324.74A19.19,19.19,0,0,1,85.1,327a9.63,9.63,0,0,1-3.66.79,8.41,8.41,0,0,1-3.5-.67,7.56,7.56,0,0,1-2.53-1.85,9.76,9.76,0,0,1-1.72-2.68,18.07,18.07,0,0,1-1-3.19,23.16,23.16,0,0,1-.53-3.42c-.1-1.15-.15-2.25-.15-3.28,0-.4,0-1,.09-1.82s.14-1.65.24-2.55.23-1.75.35-2.59a19.47,19.47,0,0,1,.39-2,5.7,5.7,0,0,1,2-2.68,5.17,5.17,0,0,1,3.34-1.21c1.25,0,1.87.75,1.87,2.25a14.06,14.06,0,0,1-.19,2.26c-.12.79-.26,1.58-.41,2.34-.25,1.41-.43,2.67-.52,3.79s-.15,2.12-.15,3a22.18,22.18,0,0,0,.18,2.86,14.22,14.22,0,0,0,.5,2.46,5.43,5.43,0,0,0,.84,1.74,1.46,1.46,0,0,0,1.19.66,11.18,11.18,0,0,0,1.79-.15,8,8,0,0,0,2.22-.85A33.75,33.75,0,0,0,91,316.53c.65-.54,1.4-1.18,2.23-1.92s1.67-1.49,2.49-2.27,1.61-1.54,2.34-2.29,1.3-1.4,1.73-1.93a2.23,2.23,0,0,1,.24-.36q.17-.22.36-.45a2.11,2.11,0,0,1,.45-.39.91.91,0,0,1,.47-.16,1.46,1.46,0,0,1,.68.13,1.75,1.75,0,0,1,.47.79A3,3,0,0,1,102.73,308.89Zm-17.92-23.7a5.39,5.39,0,0,1-.29,1.8,6,6,0,0,1-.83,1.59,3.86,3.86,0,0,1-3.37,1.53,10.18,10.18,0,0,1-1.64-.14,7.41,7.41,0,0,1-1.5-.41,3.39,3.39,0,0,1-1.1-.66,1.25,1.25,0,0,1-.43-.92,4.44,4.44,0,0,1,.46-1.89,8.08,8.08,0,0,1,1.2-1.84,7.09,7.09,0,0,1,1.61-1.41,3.11,3.11,0,0,1,1.69-.56,10.53,10.53,0,0,1,1.78.13,3.61,3.61,0,0,1,1.31.44,2.08,2.08,0,0,1,.82.89A3.15,3.15,0,0,1,84.81,285.19Z"/><path d="M134.56,307.43a5,5,0,0,1-.77,1.9,51,51,0,0,1-3.33,4.27,46.26,46.26,0,0,1-3.9,4,48,48,0,0,1-4.33,3.53,33.91,33.91,0,0,1-4.55,2.81,26,26,0,0,1-4.59,1.86,15.83,15.83,0,0,1-4.48.68q-4.94,0-7.68-2.78t-2.75-8.4a30.76,30.76,0,0,1,.32-4.42,23.45,23.45,0,0,1,1-4.3,25,25,0,0,1,1.91-4.16,24,24,0,0,1,2.91-4,11.8,11.8,0,0,1,1.49-1.39,13.09,13.09,0,0,1,1.81-1.18,11.44,11.44,0,0,1,2-.83,7.27,7.27,0,0,1,2.09-.32,5.58,5.58,0,0,1,2.63.58,5.17,5.17,0,0,1,1.83,1.54,6.58,6.58,0,0,1,1.07,2.21,10,10,0,0,1,.34,2.64,9.4,9.4,0,0,1-1.9,5.32,30,30,0,0,1-5.27,5.63c-.73.61-1.57,1.28-2.53,2s-2,1.53-3.23,2.44a3.28,3.28,0,0,0,.42,1.35,3.67,3.67,0,0,0,1,1.11,5,5,0,0,0,1.48.75,6.59,6.59,0,0,0,2,.27,13.61,13.61,0,0,0,3-.36,23.07,23.07,0,0,0,3.14-1,28.46,28.46,0,0,0,3-1.4,25.1,25.1,0,0,0,2.68-1.66,47.73,47.73,0,0,0,4.1-3.3q2-1.77,3.82-3.61l1.53-1.53a4.48,4.48,0,0,1,2.71-1.41.82.82,0,0,1,.79.39A1.46,1.46,0,0,1,134.56,307.43Zm-22.47-5.31a5.34,5.34,0,0,0-.13-1.21,1,1,0,0,0-.41-.72,3.52,3.52,0,0,0-2.09.84,9.3,9.3,0,0,0-2.12,2.38,18.07,18.07,0,0,0-1.8,3.71,23.73,23.73,0,0,0-1.17,4.83c.91-.67,1.81-1.38,2.73-2.12a22.89,22.89,0,0,0,2.47-2.32,12.07,12.07,0,0,0,1.82-2.55A6,6,0,0,0,112.09,302.12Z"/><path d="M179.54,306.73a3.89,3.89,0,0,1-.21,1.2,9.16,9.16,0,0,1-.5,1.28,11.52,11.52,0,0,1-.66,1.2,9.45,9.45,0,0,1-.68.93c-.61.77-1.3,1.59-2.06,2.45s-1.55,1.72-2.38,2.57-1.67,1.65-2.53,2.43a23.87,23.87,0,0,1-2.59,2c-.68.46-1.33.89-2,1.28a15.06,15.06,0,0,1-1.93,1,10.45,10.45,0,0,1-4.54,1,6.76,6.76,0,0,1-3.58-.86,6.84,6.84,0,0,1-2.32-2.31,11.62,11.62,0,0,1-1.37-3.29,32.91,32.91,0,0,1-.74-3.88,31.61,31.61,0,0,0-.83-4.33c-.31-1.07-.68-1.6-1.12-1.6a2.54,2.54,0,0,0-1.13.27,5.39,5.39,0,0,0-1.37,1.17,30.06,30.06,0,0,0-2.07,2.61q-1.26,1.71-3.27,4.56c-.46.65-1,1.38-1.69,2.19s-1.35,1.58-2.08,2.32a23.93,23.93,0,0,1-2.18,2,7,7,0,0,1-2,1.16c-2.42-.53-3.63-2.85-3.63-6.94a43.68,43.68,0,0,1,.34-4.58q.18-1.35.39-2.85c.15-1,.33-2,.55-3s.49-2,.79-3a20.1,20.1,0,0,1,1.07-2.69,3.83,3.83,0,0,1,.78-1.1,3.32,3.32,0,0,1,.87-.6,3.06,3.06,0,0,1,.94-.26,8.06,8.06,0,0,1,1-.06,1.7,1.7,0,0,1,.84.22,2.32,2.32,0,0,1,.72.62,3,3,0,0,1,.5,1,4.08,4.08,0,0,1,.19,1.32,6.52,6.52,0,0,1-.12,1.27,10.84,10.84,0,0,1-.31,1.25c-.14.43-.28.89-.42,1.37s-.3,1-.45,1.64c-.09.41-.23.92-.42,1.56s-.36,1.29-.54,2-.35,1.35-.51,2a13.18,13.18,0,0,0-.29,1.65c.35-.41.75-.91,1.2-1.52s.93-1.25,1.43-2,1-1.41,1.52-2.14,1-1.42,1.56-2.07c.67-.85,1.33-1.65,2-2.4a13.82,13.82,0,0,1,2.06-1.94,9.26,9.26,0,0,1,2.34-1.3,8.29,8.29,0,0,1,2.86-.47,5.07,5.07,0,0,1,4.94,2.88,11.42,11.42,0,0,1,1,3.21c.23,1.24.41,2.59.55,4.05.07.75.17,1.51.3,2.3a10.07,10.07,0,0,0,.56,2.15,4.67,4.67,0,0,0,1,1.58,2,2,0,0,0,1.5.62,7.08,7.08,0,0,0,2.89-.7,18.9,18.9,0,0,0,3.3-1.95,38.69,38.69,0,0,0,3.54-2.88q1.82-1.64,3.63-3.51c.39-.41.76-.8,1.11-1.2s.7-.75,1-1.06a5.27,5.27,0,0,1,.95-.77,1.72,1.72,0,0,1,.92-.29,2.17,2.17,0,0,1,.4.05,1.1,1.1,0,0,1,.77.53A1.35,1.35,0,0,1,179.54,306.73Z"/><path d="M210.94,307.48a3,3,0,0,1-.16,1,3.28,3.28,0,0,1-.49.83,9.61,9.61,0,0,1-.85.91c-.35.33-.77.74-1.27,1.24L205.64,314c-.54.54-1,1-1.42,1.36l-1.16,1-1.17,1-1.47,1.22q-1.87,1.59-3.69,3T193.19,324a22.37,22.37,0,0,1-5.56,2.53,21.52,21.52,0,0,1-6.28.9,8.8,8.8,0,0,1-3.83-.8,8.1,8.1,0,0,1-2.82-2.13,9.17,9.17,0,0,1-1.75-3.14,12.17,12.17,0,0,1-.59-3.79A19.66,19.66,0,0,1,174,310a34.33,34.33,0,0,1,4.35-7.5,23.39,23.39,0,0,1,1.62-1.93,18.83,18.83,0,0,1,2-1.83,11.17,11.17,0,0,1,2.13-1.35,4.8,4.8,0,0,1,2.13-.54,2.56,2.56,0,0,1,1.34.39,6.25,6.25,0,0,1,1.27,1.05,11.29,11.29,0,0,1,1.17,1.54,16.86,16.86,0,0,1,1,1.89,8.23,8.23,0,0,1,.93,2.94,8.57,8.57,0,0,1-.11,1.2,5.12,5.12,0,0,1-.37,1.34,3.43,3.43,0,0,1-.73,1.08,1.68,1.68,0,0,1-1.19.44,2.36,2.36,0,0,1-1.75-.68,6.09,6.09,0,0,1-1.16-1.57,11.64,11.64,0,0,1-.73-1.75,6.06,6.06,0,0,0-.5-1.24,4.24,4.24,0,0,0-1.46,1,12.29,12.29,0,0,0-1.51,1.84,18.94,18.94,0,0,0-1.41,2.46,23.55,23.55,0,0,0-1.17,2.91,25.67,25.67,0,0,0-.81,3.16,17.41,17.41,0,0,0-.3,3.2,3.56,3.56,0,0,0,1.07,2.56,3.33,3.33,0,0,0,2.24,1.21,16.92,16.92,0,0,0,6.33-1.21,27.71,27.71,0,0,0,5.86-3.23c1.27-.9,2.59-1.91,4-3s2.9-2.47,4.55-4c.59-.58,1.19-1.13,1.8-1.66a20.85,20.85,0,0,1,1.78-1.4,13.28,13.28,0,0,1,1.67-1,3.51,3.51,0,0,1,1.49-.37C210.44,305.9,210.94,306.43,210.94,307.48Z"/><path d="M241.33,307.43a5.12,5.12,0,0,1-.78,1.9,51,51,0,0,1-3.33,4.27,48.45,48.45,0,0,1-8.22,7.55,35.21,35.21,0,0,1-4.55,2.81,26.4,26.4,0,0,1-4.6,1.86,15.78,15.78,0,0,1-4.48.68q-4.92,0-7.67-2.78t-2.76-8.4a30.76,30.76,0,0,1,.32-4.42,23.45,23.45,0,0,1,1.05-4.3,24.25,24.25,0,0,1,1.92-4.16,24,24,0,0,1,2.91-4,11.69,11.69,0,0,1,1.48-1.39,13.2,13.2,0,0,1,1.82-1.18,11,11,0,0,1,2-.83,7.27,7.27,0,0,1,2.09-.32,5.59,5.59,0,0,1,2.64.58,5.17,5.17,0,0,1,1.83,1.54,6.57,6.57,0,0,1,1.06,2.21,10,10,0,0,1,.35,2.64,9.4,9.4,0,0,1-1.9,5.32,30.62,30.62,0,0,1-5.27,5.63c-.73.61-1.58,1.28-2.54,2s-2,1.53-3.23,2.44a3.28,3.28,0,0,0,.42,1.35,3.81,3.81,0,0,0,1,1.11,5.14,5.14,0,0,0,1.48.75,6.59,6.59,0,0,0,2,.27,13.61,13.61,0,0,0,3-.36,22.65,22.65,0,0,0,3.14-1,26.73,26.73,0,0,0,3-1.4,24.13,24.13,0,0,0,2.68-1.66,49.46,49.46,0,0,0,4.11-3.3c1.31-1.18,2.59-2.38,3.82-3.61l1.52-1.53a4.5,4.5,0,0,1,2.71-1.41.81.81,0,0,1,.79.39A1.38,1.38,0,0,1,241.33,307.43Zm-22.47-5.31a5.34,5.34,0,0,0-.13-1.21,1,1,0,0,0-.42-.72,3.54,3.54,0,0,0-2.09.84,9.28,9.28,0,0,0-2.11,2.38,17.57,17.57,0,0,0-1.81,3.71,24.42,24.42,0,0,0-1.16,4.83c.9-.67,1.81-1.38,2.72-2.12a23,23,0,0,0,2.48-2.32,12,12,0,0,0,1.81-2.55A6,6,0,0,0,218.86,302.12Z"/><path d="M314.73,284.52c0,.48,0,1.07-.1,1.77s-.16,1.48-.29,2.34-.27,1.76-.44,2.73-.37,2-.58,3c-.44,2.1-.89,4.06-1.35,5.9a45.57,45.57,0,0,1-1.44,4.76c-.5,1.33-.95,2.58-1.36,3.76s-.81,2.26-1.24,3.25c-.09.24-.29.72-.6,1.42s-.66,1.51-1.07,2.43-.83,1.91-1.29,3-.9,2-1.3,2.95l-1.05,2.41c-.3.68-.5,1.13-.59,1.36a1.62,1.62,0,0,1-.49.61,5.26,5.26,0,0,1-.87.58,5.06,5.06,0,0,1-1,.41,3.18,3.18,0,0,1-.93.16,3.71,3.71,0,0,1-1.66-.39,5.8,5.8,0,0,1-1.5-1.08,9.15,9.15,0,0,1-1.31-1.64,12.9,12.9,0,0,1-1.07-2.1l-6.71-16.48c-.4.92-.88,2-1.42,3.15s-1.13,2.39-1.73,3.63-1.21,2.47-1.82,3.68-1.16,2.3-1.68,3.28c-1.46,2.79-2.83,5.21-4.09,7.26v0q-2.06,3.43-3.37,3.43a3.85,3.85,0,0,1-2.81-1.08,8.89,8.89,0,0,1-1.89-2.9,28.69,28.69,0,0,1-1.37-4.14q-.59-2.34-1.28-4.84-2.22-8-4.61-19.65c0-.17-.14-.57-.32-1.18s-.38-1.4-.63-2.37v0c-.29-1-.5-1.88-.63-2.59a9.29,9.29,0,0,1-.21-1.73,2.54,2.54,0,0,1,.25-1,3.16,3.16,0,0,1,.66-1,4,4,0,0,1,1-.73,2.61,2.61,0,0,1,1.2-.28,2.19,2.19,0,0,1,1.32.49,5.31,5.31,0,0,1,1.3,1.49,16.35,16.35,0,0,1,1.78,4,19.57,19.57,0,0,1,.51,2l.66,3c.26,1.2.57,2.58.92,4.17s.78,3.38,1.26,5.4.81,3.57,1.12,5l.81,3.77q.35,1.62.6,2.73a19.1,19.1,0,0,0,.52,1.86c1-1.64,1.84-3.18,2.65-4.64s1.53-2.81,2.16-4,1.19-2.33,1.67-3.31.88-1.79,1.18-2.45c.5-1,1-2.21,1.56-3.53s1.23-2.87,2.07-4.68a3.26,3.26,0,0,1,.49-.69,3.54,3.54,0,0,1,.75-.62,4.8,4.8,0,0,1,.94-.45,3.17,3.17,0,0,1,1-.17,2.48,2.48,0,0,1,1.73.94,10.05,10.05,0,0,1,1.73,2.75c.06.13.19.46.39,1s.44,1.12.7,1.83.57,1.48.88,2.31.63,1.62.92,2.39.57,1.46.81,2.09.43,1.09.56,1.4c1.08,2.51,1.91,4.51,2.51,6a14.48,14.48,0,0,0,1.41,2.93c.73-1.33,1.43-2.76,2.1-4.31s1.31-3.14,1.91-4.78,1.15-3.3,1.67-5,1-3.29,1.41-4.84.81-3.18,1.11-4.76.54-3.1.75-4.59.36-2.91.47-4.25.2-2.59.26-3.75a1.86,1.86,0,0,1,.29-.71,3.75,3.75,0,0,1,.69-.84,4.68,4.68,0,0,1,1-.69,2.31,2.31,0,0,1,1.09-.29,2.79,2.79,0,0,1,2.79,1.5A4.75,4.75,0,0,1,314.73,284.52Z"/><path d="M359.44,308a3.38,3.38,0,0,1-.12.82,6.74,6.74,0,0,1-.34.95,9.9,9.9,0,0,1-.44.93c-.17.29-.33.55-.48.76s-.25.32-.46.56l-.72.81c-.27.29-.57.62-.91,1s-.67.69-1,1q-1.67,1.56-3.38,3.07a27.45,27.45,0,0,1-3.59,2.68,20.44,20.44,0,0,1-3.92,1.88,13,13,0,0,1-4.35.72,5,5,0,0,1-2-.43,7.26,7.26,0,0,1-1.87-1.18,7.6,7.6,0,0,1-1.51-1.8,7.16,7.16,0,0,1-.91-2.26,17,17,0,0,1-1.35,1.86c-.56.66-1.17,1.32-1.83,2s-1.35,1.27-2.06,1.86-1.38,1.09-2,1.51a12.91,12.91,0,0,1-1.54.89c-.61.31-1.25.59-1.92.85a17,17,0,0,1-2,.64,8.29,8.29,0,0,1-1.89.24,3.88,3.88,0,0,1-2.42-.79,6.77,6.77,0,0,1-1.71-1.94,9.53,9.53,0,0,1-1-2.45,9.65,9.65,0,0,1-.33-2.34,14.2,14.2,0,0,1,.56-3.87,26.62,26.62,0,0,1,1.44-3.85,32.23,32.23,0,0,1,2-3.57c.72-1.13,1.43-2.14,2.12-3a22.91,22.91,0,0,1,2.62-2.75,26.61,26.61,0,0,1,3.2-2.45,20.24,20.24,0,0,1,3.3-1.74,7.82,7.82,0,0,1,2.89-.66c.46,0,.94,0,1.43,0s1,.07,1.45.13a12.2,12.2,0,0,1,1.39.26,6.76,6.76,0,0,1,1.18.43,3.33,3.33,0,0,1,.76.83,11.17,11.17,0,0,1,.78,1.26,12.25,12.25,0,0,1,.62,1.34,3.17,3.17,0,0,1,.26,1,8.56,8.56,0,0,1-.25,1.91c-.16.74-.34,1.52-.54,2.32s-.39,1.64-.57,2.48a12.32,12.32,0,0,0-.26,2.42,6.24,6.24,0,0,0,.23,1.64,5.8,5.8,0,0,0,.67,1.52,4.07,4.07,0,0,0,1,1.11,2.36,2.36,0,0,0,1.36.43,9.32,9.32,0,0,0,3.37-.64,16.7,16.7,0,0,0,3.34-1.74,28.29,28.29,0,0,0,3.34-2.62q1.68-1.51,3.37-3.27a2.29,2.29,0,0,0,.46-.43c.27-.29.6-.61,1-1a9.62,9.62,0,0,1,1.18-.95,2,2,0,0,1,1.08-.44,1.15,1.15,0,0,1,1.1.49A3.41,3.41,0,0,1,359.44,308Zm-26.18-3a2.49,2.49,0,0,0-.1-.6,4.2,4.2,0,0,0-.26-.65,3,3,0,0,0-.36-.52.57.57,0,0,0-.38-.21,6.26,6.26,0,0,0-3.47,1,19.08,19.08,0,0,0-3.27,2.78,17.43,17.43,0,0,0-2,2.56,32.77,32.77,0,0,0-2,3.43,25.55,25.55,0,0,0-1.53,3.63,10.39,10.39,0,0,0-.6,3.2,5.17,5.17,0,0,0,0,.68,2.13,2.13,0,0,0,.17.59,1.36,1.36,0,0,0,.36.43,1,1,0,0,0,.61.17,5.59,5.59,0,0,0,2.48-.7A16.15,16.15,0,0,0,325.7,319a22.84,22.84,0,0,0,2.7-2.62,18.44,18.44,0,0,0,2.21-3,27.15,27.15,0,0,0,1.87-4A12.24,12.24,0,0,0,333.26,305Z"/><path d="M384.25,309.76a5.43,5.43,0,0,1-.33,1.65,11.85,11.85,0,0,1-1.11,2.31,27.13,27.13,0,0,1-2.08,2.95,43.11,43.11,0,0,1-3.22,3.6,29.16,29.16,0,0,1-2.41,2.14,20,20,0,0,1-2.84,1.88,17.19,17.19,0,0,1-3.09,1.34,10.19,10.19,0,0,1-3.19.52,10.57,10.57,0,0,1-4-.75,8.61,8.61,0,0,1-3.24-2.29,11.13,11.13,0,0,1-2.17-3.87,17,17,0,0,1-.79-5.48c0-1.36.06-2.78.2-4.25s.3-2.95.5-4.45.43-3,.69-4.45.52-2.87.77-4.22c.17-.92.31-1.74.43-2.45l.33-2.13c.11-.71.23-1.47.36-2.29s.3-1.78.49-2.9a6.43,6.43,0,0,1,.49-1.54,4.68,4.68,0,0,1,.88-1.29,4,4,0,0,1,1.25-.9,3.77,3.77,0,0,1,1.59-.33,3.27,3.27,0,0,1,3.11,2l-.32,1.64c-.17.93-.4,2-.68,3.24s-.57,2.59-.89,4.05-.63,3-.95,4.6-.61,3.23-.87,4.88-.47,3.29-.63,4.93-.24,3.2-.24,4.72a18.82,18.82,0,0,0,.24,3.14,7.85,7.85,0,0,0,.79,2.41,4.23,4.23,0,0,0,1.42,1.54,3.8,3.8,0,0,0,2.07.54,6.84,6.84,0,0,0,2.51-.5,15.46,15.46,0,0,0,2.6-1.31,23,23,0,0,0,2.57-1.84c.83-.7,1.62-1.39,2.34-2.09a28.23,28.23,0,0,0,2-2.05c.58-.66,1.05-1.23,1.42-1.71l.56-.74a5.25,5.25,0,0,1,.69-.73,4.6,4.6,0,0,1,.83-.58,2.13,2.13,0,0,1,1-.23.88.88,0,0,1,.69.33A1.46,1.46,0,0,1,384.25,309.76Z"/><path d="M427,307.43a4,4,0,0,1-.14,1,4.7,4.7,0,0,1-.54,1.12,17.41,17.41,0,0,1-1,1.46c-.43.55-1,1.24-1.69,2v0c-.71.83-1.46,1.65-2.26,2.47s-1.66,1.65-2.58,2.52-1.76,1.62-2.65,2.33a27.76,27.76,0,0,1-2.56,1.84,15.7,15.7,0,0,1-2.34,1.23,5.15,5.15,0,0,1-1.95.44,5,5,0,0,1-3.17-.92,6.38,6.38,0,0,1-1.89-2.5,16,16,0,0,1-1.08-3.73c-.25-1.43-.48-3-.69-4.57l-1.66,2.52c-.58.89-1.2,1.78-1.84,2.67s-1.32,1.73-2,2.56a29,29,0,0,1-2.14,2.25,22.07,22.07,0,0,1-5.92,3.93,15.77,15.77,0,0,1-6.27,1.31,3.33,3.33,0,0,1-2-.58,4.66,4.66,0,0,1-1.38-1.48,7.14,7.14,0,0,1-.82-2,8.13,8.13,0,0,1-.28-2.09,19.28,19.28,0,0,1,.12-2.32,7.62,7.62,0,0,1,.34-1.62,67.5,67.5,0,0,1,2.76-6.73,40.1,40.1,0,0,1,3.73-6.27,37.81,37.81,0,0,1,2.73-3.45,15.58,15.58,0,0,1,2.87-2.52,11.69,11.69,0,0,1,3.27-1.55,14.17,14.17,0,0,1,3.95-.51,3.84,3.84,0,0,1,3,1.35,8.08,8.08,0,0,1,1.67,3.77c.14-.73.26-1.55.39-2.47s.25-1.89.36-2.91.22-2.08.32-3.17.18-2.18.26-3.26c.09-1.5.22-2.76.37-3.8a6.25,6.25,0,0,1,.58-2.13,4.14,4.14,0,0,1,1.15-1.24,3.14,3.14,0,0,1,1.87-.49,4.14,4.14,0,0,1,1.37.22,4.7,4.7,0,0,1,1.15.54,2.72,2.72,0,0,1,.79.75,1.39,1.39,0,0,1,.29.82,7.17,7.17,0,0,1-.14,1.13c-.1.5-.23,1.15-.39,2s-.36,1.81-.59,3-.49,2.57-.78,4.19a4.57,4.57,0,0,1-.07.63c-.05.31-.11.66-.17,1.05l-.21,1.23c-.06.42-.13.82-.2,1.19s-.12.7-.17,1-.08.43-.1.49c-.23,1.5-.42,2.89-.58,4.18a33.18,33.18,0,0,0-.23,3.86c0,.57,0,1.19,0,1.84s0,1.31,0,2,.05,1.32.09,2,.09,1.27.17,1.87a2.37,2.37,0,0,0,.14.47,2.11,2.11,0,0,0,.31.52,1.6,1.6,0,0,0,.44.42,1,1,0,0,0,.58.17,2.5,2.5,0,0,0,.86-.16,8.33,8.33,0,0,0,1-.4c.33-.16.66-.34,1-.52s.6-.36.85-.53c1-.67,2-1.4,3-2.18s2-1.62,3-2.55,2-1.78,2.94-2.63,1.84-1.69,2.59-2.49a1.48,1.48,0,0,1,1.1-.44.91.91,0,0,1,.76.44A2.72,2.72,0,0,1,427,307.43ZM397.18,312c.16-.18.32-.39.51-.64s.36-.52.55-.81.36-.58.54-.87.33-.58.45-.83a2.23,2.23,0,0,1-.88-1.08,3.62,3.62,0,0,1-.27-1.36,5.56,5.56,0,0,1,0-.67c0-.25.06-.5.1-.76s.07-.5.1-.73a5,5,0,0,0,.05-.52,1.63,1.63,0,0,0-.24-.8,3.72,3.72,0,0,0-.56-.76,3.59,3.59,0,0,0-.72-.58,1.44,1.44,0,0,0-.7-.23,2.66,2.66,0,0,0-1.62.83,18,18,0,0,0-1.93,2.06c-.67.82-1.34,1.72-2,2.7s-1.27,1.89-1.83,2.74-1.14,1.86-1.58,2.69-.83,1.59-1.15,2.27a13.29,13.29,0,0,0-1.53,5.18c0,1.15.21,1.73.63,1.73a4,4,0,0,0,1.5-.41A14.27,14.27,0,0,0,388.8,320c.87-.6,1.65-1.17,2.35-1.72a16.37,16.37,0,0,0,1.8-1.6c1.07-1.09,1.95-2,2.62-2.78Z"/><path d="M458.78,307.43a5.12,5.12,0,0,1-.78,1.9,51,51,0,0,1-3.33,4.27,46.26,46.26,0,0,1-3.9,4,49.35,49.35,0,0,1-4.32,3.53,34.64,34.64,0,0,1-4.56,2.81,26,26,0,0,1-4.59,1.86,15.83,15.83,0,0,1-4.48.68,10.35,10.35,0,0,1-7.68-2.78q-2.75-2.79-2.75-8.4a30.76,30.76,0,0,1,.32-4.42,23.45,23.45,0,0,1,1.05-4.3,24.25,24.25,0,0,1,1.92-4.16,23.34,23.34,0,0,1,2.9-4,11.8,11.8,0,0,1,1.49-1.39,13.09,13.09,0,0,1,1.81-1.18,11.44,11.44,0,0,1,2-.83,7.27,7.27,0,0,1,2.09-.32,5.52,5.52,0,0,1,2.63.58,5.17,5.17,0,0,1,1.83,1.54,6.58,6.58,0,0,1,1.07,2.21,10,10,0,0,1,.35,2.64A9.42,9.42,0,0,1,440,307a30,30,0,0,1-5.27,5.63c-.73.61-1.57,1.28-2.53,2s-2,1.53-3.23,2.44a3.28,3.28,0,0,0,.42,1.35,3.81,3.81,0,0,0,1,1.11,5.14,5.14,0,0,0,1.48.75,6.59,6.59,0,0,0,2,.27,13.61,13.61,0,0,0,3-.36,23.07,23.07,0,0,0,3.14-1,28.46,28.46,0,0,0,3-1.4,25.1,25.1,0,0,0,2.68-1.66,49.46,49.46,0,0,0,4.11-3.3q2-1.77,3.81-3.61l1.53-1.53a4.5,4.5,0,0,1,2.71-1.41.82.82,0,0,1,.79.39A1.38,1.38,0,0,1,458.78,307.43Zm-22.47-5.31a6,6,0,0,0-.13-1.21,1,1,0,0,0-.42-.72,3.54,3.54,0,0,0-2.09.84,9.3,9.3,0,0,0-2.12,2.38,18.07,18.07,0,0,0-1.8,3.71,23.73,23.73,0,0,0-1.17,4.83c.91-.67,1.82-1.38,2.73-2.12a23,23,0,0,0,2.48-2.32A12.39,12.39,0,0,0,435.6,305,6,6,0,0,0,436.31,302.12Z"/><path d="M503.75,306.73a4.18,4.18,0,0,1-.2,1.2,10.66,10.66,0,0,1-.51,1.28,11.52,11.52,0,0,1-.66,1.2,9.45,9.45,0,0,1-.68.93c-.61.77-1.3,1.59-2.06,2.45s-1.55,1.72-2.38,2.57-1.67,1.65-2.53,2.43a22.94,22.94,0,0,1-2.59,2c-.68.46-1.32.89-1.95,1.28a15.06,15.06,0,0,1-1.93,1,10.4,10.4,0,0,1-2.1.72,10.29,10.29,0,0,1-2.43.26,6.44,6.44,0,0,1-5.91-3.17,11.62,11.62,0,0,1-1.37-3.29,31,31,0,0,1-.73-3.88,31.39,31.39,0,0,0-.84-4.33c-.31-1.07-.68-1.6-1.12-1.6a2.54,2.54,0,0,0-1.13.27,5.22,5.22,0,0,0-1.36,1.17,29.82,29.82,0,0,0-2.08,2.61q-1.24,1.71-3.27,4.56-.69,1-1.68,2.19c-.67.81-1.36,1.58-2.09,2.32a23.93,23.93,0,0,1-2.18,2,7,7,0,0,1-2,1.16c-2.42-.53-3.63-2.85-3.63-6.94a44.31,44.31,0,0,1,.35-4.58q.17-1.35.39-2.85c.14-1,.32-2,.54-3s.49-2,.8-3a18.84,18.84,0,0,1,1.06-2.69,3.83,3.83,0,0,1,.78-1.1,3.36,3.36,0,0,1,.88-.6,3,3,0,0,1,.93-.26,8.18,8.18,0,0,1,1-.06,1.7,1.7,0,0,1,.84.22,2.21,2.21,0,0,1,.72.62,3,3,0,0,1,.5,1,4.08,4.08,0,0,1,.19,1.32,6.52,6.52,0,0,1-.12,1.27,10.84,10.84,0,0,1-.31,1.25c-.14.43-.28.89-.42,1.37s-.29,1-.45,1.64c-.09.41-.23.92-.41,1.56s-.37,1.29-.55,2-.35,1.35-.51,2a11.34,11.34,0,0,0-.28,1.65c.34-.41.74-.91,1.19-1.52s.93-1.25,1.43-2,1-1.41,1.52-2.14,1-1.42,1.56-2.07c.67-.85,1.34-1.65,2-2.4a13.82,13.82,0,0,1,2.06-1.94,9.15,9.15,0,0,1,2.35-1.3,8.19,8.19,0,0,1,2.85-.47,5.07,5.07,0,0,1,4.94,2.88,11.42,11.42,0,0,1,1.05,3.21c.23,1.24.41,2.59.55,4.05.07.75.18,1.51.3,2.3a10.07,10.07,0,0,0,.56,2.15,4.67,4.67,0,0,0,1,1.58,2,2,0,0,0,1.5.62,7.08,7.08,0,0,0,2.89-.7,18.9,18.9,0,0,0,3.3-1.95,38.76,38.76,0,0,0,3.55-2.88q1.81-1.64,3.63-3.51c.38-.41.75-.8,1.11-1.2s.69-.75,1-1.06a5.27,5.27,0,0,1,.95-.77,1.74,1.74,0,0,1,.92-.29,2.08,2.08,0,0,1,.4.05,1.19,1.19,0,0,1,.44.17,1.15,1.15,0,0,1,.33.36A1.35,1.35,0,0,1,503.75,306.73Z"/></g></g></svg>