<svg width="298" height="193" viewBox="0 0 298 193" fill="none" xmlns="http://www.w3.org/2000/svg">
<g id="Group 3">
<ellipse id="Oval Copy 3" cx="149" cy="114.5" rx="149" ry="78.5" fill="#F2F2F2"/>
<g id="chair">
<path id="Shape" fill-rule="evenodd" clip-rule="evenodd" d="M196 35.636L180.4 26.6081L179.476 0.991974L177.757 0L163 8.5909L164.719 56.2313L166.438 57.2349L168.157 56.2313L168.077 54.0243L179.688 60.8317V64.9969L181.407 66L183.126 64.9969V52.8249L187.424 50.3324L192.542 53.3329V57.5007L194.261 58.5038L195.98 57.5007V39.7761L196 35.636ZM167.576 40.1367L174.618 44.2662L167.867 48.1863L167.576 40.1367ZM183.872 48.2497L183.126 47.8126V48.6828L183.872 48.2497ZM177.031 28.519L176.68 28.7194L175.336 6.87332L176.231 6.35266L177.031 28.519ZM172.33 31.1973L173.358 30.6117L172.017 8.80238L170.99 9.39908L172.33 31.1973ZM169.009 33.0896L167.356 34.0312L166.56 11.9732L167.67 11.3281L169.009 33.0896ZM177.757 48.6329L177.685 46.6344L170.116 51.0242L179.688 56.6472V49.5121L179.476 49.636L177.757 48.6329ZM192.542 47.364V49.148L191.014 48.2502L192.542 47.364ZM186.233 45.442L187.463 46.1646L192.542 43.2153V41.7747L186.233 45.442Z" fill="#B2260B"/>
<path id="Path" d="M180 47.2083L179 47L179.303 50L180 49.8557V47.2083Z" fill="#D34E13"/>
<path id="Path_2" d="M179 1.03428L164.669 10L163 8.95732L177.331 0L179 1.03428Z" fill="#FF7E27"/>
<path id="Path_3" d="M176.601 45.3118L174.895 44.2961L168.098 48.3038L167.805 40.0744L166 39L166.424 50.9189L180 59V56.9537L168.508 50.0993L176.601 45.3118Z" fill="#D34E13"/>
<path id="Path_4" d="M179.115 1L165.046 9.56656L165 9.59424L165.877 35L167.522 34.0212L166.761 11.9752L169.354 10.401L170.634 32.1681L172.28 31.1888L170.998 9.40249L173.511 7.8766L174.795 29.6921L176.441 28.7127L175.155 6.87812L177.589 5.40054L178.355 27.5733L179.993 26.598L180 26.602L179.115 1Z" fill="#D34E13"/>
<path id="Path_5" d="M166 34.6311L180.58 26L196 35.2732L181.582 44L166 34.6311Z" fill="#FF7E27"/>
<path id="Shape_2" fill-rule="evenodd" clip-rule="evenodd" d="M181 66V43.6778L196 35L195.979 57.3232L194.212 58.3473V45.9557L190.875 47.8784L192.445 48.795V50.839L189.11 48.8948L182.767 52.5489V64.9759L181 66ZM194.208 43.7302L194.212 43.7282V40.2468L185.961 45.0113L187.225 45.7485L185.459 46.767L184.195 46.0308L182.767 46.8554V50.3214L194.208 43.7302Z" fill="#D34E13"/>
<path id="Path_6" d="M192.305 43L183 48.1526V50L194 43.9159L192.305 43Z" fill="#FF7E27"/>
<path id="Path_7" d="M193.727 33.1095L180.606 25.118C180.348 24.9607 180.03 24.9607 179.771 25.118L168.273 32.1366C168.091 32.2478 168 32.4425 168 32.6368V34.3904C168 34.5847 168.091 34.7795 168.273 34.8906L181.394 42.8816C181.652 43.0395 181.97 43.0395 182.229 42.8816L193.727 35.8635C193.909 35.7524 194 35.5576 194 35.3633V33.6097C194 33.4154 193.909 33.2207 193.727 33.1095Z" fill="#BF0025"/>
<path id="Path_8" d="M168.273 32.5888L179.771 26.1093C180.03 25.9636 180.348 25.9636 180.606 26.1093L193.727 33.4871C194.091 33.6923 194.091 34.2054 193.727 34.4112L182.229 40.8907C181.97 41.0364 181.652 41.0364 181.394 40.8907L168.273 33.5129C167.909 33.3077 167.909 32.7941 168.273 32.5888Z" fill="#EA2642"/>
</g>
<g id="bed">
<path id="Path_9" d="M155.867 58.3433L120.577 78.3116L78.9647 54.5703L77.758 26L68 29.9152V69.1309L71.5498 71.1672L75.1003 69.1309V63.1077L119.845 88.8425L119.838 88.844V98.9637L123.388 101L126.937 98.9637V88.844L155.708 72.342V78.3515L159.258 80.3878L161 75.1085L160.942 60.2824L155.867 58.3433Z" fill="#B2260B"/>
<path id="Path_10" d="M163 59.0883L111.339 29L72 51.9117L123.661 82L163 59.0883Z" fill="#FF7E27"/>
<path id="Path_11" d="M75 63.0215V68.9842L72 71V61L75 63.0215Z" fill="#EF5F26"/>
<path id="Shape_3" fill-rule="evenodd" clip-rule="evenodd" d="M110.042 7.363C110.042 7.36289 110.042 7.36272 110.042 7.36243L106.8 5.40437C106.296 4.97261 105.551 4.84566 104.899 5.22576L70.2287 25.4839C68.8496 26.2899 68 27.7792 68 29.3904L71.6172 31.5928V52L111 28.9882V8.87987C111 8.17872 110.592 7.62296 110.042 7.36317L110.042 7.363Z" fill="#FF7E27"/>
<path id="Path_12" d="M72 52V31.9567C72 30.3742 72.8629 28.9114 74.2636 28.1205L109.477 8.22293C110.599 7.58937 112 8.38168 112 9.6488V29.3985L72 52Z" fill="#EF5F26"/>
<path id="Path_13" d="M77.0624 39.759L109.969 20.4426C110.974 19.8525 112.212 19.8525 113.216 20.4426L157.938 46.6934C158.646 47.1091 159 47.8367 159 48.5642V58.3708C159 59.0983 158.646 59.8259 157.938 60.2416L125.031 79.5579C124.026 80.1474 122.788 80.1474 121.784 79.5579L77.0624 53.3071C76.3541 52.8914 76 52.1639 76 51.4356V41.6297C76 40.9022 76.3541 40.1747 77.0624 39.759Z" fill="#B6C5CE"/>
<path id="Path_14" d="M157.938 46.0584L113.216 20.4321C112.212 19.856 110.974 19.856 109.969 20.4321L77.0624 39.2889C75.6459 40.1006 75.6459 42.1305 77.0624 42.9422L121.784 68.5684C122.788 69.1439 124.026 69.1439 125.031 68.5684L157.938 49.7116C159.354 48.9 159.354 46.8701 157.938 46.0584Z" fill="#E4F2F1"/>
<path id="Path_15" d="M163 59V78.2365L159.398 80.2832V70.15L126.602 88.7823V98.9534L123 101V81.7248L163 59Z" fill="#EF5F26"/>
</g>
<g id="sofa">
<g id="Group">
<path id="Path_16" d="M261.57 92.367L261.532 105.227C261.532 105.425 261.398 105.622 261.132 105.773C260.597 106.076 259.726 106.076 259.187 105.773C258.916 105.62 258.781 105.42 258.781 105.22L258.819 92.3594C258.818 92.5593 258.954 92.7599 259.225 92.9125C259.764 93.2159 260.635 93.2155 261.17 92.9125C261.436 92.7615 261.569 92.5644 261.57 92.367Z" fill="#3E3D43"/>
<path id="Path_17" d="M261.163 91.8135C261.702 92.1169 261.705 92.6085 261.169 92.9117C260.634 93.2147 259.763 93.2151 259.225 92.9117C258.686 92.6083 258.683 92.1165 259.218 91.8135C259.753 91.5101 260.624 91.5101 261.163 91.8135Z" fill="#3E3D43"/>
<path id="Path_18" d="M289.931 76.533L289.894 89.3933C289.893 89.5909 289.76 89.7882 289.493 89.9388C288.958 90.2418 288.088 90.2422 287.549 89.9388C287.277 89.7862 287.142 89.5856 287.143 89.3857L287.18 76.5254C287.179 76.7253 287.315 76.9259 287.586 77.0785C288.125 77.3819 288.996 77.3815 289.531 77.0785C289.797 76.9277 289.931 76.7303 289.931 76.533Z" fill="#3E3D43"/>
<path id="Path_19" d="M289.525 75.9795C290.064 76.2829 290.066 76.7745 289.531 77.0777C288.995 77.3807 288.125 77.3811 287.586 77.0777C287.047 76.7743 287.044 76.2825 287.579 75.9795C288.115 75.6761 288.986 75.6761 289.525 75.9795Z" fill="#3E3D43"/>
<path id="Path_20" d="M212.827 64.7889L212.789 77.6492C212.789 77.8468 212.655 78.044 212.389 78.1947C211.854 78.4977 210.983 78.4981 210.444 78.1947C210.173 78.0421 210.038 77.8415 210.038 77.6416L210.076 64.7812C210.075 64.9811 210.21 65.1818 210.482 65.3343C211.021 65.6377 211.891 65.6374 212.426 65.3343C212.693 65.1835 212.826 64.9863 212.827 64.7889Z" fill="#3E3D43"/>
<path id="Path_21" d="M212.42 64.2354C212.959 64.5387 212.962 65.0303 212.426 65.3336C211.891 65.6366 211.02 65.637 210.481 65.3336C209.942 65.0302 209.94 64.5384 210.474 64.2354C211.01 63.932 211.881 63.932 212.42 64.2354Z" fill="#3E3D43"/>
</g>
<path id="Path_22" d="M292.882 43.5936C292.915 43.6109 292.948 43.6274 292.98 43.646L242.511 14.4615C241.526 13.8914 240.232 13.8276 238.749 14.3929C238.36 14.5414 237.972 14.7272 237.591 14.9467C234.28 16.8487 231.362 21.259 230.804 25.4432L228.47 42.9303L209.412 53.879C208.577 54.3588 207.926 55.5554 208.007 56.4607L209.307 70.9648C209.34 71.333 209.489 71.5915 209.713 71.721L260.181 100.906C260.175 100.902 260.169 100.896 260.162 100.892C260.422 101.055 260.788 101.038 261.19 100.808L289.599 84.4861C289.992 84.2602 290.328 83.7429 290.391 83.2617L294.906 49.4305C295.292 46.5408 294.463 44.4378 292.882 43.5936Z" fill="#DDB201"/>
<g id="Group_2">
<path id="Path_23" d="M260.154 100.831L209.782 71.6716C209.559 71.5422 209.41 71.2839 209.377 70.916L259.748 100.076C259.781 100.444 259.93 100.702 260.154 100.831Z" fill="#EEBF00"/>
<path id="Path_24" d="M242.518 14.4611C241.534 13.8915 240.242 13.8278 238.762 14.3926C238.374 14.541 237.988 14.7268 237.607 14.9459C234.302 16.8463 231.39 21.2529 230.833 25.4335L228.503 42.9058L278.874 72.0653L281.204 54.593C281.761 50.4125 284.674 46.0058 287.978 44.1054C288.359 43.8861 288.745 43.7005 289.134 43.5521C290.614 42.9876 291.905 43.0512 292.889 43.6206L242.518 14.4611Z" fill="#EEBF00"/>
<path id="Path_25" d="M259.748 100.076L209.377 70.9158L208.079 56.4238L258.45 85.5837L259.748 100.076Z" fill="#EEBF00"/>
</g>
<path id="Path_26" d="M228.487 43L209.413 54.0218C208.577 54.5048 207.926 55.7094 208.007 56.6207L258.519 86C258.438 85.0886 259.09 83.884 259.926 83.401L279 72.3793L228.487 43Z" fill="#FECE00"/>
<path id="Path_27" d="M288.16 43.9495C288.536 43.7294 288.918 43.543 289.301 43.394C293.012 41.9547 295.522 44.5824 294.907 49.2655L290.458 83.2044C290.396 83.687 290.065 84.2059 289.678 84.4327L261.682 100.806C260.962 101.227 260.357 100.942 260.288 100.146L259.007 85.5956C258.927 84.6874 259.568 83.4869 260.391 83.0056L279.172 72.0221L281.472 54.4793C282.022 50.2821 284.898 45.8576 288.16 43.9495Z" fill="#DDB201"/>
</g>
<g id="coat-hanger">
<path id="Path_28" d="M260.449 126L244.005 135.523L244 137.477L260.551 147L276.995 137.477L277 135.523L260.449 126Z" fill="#D07400"/>
<path id="Path_29" d="M277 135L276.995 137.043L261 147L261.005 144.957L277 135Z" fill="#884D01"/>
<path id="Path_30" d="M261 144.957L260.994 147L244 137.043L244.006 135L261 144.957Z" fill="#A66206"/>
<path id="Path_31" d="M277 135.5L260.554 145L244 135.5L260.446 126L277 135.5Z" fill="#D07400"/>
<path id="Path_32" d="M263.524 86.1759V62.5988L270.381 58.6679L273 57.1366L270.714 53.1534L263.512 57.2823L263.547 44.9394L260.208 43L257.589 44.5312V62.9605L253.002 54.9687L250.701 56.288L248.082 57.8192L257.505 74.2176V91.8512L252.92 83.8626L250.619 85.1817L248 86.7128L257.423 103.112V136.061L260.823 138L263.442 136.469V91.4929L270.299 87.5626L272.919 86.0314L270.632 82.0481L263.524 86.1759Z" fill="#884D01"/>
<path id="Path_33" d="M248 87L250.662 85.3885L253 84L250.338 85.6115L248 87Z" fill="#A66206"/>
<path id="Path_34" d="M250 84.5346L252.684 83L260 95.4652L257.384 97L250 84.5346Z" fill="#D07400"/>
<path id="Path_35" d="M260 92.5136L263 91V135.486L260 137V92.5136Z" fill="#884D01"/>
<path id="Path_36" d="M248 58L250.662 56.3885L253 55L250.338 56.6115L248 58Z" fill="#A66206"/>
<path id="Path_37" d="M250 56.5349L252.685 55L260 67.4651L257.386 69L250 56.5349Z" fill="#D07400"/>
<path id="Path_38" d="M261 88L263.423 86.3765L270 82L267.577 83.6233L261 88Z" fill="#A66206"/>
<g id="Group_3">
<path id="Path_39" d="M268.078 83.8112L270.656 82.2773L272.907 86.2679L270.329 87.802L268.078 83.8112Z" fill="#884D01"/>
<path id="Path_40" d="M261.08 64.2958L263.658 62.7617V86.4121L261.08 87.9462V64.2958Z" fill="#884D01"/>
<path id="Path_41" d="M261.103 46.6335L263.681 45.0996L263.647 57.4654L261.068 58.9991L261.103 46.6335Z" fill="#884D01"/>
</g>
<g id="Group_4">
<path id="Path_42" d="M257.016 44.5368L259.594 43L262.881 44.9465L260.303 46.4831L257.016 44.5368Z" fill="#D07400"/>
<path id="Path_43" d="M260.269 58.8699L262.847 57.3335L269.937 53.1895L267.359 54.7263L260.269 58.8699Z" fill="#D07400"/>
</g>
<path id="Path_44" d="M260.708 46.9295L260.673 59.2103L267.753 55.1025L270 59.0657L260.685 64.471V87.9593L267.673 83.8521L269.92 87.8155L260.605 93.2198V138L257.263 136.07V103.287L248 86.97L250.262 85.6575L257.343 98.0315V74.5374L248.08 58.2214L250.342 56.9087L257.425 69.2816V45L260.708 46.9295Z" fill="#A66206"/>
<path id="Path_45" d="M267 54.6661L269.67 53L272 57.3339L269.33 59L267 54.6661Z" fill="#884D01"/>
</g>
<path id="Path 2" fill-rule="evenodd" clip-rule="evenodd" d="M50 0.707031V80.067L221 182.999V98.3644L50 0.707031Z" fill="#7DF2FF" fill-opacity="0.234867"/>
<g id="smartphone">
<path id="Path_46" d="M103.065 75.6569L58.9184 50.2653C58.3784 49.9549 57.8898 49.9262 57.5367 50.1305L46.5665 56.4818C46.5675 56.4813 46.5688 56.4808 46.5701 56.4803C46.2193 56.6814 46.0018 57.1115 46 57.7227L46.0508 150.005C46.0473 151.233 46.913 152.727 47.9864 153.345L92.0819 178.736C92.655 179.066 93.1699 179.075 93.5267 178.827C93.5055 178.842 93.4858 178.858 93.4635 178.871L104.434 172.519C104.782 172.318 104.998 171.889 105 171.279V78.9971C105.004 77.7708 104.136 76.2732 103.065 75.6569Z" fill="#2E2E30"/>
<path id="Path_47" d="M104.411 173.144L93 179C93.3625 178.814 93.5874 178.419 93.589 177.856L105 172C104.998 172.563 104.773 172.958 104.411 173.144Z" fill="#1D1D1F"/>
<path id="Path_48" d="M47 56.8574L57.6577 50.1382C58.0007 49.922 58.4754 49.9521 59 50.2808L48.3423 57C47.8177 56.6713 47.3428 56.6412 47 56.8574Z" fill="#3E3D43"/>
<path id="Path_49" d="M94 85.3747L105 79V171.625L94 178V85.3747Z" fill="#1D1D1F"/>
<path id="Path_50" d="M48 56.4027L58.947 50L103 75.5973L92.053 82L48 56.4027Z" fill="#3E3D43"/>
<path id="Path_51" d="M92 81.8984L103.05 76C104.129 76.5723 105.004 77.9627 105 79.1016L93.9497 85C93.953 83.8612 93.0792 82.4706 92 81.8984Z" fill="#57565C"/>
<path id="Path_52" d="M92.0657 82.5211C93.1363 83.1341 94.0035 84.6233 94 85.8431V177.636C93.9964 178.858 93.1237 179.349 92.053 178.736L47.9851 153.479C46.9124 152.865 46.0473 151.379 46.0508 150.157L46 58.3641C46.0035 57.1443 46.8745 56.6499 47.9469 57.2639L92.0657 82.5211Z" fill="#2E2E30"/>
<path id="Path_53" d="M89 91.741L50 69V139.259L89 162V91.741Z" fill="#D6F2F5"/>
<path id="Shape_4" fill-rule="evenodd" clip-rule="evenodd" d="M66 156.203C66.0064 154.232 67.5819 153.436 69.5113 154.426C71.4406 155.416 73.006 157.824 72.9999 159.796C72.9936 161.767 71.418 162.565 69.4887 161.575C67.5594 160.584 65.9937 158.174 66 156.203ZM67.0637 156.749C67.0596 158.121 68.1487 159.801 69.492 160.49C70.8356 161.18 71.9318 160.622 71.936 159.25C71.9401 157.877 70.851 156.2 69.5077 155.51C68.1644 154.821 67.0681 155.376 67.0637 156.749Z" fill="#77767E"/>
<path id="Path_54" d="M78.7884 78.9669L62.2194 69.1706C61.5484 68.7739 61.002 69.0927 61 69.882C60.998 70.6742 61.5403 71.6364 62.2116 72.0331L78.7806 81.8294C79.4516 82.2261 79.998 81.9076 80 81.1154C80.002 80.3263 79.4594 79.3636 78.7884 78.9669Z" fill="#1D1D1F"/>
<path id="Path_55" d="M58.0031 67.1601C57.4494 66.7877 57.0017 67.0874 57 67.8268C56.9983 68.5684 57.443 69.467 57.9967 69.8399C58.5485 70.2113 58.9981 69.9149 59 69.1735C59.0017 68.4336 58.5551 67.5315 58.0031 67.1601Z" fill="#3E3D43"/>
<g id="Group_5">
<path id="Path_56" d="M97.4786 117.143L98.3603 117.674C98.3362 117.66 98.3167 117.638 98.2953 117.619C98.47 117.774 98.735 117.786 99.036 117.606L100.86 116.513C101.385 116.198 101.811 115.433 101.809 114.807L101.762 92.4682C101.762 92.1568 101.655 91.9384 101.483 91.8358C101.484 91.8361 101.485 91.8361 101.485 91.8366L100.603 91.305C100.43 91.2007 100.19 91.2151 99.9257 91.3737L98.1017 92.4667C97.5762 92.7816 97.1529 93.5447 97.1543 94.1697L97.2007 116.508C97.2014 116.82 97.3074 117.04 97.4786 117.143Z" fill="#2E2E30"/>
<path id="Path_57" d="M101.483 120.125C101.484 120.125 101.485 120.125 101.485 120.126L100.603 119.594C100.43 119.49 100.19 119.504 99.9257 119.663L98.1017 120.756C97.5762 121.071 97.1529 121.834 97.1543 122.459L97.2007 132.661C97.2014 132.973 97.3074 133.192 97.4786 133.295L98.3603 133.827C98.3362 133.813 98.3167 133.791 98.2953 133.772C98.4698 133.927 98.735 133.939 99.036 133.759L100.86 132.666C101.385 132.35 101.811 131.586 101.809 130.96L101.762 120.758C101.762 120.446 101.655 120.227 101.483 120.125Z" fill="#2E2E30"/>
</g>
<g id="Group_6">
<path id="Path_58" d="M98.5033 117.985L97.5288 117.427C97.3398 117.319 97.2227 117.089 97.2217 116.762L98.1962 117.319C98.1972 117.646 98.3143 117.877 98.5033 117.985Z" fill="#3E3D43"/>
<path id="Path_59" d="M100.982 90.3201L101.957 90.8778C101.766 90.7684 101.501 90.7834 101.208 90.9499L100.233 90.3922C100.526 90.2257 100.791 90.2104 100.982 90.3201Z" fill="#3E3D43"/>
</g>
<path id="Path_60" d="M99 117L98.0503 116.465L98 94L98.95 94.5346L99 117Z" fill="#57565C"/>
<path id="Path_61" d="M98.9774 92L98 91.6728L100.023 91L101 91.3272L98.9774 92Z" fill="#3E3D43"/>
<path id="Path_62" d="M97.9641 93L97 92.5242C96.9982 91.9648 97.4611 91.282 98.0359 91L99 91.4758C98.4254 91.7578 97.9623 92.4408 97.9641 93Z" fill="#77767E"/>
<path id="Path_63" d="M100.938 90.1408C101.495 89.8135 101.949 90.0766 101.951 90.726L102 113.95C102.002 114.601 101.551 115.396 100.994 115.723L99.06 116.859C98.5029 117.187 98.0507 116.923 98.0492 116.271L98 93.0478C97.9982 92.398 98.4471 91.6049 99.0045 91.2774L100.938 90.1408Z" fill="#2E2E30"/>
<g id="Group_7">
<path id="Path_64" d="M98.5033 133.823L97.5288 133.276C97.3398 133.17 97.2227 132.944 97.2217 132.623L98.1962 133.17C98.1972 133.491 98.3143 133.717 98.5033 133.823Z" fill="#3E3D43"/>
<path id="Path_65" d="M100.982 119.18L101.957 119.727C101.766 119.62 101.501 119.634 101.208 119.798L100.233 119.251C100.526 119.087 100.791 119.073 100.982 119.18Z" fill="#3E3D43"/>
</g>
<path id="Path_66" d="M99 133L98.0503 132.455L98 122L98.95 122.545L99 133Z" fill="#57565C"/>
<path id="Path_67" d="M98.9774 121L98 120.673L100.023 120L101 120.327L98.9774 121Z" fill="#3E3D43"/>
<path id="Path_68" d="M97.9641 122L97 121.524C96.9982 120.965 97.4611 120.282 98.0359 120L99 120.476C98.4254 120.758 97.9623 121.441 97.9641 122Z" fill="#77767E"/>
<path id="Path_69" d="M100.938 119.137C101.495 118.818 101.949 119.075 101.951 119.707L102 130.031C102.002 130.665 101.551 131.439 100.994 131.757L99.06 132.863C98.5029 133.182 98.0507 132.925 98.0492 132.291L98 121.966C97.9982 121.334 98.4471 120.562 99.0045 120.243L100.938 119.137Z" fill="#2E2E30"/>
</g>
<g id="like">
<path id="Path_70" d="M74.586 104.967C73.077 104.096 71.7098 104.015 70.7224 104.589L69.9962 105.011C69.0204 102.821 67.3909 100.813 65.5407 99.7449C64.0312 98.8735 62.6635 98.7926 61.6757 99.3666L55.5845 102.906C55.5877 102.904 55.5911 102.903 55.5942 102.901C54.6136 103.465 54.0049 104.672 54 106.39C53.9823 112.643 63.4184 125.332 63.9151 126C64.1935 125.948 67.2689 125.373 69.9355 123.788C69.897 123.811 69.8585 123.834 69.8199 123.856L75.9111 120.317C78.0693 119.063 79.992 117.157 80 114.343C80.0098 110.897 77.5857 106.698 74.586 104.967Z" fill="#FE0B37"/>
<path id="Path_71" d="M56 103.035L61.893 99.3787C62.8486 98.7858 64.1718 98.8694 65.6322 99.7695C67.458 100.895 69.0631 103.03 70 105.344L64.107 109C63.17 106.686 61.5649 104.551 59.7392 103.426C58.2788 102.525 56.9555 102.442 56 103.035Z" fill="#FF3E61"/>
<path id="Path_72" d="M64 108.647L70.1189 105.342C71.1107 104.807 72.4841 104.882 74 105.695L67.8811 109C66.3652 108.187 64.9918 108.112 64 108.647Z" fill="#FF728C"/>
<path id="Path_73" d="M75.7353 120.44L69.3821 124C71.6332 122.739 73.6385 120.821 73.6468 117.991C73.657 114.525 71.1287 110.302 68 108.56L74.3531 105C77.4818 106.742 80.0102 110.965 80 114.431C79.9917 117.261 77.9864 119.178 75.7353 120.44Z" fill="#FF3E61"/>
<path id="Path_74" d="M68.5612 108.85C71.5746 110.547 74.0098 114.663 74 118.042C73.9822 124.173 64.4616 125.909 63.9606 126C63.4616 125.345 53.9822 112.905 54 106.775C54.0098 103.396 56.461 102.033 59.4744 103.73C61.3702 104.798 63.0369 106.825 64.0098 109.021C64.9923 107.926 66.6653 107.781 68.5612 108.85Z" fill="#CE2846"/>
</g>
</g>
</svg>
