<svg width="192" height="111" viewBox="0 0 192 111" fill="none" xmlns="http://www.w3.org/2000/svg">
<g id="Group 2">
<ellipse id="Oval" cx="96" cy="60.5" rx="96" ry="50.5" fill="#F2F2F2"/>
<g id="Board">
<path id="Path" d="M174 48.4971L99.2447 91L24 48.498L98.7556 3L174 48.4971Z" fill="#FFB657"/>
<path id="Path_2" d="M99 91.1834L98.9775 95L24 50.8172L24.0225 47L99 91.1834Z" fill="#C38F5D"/>
<path id="Path_3" d="M174 47L173.978 50.7966L99 95L99.0226 91.2034L174 47Z" fill="#A07143"/>
<path id="Shape" fill-rule="evenodd" clip-rule="evenodd" d="M98.7556 4L174 47.9996L99.2444 92L24 48.0001L98.7556 4ZM117.06 35.9047L132.646 26.7309L116.958 17.5571L101.371 26.7306L117.06 35.9047ZM169.019 47.9996L153.432 57.1733L137.744 47.9999L153.331 38.8261L169.019 47.9996ZM80.9231 57.1736L96.5094 47.9999L80.8209 38.8261L65.2346 47.9999L80.9231 57.1736ZM132.882 69.2691L117.296 78.4429L101.608 69.2694L117.194 60.0956L132.882 69.2691ZM98.8722 25.2693L114.459 16.0955L98.772 6.9226L83.1855 16.0964L98.8722 25.2693ZM150.832 37.3648L135.245 46.5386L119.558 37.3657L135.145 28.1919L150.832 37.3648ZM98.9918 46.5386L114.577 37.3657L98.8881 28.1919L83.3033 37.3648L98.9918 46.5386ZM78.4404 58.6352L62.8556 67.8081L47.1671 58.6343L62.7519 49.4614L78.4404 58.6352ZM62.7361 46.5386L78.3223 37.3648L62.6356 28.1919L47.0493 37.3657L62.7361 46.5386ZM150.949 58.6349L135.364 67.8078L119.676 58.6343L135.261 49.4614L150.949 58.6349ZM99.2283 89.0771L114.813 79.9042L99.1248 70.7307L83.54 79.9036L99.2283 89.0771ZM114.695 58.6343L99.109 67.8081L83.4222 58.6352L99.0085 49.4614L114.695 58.6343ZM80.8045 35.9038L96.3893 26.7309L80.7025 17.558L65.1177 26.7309L80.8045 35.9038ZM60.2531 48.0001L44.6683 57.173L28.9815 48.0001L44.5663 38.8273L60.2531 48.0001ZM81.0412 78.4423L96.626 69.2694L80.9392 60.0962L65.3544 69.2691L81.0412 78.4423ZM132.762 48.0001L117.178 57.173L101.491 48.0001L117.076 38.8273L132.762 48.0001Z" fill="#FEC377"/>
</g>
<g id="pawn">
<path id="Path_4" d="M77.9838 34.0162C77.9747 33.8822 77.953 33.7042 77.9318 33.5716C77.9095 33.4325 77.8764 33.2471 77.839 33.1111C77.7644 32.84 77.661 32.4772 77.5424 32.2222C77.4342 31.9896 77.2791 31.6843 77.1532 31.4607C77.0774 31.3262 76.9583 31.1576 76.8708 31.0304C76.7358 30.8344 76.5386 30.5835 76.3735 30.4118C76.2547 30.288 76.1005 30.1187 75.9753 30.0014C75.8788 29.9109 75.762 29.805 75.6458 29.7043C75.4411 28.6333 74.6413 27.5911 73.241 26.7563C73.2409 26.7562 73.2406 26.756 73.2404 26.756C73.1994 26.626 73.1586 26.4942 73.1249 26.3822C73.0913 26.2703 72.9954 25.9199 72.9322 25.6492C72.8713 25.3883 72.7096 24.6953 72.605 23.7842C72.5916 23.6678 72.5741 23.5125 72.5649 23.3956C72.5467 23.1683 72.5262 22.8647 72.5134 22.637C72.5072 22.5249 72.5035 22.3776 72.5011 22.2619C72.5008 22.2484 72.5006 22.2348 72.5004 22.2212C72.4984 22.1096 72.4983 21.9691 72.4974 21.8618L72.5164 15.1705C72.5164 15.1771 72.516 15.1836 72.516 15.1901C72.5268 14.3894 72.0136 13.5849 70.9711 12.9634C68.8687 11.7098 65.411 11.6751 63.248 12.8856C62.1406 13.5053 61.5876 14.3315 61.5934 15.1583C61.5934 15.1523 61.5931 15.1461 61.5932 15.14L61.5742 21.8313C61.574 21.9102 61.5729 21.9892 61.5718 22.0681C61.5712 22.101 61.5705 22.1327 61.5699 22.1634C61.5694 22.1921 61.5685 22.2207 61.5677 22.2493C61.5616 22.4736 61.5532 22.6165 61.5531 22.6185C61.5389 22.8462 61.5164 23.1495 61.4968 23.3768C61.4867 23.4936 61.4682 23.6488 61.4542 23.7652C61.3453 24.6661 61.1839 25.3403 61.115 25.6282C61.0547 25.8806 60.9527 26.2458 60.9173 26.3606C60.8841 26.4687 60.844 26.5952 60.8036 26.7206C59.4006 27.5453 58.5918 28.5846 58.381 29.6577C58.1322 29.8793 57.834 30.1602 57.6204 30.3909C57.4372 30.5886 57.2163 30.8738 57.0635 31.0956C56.8943 31.3414 56.6936 31.6871 56.5645 31.956C56.4414 32.2124 56.3155 32.5717 56.2254 32.8415C56.1728 32.9989 56.122 33.2152 56.0964 33.3791C56.0548 33.6451 56.0072 34.0022 56.0018 34.2713C55.9984 34.4387 55.9981 34.6625 56.0163 34.8288C56.0309 34.9622 56.0472 35.1406 56.0685 35.2731C56.091 35.4132 56.1248 35.5999 56.1621 35.7369C56.2357 36.0076 56.3508 36.3649 56.4586 36.6239C56.5088 36.7447 56.5735 36.8838 56.643 37.0201C56.5849 37.1958 56.5259 37.3878 56.4933 37.5469C56.4462 37.7756 56.409 38.0865 56.4037 38.3199C56.3988 38.5414 56.4179 38.8376 56.4494 39.0569C56.4791 39.2644 56.5432 39.538 56.6071 39.7377C56.6836 39.9765 56.8161 40.2852 56.9286 40.5092C57.024 40.699 57.1808 40.9363 57.2979 41.1135C57.4058 41.277 57.569 41.4826 57.7031 41.6254C57.9271 41.8643 58.2439 42.1655 58.4886 42.3832C58.6515 42.528 58.8897 42.6967 59.0682 42.8218C59.2263 42.9326 59.4453 43.0682 59.6097 43.1695C59.8019 43.2881 60.0654 43.4357 60.27 43.5315C60.4684 43.6243 60.7311 43.7525 60.9326 43.8389C61.1309 43.9238 61.3973 44.0332 61.6019 44.102C61.8094 44.1718 62.085 44.2679 62.2946 44.3309C62.5133 44.3968 62.8074 44.4767 63.0292 44.5312C63.6381 44.6811 64.1104 44.758 64.5255 44.8217C64.6897 44.8469 65.2857 44.9322 66.065 44.9746C66.2982 44.9873 66.6094 44.9973 66.843 44.9996C67.0767 45.0019 67.3884 44.9933 67.6221 44.9903C67.8566 44.9874 68.1688 44.9647 68.4026 44.9463C68.6339 44.928 68.9411 44.8917 69.1718 44.868C69.4052 44.8441 69.7151 44.7981 69.9453 44.753C70.1687 44.7092 70.4676 44.6555 70.6896 44.6056C70.9188 44.5541 71.2228 44.4782 71.4491 44.4151C71.8714 44.2972 72.4232 44.102 72.8333 43.9474C73.0487 43.8662 73.3283 43.7378 73.5361 43.6389C73.7239 43.5495 73.9673 43.416 74.1519 43.3199C74.3552 43.2141 74.614 43.0507 74.8034 42.9218C74.957 42.8172 75.1602 42.6752 75.3058 42.56C75.4788 42.4229 75.6991 42.2276 75.8644 42.0815C76.0403 41.926 76.2536 41.6945 76.4002 41.5112C76.5787 41.2883 76.8092 40.9819 76.9458 40.7312C77.0511 40.5381 77.1778 40.273 77.2648 40.071C77.3142 39.9564 77.3642 39.797 77.3995 39.6773C77.4625 39.464 77.5126 39.1705 77.5471 38.9508C77.5651 38.8359 77.566 38.68 77.5742 38.564C77.5895 38.3433 77.5686 38.0455 77.5286 37.8279C77.4909 37.6226 77.4283 37.3511 77.3721 37.1502C77.3649 37.1246 77.3563 37.0972 77.347 37.0692C77.3781 37.0095 77.4083 36.9483 77.4371 36.8862C77.5564 36.6285 77.6974 36.2754 77.7752 36.0026C77.8209 35.8426 77.8723 35.6266 77.9045 35.4634C77.9307 35.3312 77.9583 35.1534 77.9698 35.0191C77.9951 34.7175 78.0155 34.4795 77.9838 34.0162Z" fill="#2E2E30"/>
<g id="Group">
<path id="Path_5" d="M60.183 33.5043C60.1351 33.4711 60.0873 33.438 60.0412 33.4043C60.0411 33.4043 60.0411 33.4044 60.041 33.4044C60.0872 33.4382 60.1352 33.4712 60.183 33.5043Z" fill="#3E3D43"/>
<path id="Path_6" d="M71.3958 40.9511C71.368 40.9601 71.3397 40.9682 71.3118 40.977C71.3117 40.977 71.3116 40.9771 71.3116 40.9771C71.3395 40.9684 71.3679 40.9601 71.3958 40.9511Z" fill="#3E3D43"/>
<path id="Path_7" d="M60.3932 33.6517C60.3534 33.6229 60.3121 33.5947 60.2734 33.5654C60.3121 33.5947 60.3534 33.6229 60.3932 33.6517Z" fill="#3E3D43"/>
<path id="Path_8" d="M72.9657 33.6256C72.935 33.6453 72.9058 33.6656 72.8745 33.6852L72.8746 33.6853C72.906 33.6656 72.935 33.6454 72.9657 33.6256Z" fill="#3E3D43"/>
<path id="Path_9" d="M72.2303 33.0625C72.1778 33.0982 72.1223 33.1329 72.0674 33.1678C72.1223 33.1329 72.1778 33.0982 72.2303 33.0625Z" fill="#3E3D43"/>
<path id="Path_10" d="M61.9104 40.9459C61.9102 40.9458 61.9101 40.9458 61.9099 40.9457C61.8867 40.9382 61.8631 40.9313 61.84 40.9237C61.8633 40.9314 61.887 40.9384 61.9104 40.9459Z" fill="#3E3D43"/>
</g>
<path id="Path_11" d="M76.3179 37.9493C76.0796 38.1998 75.748 38.5215 75.486 38.7471C75.2813 38.9233 74.9933 39.1423 74.7646 39.2863C74.5535 39.4191 74.2731 39.598 74.0565 39.7217C73.8745 39.8256 73.6248 39.9515 73.4368 40.0441C73.0611 40.2291 72.5377 40.4277 72.1462 40.5761C72.097 40.5932 72.0469 40.6094 71.9974 40.626C72.0461 40.6096 72.095 40.594 72.1433 40.5772C72.0749 40.601 72.0066 40.6247 71.9384 40.6486C71.9178 40.6557 71.8906 40.6653 71.8701 40.6725C71.8496 40.6796 71.8223 40.6892 71.8018 40.6964C71.6879 40.7361 71.5741 40.7757 71.4602 40.8155C71.4384 40.8232 71.4157 40.8295 71.3938 40.8368C71.2604 40.8824 71.1256 40.926 70.989 40.967C70.9667 40.9736 70.9451 40.981 70.9227 40.9876C70.7655 41.0337 70.606 41.0764 70.4451 41.1166C70.4028 41.1272 70.3601 41.1371 70.3176 41.1473C70.1894 41.178 70.0603 41.2068 69.9301 41.2337C69.8885 41.2423 69.8471 41.2513 69.8053 41.2596C69.6408 41.292 69.4752 41.3218 69.3083 41.3483C69.2793 41.3528 69.2502 41.3565 69.2212 41.361C69.0793 41.3824 68.9368 41.4018 68.7935 41.419C68.7457 41.4248 68.6977 41.4305 68.6497 41.4357C68.4963 41.4527 68.3424 41.4675 68.188 41.4796C68.1697 41.4811 68.1516 41.483 68.1334 41.4844C67.962 41.4971 67.7901 41.5062 67.6179 41.5129C67.5717 41.5148 67.5256 41.5159 67.4794 41.5173C67.3424 41.5214 67.2053 41.5236 67.0681 41.524C67.0261 41.524 66.9841 41.5247 66.9421 41.5244C66.7703 41.5234 66.5986 41.5197 66.4271 41.5128C66.3938 41.5114 66.3606 41.5091 66.3273 41.5075C66.185 41.5009 66.0432 41.4921 65.9015 41.4813C65.8533 41.4775 65.805 41.4739 65.7569 41.4697C65.5959 41.4559 65.4355 41.4401 65.2758 41.4209C65.2648 41.4196 65.2535 41.4187 65.2425 41.4172C65.0728 41.3966 64.9044 41.372 64.7368 41.3453C64.6911 41.3381 64.6456 41.3302 64.6 41.3225C64.4663 41.2999 64.3336 41.2754 64.2017 41.2489C64.1633 41.2412 64.1248 41.2342 64.0866 41.2262C63.9231 41.1919 63.7612 41.155 63.6008 41.1148C63.5668 41.1063 63.5333 41.0968 63.4995 41.0881C63.3692 41.0543 63.24 41.0185 63.1121 40.9808C63.0683 40.9679 63.0245 40.9551 62.9808 40.9416C62.8254 40.8938 62.6713 40.8442 62.5201 40.7906C62.5188 40.7901 62.5176 40.7898 62.5163 40.7893C62.5158 40.7891 62.5151 40.789 62.5147 40.7888C62.5145 40.7887 62.5143 40.7887 62.5142 40.7886C62.494 40.7815 62.468 40.7722 62.4481 40.7652C62.4379 40.7615 62.4242 40.7567 62.4139 40.7531C62.3934 40.7459 62.3661 40.7362 62.3457 40.7289C62.3252 40.7216 62.2979 40.7119 62.2775 40.7046C62.2673 40.701 62.2536 40.6962 62.2435 40.6925C62.223 40.6852 62.1957 40.6755 62.1753 40.6682C62.1548 40.661 62.1275 40.6513 62.1071 40.644C62.0969 40.6404 62.0832 40.6356 62.0729 40.6318C62.0524 40.6246 62.0252 40.6149 62.0047 40.6076C61.9842 40.6003 61.957 40.5906 61.9366 40.5834C61.9263 40.5797 61.9127 40.5749 61.9024 40.5712C61.882 40.564 61.8546 40.5542 61.8342 40.547C61.89 40.5669 61.9467 40.5855 62.0032 40.6046C61.9457 40.5851 61.888 40.5661 61.8313 40.5459C61.5982 40.4558 61.2859 40.3396 61.056 40.2418C60.8644 40.1603 60.6156 40.0366 60.427 39.9485C60.211 39.8478 59.9334 39.6914 59.7306 39.5663C59.402 39.3638 58.9798 39.0682 58.6717 38.8359C58.49 38.6989 58.2649 38.4943 58.1006 38.3369C57.9193 38.1633 57.687 37.9209 57.5296 37.7254C57.3628 37.5184 57.1629 37.2401 57.0053 37C56.9203 38.517 57.856 40.0532 59.8271 41.2313C63.6773 43.5326 70.0094 43.5965 73.9704 41.3742C76.0629 40.2001 77.0742 38.6229 76.9958 37.0568C76.95 37.1286 76.9074 37.1931 76.8717 37.2463C76.7216 37.4695 76.5027 37.755 76.3179 37.9493Z" fill="#57565C"/>
<g id="Group_2">
<path id="Path_12" d="M61.4107 33.3548C61.3796 33.3342 61.3507 33.3128 61.3202 33.292C61.3507 33.3128 61.3796 33.3342 61.4107 33.3548Z" fill="#3E3D43"/>
<path id="Path_13" d="M73.7714 33.6757C73.7393 33.6986 73.7091 33.722 73.6763 33.7446C73.7091 33.7219 73.7394 33.6985 73.7714 33.6757Z" fill="#3E3D43"/>
<path id="Shape_2" fill-rule="evenodd" clip-rule="evenodd" d="M77.982 34.2627C77.9729 34.1317 77.9512 33.9577 77.93 33.828C77.9077 33.692 77.8746 33.5108 77.8372 33.3779C77.7626 33.1129 77.6592 32.7582 77.5407 32.509C77.4325 32.2816 77.2775 31.9832 77.1516 31.7646C77.0856 31.6501 76.9867 31.5103 76.9044 31.394L76.9044 31.394L76.8692 31.3441C76.7342 31.1525 76.537 30.9073 76.372 30.7394C76.339 30.7058 76.3032 30.6687 76.2661 30.6302L76.266 30.6301C76.1696 30.5302 76.0642 30.421 75.9739 30.3381C75.8767 30.2491 75.7591 30.1454 75.6422 30.0463C75.6471 30.0714 75.652 30.0966 75.6563 30.1217C78.0282 32.3465 77.4783 35.2732 74.0447 37.1522C70.045 39.3408 63.651 39.2778 59.7632 37.0115C56.4857 35.1009 56.0361 32.2344 58.3719 30.0702L58.3762 30.0446C58.3785 30.0304 58.3809 30.0162 58.3837 30.002C58.1347 30.2187 57.8367 30.4932 57.6229 30.7189C57.4398 30.9122 57.219 31.1909 57.0662 31.4078C56.8971 31.648 56.6964 31.986 56.5673 32.2488C56.4442 32.4995 56.3184 32.8506 56.2282 33.1144C56.1757 33.2682 56.1249 33.4797 56.0993 33.6399C56.0577 33.8999 56.0101 34.249 56.0048 34.512C56.0014 34.6756 56.001 34.8944 56.0192 35.057C56.0226 35.0874 56.0262 35.1204 56.0298 35.1545C56.0417 35.2665 56.0551 35.392 56.0714 35.4913C56.0939 35.6282 56.1277 35.8107 56.165 35.9446C56.2386 36.2092 56.3536 36.5584 56.4614 36.8117C56.5116 36.9298 56.5764 37.0657 56.6459 37.199C56.5878 37.3709 56.5288 37.5584 56.4961 37.714C56.449 37.9375 56.4118 38.2414 56.4066 38.4695C56.4016 38.6861 56.4208 38.9756 56.4523 39.19C56.482 39.3928 56.546 39.6603 56.6098 39.8555C56.6863 40.0889 56.8188 40.3907 56.9313 40.6097C57.0266 40.7952 57.1834 41.0271 57.3004 41.2003C57.4085 41.36 57.5715 41.5611 57.7055 41.7008C57.9295 41.9342 58.2462 42.2287 58.4908 42.4415C58.6537 42.5832 58.8918 42.7479 59.0704 42.8703C59.2284 42.9786 59.4474 43.1112 59.6117 43.2102C59.8039 43.3261 60.0673 43.4704 60.2719 43.564C60.3261 43.5888 60.3851 43.6162 60.4463 43.6446L60.4464 43.6446C60.6092 43.7202 60.7879 43.8031 60.9343 43.8645C61.1325 43.9475 61.399 44.0544 61.6035 44.1217C61.6509 44.1373 61.7019 44.1542 61.7548 44.1718L61.7553 44.172L61.7554 44.172C61.9338 44.2313 62.1345 44.2979 62.296 44.3454C62.5147 44.4098 62.8087 44.4879 63.0304 44.5412C63.6392 44.6877 64.1114 44.7629 64.5264 44.8252C64.6905 44.8498 65.2863 44.9331 66.0655 44.9747C66.2986 44.987 66.6098 44.9968 66.8433 44.9991C67.0046 45.0006 67.203 44.9971 67.3872 44.9938H67.3873H67.3874H67.3874H67.3874H67.3875C67.4701 44.9923 67.5499 44.9909 67.6223 44.99C67.8568 44.9871 68.1689 44.965 68.4026 44.9469C68.5622 44.9346 68.7582 44.9138 68.9401 44.8946H68.9401L68.9402 44.8945L68.9403 44.8945L68.9404 44.8945L68.9404 44.8945L68.9404 44.8945C69.0218 44.8859 69.1003 44.8776 69.1716 44.8704C69.4049 44.8472 69.7148 44.8022 69.9449 44.758C70.0103 44.7455 70.0823 44.7321 70.1569 44.7182L70.1569 44.7182L70.1572 44.7182L70.1574 44.7181C70.3371 44.6847 70.5323 44.6484 70.689 44.614C70.9182 44.5636 71.222 44.4894 71.4483 44.4277C71.8705 44.3125 72.4222 44.1217 72.8323 43.9705C73.0477 43.8912 73.3272 43.7657 73.535 43.669C73.6668 43.6077 73.8259 43.5252 73.9729 43.4489L73.9732 43.4488C74.0356 43.4164 74.0958 43.3852 74.1507 43.3573C74.3539 43.2538 74.6127 43.0941 74.802 42.9681C74.9555 42.8659 75.1588 42.7272 75.3043 42.6144C75.4693 42.4866 75.6773 42.3069 75.8396 42.1667L75.8627 42.1467C76.0386 41.9947 76.2518 41.7684 76.3984 41.5893C76.5768 41.3713 76.8073 41.0719 76.9438 40.8268C77.0491 40.638 77.1757 40.379 77.2627 40.1815C77.3121 40.0694 77.3621 39.9136 77.3974 39.7968C77.4604 39.5883 77.5105 39.3014 77.5449 39.0866C77.5571 39.0105 77.5615 38.916 77.5656 38.8276C77.5675 38.7856 77.5694 38.745 77.572 38.7085C77.5874 38.4928 77.5665 38.2017 77.5265 37.989C77.4887 37.7884 77.4262 37.523 77.37 37.3266C77.3628 37.3016 77.3539 37.2744 77.3447 37.247C77.3757 37.1885 77.4063 37.1292 77.435 37.0684C77.5542 36.8167 77.6952 36.4714 77.773 36.2047C77.8186 36.0483 77.8701 35.8372 77.9023 35.6777C77.9285 35.5485 77.956 35.3747 77.9675 35.2434L77.9676 35.2424L77.9676 35.2423C77.9933 34.9475 78.0135 34.715 77.982 34.2627ZM71.7975 41.3097L71.832 41.2979C71.8456 41.2933 71.8592 41.2886 71.8727 41.2838C71.8585 41.2889 71.8441 41.2938 71.8298 41.2987L71.7975 41.3097ZM71.7953 41.3105L71.7501 41.3262C71.7652 41.321 71.7803 41.3158 71.7953 41.3105ZM71.2565 41.4621C71.2207 41.4729 71.1846 41.4832 71.1484 41.4934L71.1052 41.5058L71.1582 41.4906L71.1582 41.4906C71.1911 41.4812 71.2239 41.4719 71.2565 41.4621ZM70.8163 41.5744C70.8584 41.5635 70.9005 41.5527 70.9423 41.5411C70.9009 41.5525 70.8592 41.5633 70.8175 41.574L70.7695 41.5864L70.8163 41.5744ZM70.6246 41.6138C70.5772 41.6256 70.5294 41.6367 70.4816 41.6478L70.4865 41.6467L70.4866 41.6467L70.4866 41.6467L70.4867 41.6466L70.4867 41.6466L70.4868 41.6466L70.4868 41.6466L70.4869 41.6466L70.4869 41.6466L70.487 41.6466L70.487 41.6466L70.4871 41.6465L70.4871 41.6465L70.4872 41.6465L70.4872 41.6465L70.4873 41.6465L70.4873 41.6465L70.4874 41.6465L70.4874 41.6465L70.4875 41.6465L70.4875 41.6464L70.4876 41.6464C70.5333 41.6358 70.5791 41.6252 70.6246 41.6138ZM70.1766 41.7076L70.1767 41.7076L70.1767 41.7076L70.1767 41.7076L70.1766 41.7076L70.13 41.7173L70.1765 41.7076L70.1766 41.7076ZM70.1767 41.7076L70.1767 41.7076C70.219 41.6988 70.2613 41.69 70.3033 41.6806C70.2613 41.6901 70.219 41.6989 70.1767 41.7076ZM69.979 41.7404C69.9235 41.7515 69.8676 41.7617 69.8118 41.7719L69.8147 41.7714C69.8695 41.7614 69.9243 41.7513 69.979 41.7404ZM69.4788 41.8226C69.5367 41.8134 69.5946 41.8042 69.6523 41.7941C69.5968 41.8039 69.541 41.8128 69.4852 41.8216L69.4852 41.8216L69.4852 41.8216L69.4851 41.8216L69.4851 41.8216L69.4851 41.8216L69.4851 41.8216L69.4851 41.8216L69.485 41.8216L69.485 41.8216L69.485 41.8216L69.485 41.8216L69.4849 41.8216L69.4849 41.8217L69.4849 41.8217L69.4849 41.8217L69.4848 41.8217L69.4848 41.8217L69.4848 41.8217L69.4848 41.8217L69.4848 41.8217L69.4788 41.8226ZM68.8443 41.9C68.8932 41.8944 68.9421 41.8888 68.9908 41.8825C68.9418 41.8889 68.8925 41.8945 68.8433 41.9001L68.8443 41.9ZM68.1415 41.9584H68.1415H68.1415H68.1415H68.1415H68.1415H68.1415H68.1415H68.1415H68.1416H68.1416H68.1416H68.1416H68.1416H68.1416C68.2021 41.9542 68.2625 41.9501 68.3229 41.945C68.2669 41.9496 68.2108 41.9535 68.1546 41.9574L68.1546 41.9574L68.1546 41.9574L68.1021 41.9611L68.1415 41.9584ZM67.9866 41.9667C67.9532 41.9688 67.9197 41.9704 67.8863 41.972L67.8196 41.9753L67.8699 41.9729C67.9088 41.9711 67.9478 41.9692 67.9866 41.9667ZM66.6361 41.9896C66.5238 41.9868 66.4115 41.9827 66.2993 41.9775C66.4115 41.9827 66.5238 41.9867 66.6361 41.9896ZM65.8499 41.9543L65.8777 41.9564C65.7939 41.9503 65.7102 41.944 65.6267 41.9363C65.701 41.9432 65.7753 41.9488 65.8496 41.9543L65.8497 41.9543L65.8499 41.9543ZM65.5764 41.935C65.4816 41.926 65.3869 41.9167 65.2925 41.9061C65.3869 41.9168 65.4816 41.9261 65.5764 41.935ZM65.1349 41.892L65.1349 41.892L65.1349 41.892L65.1797 41.8974L65.1474 41.8935L65.1471 41.8935L65.1471 41.8935C65.0845 41.8859 65.0219 41.8784 64.9596 41.8699C65.0178 41.878 65.0763 41.885 65.1348 41.892L65.1348 41.892L65.1349 41.892L65.1349 41.892L65.1349 41.892ZM64.8158 41.8548C64.7534 41.8459 64.6909 41.837 64.6287 41.8271C64.6937 41.8373 64.7591 41.8467 64.8244 41.856L64.8158 41.8548ZM64.2997 41.7777C64.3756 41.7915 64.4518 41.8041 64.528 41.8167L64.4829 41.8092L64.4828 41.8091C64.4217 41.799 64.3606 41.7888 64.2997 41.7777ZM63.8217 41.6979L63.8217 41.6979C63.7645 41.6856 63.7073 41.6734 63.6506 41.6602C63.7083 41.6736 63.7663 41.686 63.8244 41.6985L63.8217 41.6979ZM63.5186 41.6382L63.4658 41.6255C63.4206 41.6147 63.3753 41.6038 63.3304 41.5923C63.3728 41.6032 63.4154 41.6134 63.4581 41.6236L63.4581 41.6236L63.4581 41.6236L63.4581 41.6236L63.4581 41.6236L63.4581 41.6236L63.5186 41.6382ZM63.1514 41.5549L63.1997 41.5678L63.147 41.5537L63.147 41.5537L63.1469 41.5537L63.1468 41.5537L63.1468 41.5537C63.1023 41.5419 63.0578 41.5301 63.0135 41.5176C63.0593 41.5305 63.1053 41.5427 63.1514 41.5549ZM62.8294 41.4749C62.7864 41.4623 62.7434 41.4498 62.7007 41.4366C62.7438 41.4498 62.7871 41.4625 62.8306 41.4752L62.8826 41.4905L62.8294 41.4749ZM62.3915 41.349C62.4419 41.3659 62.4928 41.3821 62.5436 41.3983L62.5402 41.3972L62.5402 41.3972C62.4905 41.3814 62.4408 41.3656 62.3915 41.349ZM62.272 41.3202L62.2561 41.3147L62.178 41.2873L62.1498 41.2772L62.1211 41.2672C62.1098 41.2633 62.0985 41.2594 62.0873 41.2552C62.0994 41.2597 62.1117 41.264 62.1239 41.2682L62.1503 41.2774L62.178 41.2873C62.2092 41.2984 62.2406 41.3093 62.272 41.3202ZM71.464 41.4088L71.462 41.4094C71.4971 41.3985 71.5322 41.3876 71.5669 41.3761C71.5328 41.3873 71.4984 41.3981 71.464 41.4088ZM66.2351 41.9759C66.1442 41.9713 66.0534 41.9664 65.9627 41.9601C66.0534 41.9664 66.1442 41.9713 66.2351 41.9759ZM59.7673 41.8261C63.6452 44.0866 70.0232 44.1495 74.0128 41.9664C76.1204 40.813 77.1391 39.2637 77.0597 37.7258C77.0137 37.7964 76.9708 37.8597 76.9348 37.9119C76.7839 38.1306 76.5635 38.411 76.3773 38.6019C76.1373 38.848 75.8034 39.1641 75.5394 39.3857C75.3332 39.5588 75.0432 39.7738 74.8128 39.9153C74.7882 39.9304 74.7628 39.9461 74.7366 39.9622C74.5359 40.0858 74.2925 40.2357 74.0996 40.3431C73.9162 40.4451 73.6647 40.5688 73.4753 40.6597C73.0991 40.8405 72.5757 41.0342 72.182 41.1799L72.1755 41.1824C72.1414 41.1939 72.1069 41.2051 72.0724 41.2162C72.0568 41.2212 72.0412 41.2263 72.0256 41.2314C72.0409 41.2264 72.0562 41.2215 72.0715 41.2165C72.1053 41.2056 72.1391 41.1947 72.1725 41.1834L71.9661 41.2536L71.8973 41.2771L71.8286 41.3005L71.4845 41.4176C71.4734 41.4213 71.462 41.4248 71.4506 41.4282C71.4395 41.4315 71.4285 41.4349 71.4176 41.4385C71.2832 41.4832 71.1475 41.5261 71.0099 41.5663C70.9992 41.5695 70.9887 41.5727 70.9781 41.576C70.9665 41.5796 70.9549 41.5832 70.9431 41.5866C70.7847 41.6319 70.6241 41.6739 70.4621 41.7134C70.4334 41.7204 70.4046 41.727 70.3757 41.7337C70.3617 41.7369 70.3477 41.7402 70.3336 41.7435C70.2045 41.7736 70.0745 41.8019 69.9434 41.8283C69.9314 41.8308 69.9194 41.8332 69.9074 41.8357C69.8775 41.8418 69.8477 41.848 69.8176 41.8538C69.652 41.8856 69.4851 41.9149 69.317 41.9409C69.3009 41.9434 69.2847 41.9456 69.2685 41.9478C69.2554 41.9496 69.2423 41.9514 69.2293 41.9534C69.0863 41.9745 68.9427 41.9935 68.7986 42.0104C68.7503 42.0161 68.7021 42.0216 68.6537 42.0268C68.4992 42.0434 68.3442 42.058 68.1886 42.0699C68.1797 42.0706 68.1706 42.0714 68.1616 42.0722C68.1523 42.073 68.143 42.0739 68.1336 42.0746C67.9611 42.0872 67.7878 42.0961 67.6144 42.1027C67.5823 42.1039 67.5501 42.1048 67.5179 42.1057C67.5035 42.1061 67.4892 42.1065 67.4749 42.107C67.3369 42.111 67.1987 42.1131 67.0606 42.1135C67.0448 42.1135 67.0289 42.1136 67.013 42.1137C66.9866 42.1139 66.9602 42.1141 66.9337 42.1139C66.7607 42.113 66.5876 42.1093 66.415 42.1025C66.3961 42.1017 66.3773 42.1007 66.3584 42.0997C66.3438 42.0989 66.3291 42.098 66.3144 42.0974C66.1712 42.0907 66.0282 42.0821 65.8856 42.0715C65.8371 42.068 65.7884 42.0643 65.7399 42.0602C65.5778 42.0466 65.4161 42.031 65.2554 42.0122C65.2498 42.0116 65.2442 42.011 65.2386 42.0105C65.233 42.0099 65.2274 42.0093 65.2219 42.0087C65.051 41.9883 64.8813 41.9642 64.7125 41.938C64.6755 41.9324 64.6388 41.9263 64.6021 41.9202C64.5929 41.9186 64.5838 41.9171 64.5746 41.9156C64.4401 41.8934 64.3064 41.8693 64.1735 41.8433C64.1591 41.8405 64.1448 41.8378 64.1304 41.8351C64.1061 41.8305 64.0817 41.8259 64.0576 41.821C63.8929 41.7873 63.7298 41.7509 63.5683 41.7115C63.5481 41.7066 63.5281 41.7014 63.5081 41.6961C63.4941 41.6925 63.4802 41.6888 63.4662 41.6853C63.335 41.6522 63.2049 41.6169 63.0761 41.5799C63.0318 41.5672 62.9877 41.5545 62.9438 41.5414C62.7873 41.4946 62.632 41.4457 62.4797 41.3931L62.4759 41.3918L62.4743 41.3913L62.4738 41.3911L62.4072 41.3681L62.3728 41.3563L62.3041 41.3324L62.2354 41.3086L62.2011 41.2967L62.1325 41.2729L62.0638 41.2491L62.0294 41.2371L61.9607 41.2133L61.892 41.1895L61.8576 41.1776L61.7889 41.1538C61.8306 41.1682 61.8729 41.182 61.9151 41.1959C61.9298 41.2007 61.9444 41.2055 61.9591 41.2104C61.9438 41.2053 61.9285 41.2003 61.9132 41.1953C61.8706 41.1813 61.8281 41.1673 61.7859 41.1527C61.73 41.1316 61.6695 41.1091 61.6066 41.0856C61.4059 41.0108 61.1814 40.9271 61.0051 40.854C60.8734 40.7993 60.7148 40.7253 60.567 40.6564C60.4982 40.6243 60.4318 40.5933 60.3715 40.5659C60.1539 40.4669 59.8744 40.3133 59.6701 40.1904C59.3391 39.9915 58.9138 39.7011 58.6035 39.4729C58.4205 39.3383 58.1937 39.1373 58.0283 38.9827C57.8458 38.8122 57.6117 38.574 57.4532 38.382C57.2851 38.1786 57.0837 37.9054 56.9251 37.6694C56.8394 39.1596 57.7818 40.6687 59.7673 41.8261Z" fill="#3E3D43"/>
</g>
<path id="Path_14" d="M75.6084 30.5467L75.6042 32.0548C75.6042 32.0654 75.6029 32.0759 75.6028 32.0864C75.6023 32.1289 75.5995 32.1714 75.5972 32.214C75.595 32.2535 75.5933 32.293 75.5896 32.3324C75.5856 32.3749 75.5793 32.4173 75.5735 32.4598C75.5681 32.4992 75.5633 32.5384 75.5564 32.5776C75.5489 32.6201 75.5391 32.6624 75.5297 32.7048C75.5211 32.7439 75.5133 32.7828 75.5032 32.8218C75.4922 32.8641 75.4788 32.9061 75.4661 32.9482C75.4543 32.987 75.4433 33.0259 75.4299 33.0645C75.4155 33.1065 75.3986 33.1483 75.3823 33.1901C75.3674 33.2285 75.3532 33.2669 75.3368 33.3052C75.3188 33.347 75.2982 33.3885 75.2785 33.43C75.2604 33.4678 75.2433 33.5058 75.2238 33.5434C75.2022 33.585 75.178 33.626 75.1545 33.6673C75.1334 33.7045 75.1133 33.7417 75.0907 33.7786C75.0655 33.8199 75.0375 33.8606 75.0105 33.9014C74.9863 33.9378 74.9634 33.9744 74.9379 34.0104C74.909 34.0512 74.8773 34.0915 74.8466 34.1318C74.8195 34.1674 74.7935 34.2032 74.765 34.2385C74.7457 34.2624 74.7246 34.286 74.7047 34.3096C74.6945 34.3217 74.6839 34.3335 74.6735 34.3455C74.6735 34.3455 74.6735 34.3455 74.6735 34.3454C74.5595 34.478 74.4354 34.6084 74.3004 34.7357C74.3004 34.7358 74.3005 34.7359 74.3006 34.736C74.278 34.7573 74.2544 34.7783 74.2312 34.7996C74.1965 34.8313 74.1632 34.8634 74.1271 34.8947C74.081 34.9349 74.0315 34.9742 73.9831 35.0138C73.9468 35.0434 73.9123 35.0735 73.8747 35.1027C73.8223 35.1436 73.7666 35.1835 73.7118 35.2238C73.6751 35.2507 73.6402 35.2781 73.6024 35.3046C73.5401 35.3484 73.4743 35.3911 73.409 35.4339C73.3758 35.4557 73.3444 35.4782 73.3103 35.4997C73.2096 35.5636 73.1056 35.6264 72.9984 35.6878C69.5923 37.6387 64.1474 37.5825 60.8367 35.5624C60.7341 35.4997 60.6348 35.4359 60.5386 35.3711C60.5071 35.3499 60.478 35.3277 60.4471 35.3062C60.3839 35.2622 60.3203 35.2183 60.2601 35.1733C60.2245 35.1467 60.1915 35.1192 60.1569 35.0922C60.1045 35.0515 60.0513 35.011 60.0012 34.9697C59.9652 34.9399 59.932 34.9093 59.8974 34.8792C59.8519 34.8397 59.8052 34.8005 59.7618 34.7604C59.7376 34.7382 59.7156 34.7155 59.6921 34.693L59.6922 34.6929C59.5576 34.5644 59.4327 34.4334 59.3193 34.2998C59.3191 34.2999 59.3189 34.3001 59.3188 34.3001C59.3087 34.2883 59.2999 34.2763 59.29 34.2643C59.2788 34.251 59.2684 34.2373 59.2574 34.2239C59.2246 34.1838 59.1911 34.1438 59.1601 34.1033C59.1335 34.0682 59.1093 34.0326 59.0841 33.9973C59.0552 33.9569 59.0255 33.9168 58.9984 33.876C58.9745 33.84 58.9532 33.8037 58.9308 33.7675C58.9056 33.7269 58.8796 33.6862 58.8563 33.6453C58.8354 33.6087 58.8169 33.5718 58.7974 33.535C58.7757 33.494 58.7534 33.4531 58.7335 33.4118C58.7155 33.3745 58.7 33.3371 58.6835 33.2996C58.6654 33.2583 58.6466 33.2172 58.6302 33.1757C58.6153 33.1379 58.6028 33.1 58.5893 33.0621C58.5746 33.0205 58.5593 32.9792 58.5463 32.9376C58.5345 32.8994 58.5248 32.8611 58.5145 32.8227C58.5032 32.781 58.4914 32.7396 58.4819 32.6978C58.4731 32.6593 58.4665 32.6207 58.4591 32.5821C58.4512 32.5403 58.4429 32.4986 58.4368 32.457C58.4311 32.4183 58.4274 32.3795 58.4232 32.3407C58.4187 32.2989 58.4138 32.2571 58.411 32.2152C58.4085 32.1764 58.4078 32.1375 58.4068 32.0985C58.406 32.0675 58.4032 32.0367 58.4033 32.0058L58.4075 30.4977C58.4074 30.5286 58.4101 30.5595 58.4109 30.5904C58.4054 30.3933 58.4186 30.1963 58.4517 30C56.1386 32.2432 56.5839 35.2143 59.8294 37.1946C63.6792 39.5436 70.0108 39.609 73.9715 37.3404C77.3717 35.393 77.9162 32.3594 75.5674 30.0533C75.5956 30.2279 75.6093 30.403 75.6069 30.5781C75.6071 30.5678 75.6083 30.5573 75.6084 30.5467Z" fill="#57565C"/>
<g id="Group_3">
<path id="Path_15" d="M58.1263 30.6914C58.1332 30.73 58.1426 30.7684 58.1515 30.8068C58.1426 30.7684 58.1332 30.7299 58.1263 30.6914Z" fill="#3E3D43"/>
<path id="Path_16" d="M58.1017 30.4688C58.1048 30.5073 58.1104 30.5458 58.1155 30.5844C58.1103 30.5458 58.1048 30.5072 58.1017 30.4688Z" fill="#3E3D43"/>
<path id="Path_17" d="M74.8939 30.8019C74.9017 30.7658 74.9072 30.7296 74.9132 30.6934C74.9072 30.7295 74.9017 30.7658 74.8939 30.8019Z" fill="#3E3D43"/>
<path id="Path_18" d="M74.8702 30.9199C74.8614 30.9529 74.8532 30.9859 74.843 31.0187C74.8431 31.0191 74.8432 31.0194 74.8434 31.0199C74.8537 30.9867 74.8613 30.9533 74.8702 30.9199Z" fill="#3E3D43"/>
<path id="Path_19" d="M74.9266 30.576C74.9308 30.5395 74.9328 30.5031 74.9352 30.4668C74.9328 30.5033 74.9308 30.5396 74.9266 30.576Z" fill="#3E3D43"/>
<path id="Path_20" d="M58.1888 30.9825C58.1832 30.9602 58.1763 30.9382 58.171 30.9159C58.1763 30.9389 58.1823 30.9619 58.1881 30.9849C58.1884 30.9842 58.1886 30.9834 58.1888 30.9825Z" fill="#3E3D43"/>
<path id="Path_21" d="M58.092 30.3613C58.0931 30.3971 58.0937 30.4331 58.0963 30.4689C58.0989 30.5075 58.1038 30.546 58.1082 30.5846C58.1123 30.6202 58.1159 30.6561 58.1215 30.6916C58.1275 30.7302 58.1356 30.7686 58.1434 30.8071C58.1506 30.8426 58.1571 30.8783 58.1656 30.9137C58.1702 30.9323 58.1761 30.9506 58.1811 30.9692C58.1864 30.9891 58.1918 31.0091 58.1976 31.029C58.2078 31.0642 58.2173 31.0996 58.2289 31.1348C58.2415 31.1732 58.2565 31.2114 58.2709 31.2496C58.2841 31.2846 58.2964 31.3196 58.311 31.3543C58.3271 31.3926 58.3455 31.4306 58.3633 31.4686C58.3794 31.5031 58.3947 31.5376 58.4121 31.5719C58.4317 31.61 58.4536 31.6477 58.4748 31.6856C58.4938 31.7196 58.5119 31.7536 58.5323 31.7873C58.5551 31.825 58.5806 31.8625 58.6052 31.8999C58.6272 31.9332 58.6481 31.9667 58.6715 32C58.6979 32.0375 58.7271 32.0746 58.7554 32.1118C58.7801 32.1444 58.8037 32.1772 58.8299 32.2095C58.86 32.2468 58.8928 32.2836 58.9248 32.3206C58.9522 32.3521 58.9784 32.3841 59.0071 32.4155C59.0411 32.4526 59.0779 32.4891 59.1137 32.5257C59.1437 32.5564 59.1723 32.5873 59.2035 32.6176C59.2416 32.6546 59.2827 32.6909 59.3228 32.7275C59.3549 32.7567 59.3856 32.7863 59.419 32.8153C59.4618 32.8525 59.5077 32.8888 59.5525 32.9254C59.5864 32.953 59.6187 32.9811 59.6537 33.0083C59.7026 33.0466 59.7548 33.0838 59.8061 33.1213C59.84 33.1461 59.8723 33.1715 59.9072 33.1961C59.9149 33.2015 59.9233 33.2066 59.9311 33.2121C59.937 33.2161 59.9434 33.2201 59.9494 33.2243C59.9953 33.256 60.0428 33.2874 60.0904 33.3186C60.1206 33.3384 60.1492 33.3588 60.1801 33.3784C60.2185 33.4028 60.2597 33.4263 60.2991 33.4503C60.3564 33.4852 60.4124 33.5205 60.472 33.5547C63.7145 35.4171 69.0473 35.4689 72.3832 33.6704C72.4883 33.6137 72.5901 33.5559 72.6887 33.497C72.6947 33.4933 72.7003 33.4895 72.7063 33.4859C72.7333 33.4696 72.7588 33.4527 72.7854 33.4362C72.8493 33.3967 72.9138 33.3574 72.9748 33.317C73.0033 33.2981 73.0295 33.2786 73.0573 33.2596C73.0654 33.2541 73.0733 33.2484 73.0812 33.2429C73.0817 33.2426 73.0822 33.2422 73.0828 33.2418C73.1361 33.205 73.1904 33.1684 73.2415 33.1309C73.2785 33.1036 73.3127 33.0757 73.3486 33.0481C73.3956 33.0119 73.4438 32.9759 73.4888 32.9391C73.5242 32.9101 73.5567 32.8806 73.5907 32.8513C73.633 32.815 73.6762 32.779 73.7165 32.7421C73.7497 32.7117 73.7803 32.6806 73.8121 32.6498C73.85 32.6133 73.8887 32.5772 73.9246 32.5403C73.9554 32.5087 73.9835 32.4764 74.013 32.4445C74.0469 32.4077 74.0815 32.3711 74.1136 32.3341C74.1416 32.3016 74.1669 32.2685 74.1934 32.2357C74.2236 32.1985 74.2546 32.1614 74.2829 32.1238C74.3078 32.0906 74.3305 32.0568 74.354 32.0233C74.3805 31.9856 74.4079 31.948 74.4326 31.9101C74.4548 31.8761 74.4745 31.8417 74.4951 31.8075C74.518 31.7694 74.5418 31.7315 74.5629 31.6932C74.582 31.6586 74.5988 31.6236 74.6165 31.5888C74.636 31.5505 74.6561 31.5122 74.6737 31.4737C74.6898 31.4386 74.7036 31.4031 74.7182 31.3676C74.7341 31.3291 74.7506 31.2906 74.7648 31.2518C74.7779 31.2162 74.7887 31.1804 74.8002 31.1446C74.8127 31.1058 74.8258 31.0671 74.8366 31.0281C74.8374 31.0246 74.8381 31.0211 74.839 31.0178C74.8478 30.9853 74.855 30.9527 74.8626 30.9203C74.8718 30.8812 74.8812 30.8422 74.8886 30.8031C74.8954 30.7669 74.9001 30.7307 74.9054 30.6945C74.9111 30.6554 74.9171 30.6162 74.9211 30.577C74.9247 30.5406 74.9264 30.5041 74.9285 30.4678C74.9308 30.4286 74.9334 30.3895 74.934 30.3502C74.9362 30.1888 74.9227 30.0274 74.8953 29.8664C74.8912 29.8424 74.8864 29.8183 74.8816 29.7943C74.6826 28.7946 73.9091 27.8215 72.5522 27.0421C72.552 27.042 72.5517 27.0418 72.5515 27.0417C72.5854 27.1449 72.6194 27.2469 72.6493 27.3351C72.6827 27.433 72.7317 27.5621 72.7685 27.659C72.8925 27.9852 73.0215 28.2748 73.0227 28.2775C73.0644 28.3691 73.1178 28.4924 73.162 28.5831C73.2036 28.6686 73.2578 28.783 73.3006 28.868C73.3446 28.9556 73.4048 29.0717 73.4509 29.1583C73.4575 29.1706 73.463 29.1831 73.4694 29.1955C73.4786 29.2132 73.4873 29.2311 73.496 29.249C73.5165 29.2909 73.5356 29.3329 73.5537 29.3751C73.5604 29.391 73.5677 29.4069 73.5741 29.423C73.597 29.4798 73.6183 29.5369 73.6368 29.5941C73.6394 29.6021 73.6414 29.6103 73.644 29.6185C73.6595 29.6681 73.6731 29.7177 73.6853 29.7676C73.6896 29.7856 73.6935 29.8036 73.6975 29.8217C73.7069 29.8641 73.7148 29.9066 73.7217 29.9492C73.7244 29.9662 73.7275 29.9831 73.7298 30C73.7378 30.0579 73.7442 30.1159 73.7478 30.1739C73.7481 30.178 73.748 30.1821 73.7481 30.1862C73.7506 30.2302 73.7521 30.2741 73.752 30.3181C73.752 30.3264 73.7509 30.3348 73.7508 30.3432C73.7504 30.3768 73.7481 30.4105 73.7461 30.4441C73.7443 30.4754 73.7428 30.5067 73.7397 30.538C73.7363 30.5716 73.7311 30.6053 73.7262 30.6389C73.7217 30.6701 73.7176 30.7012 73.7118 30.7322C73.7055 30.7658 73.6973 30.7994 73.6894 30.8329C73.6821 30.8639 73.6755 30.8949 73.667 30.9258C73.6577 30.9593 73.6465 30.9926 73.6358 31.0261C73.6259 31.0568 73.6167 31.0875 73.6055 31.1181C73.5932 31.1515 73.579 31.1846 73.5652 31.2179C73.5527 31.2482 73.5408 31.2786 73.5271 31.3087C73.512 31.3418 73.4946 31.3746 73.478 31.4076C73.4627 31.4376 73.4483 31.4676 73.4318 31.4975C73.4137 31.5304 73.3933 31.563 73.3735 31.5956C73.3558 31.6251 73.3388 31.6546 73.3198 31.6838C73.2986 31.7165 73.2752 31.7486 73.2524 31.7811C73.2321 31.81 73.2126 31.839 73.1911 31.8676C73.1668 31.9 73.1402 31.9317 73.1144 31.9636C73.0916 31.9919 73.0697 32.0202 73.0457 32.0483C73.0182 32.0802 72.9883 32.1118 72.9591 32.1434C72.934 32.1708 72.9098 32.1984 72.8833 32.2256C72.8524 32.2573 72.819 32.2884 72.7865 32.3198C72.7591 32.3462 72.7328 32.3729 72.7043 32.3991C72.6698 32.4306 72.6326 32.4616 72.5963 32.4928C72.5671 32.518 72.539 32.5435 72.5086 32.5684C72.4698 32.6001 72.4283 32.6311 72.3877 32.6624C72.3571 32.686 72.3278 32.7098 72.2962 32.7331C72.2524 32.7654 72.2058 32.7966 72.1602 32.8282C72.129 32.8498 72.0991 32.8718 72.067 32.8931C72.0147 32.9277 71.9596 32.9613 71.905 32.9951C71.8768 33.0126 71.85 33.0306 71.8212 33.0478C71.7364 33.0985 71.649 33.1482 71.5586 33.1969C68.6913 34.7427 64.1077 34.6982 61.3208 33.0976C61.2344 33.0479 61.1508 32.9974 61.07 32.9461C61.043 32.9289 61.0179 32.9111 60.9915 32.8937C60.9388 32.8591 60.8857 32.8247 60.8355 32.7894C60.8049 32.7679 60.7765 32.7456 60.7468 32.7238C60.7033 32.692 60.6592 32.6603 60.6176 32.6281C60.5872 32.6043 60.5591 32.58 60.5296 32.556C60.4914 32.5248 60.4523 32.4938 60.4159 32.4621C60.3871 32.4371 60.3606 32.4116 60.333 32.3864C60.2986 32.3551 60.2634 32.324 60.2307 32.2921C60.2037 32.2659 60.1789 32.2392 60.1532 32.2128C60.1226 32.1814 60.091 32.1502 60.0619 32.1185C60.0372 32.0915 60.0147 32.064 59.991 32.0367C59.9635 32.0051 59.9353 31.9734 59.9095 31.9415C59.8872 31.9137 59.8669 31.8856 59.8456 31.8576C59.8213 31.8256 59.7963 31.7936 59.7734 31.7613C59.7534 31.7329 59.7355 31.7042 59.7167 31.6756C59.6954 31.6433 59.6736 31.6111 59.6538 31.5786C59.6362 31.5496 59.6207 31.5204 59.6043 31.4912C59.5861 31.4587 59.5673 31.4263 59.5504 31.3936C59.5354 31.3641 59.5223 31.3343 59.5084 31.3047C59.493 31.2721 59.4773 31.2394 59.4635 31.2066C59.4511 31.1766 59.4404 31.1466 59.429 31.1166C59.4166 31.0836 59.4037 31.0508 59.3929 31.0178C59.3829 30.9876 59.3747 30.9573 59.3661 30.927C59.3565 30.894 59.3465 30.861 59.3386 30.8278C59.3311 30.7973 59.3256 30.7668 59.3195 30.7362C59.3129 30.7031 59.3059 30.6701 59.3007 30.637C59.2959 30.6062 59.2928 30.5755 59.2892 30.5447C59.2854 30.5116 59.2813 30.4785 59.279 30.4454C59.2768 30.4146 59.2763 30.3839 59.2753 30.3531C59.2746 30.3285 59.2724 30.304 59.2725 30.2793C59.2725 30.2691 59.2733 30.2589 59.2736 30.2487C59.2739 30.2311 59.2748 30.2134 59.2755 30.1957C59.2772 30.1531 59.2801 30.1106 59.2842 30.0681C59.2859 30.0506 59.2874 30.0331 59.2895 30.0156C59.2961 29.96 59.3044 29.9045 59.3152 29.8491C59.3157 29.8466 59.3159 29.8441 59.3165 29.8416C59.328 29.7837 59.3424 29.7262 59.3582 29.6687C59.3629 29.6517 59.3684 29.6347 59.3735 29.6178C59.3862 29.5757 59.4 29.5338 59.4151 29.492C59.4215 29.4742 59.4277 29.4564 59.4347 29.4386C59.4537 29.389 59.4745 29.3396 59.4969 29.2905C59.5004 29.2829 59.5034 29.2752 59.5069 29.2676C59.5299 29.2184 59.5545 29.1692 59.581 29.1205C59.6689 28.9532 59.7835 28.7288 59.8672 28.5596C59.912 28.469 59.9664 28.346 60.0088 28.2544C60.0101 28.2518 60.1452 27.9528 60.2674 27.6373C60.305 27.5406 60.3548 27.4116 60.3889 27.3137C60.4205 27.2231 60.4562 27.1179 60.4918 27.0117C59.1335 27.7817 58.3483 28.7508 58.144 29.7523C58.1395 29.774 58.1363 29.7957 58.1325 29.8176C58.0995 29.9979 58.0866 30.1796 58.092 30.3613Z" fill="#3E3D43"/>
</g>
<path id="Path_22" d="M60.9977 23.062C60.9994 23.0211 61.0013 22.9803 61.0026 22.9395C61.0011 22.9848 60.9994 23.026 60.9977 23.062Z" fill="#2E2E30"/>
<path id="Path_23" d="M60.0307 27.2453C59.904 27.5639 59.7641 27.8658 59.7628 27.8683C59.7189 27.9608 59.6625 28.0851 59.6161 28.1764C59.5295 28.3473 59.4108 28.5739 59.3196 28.7427C59.2922 28.792 59.2668 28.8415 59.2429 28.8912C59.2392 28.8989 59.2362 28.9066 59.2325 28.9144C59.2093 28.964 59.1879 29.0139 59.168 29.0639C59.1609 29.0818 59.1544 29.0998 59.1477 29.1178C59.1322 29.1601 59.1178 29.2024 59.1047 29.2448C59.0994 29.262 59.0938 29.2792 59.0889 29.2962C59.0723 29.3543 59.0575 29.4124 59.0456 29.4707C59.0452 29.4733 59.0449 29.4758 59.0443 29.4783C59.0332 29.5343 59.0246 29.5903 59.0176 29.6464C59.0155 29.6641 59.0138 29.6817 59.0121 29.6995C59.0079 29.7424 59.0048 29.7854 59.0031 29.8283C59.0024 29.8461 59.0015 29.864 59.0012 29.8818C59.001 29.8921 59 29.9024 59 29.9127C58.9999 29.9375 59.0022 29.9622 59.003 29.9871C59.0039 30.0182 59.0045 30.0493 59.0067 30.0804C59.0092 30.1139 59.0134 30.1473 59.0173 30.1807C59.021 30.2117 59.0242 30.2427 59.0292 30.2738C59.0346 30.3072 59.0418 30.3406 59.0487 30.374C59.0551 30.4049 59.0609 30.4357 59.0685 30.4665C59.0768 30.4999 59.0871 30.5333 59.097 30.5666C59.1059 30.5972 59.1144 30.6277 59.1247 30.6583C59.1359 30.6916 59.1493 30.7247 59.1622 30.758C59.174 30.7883 59.1849 30.8186 59.1979 30.8488C59.2122 30.882 59.2287 30.9149 59.2444 30.9479C59.2588 30.9779 59.2723 31.0079 59.288 31.0377C59.3053 31.0708 59.3249 31.1035 59.3438 31.1362C59.3607 31.1657 59.3768 31.1952 59.3951 31.2245C59.4156 31.2574 59.4383 31.2898 59.4602 31.3224C59.4797 31.3513 59.4982 31.3803 59.519 31.4089C59.5425 31.4416 59.5686 31.4738 59.5937 31.5062C59.6157 31.5344 59.6368 31.5628 59.66 31.5908C59.6867 31.6232 59.716 31.655 59.7443 31.687C59.7689 31.7145 59.7922 31.7422 59.8178 31.7695C59.8479 31.8016 59.8805 31.833 59.9124 31.8647C59.9391 31.8915 59.9647 31.9183 59.9927 31.9448C60.0266 31.9768 60.063 32.0083 60.0986 32.04C60.1273 32.0655 60.1548 32.0912 60.1845 32.1165C60.2223 32.1484 60.2627 32.1796 60.3023 32.2112C60.3329 32.2354 60.3619 32.2601 60.3935 32.284C60.4365 32.3167 60.4823 32.3486 60.5273 32.3806C60.5581 32.4026 60.5875 32.4251 60.6192 32.4469C60.6712 32.4825 60.7262 32.5173 60.7808 32.5522C60.8082 32.5697 60.834 32.5877 60.8621 32.605C60.9459 32.6568 61.0324 32.708 61.1219 32.758C64.009 34.374 68.7573 34.4189 71.7277 32.8583C71.8213 32.8091 71.9118 32.7589 71.9997 32.7078C72.0296 32.6903 72.0574 32.6722 72.0866 32.6546C72.1432 32.6205 72.2003 32.5865 72.2544 32.5516C72.2877 32.5301 72.3186 32.5079 72.351 32.4861C72.3983 32.4542 72.4466 32.4225 72.4918 32.3901C72.5246 32.3666 72.5549 32.3424 72.5866 32.3186C72.6287 32.2871 72.6717 32.2558 72.7119 32.2237C72.7433 32.1986 72.7724 32.1728 72.8027 32.1474C72.8403 32.116 72.8787 32.0847 72.9146 32.0528C72.9442 32.0264 72.9714 31.9994 72.9998 31.9728C73.0335 31.9411 73.0681 31.9097 73.1 31.8776C73.1274 31.8502 73.1524 31.8223 73.1786 31.7947C73.2087 31.7628 73.2397 31.7309 73.2682 31.6987C73.2931 31.6705 73.3158 31.6417 73.3394 31.6132C73.3662 31.581 73.3938 31.5487 73.4189 31.5163C73.4413 31.4873 73.4613 31.458 73.4824 31.4288C73.506 31.3961 73.5303 31.3636 73.5523 31.3307C73.5719 31.3011 73.5895 31.2714 73.6079 31.2417C73.6283 31.2087 73.6494 31.1758 73.6683 31.1425C73.6853 31.1124 73.7003 31.0821 73.7161 31.0518C73.7333 31.0185 73.7513 30.9854 73.7669 30.952C73.7812 30.9215 73.7935 30.8909 73.8065 30.8603C73.8207 30.8267 73.8355 30.7932 73.8481 30.7595C73.8597 30.7286 73.8694 30.6976 73.8796 30.6666C73.8907 30.633 73.9023 30.5993 73.9119 30.5654C73.9207 30.5342 73.9277 30.5029 73.9351 30.4716C73.9432 30.4378 73.9517 30.4039 73.9583 30.37C73.9643 30.3386 73.9685 30.3071 73.9732 30.2757C73.9783 30.2418 73.9837 30.2078 73.9872 30.1738C73.9906 30.1423 73.992 30.1107 73.9939 30.079C73.996 30.0451 73.9983 30.0111 73.9987 29.9772C73.9988 29.9688 74 29.9603 74 29.9518C74.0001 29.9074 73.9985 29.8631 73.996 29.8187C73.9957 29.8146 73.9959 29.8104 73.9956 29.8063C73.9919 29.7477 73.9853 29.6891 73.977 29.6307C73.9746 29.6136 73.9714 29.5965 73.9685 29.5794C73.9615 29.5364 73.9532 29.4935 73.9435 29.4507C73.9393 29.4325 73.9353 29.4142 73.9308 29.396C73.9182 29.3457 73.904 29.2956 73.888 29.2455C73.8854 29.2374 73.8834 29.2291 73.8806 29.2209C73.8614 29.163 73.8394 29.1055 73.8157 29.0481C73.8091 29.032 73.8015 29.016 73.7945 28.9998C73.7758 28.9572 73.756 28.9148 73.7348 28.8725C73.7258 28.8545 73.7166 28.8365 73.7072 28.8185C73.7006 28.806 73.6948 28.7934 73.688 28.7809C73.6401 28.6935 73.5779 28.5763 73.5323 28.4878C73.4881 28.402 73.4319 28.2865 73.3887 28.2002C73.3431 28.1086 73.2877 27.9843 73.2444 27.8917C73.2432 27.8891 73.1097 27.5966 72.9811 27.2672C72.943 27.1695 72.8921 27.0391 72.8576 26.9402C72.8265 26.8512 72.7913 26.7482 72.7564 26.644C72.7151 26.5215 72.6741 26.3972 72.6404 26.2916C72.6066 26.1861 72.5103 25.8556 72.4467 25.6004C72.3856 25.3543 72.2232 24.7008 72.1181 23.8417C72.1048 23.7319 72.0871 23.5854 72.0779 23.4752C72.0598 23.2628 72.0395 22.9803 72.0267 22.7663C72.0242 22.7074 72.0207 22.6485 72.0189 22.5895C72.0177 22.5568 72.0168 22.5245 72.016 22.4926C72.012 22.338 72.0096 22.1834 72.0101 22.0287C72.0077 22.8027 71.452 23.5745 70.3477 24.1546C68.1751 25.2962 64.7019 25.2633 62.59 24.0813C61.5515 23.4999 61.0356 22.749 61.0378 22C61.0378 22.0002 61.0378 22.0003 61.0378 22.0005C61.0378 22.0003 61.0378 22.0002 61.0378 22C61.0374 22.1543 61.0341 22.3083 61.0292 22.4624C61.0292 22.4622 61.0292 22.4621 61.0292 22.462C61.028 22.5016 61.0263 22.5411 61.0247 22.5808C61.0247 22.5804 61.0247 22.5801 61.0247 22.5797C61.0226 22.6352 61.0191 22.6907 61.0164 22.7462C61.0164 22.7461 61.0164 22.7459 61.0164 22.7458C60.9952 23.1743 60.9591 23.6019 60.904 24.0279C60.959 23.6021 60.9952 23.1747 61.0164 22.7463C61.0022 22.9606 60.9796 23.2445 60.9601 23.4577C60.95 23.5678 60.9314 23.7142 60.9173 23.824C60.8079 24.6735 60.6458 25.3093 60.5765 25.5808C60.5159 25.8189 60.4135 26.1632 60.378 26.2715C60.3443 26.3741 60.3037 26.4945 60.2628 26.6137C60.2259 26.7209 60.1889 26.827 60.1562 26.9186C60.1213 27.0174 60.0695 27.1477 60.0307 27.2453Z" fill="#57565C"/>
<g id="Group_4">
<path id="Path_24" d="M58.084 31.8736C58.0839 31.9044 58.0865 31.9351 58.0874 31.9659C58.0885 32.0045 58.089 32.0433 58.0915 32.0819C58.0942 32.1236 58.0991 32.1651 58.1035 32.2068C58.1076 32.2453 58.1112 32.2839 58.1168 32.3224C58.1228 32.364 58.1309 32.4055 58.1386 32.4469C58.1458 32.4853 58.1523 32.5238 58.1609 32.5621C58.1703 32.6036 58.1817 32.6449 58.1928 32.6863C58.203 32.7243 58.2125 32.7624 58.2241 32.8006C58.2367 32.842 58.2517 32.8832 58.2661 32.9245C58.2793 32.9622 58.2916 32.9999 58.3062 33.0374C58.3222 33.0787 58.3406 33.1196 58.3584 33.1607C58.3745 33.198 58.3898 33.2354 58.4073 33.2723C58.4268 33.3134 58.4486 33.3541 58.47 33.3949C58.489 33.4316 58.5071 33.4683 58.5276 33.5047C58.5505 33.5453 58.5759 33.5858 58.6006 33.6262C58.6225 33.6622 58.6434 33.6983 58.6668 33.7342C58.6933 33.7747 58.7224 33.8147 58.7507 33.8549C58.7754 33.89 58.799 33.9255 58.8252 33.9603C58.8554 34.0006 58.8884 34.0404 58.9205 34.0803C58.9311 34.0936 58.9418 34.1071 58.9526 34.1203C58.9525 34.1204 58.9525 34.1204 58.9524 34.1205C58.9621 34.1324 58.9708 34.1443 58.9806 34.1561C58.9807 34.1561 58.9809 34.1559 58.9811 34.1558C59.0922 34.2886 59.2146 34.419 59.3463 34.5469C59.3693 34.5692 59.3908 34.5919 59.4145 34.6141C59.4571 34.6539 59.5027 34.693 59.5473 34.7322C59.5813 34.7622 59.6138 34.7926 59.6489 34.8222C59.6979 34.8635 59.7501 34.9037 59.8014 34.9442C59.8353 34.971 59.8677 34.9983 59.9026 35.0248C59.9614 35.0695 60.0238 35.1132 60.0856 35.157C60.1159 35.1784 60.1445 35.2005 60.1753 35.2216C60.2695 35.2862 60.3668 35.3496 60.4673 35.4119C63.7098 37.4216 69.0426 37.4775 72.3785 35.5367C72.4836 35.4756 72.5853 35.4132 72.684 35.3496C72.7172 35.3282 72.7481 35.3058 72.7807 35.2841C72.8446 35.2415 72.9091 35.1989 72.9701 35.1554C73.007 35.129 73.0412 35.1017 73.0772 35.075C73.1309 35.035 73.1855 34.9953 73.2368 34.9546C73.2735 34.9255 73.3074 34.8955 73.343 34.8661C73.3903 34.8267 73.4387 34.7878 73.484 34.7477C73.5194 34.7165 73.5519 34.6846 73.586 34.653C73.6087 34.6319 73.6316 34.6108 73.6537 34.5895C73.7859 34.4627 73.9075 34.3331 74.0191 34.2012H74.0192C74.0294 34.1892 74.0398 34.1775 74.0498 34.1655C74.0497 34.1654 74.0495 34.1653 74.0494 34.1652C74.069 34.1417 74.09 34.1185 74.1088 34.0946C74.1368 34.0596 74.1622 34.0239 74.1887 33.9885C74.2189 33.9483 74.2499 33.9083 74.2781 33.8677C74.3031 33.8319 74.3258 33.7954 74.3493 33.7593C74.3758 33.7186 74.4032 33.678 74.4278 33.6371C74.45 33.6004 74.4696 33.5633 74.4903 33.5264C74.5132 33.4853 74.5369 33.4444 74.5581 33.4031C74.5772 33.3657 74.594 33.328 74.6117 33.2903C74.6311 33.2489 74.6513 33.2077 74.6689 33.1661C74.685 33.1282 74.6988 33.09 74.7134 33.0516C74.7293 33.01 74.7458 32.9685 74.76 32.9266C74.773 32.8882 74.7839 32.8496 74.7954 32.811C74.8079 32.7691 74.821 32.7273 74.8318 32.6852C74.8417 32.6465 74.8495 32.6077 74.8578 32.5688C74.867 32.5266 74.8764 32.4846 74.8839 32.4423C74.8907 32.4033 74.8954 32.3642 74.9006 32.3251C74.9064 32.2829 74.9124 32.2407 74.9164 32.1983C74.9201 32.159 74.9218 32.1199 74.9239 32.0805C74.9261 32.0382 74.9287 31.996 74.9293 31.9536C74.9294 31.9431 74.9307 31.9327 74.9307 31.9221L74.9348 30.4218C74.9348 30.4323 74.9335 30.4427 74.9334 30.4533C74.9329 30.4955 74.9302 30.5378 74.9279 30.5802C74.9258 30.6194 74.9241 30.6587 74.9205 30.698C74.9166 30.7402 74.9105 30.7824 74.9048 30.8248C74.8995 30.8639 74.8948 30.9029 74.8881 30.9419C74.8807 30.9842 74.8711 31.0264 74.862 31.0685C74.8543 31.104 74.8477 31.1396 74.8388 31.175C74.838 31.1784 74.8368 31.1815 74.836 31.1848C74.8253 31.2269 74.8122 31.2687 74.7997 31.3106C74.7881 31.3492 74.7774 31.3879 74.7643 31.4263C74.7501 31.4681 74.7336 31.5096 74.7176 31.5513C74.703 31.5894 74.6892 31.6276 74.6731 31.6658C74.6554 31.7074 74.6354 31.7487 74.616 31.79C74.5983 31.8275 74.5815 31.8652 74.5624 31.9026C74.5413 31.944 74.5175 31.9849 74.4945 32.0259C74.4739 32.0629 74.4542 32.0998 74.4321 32.1366C74.4074 32.1777 74.38 32.2182 74.3534 32.2588C74.3298 32.295 74.3073 32.3314 74.2823 32.3673C74.254 32.4078 74.223 32.448 74.1929 32.4881C74.1663 32.5235 74.1409 32.5591 74.113 32.5942C74.0811 32.6343 74.0464 32.6737 74.0125 32.7133C73.9831 32.7478 73.9549 32.7826 73.9241 32.8168C73.8882 32.8566 73.8494 32.8956 73.8116 32.9349C73.7797 32.9681 73.7491 33.0016 73.7159 33.0346C73.6757 33.0743 73.6324 33.1132 73.5902 33.1524C73.5562 33.1839 73.5235 33.2159 73.4882 33.2471C73.4431 33.2868 73.395 33.3257 73.3479 33.3648C73.3121 33.3944 73.2778 33.4248 73.2409 33.4541C73.1899 33.4945 73.1356 33.534 73.0821 33.5738C73.0816 33.5741 73.0812 33.5745 73.0806 33.5749C73.0725 33.581 73.0647 33.587 73.0567 33.5929H73.0567C73.0289 33.6135 73.0026 33.6346 72.9742 33.6549C72.9131 33.6985 72.8487 33.7409 72.7847 33.7836C72.7581 33.8013 72.7329 33.8196 72.7058 33.8373C72.6997 33.8412 72.6941 33.8453 72.688 33.8491C72.5894 33.9127 72.4876 33.9751 72.3825 34.0363C69.0467 35.9771 63.7138 35.9212 60.4714 33.9114C60.4119 33.8746 60.3557 33.8364 60.2984 33.7989C60.2589 33.773 60.2178 33.7474 60.1794 33.7212C60.1485 33.6999 60.12 33.678 60.0897 33.6566C60.0421 33.6229 59.9945 33.5892 59.9486 33.555C59.9487 33.555 59.9487 33.5549 59.9488 33.5549C59.9428 33.5505 59.9364 33.5462 59.9305 33.5417C59.9304 33.5417 59.9303 33.5418 59.9302 33.5418C59.9224 33.5359 59.9143 33.5302 59.9065 33.5244C59.8717 33.4979 59.8393 33.4705 59.8054 33.4437C59.7541 33.4033 59.702 33.3629 59.653 33.3218C59.6181 33.2923 59.5857 33.2621 59.5519 33.2323C59.507 33.1928 59.4612 33.1535 59.4184 33.1135C59.385 33.0822 59.3543 33.0503 59.3221 33.0187C59.2821 32.9793 59.241 32.9401 59.2029 32.9001C59.1716 32.8674 59.1429 32.834 59.1131 32.801C59.0772 32.7614 59.0404 32.7221 59.0065 32.682C58.9778 32.6482 58.9516 32.6137 58.9242 32.5796C58.8922 32.5397 58.8593 32.5 58.8292 32.4597C58.8031 32.4248 58.7794 32.3894 58.7547 32.3543C58.7264 32.3141 58.6974 32.2742 58.6708 32.2337C58.6474 32.1979 58.6265 32.1617 58.6046 32.1257C58.5799 32.0853 58.5544 32.0448 58.5316 32.0042C58.5112 31.9678 58.4931 31.9311 58.4741 31.8944C58.4528 31.8536 58.4309 31.8129 58.4115 31.7717C58.394 31.7346 58.3787 31.6975 58.3627 31.6603C58.3449 31.6192 58.3264 31.5782 58.3104 31.5369C58.2958 31.4994 58.2835 31.4616 58.2703 31.4239C58.2559 31.3826 58.2409 31.3415 58.2282 31.3C58.2166 31.2621 58.2071 31.2239 58.197 31.1858C58.1915 31.165 58.185 31.1444 58.18 31.1235C58.1749 31.1028 58.1698 31.0821 58.1652 31.0614C58.1566 31.0231 58.1501 30.9846 58.1429 30.9463C58.1352 30.9048 58.127 30.8633 58.121 30.8218C58.1155 30.7833 58.1118 30.7447 58.1078 30.7062C58.1033 30.6646 58.0985 30.623 58.0958 30.5814C58.0933 30.5427 58.0926 30.504 58.0915 30.4653C58.0908 30.4345 58.0881 30.4038 58.0881 30.373L58.084 31.8736Z" fill="#2E2E30"/>
<path id="Path_25" d="M61.2692 15.3848C61.2718 15.4091 61.274 15.4333 61.2775 15.4575C61.2813 15.4837 61.2865 15.5099 61.2913 15.5362C61.2957 15.5602 61.2998 15.5842 61.3053 15.6081C61.3112 15.6344 61.3185 15.6604 61.3254 15.6865C61.3317 15.7104 61.3377 15.7343 61.345 15.7581C61.353 15.7842 61.3624 15.8102 61.3715 15.8362C61.3797 15.8597 61.3875 15.8836 61.3966 15.907C61.4067 15.9329 61.4183 15.9588 61.4295 15.9846C61.4396 16.008 61.4493 16.0314 61.4602 16.0547C61.4724 16.0804 61.4862 16.106 61.4995 16.1317C61.5115 16.1547 61.5229 16.1779 61.5357 16.2007C61.5501 16.2264 61.5661 16.2516 61.5816 16.2772C61.5954 16.2998 61.6085 16.3226 61.6233 16.345C61.6398 16.3704 61.6581 16.3956 61.6759 16.4209C61.6915 16.443 61.7063 16.4652 61.7227 16.4872C61.7416 16.5123 61.7622 16.5372 61.7821 16.5621C61.7995 16.5836 61.8161 16.6056 61.8343 16.627C61.8555 16.652 61.8784 16.6765 61.9008 16.7011C61.9197 16.722 61.9379 16.7432 61.9577 16.7639C61.9816 16.7889 62.0072 16.8134 62.0322 16.838C62.0526 16.858 62.0721 16.8782 62.0932 16.8981C62.1198 16.9231 62.1484 16.9477 62.1765 16.9722C62.198 16.9911 62.2184 17.0103 62.2406 17.029C62.2708 17.0544 62.3031 17.0792 62.3347 17.1042C62.3567 17.1216 62.3776 17.1393 62.4001 17.1564C62.4359 17.1835 62.4736 17.2099 62.511 17.2363C62.5314 17.2508 62.5507 17.2657 62.5716 17.28C62.6308 17.3205 62.6919 17.3604 62.7551 17.3996C64.7936 18.6631 68.1463 18.6981 70.2436 17.478C70.3097 17.4396 70.3737 17.4003 70.4358 17.3603C70.4561 17.3472 70.4749 17.3336 70.4947 17.3202C70.5355 17.2931 70.5767 17.2659 70.6157 17.2381C70.6386 17.2217 70.66 17.2047 70.6823 17.188C70.7163 17.1628 70.7508 17.1376 70.7833 17.1119C70.8062 17.0937 70.8275 17.075 70.8496 17.0567C70.8796 17.0318 70.9101 17.007 70.9387 16.9818C70.9606 16.9624 70.9808 16.9426 71.0019 16.923C71.0288 16.8981 71.0563 16.8733 71.0819 16.848C71.1025 16.8277 71.1213 16.807 71.141 16.7866C71.1651 16.7615 71.1898 16.7365 71.2128 16.7112C71.2318 16.69 71.2492 16.6685 71.2675 16.6471C71.2891 16.6219 71.3112 16.5968 71.3315 16.5712C71.349 16.5494 71.3647 16.5271 71.3813 16.505C71.4003 16.4796 71.4199 16.4543 71.4378 16.4287C71.4536 16.406 71.4678 16.3832 71.4826 16.3604C71.4992 16.3349 71.5164 16.3095 71.5319 16.2836C71.5458 16.2605 71.5582 16.2372 71.5711 16.214C71.5855 16.1882 71.6005 16.1624 71.6138 16.1364C71.6258 16.113 71.6362 16.0896 71.6473 16.066C71.6596 16.0398 71.6723 16.0138 71.6834 15.9873C71.6935 15.9637 71.7021 15.9397 71.7113 15.9159C71.7213 15.8896 71.7318 15.8633 71.7409 15.8369C71.749 15.8127 71.7558 15.7884 71.7631 15.7641C71.771 15.7378 71.7791 15.7116 71.7859 15.6852C71.7921 15.6607 71.7971 15.6363 71.8023 15.6119C71.808 15.5854 71.8141 15.5589 71.8186 15.5323C71.8228 15.5077 71.8259 15.4833 71.8291 15.4587C71.8327 15.4321 71.8365 15.4056 71.839 15.379C71.8412 15.3543 71.8423 15.3296 71.8436 15.305C71.8451 15.2783 71.8468 15.2519 71.8471 15.2253C71.8576 14.4181 71.3604 13.6073 70.3496 12.9809C68.311 11.7173 64.9584 11.6823 62.861 12.9024C61.7702 13.5371 61.2353 14.3863 61.2585 15.233C61.2591 15.2574 61.2597 15.2816 61.2611 15.3059C61.2634 15.3325 61.2663 15.3586 61.2692 15.3848Z" fill="#2E2E30"/>
</g>
<path id="Path_26" d="M63.5527 24.023C65.6664 25.2943 69.1425 25.3295 71.3171 24.1019C72.4222 23.4781 72.9785 22.648 72.9808 21.8157L73 15.0302C73 15.0368 72.9992 15.0435 72.9992 15.0501C72.9988 15.0769 72.9971 15.1036 72.9956 15.1303C72.9942 15.1552 72.9931 15.18 72.9907 15.2047C72.9882 15.2315 72.9842 15.2582 72.9805 15.285C72.977 15.3097 72.974 15.3343 72.9696 15.359C72.9648 15.3858 72.9586 15.4123 72.9527 15.4391C72.9471 15.4637 72.9422 15.4882 72.9357 15.5128C72.9288 15.5394 72.9202 15.5657 72.912 15.5922C72.9045 15.6167 72.8975 15.6411 72.889 15.6654C72.8798 15.692 72.8689 15.7185 72.8584 15.745C72.8488 15.7688 72.8399 15.793 72.8295 15.8168C72.8179 15.8433 72.8048 15.8695 72.792 15.896C72.7806 15.9196 72.7697 15.9433 72.7573 15.9668C72.7434 15.9929 72.728 16.0189 72.713 16.0449C72.6996 16.0682 72.6867 16.0917 72.6724 16.1149C72.6563 16.1408 72.6385 16.1664 72.6212 16.1922C72.6058 16.2151 72.5912 16.2381 72.5748 16.2608C72.5563 16.2866 72.536 16.312 72.5163 16.3376C72.4991 16.3598 72.4826 16.3822 72.4646 16.4042C72.4435 16.4299 72.4205 16.4552 72.3982 16.4806C72.3793 16.502 72.3612 16.5237 72.3415 16.545C72.3178 16.5705 72.2921 16.5957 72.2671 16.6209C72.2466 16.6416 72.2271 16.6624 72.2058 16.6827C72.1792 16.7081 72.1508 16.7331 72.1228 16.7582C72.101 16.7778 72.08 16.7978 72.0574 16.8173C72.0277 16.8427 71.996 16.8676 71.9649 16.8926C71.9419 16.9112 71.92 16.93 71.8962 16.9482C71.8625 16.974 71.8267 16.9994 71.7914 17.0248C71.7683 17.0415 71.7461 17.0586 71.7224 17.0752C71.682 17.1031 71.6393 17.1305 71.597 17.1578C71.5764 17.1711 71.5569 17.1848 71.5359 17.1981C71.4716 17.2382 71.4052 17.2778 71.3367 17.3165C69.1622 18.544 65.686 18.5087 63.5723 17.2376C63.5069 17.1981 63.4435 17.1581 63.3821 17.1174C63.3605 17.1029 63.3404 17.088 63.3193 17.0734C63.2806 17.0467 63.2414 17.0202 63.2043 16.993C63.181 16.9758 63.1592 16.9579 63.1365 16.9405C63.1037 16.9153 63.0703 16.8903 63.039 16.8648C63.0159 16.8459 62.9947 16.8267 62.9724 16.8077C62.9434 16.7829 62.9138 16.7583 62.8861 16.7331C62.8641 16.7132 62.8439 16.6928 62.8229 16.6726C62.797 16.6478 62.7703 16.6232 62.7456 16.5981C62.725 16.5772 62.7062 16.556 62.6866 16.5349C62.6634 16.51 62.6397 16.4853 62.6176 16.4603C62.5988 16.4388 62.5816 16.4168 62.5635 16.395C62.5428 16.37 62.5215 16.345 62.502 16.3196C62.485 16.2977 62.4696 16.2752 62.4534 16.253C62.435 16.2275 62.416 16.2023 62.3988 16.1766C62.3836 16.154 62.37 16.1311 62.3557 16.1084C62.3396 16.0828 62.3229 16.0573 62.3081 16.0316C62.2948 16.0085 62.2829 15.9853 62.2705 15.9621C62.2567 15.9363 62.2425 15.9106 62.2298 15.8847C62.2184 15.8612 62.2085 15.8377 62.1979 15.8142C62.1863 15.7882 62.1743 15.7621 62.1639 15.7361C62.1543 15.7125 62.1463 15.6885 62.1378 15.6648C62.1284 15.6387 62.1186 15.6125 62.1104 15.5863C62.1028 15.5624 62.0966 15.5382 62.09 15.5143C62.0828 15.488 62.0753 15.4617 62.0692 15.4354C62.0636 15.4113 62.0594 15.387 62.0547 15.363C62.0497 15.3366 62.0443 15.3102 62.0404 15.2838C62.0367 15.2594 62.0344 15.2351 62.0318 15.2107C62.0289 15.1845 62.0257 15.1581 62.0239 15.1318C62.0222 15.1074 62.0219 15.083 62.0212 15.0585C62.0207 15.0391 62.019 15.0195 62.0191 15L62 21.7855C61.997 22.5903 62.5133 23.3979 63.5527 24.023Z" fill="#3E3D43"/>
<g id="Group_5">
<path id="Path_27" d="M75.9602 12.6681C76.0166 11.223 75.137 9.76523 73.3186 8.66232C69.8058 6.53177 64.1293 6.53186 60.6393 8.66241C58.9001 9.72423 58.0327 11.1149 58.0345 12.5064C58.0345 12.502 58.034 12.4975 58.0341 12.4931L58.0234 13.481C58.0196 14.8861 58.9024 16.2935 60.6701 17.3655C64.1829 19.496 69.8595 19.496 73.3494 17.3654C75.0832 16.307 75.9509 14.9219 75.9547 13.5347L75.9654 12.5468C75.9651 12.5871 75.9617 12.6276 75.9602 12.6681Z" fill="#2E2E30"/>
<path id="Path_28" d="M75.9654 12.5458L75.9547 13.5337C75.951 14.9209 75.0831 16.306 73.3494 17.3645C69.8596 19.495 64.1829 19.495 60.6701 17.3646C58.9025 16.2925 58.0196 14.8851 58.0234 13.4801L58.0341 12.4922C58.0303 13.8974 58.9131 15.3046 60.6808 16.3766C64.1936 18.5072 69.8701 18.5071 73.3601 16.3766C75.0939 15.3181 75.9617 13.933 75.9654 12.5458Z" fill="#2E2E30"/>
</g>
<path id="Path_29" d="M73.3432 9.61079C76.8694 11.7587 76.8879 15.2411 73.3847 17.389C69.8815 19.537 64.1831 19.537 60.6568 17.3891C57.1306 15.2413 57.1121 11.7588 60.6153 9.61097C64.1185 7.46313 69.817 7.46295 73.3432 9.61079Z" fill="#57565C"/>
<circle id="Oval_2" cx="67" cy="8" r="8" fill="#3E3D43"/>
</g>
<g id="building">
<path id="Path_30" d="M135.996 20.162C135.942 19.0592 135.22 18.0134 133.803 17.2237C130.549 15.4111 124.866 15.6383 121.108 17.7316C119.073 18.8652 118.023 20.3134 118.003 21.6908L118 21.6912V49.8026L118.003 49.8022C118.043 50.9178 118.764 51.9783 120.197 52.7763C123.451 54.5889 129.134 54.3617 132.892 52.2684C134.925 51.1359 135.975 49.6896 135.998 48.3129H136V20.1616L135.996 20.162Z" fill="#5566B4"/>
<path id="Path_31" d="M120.197 24.7795C116.943 22.972 117.351 19.8142 121.108 17.7268C124.866 15.6393 130.549 15.4128 133.803 17.2203C137.057 19.0282 136.649 22.186 132.892 24.2731C129.134 26.3605 123.451 26.5875 120.197 24.7795Z" fill="#7180C3"/>
<path id="Path_32" d="M112.04 32L96 41.3818V56.2733L110.96 65L127 55.6182V40.7267L112.04 32Z" fill="#C93E30"/>
<path id="Path_33" d="M110.96 50L96 41.3258L112.04 32L127 40.6746L110.96 50Z" fill="#BADD50"/>
<path id="Path_34" d="M111 65L127 55.7238V41L111 50.2758V65Z" fill="#33AEFF"/>
<path id="Path_35" d="M101 40.9584L101.003 40.9581C101.047 42.2983 101.849 43.5718 103.441 44.5303C107.056 46.7074 113.371 46.4342 117.546 43.9203C119.805 42.5601 120.972 40.8226 120.997 39.1695L121 39.1691L111 17L101 40.9584Z" fill="#FFD800"/>
</g>
<g id="profits">
<path id="Path_36" d="M110 91.212L127 101L161 81.4243L161 61.7878L144 52L110 71.6365V91.212Z" fill="#2DB357"/>
<path id="Path_37" d="M110 71.7954L127 81.5302L161 62L161 81.5302L127 101L110 91.265V71.7954Z" fill="#0E834C"/>
<path id="Path_38" d="M127 101V81.5302L161 62L161 81.5302L127 101Z" fill="#1A4541"/>
<g id="Group_6">
<path id="Shape_3" fill-rule="evenodd" clip-rule="evenodd" d="M114.108 70.7316L143.974 54.0176L156.93 61.2245L127.064 77.9382L114.108 70.7316ZM117.03 70.7278L127.062 76.3081L154.009 61.2281L143.977 55.6478L117.03 70.7278Z" fill="white"/>
<ellipse id="Oval_3" cx="135.934" cy="65.5733" rx="5.59766" ry="3.09867" fill="white"/>
</g>
<g id="Group_7">
<ellipse id="Oval_4" cx="144.515" cy="61.4729" rx="2.45667" ry="1.37134" fill="#5EE1EB"/>
<ellipse id="Oval_5" cx="126.553" cy="71.5532" rx="2.45667" ry="1.37155" fill="#5EE1EB"/>
</g>
<g id="Group_8">
<path id="Path_39" d="M110 74.041V74.5236L126.996 84.6459L126.997 84.1638L110 74.041Z" fill="#2DB357"/>
<path id="Path_40" d="M110 76.6914V77.1741L126.996 87.2963L126.997 86.8143L110 76.6914Z" fill="#2DB357"/>
<path id="Path_41" d="M110 79.3418V79.8245L126.996 89.9469L126.997 89.4648L110 79.3418Z" fill="#2DB357"/>
<path id="Path_42" d="M110 81.9922V82.4749L126.996 92.5972L126.997 92.1153L110 81.9922Z" fill="#2DB357"/>
<path id="Path_43" d="M110 84.6426V85.1253L126.996 95.2476L126.997 94.7654L110 84.6426Z" fill="#2DB357"/>
<path id="Path_44" d="M110 87.293V87.7757L126.996 97.8979L126.997 97.4158L110 87.293Z" fill="#2DB357"/>
</g>
<g id="Group_9">
<path id="Path_45" d="M160.993 65.082L127.108 84.4727L127.106 84.9429L160.993 65.5512V65.082Z" fill="#0E834C"/>
<path id="Path_46" d="M160.993 67.6738L127.108 87.0646L127.106 87.5347L160.993 68.143V67.6738Z" fill="#0E834C"/>
<path id="Path_47" d="M160.993 70.2637L127.108 89.6546L127.106 90.1247L160.993 70.7329V70.2637Z" fill="#0E834C"/>
<path id="Path_48" d="M160.993 72.8555L127.108 92.2465L127.106 92.7165L160.993 73.3248V72.8555Z" fill="#0E834C"/>
<path id="Path_49" d="M127.108 94.8383L127.106 95.3083L160.993 75.9168V75.4473L127.108 94.8383Z" fill="#0E834C"/>
<path id="Path_50" d="M127.108 97.4302L127.106 97.9001L160.993 78.5086V78.0391L127.108 97.4302Z" fill="#0E834C"/>
</g>
</g>
</g>
</svg>
