<?xml version="1.0" encoding="UTF-8"?>
<svg width="472px" height="307px" viewBox="0 0 472 307" version="1.1" xmlns="http://www.w3.org/2000/svg" xmlns:xlink="http://www.w3.org/1999/xlink">
    <!-- Generator: Sketch 61.2 (89653) - https://sketch.com -->
    <title>Group 4</title>
    <desc>Created with Sketch.</desc>
    <defs>
        <filter x="0.0%" y="0.0%" width="100.0%" height="100.0%" filterUnits="objectBoundingBox" id="filter-1">
            <feGaussianBlur stdDeviation="0" in="SourceGraphic"></feGaussianBlur>
        </filter>
    </defs>
    <g id="Website" stroke="none" stroke-width="1" fill="none" fill-rule="evenodd">
        <g id="Homepage" transform="translate(-827.000000, -1640.000000)">
            <g id="Group-4" transform="translate(823.000000, 1640.000000)">
                <ellipse id="Oval-Copy" fill="#20321C" filter="url(#filter-1)" cx="240" cy="182.500099" rx="236" ry="124.5"></ellipse>
                <g id="tree" transform="translate(0.000000, 175.000000)">
                    <g id="Group" transform="translate(16.500000, 60.000000)"></g>
                </g>
                <g id="woman" transform="translate(103.000000, 149.000000)">
                    <g id="Group" transform="translate(0.500000, 94.000000)"></g>
                    <g id="Group" transform="translate(2.500000, 19.000000)"></g>
                    <g id="Group" transform="translate(3.500000, 0.000000)"></g>
                </g>
                <g id="man-(1)" transform="translate(125.000000, 33.000000)" fill-rule="nonzero">
                    <g id="Group" transform="translate(0.781250, 16.210938)" fill="#FFB657">
                        <path d="M0.273828125,27.2429687 C0.273828125,27.2429687 -0.1296875,31.1173828 0.1109375,31.3580078 C0.3515625,31.5986328 1.4578125,32.2722656 1.72285156,32.2722656 C1.98789062,32.2722656 3.92578125,31.5300781 4.15175781,31.0226563 C4.34609375,30.5861328 4.20390625,29.4830078 3.65117187,28.8199219 C3.01640625,28.0582031 3.0984375,26.7197266 3.0984375,26.7197266 L0.273828125,27.2429687 Z" id="Path"></path>
                        <path d="M5.57246094,0.158984375 C5.10839844,0.109960937 2.36132813,0.644140625 1.83085937,4.85917969 C1.63964844,6.378125 1.22167969,12.2775391 1.0234375,17.3496094 C0.796289062,23.1613281 0.274023438,27.2429687 0.274023438,27.2429687 C0.274023438,28.5693359 2.60859375,29.5623047 3.58144531,28.5892578 C3.72714844,28.4435547 3.76289063,22.9365234 4.93828125,14.9980469 C6.04960937,7.49003906 8.80351563,0.50078125 5.57246094,0.158984375 Z" id="Path"></path>
                    </g>
                    <g id="Group" transform="translate(0.000000, 85.156250)" fill="#884D01">
                        <path d="M5.53027344,1.59746094 C5.53027344,1.59746094 -1.02617188,8.00292969 0.39609375,8.89785156 C2.37714844,10.1441406 10.4283203,5.00097656 10.4283203,4.58828125 C10.4283203,4.17558594 9.85800781,0.166992187 9.85800781,0.166992187 L5.53027344,1.59746094 Z" id="Path"></path>
                        <path d="M14.4175781,6.52597656 C14.4175781,6.52597656 8.08847656,13.4333984 9.91953125,14.6599609 C11.8638672,15.9625 19.3158203,9.9296875 19.3158203,9.51699219 C19.3158203,9.10429688 18.7455078,5.09570313 18.7455078,5.09570313 L14.4175781,6.52597656 Z" id="Path"></path>
                    </g>
                    <path d="M4.12519531,47.0388672 L3.98007813,87.4535156 C3.98007813,87.4535156 3.88691406,88.6388672 7.04707031,88.6388672 C10.2072266,88.6388672 10.3742188,87.1269531 10.3742188,87.1269531 L11.2162109,57.8501953 L11.3697266,57.8722656 L13.0240234,92.4869141 C13.0240234,92.4869141 12.8285156,93.4146484 15.9888672,93.4146484 C19.1490234,93.4146484 19.3160156,91.9027344 19.3160156,91.9027344 L19.6214844,48.4066406 L4.12519531,47.0388672 Z" id="Path" fill="#01544C"></path>
                    <path d="M3.63554688,46.7408203 C3.63554688,46.7408203 3.22539063,39.9427734 3.32929687,33.6789062 C3.41640625,28.4224609 2.89257812,23.2332031 2.91640625,21.9251953 C2.97558594,18.6828125 5.015625,16.3875 6.20820312,16.3671875 C6.20820312,16.3671875 14.5523437,17.0541016 21.5214844,22.4746094 C21.5214844,22.4746094 20.7886719,49.6361328 19.8617187,49.9505859 C12.21875,52.5435547 3.94511719,48.15625 3.63554688,46.7408203 Z" id="Path" fill="#FF9911"></path>
                    <path d="M9.43105469,14.8208984 C9.43105469,14.8208984 8.99199219,18.1371094 8.78261719,19.9589844 C8.62753906,21.3070313 11.0091797,22.1755859 12.8296875,21.603125 C14.6498047,21.0306641 15.3853516,19.6845703 15.3853516,19.6845703 C14.5267578,16.7929688 14.5826172,12.6011719 14.5826172,12.6011719 L9.43105469,14.8208984 Z" id="Path" fill="#FFB657"></path>
                    <path d="M4.57792969,4.93105469 C4.22578125,7.17363281 4.51054687,9.5125 5.39003906,11.6048828 C5.8234375,9.63203125 6.09667969,7.62421875 6.20585937,5.60703125 C6.23789062,5.01679688 7.12285156,2.31328125 6.29375,2.16054688 C5.44472656,2.00410156 4.66601562,4.37050781 4.57792969,4.93105469 Z" id="Path" fill="#5E4C36"></path>
                    <path d="M5.09472656,9.37109375 C5.09472656,9.37109375 5.51035156,15.6003906 7.00800781,16.7130859 C8.50566406,17.8257812 13.2001953,16.7589844 15.8113281,12.3138672 C17.9896484,8.60566406 17.0806641,1.33222656 12.3984375,0.5609375 C6.92949219,-0.339648437 4.76660156,3.79648437 5.09472656,9.37109375 Z" id="Path" fill="#FEC377"></path>
                    <path d="M5.22675781,4.28632812 C4.92207031,6.06621094 6.15195312,8.00195312 7.93222656,8.30449219 C7.81621094,7.49199219 7.70039062,6.67929688 7.584375,5.86699219 C8.6875,7.34375 10.7621094,7.59902344 12.6005859,7.73144531 C12.2865234,7.19707031 12.1195312,6.57714844 12.1226562,5.95722656 C14.9253906,6.42675781 13.9632812,11.4066406 13.9964844,12.8537109 C14.0123047,11.6482422 15.1779297,10.9402344 15.6664062,9.83769531 C16.2277344,10.3933594 15.4552734,12.5048828 15.1949219,13.2505859 C16.5898437,12.2539062 17.1296875,9.0421875 17.1542969,7.16015625 C17.1716797,5.84394531 16.9705078,3.81484375 16.2691406,2.70097656 C15.6058594,1.64765625 14.6984375,0.883007813 13.5201172,0.481445313 C7.99609375,-1.40097656 5.4921875,2.73496094 5.22675781,4.28632812 Z" id="Path" fill="#5E4C36"></path>
                    <g id="Group" transform="translate(18.750000, 22.460938)" fill="#FFB657">
                        <path d="M1.00625,30.2363281 C1.00625,30.2363281 0.933984375,32.60625 1.00058594,33.0582031 C1.0671875,33.5101563 1.55507812,33.9591797 1.55507812,33.9591797 C1.55507812,33.9591797 1.51113281,35.0542969 1.93535156,35.3695313 C2.35976562,35.6847656 4.81914062,34.4900391 5.19667969,34.1029297 C5.72714844,33.5585938 5.0765625,29.6363281 5.0765625,29.6363281 C5.0765625,29.6363281 1.62070313,28.2564453 1.00625,30.2363281 Z" id="Path"></path>
                        <path d="M2.77167969,0.013671875 C2.77167969,0.013671875 0.176757812,0.629492187 0.0533203125,3.71777344 C-0.0701171875,6.80625 0.626953125,9.30800781 0.770507812,19.4705078 C0.897460937,28.4527344 0.996289062,30.6054688 0.996289062,30.6054688 C0.996289062,30.6054688 2.26621094,32.6107422 5.18554688,30.3705078 C5.18554688,30.3705078 5.13964844,15.8404297 5.10898438,14.0189453 C4.91835938,2.67421875 4.82382812,1.25058594 2.77167969,0.013671875 Z" id="Path"></path>
                    </g>
                    <path d="M19.5205078,41.9314453 C19.4320313,35.6664062 19.1332031,32.3144531 18.9458984,29.9400391 L18.5763672,50.3201172 C18.9384766,50.2332031 19.3001953,50.1292969 19.6609375,50.0128906 C19.6228516,48.3037109 19.5742188,45.7302734 19.5205078,41.9314453 Z" id="Path" fill="#F18700"></path>
                    <path d="M13.9964844,11.9378906 C13.9964844,11.9378906 14.4853516,8.50292969 15.503125,8.45722656 C16.2207031,8.42519531 16.5332031,9.9078125 16.0056641,11.0476562 C15.478125,12.1875 13.9964844,13.2505859 13.9964844,13.2505859 L13.9964844,11.9378906 L13.9964844,11.9378906 Z" id="Path" fill="#FEC377"></path>
                    <g id="Group" transform="translate(1.953125, 16.406250)" fill="#FF9911">
                        <path d="M16.6232422,9.77246094 C16.6232422,12.8318359 16.6232422,17.6546875 16.6232422,17.6546875 C16.6232422,17.6546875 21.2896484,18.2800781 22.4154297,17.1542969 C22.4154297,17.1542969 23.0568359,7.62070312 19.5683594,6.06816406 C18.3222656,5.51347656 16.6232422,8.14414062 16.6232422,9.77246094 Z" id="Path"></path>
                        <path d="M2.20332031,10.1494141 C-0.107617187,9.33535156 0.03046875,7.9765625 0.03046875,7.9765625 C0.209765625,-0.377148437 3.89863281,0.025390625 3.89863281,0.025390625 L2.20332031,10.1494141 Z" id="Path"></path>
                    </g>
                </g>
                <g id="forest" transform="translate(18.000000, 66.000000)" fill-rule="nonzero">
                    <path d="M95,52.5 C95,63.8212938 85.8212937,73 74.5,73 C63.1778167,73 54,63.8212938 54,52.5 C54,41.1778169 63.1778167,32 74.5,32 C85.8212937,32 95,41.1778169 95,52.5 Z" id="Path" fill="#04B558"></path>
                    <path d="M70.1186811,59.3597891 C68.3455872,58.120852 65.9528641,58.4048491 64.5047508,60.0271822 L63.060104,61.645078 L63.060104,56.0352487 L63.0566375,56.0361362 C63.044505,54.9569474 62.4049433,53.9292331 61.1024213,53.1588909 C58.1983955,51.4424838 53.1269662,51.6572567 49.7740337,53.639911 C47.9446102,54.7217624 47.0121327,56.1053603 47.0077995,57.4188467 L47,57.4197344 L47,97.9434515 L47.0069329,97.9425641 C47.0112662,99.0288528 47.6490946,100.066329 48.9602826,100.841109 C51.8643086,102.557516 56.9357377,102.342743 60.2886702,100.360089 C62.1380259,99.2675878 63.0722367,97.8653523 63.0566375,96.539441 L63.060104,96.539441 L63.060104,74.080599 L70.7539096,66.1135942 C72.6465962,64.1531271 72.3424143,60.914673 70.1186811,59.3597891 Z" id="Path" fill="#53433F"></path>
                    <path d="M61.0487803,53.1592434 C58.156486,51.4419612 53.103173,51.65762 49.7627887,53.64026 C47.9402117,54.7221035 47.011224,56.1056915 47.006907,57.4191684 L47,57.4200561 L47,97.9425934 L47.0060437,97.9425934 C47.0103607,99.0288743 47.6466654,100.065456 48.9529463,100.841117 C51.8452408,102.557512 56.8985539,102.342741 60.238938,100.360101 C62.0805092,99.2667201 63.0120871,97.8653822 62.9965463,96.5394804 L63,96.5385929 L63,56.0355804 L62.9965463,56.0364679 C62.9835959,54.9572869 62.3464276,53.92958 61.0487803,53.1592434 Z" id="Path" fill="#68544F"></path>
                    <path d="M61.0487803,53.1592434 C58.156486,51.4419612 53.103173,51.65762 49.7627887,53.64026 C47.9402117,54.7221035 47.011224,56.1056915 47.006907,57.4191684 L47,57.4200561 L47,97.9425934 L47.0060437,97.9425934 C47.0103607,99.0288743 47.6466654,100.065456 48.9529463,100.841117 C51.8452408,102.557512 56.8985539,102.342741 60.238938,100.360101 C62.0805092,99.2667201 63.0120871,97.8653822 62.9965463,96.5394804 L63,96.5385929 L63,56.0355804 L62.9965463,56.0364679 C62.9835959,54.9572869 62.3464276,53.92958 61.0487803,53.1592434 Z" id="Path" fill="#68544F"></path>
                    <path d="M87,31.5 C87,48.8974075 72.8965181,63 55.5,63 C38.1025925,63 24,48.8974075 24,31.5 C24,14.1034819 38.1025925,0 55.5,0 C72.8965181,0 87,14.1034819 87,31.5 Z" id="Path" fill="#77DD00"></path>
                    <path d="M33.0496438,81.1496951 C30.156486,79.4466788 25.1040362,79.6605461 21.763652,81.6258357 C19.9410748,82.6986919 19.0120871,84.0716664 19.0077703,85.3742319 L19,85.3742319 L19,112.977179 L19.006907,112.976299 C19.0103605,114.053556 19.6466652,115.082407 20.9529461,115.850745 C23.846104,117.552881 28.8985538,117.339894 32.2389379,115.373724 C34.0813728,114.290306 35.0120871,112.899729 34.9965465,111.584842 L35,111.584842 L35,84.0021377 L34.9965465,84.0021377 C34.9835959,82.9328018 34.3472912,81.9127521 33.0496438,81.1496951 L33.0496438,81.1496951 Z" id="Path" fill="#68544F"></path>
                    <path d="M54.5852515,80.0513461 L27.4976081,1 L0.283013592,85.0405127 C-0.814270334,89.507744 1.2693263,93.9499938 6.70603058,97.104803 C16.6508321,102.874642 34.021831,102.15107 45.5042502,95.4881417 C53.084032,91.0905019 56.2001052,85.204677 54.5852515,80.0513461 Z" id="Path" fill="#04B558"></path>
                </g>
                <g id="man-(2)" transform="translate(127.000000, 161.000000)" fill-rule="nonzero">
                    <g id="Group" transform="translate(2.148438, 88.085938)" fill="#1D1D1F">
                        <path d="M9.99140625,6.71738281 L9.99140625,10.9517578 C9.99140625,10.9517578 10.959375,12.3109375 12.7740234,11.7986328 C14.5886719,11.2863281 20.9509766,7.97832031 20.4810547,6.94121094 C19.3373047,4.41855469 16.5701172,6.12910156 13.0535156,6.40390625 C11.1177734,6.55527344 9.99140625,6.71738281 9.99140625,6.71738281 Z" id="Path"></path>
                        <path d="M0.191796875,1.27324219 L0.191796875,5.50761719 C0.191796875,5.50761719 1.15976562,6.86679688 2.97441406,6.35449219 C4.7890625,5.84199219 11.3130859,2.44433594 10.6814453,1.49707031 C9.08261719,-0.900195312 6.77050781,0.684960938 3.25390625,0.959765625 C1.31796875,1.1109375 0.191796875,1.27324219 0.191796875,1.27324219 Z" id="Path"></path>
                    </g>
                    <g id="Group" transform="translate(0.195312, 16.992188)" fill="#A66206">
                        <path d="M0.95234375,31.0755859 L1.14667969,34.7560547 C1.14667969,34.7560547 2.37167969,35.5728516 2.50761719,35.7087891 C2.64375,35.8449219 5.67636719,34.7408203 5.67636719,34.3931641 C5.67636719,34.0455078 5.00292969,31.8978516 5.00292969,31.5802734 C5.00292969,31.2626953 4.77597656,29.6294922 4.77597656,29.6294922 L0.95234375,31.0755859 Z" id="Path"></path>
                        <path d="M6.03496094,0.173632812 C4.90351562,0.021875 1.05605469,-0.24453125 0.451171875,7.33808594 C0.188867188,10.6244141 -0.04375,15.9103516 0.118164062,19.8626953 C0.370703125,26.0271484 0.96015625,31.2197266 0.96015625,31.2197266 C0.96015625,31.2197266 1.90390625,32.5740234 4.86054687,30.2580078 C4.86054687,30.2580078 4.94160156,18.3765625 5.35097656,13.7501953 C5.95585938,6.91425781 8.37558594,0.487695312 6.03496094,0.173632812 Z" id="Path"></path>
                    </g>
                    <path d="M1.725,23.9064453 C1.725,23.9064453 0.275195312,34.5779297 1.4890625,46.6216797 C1.57539063,47.4777344 1.65722656,48.2728516 1.73476563,49.0148437 C1.72480469,53.4472656 3.88515625,52.3335938 5.12265625,51.7992187 L1.725,23.9064453 Z" id="Path" fill="#806749"></path>
                    <path d="M6.13867188,17.1703125 C4.90351562,17.0046875 0.703515625,16.7138672 0.0431640625,24.9912109 C0.029296875,25.1640625 0.0021484375,25.5261719 0.0021484375,25.5261719 C0.259960937,27.0982422 1.21679687,27.7642578 3.32070313,28.3158203 C4.25527344,22.3703125 8.26640625,17.4556641 6.13867188,17.1703125 Z" id="Path" fill="#FF5023"></path>
                    <path d="M2.20644531,45.3972656 L1.72539063,89.5636719 C1.72539063,89.5636719 1.62988281,90.7798828 4.87246094,90.7798828 C8.11503906,90.7798828 8.28652344,89.2287109 8.28652344,89.2287109 L9.57851563,56.7683594 L10.1662109,57.0916016 L11.5109375,95.1003906 C11.5109375,95.1003906 11.4154297,96.3166016 14.6580078,96.3166016 C17.9005859,96.3166016 18.0720703,94.7654297 18.0720703,94.7654297 L18.5376953,48.2851562 L2.20644531,45.3972656 Z" id="Path" fill="#1D81CD"></path>
                    <path d="M1.99179688,46.8566406 C1.99179688,46.8566406 1.39960937,40.3853516 1.50097656,34.2583984 C1.58613281,29.1169922 1.725,27.2035156 1.725,24.5449219 C1.725,18.5625 4.29082031,17.1283203 6.23027344,17.1660156 C6.23027344,17.1660156 13.9951172,19.4839844 19.9878906,24.7861328 L18.9214844,49.0994141 C16.7435547,51.9658203 6.13847656,51.1185547 1.99179688,46.8566406 Z" id="Path" fill="#FF5023"></path>
                    <g id="Group" transform="translate(3.710938, 0.000000)" fill="#A66206">
                        <path d="M13.4916016,8.10996094 C13.4916016,8.10996094 13.8445313,14.4787109 12.2878906,15.6199219 C10.7314453,16.7611328 3.34375,16.0121094 1.1546875,12.1630859 C-1.03417969,8.31386719 0.16640625,1.0421875 5.0328125,0.25234375 C10.7171875,-0.6703125 13.8308594,2.38984375 13.4916016,8.10996094 Z" id="Path"></path>
                        <path d="M5.18984375,13.9710937 L3.89765625,20.5535156 C3.89765625,20.5535156 6.05878906,22.8839844 10.0802734,21.2152344 C10.0802734,21.2152344 10.4527344,16.1490234 10.8158203,15.3777344 C11.1787109,14.60625 5.18984375,13.9710937 5.18984375,13.9710937 Z" id="Path"></path>
                    </g>
                    <path d="M11.575,8.63105469 C12.8511719,7.97285156 12.9134766,9.44550781 13.7228516,12.0443359 C14.3408203,10.6025391 13.6740234,7.64296875 14.7744141,6.68867187 C16.0996094,5.53925781 16.5851563,5.94414062 17.2371094,5.80136719 C16.7611328,0.461328125 11.9128906,-0.723046875 7.97246094,0.371875 C3.871875,1.51113281 2.54785156,8.22089844 4.73671875,12.0701172 C5.77578125,13.8970703 8.59199219,15.5447266 10.3167969,15.6769531 C10.5257812,11.2716797 10.5207031,9.5734375 11.575,8.63105469 Z" id="Path" fill="#554432"></path>
                    <g id="Group" transform="translate(15.429688, 23.828125)" fill="#A66206">
                        <path d="M1.84433594,32.7277344 C1.84433594,32.7277344 1.93496094,35.8640625 1.95507812,36.2644531 C1.97539062,36.6683594 1.57304687,36.9433594 1.89316406,37.7412109 C1.94316406,37.8658203 2.87519531,38.5173828 3.20996094,38.6257812 C3.57207031,38.7427734 5.81621094,37.2058594 6.146875,36.9619141 C6.47753906,36.7179687 6.20214844,34.7628906 6.17851562,34.2953125 C6.17109375,34.1523437 6.11542969,31.853125 5.83789062,31.7535156 C5.56035156,31.6539062 1.84433594,32.7277344 1.84433594,32.7277344 Z" id="Path"></path>
                        <path d="M4.92597656,1.23964844 C4.27773437,0.256445313 1.67050781,-1.37304687 0.460742187,2.74042969 C-0.749023438,6.85390625 1.8609375,33.2882813 1.8609375,33.2882813 C1.8609375,33.2882813 3.89746094,35.3693359 6.00273437,32.1476563 C6.00273437,32.1476563 5.42109375,22.4445313 5.42109375,16.2455078 C5.42109375,10.0464844 6.14648438,3.09121094 4.92597656,1.23964844 Z" id="Path"></path>
                    </g>
                    <path d="M15.5820312,29.7859375 L15.5134766,28.8662109 L14.7744141,50.7154297 C15.4675781,50.6535156 16.1087891,50.5417969 16.6816406,50.3837891 C16.1488281,44.0765625 15.475,34.8820312 15.5820312,29.7859375 Z" id="Path" fill="#FF3502"></path>
                    <path d="M21.2789062,34.5099609 C21.4021484,30.1365234 21.428125,26.6757812 20.6087891,25.3117187 C19.8917969,24.1179687 16.8449219,22.1728516 15.4146484,27.0361328 C15.0677734,28.2158203 14.9869141,30.9509766 15.0628906,34.4138672 C17.1845703,35.2339844 18.7701172,35.3035156 21.2789062,34.5099609 Z" id="Path" fill="#FF5023"></path>
                </g>
                <g id="woman-(2)" transform="translate(189.000000, 39.000000)" fill-rule="nonzero">
                    <polygon id="Path" fill="#3E3D43" points="2.68144531 16.7208984 10.6607422 15.0867187 2.23828125 7.83925781"></polygon>
                    <path d="M0.416210938,44.3539063 C0.416210938,44.3539063 -0.130078125,48.6371094 0.0806640625,48.8478516 C0.29140625,49.0585938 1.26015625,49.6486328 1.49257813,49.6486328 C1.72460938,49.6486328 3.421875,48.9986328 3.61992188,48.5542969 C3.79023438,48.171875 3.665625,47.2058594 3.18164063,46.6251953 C2.62578125,45.9580078 2.69765625,44.7857422 2.69765625,44.7857422 L0.416210938,44.3539063 Z" id="Path" fill="#FFB657"></path>
                    <path d="M14.8083984,90.8935547 C14.3361328,89.3058594 11.5833984,90.1380859 11.5833984,90.1380859 C11.5833984,90.1380859 9.60839844,96.1738281 9.25488281,97.2677734 C8.90136719,98.3617187 7.97480469,99.7517578 9.41699219,99.9666016 C11.7964844,100.320898 13.7583984,97.8126953 14.1457031,94.8519531 C14.1576172,94.7613281 14.2636719,94.7013672 14.4037109,94.6136719 L14.6666016,98.7203125 L15.0332031,98.7203125 L15.0332031,93.8972656 C15.2414063,93.3783203 15.2841797,92.4939453 14.8083984,90.8935547 Z" id="Path" fill="#2E2E30"></path>
                    <path d="M10.2181641,50.1005859 L11.5832031,90.1380859 C11.5832031,90.1380859 10.8308594,91.3919922 12.4388672,91.5542969 C13.9658203,91.7085937 14.6583984,90.8082031 14.6583984,90.8082031 C14.6583984,90.8082031 17.2388672,80.1208984 15.5662109,71.9085937 C15.5662109,71.9085937 19.0833984,59.5662109 19.0986328,55.5974609 C19.11875,50.2943359 16.0490234,46.5099609 16.0490234,46.5099609 L10.2181641,50.1005859 Z" id="Path" fill="#FFB657"></path>
                    <path d="M6.61777344,86.0623047 C6.14550781,84.4746094 3.39277344,85.3068359 3.39277344,85.3068359 C3.39277344,85.3068359 1.41777344,90.9505859 1.06425781,92.0447266 C0.710742188,93.1386719 -0.0458984375,94.8246094 1.196875,95.1353516 C3.03261719,95.5943359 5.56757813,92.9814453 5.95488281,90.0207031 C5.96640625,89.9339844 6.0640625,89.8753906 6.19511719,89.7935547 L6.45566406,93.8650391 L6.82226563,93.8650391 L6.82226563,89.1150391 C7.04804688,88.603125 7.10878906,87.7132812 6.61777344,86.0623047 Z" id="Path" fill="#2E2E30"></path>
                    <path d="M2.02792969,45.2691406 L3.39296875,85.3066406 C3.39296875,85.3066406 2.640625,86.2705078 4.24863281,86.4332031 C5.77539063,86.5876953 6.4625,85.8228516 6.4625,85.8228516 C6.4625,85.8228516 9.04863281,75.2896484 7.37597656,67.0773437 C7.37597656,67.0773437 10.8931641,54.7345703 10.9083984,50.7662109 C10.9285156,45.4630859 7.85878906,41.6787109 7.85878906,41.6787109 L2.02792969,45.2691406 Z" id="Path" fill="#FFB657"></path>
                    <path d="M1.86210937,47.3001953 L1.59960938,62.0126953 C1.59960938,62.0126953 3.1453125,64.4744141 10.2761719,66.1521484 C14.3126953,67.1017578 17.3644531,66.3107422 17.3644531,66.3107422 C17.3644531,66.3107422 20.2134766,56.5880859 18.9246094,52.1890625 C17.7966797,48.3388672 16.0582031,46.0066406 16.0582031,46.0066406 L1.86210937,47.3001953 Z" id="Path" fill="#1D1D1F"></path>
                    <path d="M16.6273438,53.9669922 C16.6273438,53.9669922 16.0673828,56.4076172 16.1337891,56.8591797 C16.2003906,57.3109375 16.6880859,57.7599609 16.6880859,57.7599609 C16.6880859,57.7599609 16.6439453,58.8544922 17.0683594,59.1695312 C17.4925781,59.4847656 19.9507813,58.290625 20.328125,57.9035156 C20.8583984,57.359375 20.2082031,53.4390625 20.2082031,53.4390625 C20.2082031,53.4390625 17.2414063,51.9882812 16.6273438,53.9669922 Z" id="Path" fill="#FFB657"></path>
                    <path d="M20.6537109,37.8294922 C20.4966797,28.4949219 19.5443359,25.3941406 18.5583984,24.4167969 C12.0234375,14.9146484 3.87011719,17.1457031 3.87011719,17.1457031 C3.87011719,17.1457031 0.6453125,16.7802734 0.747851563,26.1244141 C0.660351563,26.796875 0.61484375,27.4310547 0.61484375,28.0099609 C0.61484375,28.6023438 0.717578125,29.1900391 0.877539062,29.7699219 C1.20058594,39.6244141 0.169335937,44.5306641 0.169335937,44.5306641 C0.169335937,44.5306641 0.411132812,45.3554688 1.82773438,45.3554688 C1.86269531,45.3554688 1.89335938,45.3539063 1.92695313,45.353125 C1.7390625,46.5759766 1.59453125,47.3 1.59453125,47.3 C2.58320313,51.8234375 9.98808594,53.6390625 16.2896484,49.6927734 C16.2716797,52.8789063 16.3515625,53.7128906 16.3515625,53.7128906 C16.3515625,53.7128906 17.7466797,56.1609375 20.6646484,53.921875 C20.6646484,53.9222656 20.6845703,39.6503906 20.6537109,37.8294922 Z M15.1789062,37.3419922 C15.26875,35.5746094 15.5205078,33.9779297 15.8537109,32.5626953 C16.2115234,34.7517578 16.5517578,37.8128906 16.4144531,42.8523438 C16.3982422,43.4474609 16.3839844,44.0089844 16.3714844,44.5433594 C15.7160156,42.1753906 15.0794922,39.3023438 15.1789062,37.3419922 Z" id="Shape" fill="#2E2E30"></path>
                    <path d="M1.82792969,45.3556641 C1.86289063,45.3556641 1.89472656,45.3544922 1.92714844,45.3533203 C2.00625,44.8376953 2.09335938,44.2330078 2.18066406,43.5554688 L2.70957031,37.6164063 C2.74003906,36.9783203 2.76230469,36.3259766 2.77324219,35.6626953 C2.80253906,33.8828125 1.45859375,31.8753906 0.87734375,29.7679688 C0.89296875,30.2519531 0.905664063,30.7253906 0.915234375,31.1863281 C1.44882813,32.4355469 1.965625,33.6703125 2.23847656,34.3916016 C2.94980469,36.2730469 1.17011719,45.2660156 1.16660156,45.2832031 C1.35214844,45.3277344 1.57011719,45.3556641 1.82792969,45.3556641 Z" id="Path" fill="#1D1D1F"></path>
                    <path d="M7.15605469,19.1796875 L7.15605469,18.7728516 C7.15605469,18.7728516 3.54414063,26.8955078 4.15449219,32.7966797 L4.08496094,50.6009766 C4.9546875,51.1353516 6.00058594,51.5123047 7.15585938,51.7087891 L6.79941406,45.296875 C6.5796875,41.3443359 6.92636719,37.3806641 7.82910156,33.5261719 L7.82910156,33.5261719 L13.2027344,20.7257813 L7.15605469,19.1796875 Z" id="Path" fill="#FF3E61"></path>
                    <path d="M7.15605469,18.7728516 C7.15605469,18.7728516 3.54414063,26.8955078 4.15449219,32.7966797 L1.76347656,26.0984375 L3.76445313,26.675 L2.02773438,24.3847656 L7.15605469,18.7728516 Z" id="Path" fill="#3E3D43"></path>
                    <path d="M7.25136719,15.8640625 C7.25136719,15.8640625 6.81269531,19.1785156 6.603125,20.9996094 C6.44824219,22.3466797 8.82851563,23.2150391 10.6482422,22.6429687 C12.4675781,22.0708984 13.2027344,20.7251953 13.2027344,20.7251953 C12.3445313,17.8349609 12.4003906,13.6453125 12.4003906,13.6453125 L7.25136719,15.8640625 Z" id="Path" fill="#FFB657"></path>
                    <path d="M3.16640625,9.90488281 C3.16640625,9.90488281 3.60214844,16.2134766 5.20292969,17.3382813 C6.80371094,18.4628906 12.3697266,16.671875 14.6267578,12.8703125 C16.8837891,9.06875 16.0240234,1.17363281 11.0164062,0.399023437 C5.16679688,-0.50546875 2.8234375,4.25917969 3.16640625,9.90488281 Z" id="Path" fill="#FEC377"></path>
                    <g id="Group" transform="translate(1.757812, 85.156250)" fill="#FFB657">
                        <path d="M1.63496094,0.150585938 C1.63496094,0.150585938 0.227929688,4.15234375 0.188085938,4.60019531 C0.124414063,5.31308594 1.30800781,5.75703125 1.75234375,5.31308594 C2.27089844,4.79453125 4.70449219,0.666601562 4.70449219,0.666601562 L1.63496094,0.150585938 Z" id="Path"></path>
                        <path d="M9.83125,4.98203125 C9.83125,4.98203125 8.42421875,8.98378906 8.38417969,9.43164062 C8.32050781,10.1445312 9.50429688,10.5884766 9.9484375,10.1445312 C10.4669922,9.62597656 12.9005859,5.65214844 12.9005859,5.65214844 L9.83125,4.98203125 Z" id="Path"></path>
                    </g>
                    <g id="Group" transform="translate(1.757812, 0.000000)" fill="#3E3D43">
                        <path d="M11.7392578,1.5984375 C11.7392578,1.5984375 8.77265625,-1.28730469 4.24511719,0.69609375 C-2.41933594,3.61542969 0.9234375,16.7208984 0.9234375,16.7208984 C0.9234375,16.7208984 0.563085938,9.24433594 4.23613281,8.50546875 C7.709375,7.80664062 8.78125,5.38007812 9.06210938,4.48789062 C8.86972656,5.33769531 8.55136719,7.67441406 10.1972656,9.75273437 C11.6855469,11.6320312 10.4175781,17.9248047 10.4175781,17.9248047 C10.4175781,17.9248047 14.7587891,15.0638672 15.4369141,13.6455078 C16.1154297,12.2271484 15.2279297,1.96210937 11.7392578,1.5984375 Z" id="Path"></path>
                        <polygon id="Path" points="11.4449219 20.7253906 6.07128906 33.5259766 9.67695312 31.4400391 8.18515625 30.0324219 11.2720703 29.7957031"></polygon>
                    </g>
                </g>
                <g id="stickman-(3)" transform="translate(264.000000, 105.000000)" fill-rule="nonzero">
                    <g id="Group" transform="translate(0.000000, 87.304688)" fill="#971052">
                        <path d="M4.56542969,0.68046875 C4.56542969,0.68046875 -0.901757812,6.16464844 0.215234375,6.86738281 C1.77070313,7.84589844 8.09316406,3.80742188 8.09316406,3.48339844 C8.09316406,3.159375 7.64550781,0.011328125 7.64550781,0.011328125 L4.56542969,0.68046875 Z" id="Path"></path>
                        <path d="M12.9607422,5.70976562 C12.9607422,5.70976562 7.67226562,11.5880859 9.10996094,12.5513672 C10.6367187,13.5742188 16.4884766,8.83671875 16.4884766,8.51289062 C16.4884766,8.18886719 16.0408203,5.04082031 16.0408203,5.04082031 L12.9607422,5.70976562 Z" id="Path"></path>
                    </g>
                    <path d="M19.8594751,55.5390625 C19.8796875,50.2230469 16.8025391,46.4296875 16.8025391,46.4296875 L2.74726563,45.1855469 L4.57578125,87.8810547 C4.57578125,87.8810547 4.38066406,88.8650391 5.99277344,89.028125 C7.5234375,89.1828125 7.65273437,88.3982422 7.65273437,88.3982422 C7.65273437,88.3982422 9.78496094,75.2789063 8.10800781,67.0466797 C8.10800781,67.0466797 9.57382812,61.9023438 10.6193359,57.1810547 L11.2060547,57.3177734 L12.7863281,93.1160156 C12.7863281,93.1160156 12.5912109,94.390625 14.2033203,94.5537109 C15.7339844,94.7083984 15.8689453,93.7880859 15.8689453,93.7880859 C15.8689453,93.7880859 17.9955078,80.121875 16.3185547,71.8898437 C16.3185547,71.8900391 19.8441406,59.5173828 19.8594751,55.5390625 Z" id="SVGCleanerId_0" fill="#FFB657"></path>
                    <path d="M19.8594751,55.5390625 C19.8796875,50.2230469 16.8025391,46.4296875 16.8025391,46.4296875 L2.74726563,45.1855469 L4.57578125,87.8810547 C4.57578125,87.8810547 4.38066406,88.8650391 5.99277344,89.028125 C7.5234375,89.1828125 7.65273437,88.3982422 7.65273437,88.3982422 C7.65273437,88.3982422 9.78496094,75.2789063 8.10800781,67.0466797 C8.10800781,67.0466797 9.57382812,61.9023438 10.6193359,57.1810547 L11.2060547,57.3177734 L12.7863281,93.1160156 C12.7863281,93.1160156 12.5912109,94.390625 14.2033203,94.5537109 C15.7339844,94.7083984 15.8689453,93.7880859 15.8689453,93.7880859 C15.8689453,93.7880859 17.9955078,80.121875 16.3185547,71.8898437 C16.3185547,71.8900391 19.8441406,59.5173828 19.8594751,55.5390625 Z" id="SVGCleanerId_0_1_" fill="#FFB657"></path>
                    <g id="Group" transform="translate(4.296875, 85.742188)" fill="#E0E0E2">
                        <path d="M0.0921875,0.169140625 L0.176171875,2.13300781 C0.166210938,2.20097656 0.137304688,2.50195312 0.356640625,2.79804687 C0.598632813,3.125 1.04570313,3.3234375 1.68554688,3.38808594 C1.82148438,3.40195313 1.95253906,3.40898438 2.07480469,3.40898438 C3.32109375,3.40898438 3.45175781,2.70332031 3.45683594,2.67304688 C3.46152344,2.64453125 3.56425781,1.8359375 3.70488281,0.765429688 C2.39589844,0.979296875 1.08632813,0.890039063 0.0921875,0.169140625 Z" id="Path"></path>
                        <path d="M8.31054688,5.60117187 L8.38828125,7.35917969 C8.38496094,7.38066406 8.31191406,7.88808594 8.65136719,8.32675781 C8.90878906,8.65898437 9.32753906,8.85664063 9.89609375,8.91386719 C10.0144531,8.92597656 10.1291016,8.93203125 10.2375,8.93203125 C10.2375,8.93203125 10.2375,8.93203125 10.2376953,8.93203125 C11.5304687,8.93203125 11.671875,8.06992187 11.6732422,8.06230469 C11.6779297,8.03144531 11.7867188,7.32089844 11.9335938,6.14726562 C10.6222656,6.31796875 9.25917969,6.24765625 8.31054688,5.60117187 Z" id="Path"></path>
                    </g>
                    <path d="M1.13164063,44.4728516 C1.13164063,44.4728516 0.584179688,48.7664062 0.7953125,48.9777344 C1.00644531,49.1888672 1.97773438,49.7806641 2.21035156,49.7806641 C2.44296875,49.7806641 4.14433594,49.1291016 4.34277344,48.6837891 C4.51367188,48.3005859 4.38867188,47.3322266 3.90332031,46.75 C3.34589844,46.08125 3.41796875,44.9060547 3.41796875,44.9060547 L1.13164063,44.4728516 Z" id="Path" fill="#FFB657"></path>
                    <path d="M17.2791016,46.2478516 L16.9394531,45.8292969 L3.11035156,46.0435547 L2.71796875,62.5457031 C4.78339844,63.5263672 7.40097656,63.6240234 9.72832031,63.6333984 C10.0236328,62.5074219 10.3523438,61.2173828 10.6726563,59.8855469 L10.8306641,64.5197266 C13.3273438,65.6462891 16.1835938,65.6875 18.8357422,64.9246094 C19.6724609,61.4642578 20.4660156,57.6806641 20.4733479,55.7460937 C20.4941406,50.2740234 17.4105469,46.4095703 17.2791016,46.2478516 Z" id="Path" fill="#5AAAE7"></path>
                    <path d="M4.59414062,17.1984375 C4.59414062,17.1984375 0.9796875,16.7865234 1.51542969,27.9044922 C2.05449219,39.0861328 1.13164042,44.4728516 1.13164042,44.4728516 C1.13164042,44.4728516 1.12695312,45.4769531 2.546875,45.4769531 C3.13847656,45.4769531 3.41835937,44.9056641 3.41835937,44.9056641 C3.41835937,44.9056641 4.72148437,31.9667969 4.784375,31.3376953 C5.02988281,28.8791016 7.32636719,17.8123047 4.59414062,17.1984375 Z" id="Path" fill="#FFB657"></path>
                    <path d="M2.75410156,47.7273438 C2.75410156,47.7273438 3.39023438,42.0365234 3.49414062,35.7603516 C3.53183594,33.4855469 1.33066406,30.8402344 1.33066406,28.0890625 C1.33066406,25.2238281 2.39179687,21.0474609 4.59394531,17.1984375 C4.59394531,17.1984375 13.1662109,14.8505859 19.7892578,25.1947266 C19.7892578,25.1947266 16.3228516,29.7142578 15.9302734,37.44375 C15.7322266,41.3421875 17.8132813,47.7613281 17.8132813,47.7613281 C11.2474609,52.9591797 3.81953125,52.6003906 2.75410156,47.7273438 Z" id="Path" fill="#E5197C"></path>
                    <path d="M4.88574219,21.5603516 C4.88574219,21.5603516 4.31386719,18.6953125 8.22714844,17.4005859 C12.140625,16.1058594 13.9490234,16.5140625 13.9490234,16.5140625 L14.2960937,4.103125 C14.2960937,4.103125 9.52265625,3.62578125 8.56796875,3.83027344 C7.61328125,4.03476562 3.52578125,6.28515625 3.52578125,6.7625 C3.52597656,7.24003906 4.88574219,21.5603516 4.88574219,21.5603516 Z" id="Path" fill="#554432"></path>
                    <path d="M7.98320312,15.9136719 C7.98320312,15.9136719 7.74746094,19.2712891 7.33339844,21.0617187 C6.76074219,23.5378906 7.97148437,24.8955078 9.7953125,24.321875 C11.6191406,23.7484375 13.9490234,20.7865234 13.9490234,20.7865234 C13.0886719,17.8892578 13.1445312,13.6894531 13.1445312,13.6894531 L7.98320312,15.9136719 Z" id="Path" fill="#FFB657"></path>
                    <path d="M3.88867187,9.94003906 C3.88867187,9.94003906 4.32539062,16.2640625 5.93027344,17.3916016 C7.53496094,18.5191406 13.1146484,16.7236328 15.3769531,12.9128906 C17.6392578,9.10214844 16.7775391,1.18769531 11.7578125,0.411328125 C5.89394531,-0.495898437 3.54453125,4.28046875 3.88867187,9.94003906 Z" id="Path" fill="#FEC377"></path>
                    <g id="Group" transform="translate(2.734375, 0.000000)" fill="#5E4C36">
                        <path d="M1.45488281,11.3197266 C1.51113281,12.7484375 2.82890625,23.2126953 2.98984375,24.4523438 C2.26484375,23.1332031 1.66113281,22.178125 1.29511719,20.4152344 C1.03867188,19.1789063 0.0876953125,9.30742188 0.071484375,8.25175781 C0.03203125,5.69082031 0.275976563,3.33574219 2.6203125,1.55410156 C4.22773438,0.332421875 5.80878906,-0.073828125 7.82597656,0.0107421875 C9.30390625,0.07265625 10.8626953,0.556054687 11.8689453,1.71621094 C12.8826172,2.88476562 12.0585938,4.25449219 10.55625,5.0234375 C9.10585938,5.76582031 8.13457031,5.97539062 6.925,5.93847656 C3.95898438,5.84863281 1.33808594,8.35488281 1.45488281,11.3197266 Z" id="Path"></path>
                        <path d="M9.88339844,9.46875 C10.7638672,11.2197266 10.2119141,24.3638672 9.89121094,24.8675781 C10.7685547,23.7833984 12.4242188,21.7378906 13.0859375,20.5099609 C13.2777344,20.1541016 13.4607422,19.7910156 13.5810547,19.4050781 C13.7351563,18.9107422 14.1054688,11.2474609 14.1511719,10.7320313 C14.2576172,9.52695312 14.3566406,8.31386719 14.2474609,7.10898437 C14.1382812,5.90410156 13.8052734,4.74296875 13.3007813,3.64335937 C13.1679688,3.35351562 12.6960938,2.63339844 12.4824219,2.53515625 C12.0835938,2.35195312 11.7921875,2.70273437 11.4056641,2.91015625 C10.5521484,3.36835937 8.84511719,4.62675781 8.57382813,5.67285156 C8.25234375,6.91171875 9.36191406,8.43144531 9.88339844,9.46875 Z" id="Path"></path>
                    </g>
                    <g id="Group" transform="translate(15.820312, 24.023438)" fill="#FFB657">
                        <path d="M1.56191406,30.0859375 C1.56191406,30.0859375 1.00078125,32.5324219 1.06738281,32.9853516 C1.13417969,33.4382813 1.62304688,33.8882813 1.62304688,33.8882813 C1.62304688,33.8882813 1.57890625,34.9853516 2.00410156,35.3013672 C2.42949219,35.6171875 4.89335938,34.4203125 5.271875,34.0322266 C5.80332031,33.4869141 5.1515625,29.5570313 5.1515625,29.5570313 C5.1515625,29.5570313 2.17734375,28.1021484 1.56191406,30.0859375 Z" id="Path"></path>
                        <path d="M2.86425781,0.0859375 C1.78847656,-0.197851563 0.241796875,0.49375 0.118164063,3.58789063 C-0.00546875,6.68242188 1.34882813,8.86738281 1.34882813,18.9441406 C1.34882813,22.1060547 1.56191406,30.0857422 1.56191406,30.0857422 C1.56191406,30.0857422 2.22617188,31.8011719 5.15136719,29.5568359 C5.15136719,29.5568359 5.62890625,15.7341797 5.59824219,13.9091797 C5.40703125,2.54238281 4.0390625,0.39609375 2.86425781,0.0859375 Z" id="Path"></path>
                    </g>
                </g>
                <g id="woman-(1)" transform="translate(273.000000, 171.000000)" fill-rule="nonzero">
                    <path d="M17.2423828,6.71015625 C17.6064453,8.28652344 16.6626953,14.1998047 16.5753906,25.2980469 C16.5257812,31.6089844 10.6816406,35.6099609 10.6816406,35.6099609 C10.6816406,35.6099609 5.89121094,29.9521484 5.24609375,21.1947266 C4.86035156,15.9576172 4.996875,11.3523437 5.07636719,6.09960937 C5.13730469,2.065625 8.18085938,-0.1265625 12.2345703,0.495117187 C14.5109375,0.844140625 16.7232422,4.46289062 17.2423828,6.71015625 Z" id="Path" fill="#791900"></path>
                    <g id="Group" transform="translate(0.000000, 87.304688)" fill="#884D01">
                        <path d="M4.61445313,0.679296875 C4.61445313,0.679296875 -0.852929687,6.16367187 0.2640625,6.86660156 C1.81953125,7.84511719 8.14238281,3.80664063 8.14238281,3.48222656 C8.14238281,3.15820313 7.69453125,0.01015625 7.69453125,0.01015625 L4.61445313,0.679296875 Z" id="Path"></path>
                        <path d="M13.0103516,5.70898438 C13.0103516,5.70898438 7.72148437,11.5876953 9.15917969,12.5507812 C10.6861328,13.5736328 16.5380859,8.8359375 16.5380859,8.51191406 C16.5380859,8.18789063 16.0902344,5.03984375 16.0902344,5.03984375 L13.0103516,5.70898438 Z" id="Path"></path>
                    </g>
                    <path d="M1.32578125,45.5560547 C1.32578125,45.5560547 0.7640625,49.9601563 0.980859375,50.1767578 C1.19765625,50.3935547 2.19375,51.0001953 2.43222656,51.0001953 C2.67070313,51.0001953 4.41601563,50.3318359 4.61933594,49.8748047 C4.79453125,49.4814453 4.66621094,48.4884766 4.16875,47.8910156 C3.59707031,47.2050781 3.67089844,45.9998047 3.67089844,45.9998047 L1.32578125,45.5560547 Z" id="Path" fill="#FFB657"></path>
                    <path d="M20.5352596,57.1169922 C20.5560547,51.6642578 17.3996094,47.7732422 17.3996094,47.7732422 L2.9828125,46.4972656 L4.38632813,87.6642578 C4.38632813,87.6642578 4.30097656,88.7287109 5.95449219,88.8958984 C7.52421875,89.0546875 7.9,88.0041016 7.9,88.0041016 C7.9,88.0041016 10.2013672,77.3646484 8.48164063,68.9207031 C8.48164063,68.9207031 9.61621094,64.9394531 10.6169922,60.7195312 L11.7289063,60.9787109 L12.8082031,92.6318359 C12.8082031,92.6318359 12.7228516,93.9943359 14.3763672,94.1615234 C15.9460937,94.3203125 16.3275391,93.1302734 16.3275391,93.1302734 C16.3275391,93.1302734 18.6230469,82.3322266 16.9033203,73.8882812 C16.9033203,73.8880859 20.5195313,61.1974609 20.5352596,57.1169922 Z" id="Path" fill="#3E3D43"></path>
                    <path d="M4.87734375,17.5804687 C4.87734375,17.5804687 1.16992188,17.1580078 1.71953125,28.5617187 C2.27246094,40.0308594 1.07226563,45.7378906 1.07226563,45.7378906 C1.07226563,45.7378906 1.32089844,46.5861328 2.77734375,46.5861328 C4.23378906,46.5861328 4.47617188,46.0408203 4.47617188,46.0408203 C4.47617188,46.0408203 5.0078125,32.7285156 5.07226563,32.0832031 C5.32441406,29.5611328 7.68007813,18.2099609 4.87734375,17.5804687 Z" id="Path" fill="#FECE00"></path>
                    <path d="M2.5375,48.5853516 C2.5375,48.5853516 3.64257812,43.0570312 3.74921875,36.6195313 C3.78769531,34.2859375 1.53027344,31.5728516 1.53027344,28.7507813 C1.53027344,25.8117188 2.61875,21.5283203 4.87753906,17.5802734 C4.87753906,17.5802734 13.6703125,15.171875 20.4636719,25.7820313 C20.4636719,25.7820313 16.9082031,30.4177734 16.5054687,38.3460938 C16.3023437,42.3447266 19.0777344,50.0392578 19.0777344,50.0392578 C12.3427734,55.3707031 3.63027344,53.5837891 2.5375,48.5853516 Z" id="Path" fill="#E0E0E2"></path>
                    <path d="M2.5375,48.5853516 C2.5375,48.5853516 3.64257812,43.0570312 3.74921875,36.6195313 C3.78769531,34.2859375 1.53027344,31.5728516 1.53027344,28.7507813 C1.53027344,25.8117188 2.61875,21.5283203 4.87753906,17.5802734 C4.87753906,17.5802734 13.6703125,15.171875 20.4636719,25.7820313 C20.4636719,25.7820313 16.9082031,30.4177734 16.5054687,38.3460938 C16.3023437,42.3447266 19.0777344,50.0392578 19.0777344,50.0392578 C12.3427734,55.3707031 3.63027344,53.5837891 2.5375,48.5853516 Z" id="Path" fill="#FECE00"></path>
                    <path d="M2.77734375,46.5861328 C2.81308594,46.5861328 2.84589844,46.5847656 2.87929687,46.5835937 C2.96074219,46.053125 3.05019531,45.4314453 3.13984375,44.7347656 L3.68359375,38.6283203 C3.71484375,37.9722656 3.73789062,37.3013672 3.74902344,36.6195313 C3.77949219,34.7892578 2.39726563,32.7253906 1.79960937,30.5583984 C1.81582031,31.0560547 1.82871094,31.5427734 1.83886719,32.0167969 C2.38769531,33.3011719 2.91894531,34.5708984 3.19921875,35.3125 C3.93085938,37.246875 2.10058594,46.4935547 2.09707031,46.5115234 C2.28828125,46.5574219 2.5125,46.5861328 2.77734375,46.5861328 Z" id="Path" fill="#EEBF00"></path>
                    <path d="M13.5158203,52.8386719 C12.6669922,47.3277344 11.6419922,34.2878906 11.6419922,31.4960938 C11.6419922,27.9673828 13.5585938,24.6326172 14.3394531,22.2333984 C15.1205078,19.8339844 12.0185547,16.8107422 7.54882813,20.0619141 C3.07871094,23.3132813 4.82226562,28.2050781 5.63652344,33.2267578 C6.28046875,37.196875 5.53808594,47.7789062 5.19902344,52.0373047 C7.29863281,53.2810547 10.3511719,53.6621094 13.5158203,52.8386719 Z" id="Path" fill="#E0E0E2"></path>
                    <path d="M8.35371094,16.2626953 C8.35371094,16.2626953 7.90273437,19.6707031 7.68710937,21.5431641 C7.52773437,22.9283203 9.97558594,23.8210937 11.8460937,23.2330078 C13.7167969,22.6447266 14.4726562,21.2611328 14.4726562,21.2611328 C13.5902344,18.2894531 13.6474609,13.9816406 13.6474609,13.9816406 L8.35371094,16.2626953 Z" id="Path" fill="#FFB657"></path>
                    <path d="M4.15390625,10.1351563 C4.15390625,10.1351563 4.60195313,16.621875 6.24804688,17.7783203 C7.89394531,18.9345703 13.6171875,17.0931641 15.9375,13.184375 C18.2580078,9.27558594 17.3742188,1.15761719 12.2251953,0.361328125 C6.21074219,-0.56875 3.80097656,4.33027344 4.15390625,10.1351563 Z" id="Path" fill="#FEC377"></path>
                    <path d="M7.68007813,0.788671875 C1.259375,3.70097656 4.55898438,13.1658203 4.55898438,13.1658203 C4.55898438,13.1658203 3.70136719,9.40703125 6.75585938,7.25351562 C8.53710938,5.99785156 9.36601563,6.0375 11.7697266,4.57128906 C14.9669922,9.56074219 13.7792969,15.8542969 13.7792969,15.8542969 C13.7792969,15.8542969 16.1191406,13.865625 16.8074219,11.825 C17.4960938,9.784375 17.4662109,6.4546875 16.7943359,4.40859375 C15.6455078,0.909375 12.1705078,-1.24804687 7.68007813,0.788671875 Z" id="Path" fill="#791900"></path>
                    <path d="M17.9943359,55.4404297 C17.9943359,55.4404297 17.4185547,57.9498047 17.4869141,58.4142578 C17.5554687,58.8787109 18.0568359,59.3404297 18.0568359,59.3404297 C18.0568359,59.3404297 18.0115234,60.4658203 18.4476562,60.7898438 C18.8837891,61.1138672 21.4113281,59.8861328 21.7994141,59.4880859 C22.3445312,58.9287109 21.6759766,54.8978516 21.6759766,54.8978516 C21.6759766,54.8978516 18.6257812,53.4058594 17.9943359,55.4404297 Z" id="Path" fill="#FFB657"></path>
                    <path d="M19.3302734,24.6689453 C18.2267578,24.3777344 16.6404297,25.0871094 16.5134766,28.2611328 C16.3865234,31.4349609 18.0572266,33.6804688 17.7757813,44.0123047 C17.5246094,53.2408203 17.7107422,55.1794922 17.7107422,55.1794922 C17.7107422,55.1794922 19.1451172,57.6966797 22.1455078,55.3943359 C22.1455078,55.3943359 22.1658203,40.7197266 22.1345703,38.8478516 C21.9384766,27.1886719 20.5353516,24.9871094 19.3302734,24.6689453 Z" id="Path" fill="#FECE00"></path>
                </g>
                <g id="stickman-(2)" transform="translate(198.000000, 187.000000)" fill-rule="nonzero">
                    <path d="M1.19042969,46.19375 L1.38125,49.8076172 C1.38125,49.8076172 2.58417969,50.609375 2.71777344,50.7431641 C2.85136719,50.8767578 5.82910156,49.7927734 5.82910156,49.4513672 C5.82910156,49.1099609 5.16796875,47.0011719 5.16796875,46.6894531 C5.16796875,46.3775391 4.94511719,44.7740234 4.94511719,44.7740234 L1.19042969,46.19375 Z" id="Path" fill="#FEC377"></path>
                    <g id="Group" transform="translate(5.078125, 90.429688)" fill="#CD2A01">
                        <path d="M8.36757812,5.41230469 L8.36757812,8.80019531 C8.36757812,8.80019531 9.14199219,9.88769531 10.5939453,9.47773438 C12.0457031,9.06777344 17.1365234,6.42109375 16.7603516,5.59121094 C15.8455078,3.57285156 13.63125,4.94140625 10.8175781,5.16132812 C9.26875,5.28261719 8.36757812,5.41230469 8.36757812,5.41230469 Z" id="Path"></path>
                        <path d="M0.087109375,1.05625 L0.087109375,4.44414063 C0.087109375,4.44414063 0.861523438,5.53164062 2.31367188,5.12167969 C3.76582031,4.71171875 8.98554687,1.99316406 8.48007813,1.23515625 C7.20097656,-0.6828125 5.35097656,0.585546875 2.53730469,0.805273437 C0.98828125,0.926367187 0.087109375,1.05625 0.087109375,1.05625 Z" id="Path"></path>
                    </g>
                    <path d="M2.82421875,46.3757813 C2.82421875,46.3757813 0.2765625,51.3380859 0.671679688,57.6503906 C0.953710938,62.1537109 4.69257813,74.6136719 4.69257813,74.6136719 C3.60664063,85.0072266 5.02890625,92.0757812 5.02890625,92.0757812 C5.02890625,92.0757812 5.40058594,92.8335938 6.81582031,92.7986328 C7.99726563,92.7695312 8.69511719,91.9119141 8.69511719,91.9119141 L9.58359375,66.5958984 C10.7851562,72.0423828 12.9730469,79.1734375 12.9730469,79.1734375 C11.8871094,89.5669922 13.309375,96.6355469 13.309375,96.6355469 C13.309375,96.6355469 13.7867188,97.4175781 15.1208984,97.3779297 C16.3021484,97.3427734 16.9755859,96.4714844 16.9755859,96.4714844 L18.5371094,51.9722656 L2.82421875,46.3757813 Z" id="Path" fill="#1D81CD"></path>
                    <g id="Group" transform="translate(0.000000, 15.820312)" fill="#E0E0E2">
                        <path d="M6.77148437,0.309570312 C5.93457031,-0.436132813 1.2921875,-0.379492188 0.698242187,7.06601562 C0.440820312,10.2927734 -0.114257813,15.4830078 0.0447265625,19.3636719 C0.292773437,25.4164063 0.840039062,30.7636719 0.840039062,30.7636719 C0.840039062,30.7636719 1.73457031,31.9439453 4.83300781,30.4888672 C4.3234375,21.6783203 3.99003906,21.5492187 4.19570312,14.9072266 C4.43496094,7.18925781 9.27753906,2.5421875 6.77148437,0.309570312 Z" id="Path"></path>
                        <path d="M1.19042969,32.13125 C1.19042969,32.13125 3.1953125,27.2017578 4.28613281,20.7291016 C5.12519531,15.7503906 1.75742187,9.88730469 1.75742187,7.27636719 C1.75742187,1.40234375 4.27675781,-0.0060546875 6.18105469,0.03125 C6.18105469,0.03125 13.8052734,2.30742188 19.6894531,7.51308594 C19.6894531,7.51308594 21.0351562,12.2402344 20.7382813,13.9296875 C20.4003906,15.853125 17.0667969,18.5708984 17.0667969,20.6423828 C17.0667969,23.3453125 18.9166016,33.5564453 18.9166016,33.5564453 C16.3494141,38.3371094 5.79140625,38.3988281 1.19042969,32.13125 Z" id="Path"></path>
                    </g>
                    <path d="M1.14960937,46.8169922 C1.25488281,46.8722656 1.39199219,46.9259766 1.56171875,46.9667969 C2.17246094,45.2746094 3.40214844,41.5511719 4.20664063,37.0060547 C4.13496094,35.6167969 4.11269531,34.2498047 4.15703125,32.1925781 C3.48496094,28.5054687 1.75742188,24.9666016 1.75742188,23.0966797 C1.75742188,19.5294922 2.68691406,17.6113281 3.84316406,16.6615234 C2.42265625,17.4083984 1.14863281,19.3259766 1.14863281,23.5027344 C1.14863281,26.1132812 4.51640625,31.9765625 3.67734375,36.9552734 C2.95273437,41.2550781 1.82519531,44.871875 1.14960937,46.8169922 Z" id="Path" fill="#D8D8DA"></path>
                    <g id="Group" transform="translate(4.492188, 0.390625)" fill="#FEC377">
                        <path d="M13.4390625,8.70429687 C13.4390625,8.70429687 13.6283203,14.2996094 12.1414062,15.4238281 C10.6546875,16.5478516 3.09863281,15.8212891 1.01171875,12.0351562 C-1.07519531,8.24882812 0.076171875,1.09160156 4.72265625,0.311132812 C10.1501953,-0.601171875 13.7669922,3.07480469 13.4390625,8.70429687 Z" id="Path"></path>
                        <path d="M3.27304688,12.7294922 L2.15527344,18.4226562 C2.15527344,18.4226562 4.26796875,22.0990234 8.07460937,19.8421875 C8.07460937,19.8421875 8.44023437,14.8677734 8.796875,14.1103516 C9.15351562,13.353125 3.27304688,12.7294922 3.27304688,12.7294922 Z" id="Path"></path>
                        <path d="M12.5326172,54.1373047 C12.5326172,54.1373047 12.6216797,57.2167969 12.6414062,57.6099609 C12.6613281,58.0064453 12.2662109,58.2767578 12.5808594,59.0599609 C12.6300781,59.1824219 13.5449219,59.8222656 13.8736328,59.9283203 C14.2291016,60.0431641 16.4328125,58.5339844 16.7574219,58.2947266 C17.0820312,58.0552734 16.8117188,56.1355469 16.7884766,55.6763672 C16.78125,55.5359375 16.7265625,53.2783203 16.4539062,53.1806641 C16.18125,53.0828125 12.5326172,54.1373047 12.5326172,54.1373047 Z" id="Path"></path>
                    </g>
                    <path d="M20.0503906,23.6101563 C19.4140625,22.6447266 17.0914063,21.6685547 15.9035156,25.7074219 C14.715625,29.7462891 16.5298828,55.4623047 16.5298828,55.4623047 C16.5298828,55.4623047 19.3408203,57.5386719 21.4080078,54.3753906 C21.4080078,54.3753906 20.5363281,44.4310547 20.5363281,38.3443359 C20.5365234,32.2576172 21.2490234,25.4283203 20.0503906,23.6101563 Z" id="Path" fill="#E0E0E2"></path>
                    <path d="M15.9037109,25.7074219 C15.9869141,25.4246094 16.0761719,25.16875 16.1695313,24.9333984 C15.9318359,25.4050781 15.7050781,25.9785156 15.5003906,26.6748047 C14.5779297,29.8109375 15.0570313,45.0462891 15.5001953,52.134375 C15.7738281,52.0306641 16.0375,51.9154297 16.2904297,51.7890625 C15.8408203,44.5330078 14.9960937,28.7933594 15.9037109,25.7074219 Z" id="Path" fill="#D8D8DA"></path>
                    <path d="M16.6072266,17.0429687 C13.3453125,18.3130859 7.23496094,16.0556641 5.18300781,12.9431641 C3.54121094,10.4525391 2.92402344,2.37324219 7.93125,0.45 C13.5287109,-1.70019531 19.4679687,4.42050781 18.1441406,6.85078125 C17.2068359,8.57128906 16.2429688,9.53828125 16.2429688,11.7308594 C16.2429687,15.4160156 16.7376953,17.3318359 16.6072266,17.0429687 Z" id="Path" fill="#2E2E30"></path>
                </g>
                <g id="checkered" transform="translate(229.000000, 0.000000)" fill-rule="nonzero">
                    <g id="Group" fill="#3E3D43">
                        <path d="M5.81213793,1.78525781 C5.82041379,1.32636328 5.54275862,0.8656875 4.97917241,0.515449219 C3.89896552,-0.155859375 2.1117931,-0.187476562 0.987724138,0.515449219 C0.440068966,0.857894531 0.167172414,1.30654688 0.167586207,1.75519922 C0.167586207,1.75386328 0.167586207,1.75230469 0.167586207,1.75096875 L0.163444135,112.232109 C0.162206897,112.685215 0.440068966,113.138988 0.99662069,113.484773 C2.10248276,114.171891 3.88965517,114.171891 4.98827586,113.484773 C5.53406897,113.143441 5.80717241,112.696793 5.80841379,112.249477 L5.81234483,1.76833594 C5.81234483,1.77390234 5.81213793,1.77946875 5.81213793,1.78525781 Z" id="Path"></path>
                        <path d="M5.81234483,1.76811328 L5.8082069,112.249254 C5.80717241,112.69657 5.53386207,113.143441 4.98806897,113.484551 C3.88944828,114.171668 2.10227586,114.171668 0.996413793,113.484551 C0.439862069,113.138766 0.162206897,112.684992 0.163238499,112.231887 L0.16737931,1.75074609 C0.166137931,2.20385156 0.444,2.657625 1.00055172,3.00341016 C2.10641379,3.69052734 3.89358621,3.69052734 4.9922069,3.00341016 C5.538,2.66230078 5.81131034,2.21565234 5.81234483,1.76811328 Z" id="Path"></path>
                    </g>
                    <path d="M5.11426858,0.585705206 C6.28968709,1.36679522 6.29606448,2.63309248 5.12834281,3.41418249 C3.96062115,4.1952725 2.06103927,4.1952725 0.885620754,3.41418249 C-0.289797761,2.63309248 -0.295955239,1.36679522 0.871766429,0.585705206 C2.06631711,-0.213102338 3.96611889,-0.177161061 5.11426858,0.585705206 Z" id="Path" fill="#57565C"></path>
                    <g id="Group" transform="translate(4.000000, 5.000000)" fill="#C6C5CB">
                        <polygon id="Path" points="2.5801619 0.0511433333 0.286514286 1.40990333 0.175457143 41.38054 43.4226857 66.8376367 45.7161143 65.4788767 45.8271714 25.50824"></polygon>
                        <polygon id="Path" points="43.5337429 26.8672233 45.8271714 25.50824 45.7161143 65.4788767 43.4226857 66.8376367"></polygon>
                    </g>
                    <polygon id="Path" fill="#E0E0E2" points="4 6.36807915 6.31678235 5 50 30.631696 47.6834389 32"></polygon>
                    <polygon id="Path" fill="#D8D8DA" points="48 32.290893 47.8872992 72 4 46.7093289 4.11270082 7"></polygon>
                    <g id="Group" transform="translate(5.000000, 9.000000)" fill="#2E2E30">
                        <polyline id="Path" points="4.90444444 2.88042599 0.273111111 0.18734296 0.258222222 5.54642599 4.88933333 8.23973285 4.90444444 2.88042599"></polyline>
                        <polyline id="Path" points="9.52 10.9323682 4.88933333 8.23973285 4.87422222 13.599935 9.50488889 16.2925704 9.52 10.9323682"></polyline>
                        <polyline id="Path" points="14.1664444 8.2661444 9.53511111 5.57306137 9.52 10.9323682 14.1513333 13.6256751 14.1664444 8.2661444"></polyline>
                        <polyline id="Path" points="18.7826667 16.3187581 14.1513333 13.6256751 14.1362222 18.9858773 18.7675556 21.6789603 18.7826667 16.3187581"></polyline>
                        <polyline id="Path" points="23.4282222 13.6523105 18.7977778 10.9594513 18.7826667 16.3187581 23.4131111 19.0116173 23.4282222 13.6523105"></polyline>
                        <polyline id="Path" points="28.0446667 21.7049242 23.4131111 19.0116173 23.398 24.3718195 28.0295556 27.0651264 28.0446667 21.7049242"></polyline>
                        <polyline id="Path" points="4.87422222 13.599935 0.243111111 10.9066282 0.228 16.2668303 4.85911111 18.9599134 4.87422222 13.599935"></polyline>
                        <polyline id="Path" points="9.48977778 21.6527726 4.85911111 18.9599134 4.844 24.319444 9.47466667 27.0123032 9.48977778 21.6527726"></polyline>
                        <polyline id="Path" points="14.1362222 18.9858773 9.50488889 16.2925704 9.48977778 21.6527726 14.1211111 24.3460794 14.1362222 18.9858773"></polyline>
                        <polyline id="Path" points="18.7524444 27.0391625 14.1211111 24.3460794 14.106 29.7053863 18.7373333 32.3986931 18.7524444 27.0391625"></polyline>
                        <polyline id="Path" points="23.398 24.3718195 18.7675556 21.6789603 18.7524444 27.0391625 23.3831111 29.7320217 23.398 24.3718195"></polyline>
                        <polyline id="Path" points="28.0144444 32.4253285 23.3831111 29.7320217 23.368 35.0915523 27.9993333 37.7846354 28.0144444 32.4253285"></polyline>
                        <polyline id="Path" points="4.844 24.319444 0.212888889 21.6261372 0.197777778 26.9863394 4.82888889 29.6796462 4.844 24.319444"></polyline>
                        <polyline id="Path" points="41.9528889 24.4246426 37.3215556 21.7315596 37.3066667 27.0908664 41.9377778 29.7841733 41.9528889 24.4246426"></polyline>
                        <polyline id="Path" points="41.9226667 35.1443755 37.2915556 32.4510686 37.2764444 37.8112708 41.9075556 40.5045776 41.9226667 35.1443755"></polyline>
                        <polyline id="Path" points="41.8924444 45.8636606 37.2613333 43.1703538 37.2462222 48.530556 41.8773333 51.2238628 41.8924444 45.8636606"></polyline>
                        <polyline id="Path" points="9.45977778 32.3725054 4.82888889 29.6796462 4.81377778 35.0398484 9.44466667 37.7324838 9.45977778 32.3725054"></polyline>
                        <polyline id="Path" points="14.106 29.7053863 9.47466667 27.0123032 9.45977778 32.3725054 14.0908889 35.0655884 14.106 29.7053863"></polyline>
                        <polyline id="Path" points="18.7222222 37.7588953 14.0908889 35.0655884 14.0757778 40.4257906 18.7073333 43.1190975 18.7222222 37.7588953"></polyline>
                        <polyline id="Path" points="23.368 35.0915523 18.7373333 32.3986931 18.7222222 37.7588953 23.3528889 40.4515307 23.368 35.0915523"></polyline>
                        <polyline id="Path" points="27.9842222 43.1448375 23.3528889 40.4515307 23.3377778 45.811509 27.9691111 48.5048159 27.9842222 43.1448375"></polyline>
                        <polyline id="Path" points="32.6908889 19.0387004 28.0597778 16.3453935 28.0446667 21.7049242 32.6757778 24.3980072 32.6908889 19.0387004"></polyline>
                        <polyline id="Path" points="4.81377778 35.0398484 0.182666667 32.3465415 0.167555556 37.7067437 4.79866667 40.4000505 4.81377778 35.0398484"></polyline>
                        <polyline id="Path" points="14.0757778 40.4257906 9.44466667 37.7324838 9.42955556 43.0926859 14.0606667 45.7859928 14.0757778 40.4257906"></polyline>
                        <polyline id="Path" points="23.3377778 45.811509 18.7073333 43.1190975 18.6922222 48.478852 23.3226667 51.1717112 23.3377778 45.811509"></polyline>
                        <polyline id="Path" points="41.8622222 56.584065 37.2311111 53.8907581 37.216 59.2509603 41.8471111 61.9442671 41.8622222 56.584065"></polyline>
                        <polyline id="Path" points="32.6004444 51.1978989 27.9691111 48.5048159 27.954 53.8650181 32.5853333 56.5581011 32.6004444 51.1978989"></polyline>
                        <polyline id="Path" points="37.3066667 27.0908664 32.6757778 24.3980072 32.6606667 29.7582094 37.2915556 32.4510686 37.3066667 27.0908664"></polyline>
                        <polyline id="Path" points="32.6606667 29.7582094 28.0295556 27.0651264 28.0144444 32.4253285 32.6455556 35.1184116 32.6606667 29.7582094"></polyline>
                        <polyline id="Path" points="37.2764444 37.8112708 32.6455556 35.1184116 32.6304444 40.4779422 37.2613333 43.1703538 37.2764444 37.8112708"></polyline>
                        <polyline id="Path" points="32.6304444 40.4779422 27.9993333 37.7846354 27.9842222 43.1448375 32.6155556 45.8381444 32.6304444 40.4779422"></polyline>
                        <polyline id="Path" points="37.2462222 48.530556 32.6155556 45.8381444 32.6004444 51.1978989 37.2311111 53.8907581 37.2462222 48.530556"></polyline>
                    </g>
                </g>
                <g id="bus" transform="translate(291.000000, 9.000000)" fill-rule="nonzero">
                    <path d="M107.301998,165.516147 C107.448049,165.440295 115,160.980538 115,160.980538 L109.762823,152.768966 C108.382226,147.831628 105.326173,143.163983 101.775475,141.073866 C96.928227,138.221027 93,141.248043 93,147.835842 C93,154.423641 96.928227,162.076163 101.775475,164.927599 C103.869794,166.16088 105.793261,166.292917 107.301998,165.516147 L107.301998,165.516147 Z" id="Path" fill="#23292E"></path>
                    <path d="M41,117.981145 L35.7642012,109.768391 C34.3822258,104.831187 31.3261725,100.163669 27.7754743,98.0736093 C22.9282267,95.2208465 19,98.2491855 19,104.836806 C19,111.423022 22.9282267,119.075337 27.7754743,121.928099 C30.0723367,123.279334 32.1625226,123.308831 33.7263731,122.265205 L41,117.981145 Z" id="Path" fill="#23292E"></path>
                    <path d="M183.97052,134.940257 C183.590088,115.005328 178.30896,93.0667685 172.463501,77.0560274 C171.041443,72.5277938 168.096253,69.0584008 163.997131,66.6858652 L49.7551881,0.532258332 C48.3457643,-0.264688074 46.7426147,-0.119660602 45.529724,0.654757279 L45.5283203,0.654757279 L4.88385019,24.1886183 C3.75799552,24.8053365 2.91149884,25.9373949 2.76409903,27.3820368 L0,54.5922713 L0,83.6709655 C0,85.3099157 0.593811125,86.8925446 1.67193613,88.1231651 L13.7053834,101.87683 L132.346863,170.685987 C135.516663,172.52347 139.006531,173.592167 142.558167,173.903342 L142.558167,173.907566 C142.614319,173.91179 142.670471,173.914606 142.72522,173.91883 C142.852966,173.930095 142.980713,173.946991 143.10846,173.955439 L143.10846,173.946991 C146.963318,174.199029 150.874329,173.55415 154.517212,171.972929 C162.601746,168.461295 170.231445,164.003463 177.267334,158.713484 C180.17041,156.163536 182.370178,152.832131 183.380921,149.158573 C183.380921,149.158573 183.910156,146.857847 183.977539,145.411797 L184,145.428694 L184,137.946407 C184,137.946407 183.97052,134.941665 183.97052,134.940257 Z" id="Path" fill="#72E8F1"></path>
                    <path d="M180,152 C181.396489,151.275709 182.552878,150.304063 183.441404,149.178375 C183.730502,148.092679 183.918334,146.981803 183.973867,145.853153 L184,145.870927 L184,138 C183.998367,138.142192 180,143.369234 180,152 L180,152 Z" id="Path" fill="#FFFFFF"></path>
                    <path d="M151.605293,162 L143,162 C144.807847,166.93238 150.942127,169.361411 156.175368,167.216614 L157,166.878923 C157,164.183911 154.585213,162 151.605293,162 Z" id="Path" fill="#FFFFFF"></path>
                    <path d="M136.259806,114.119517 C137.583295,118.366383 138.719889,122.663608 139.676511,127 L180,103.896821 C178.283341,95.1806736 175.827411,85.8210607 172.344255,77 C172.340102,77.0027975 172.335948,77.0041962 172.331795,77.0069941 L132,100.513037 C132.001384,100.518632 132.004153,100.524228 132.006922,100.531222 C132.045685,100.648724 136.259806,114.119517 136.259806,114.119517 L136.259806,114.119517 Z" id="Path" fill="#243B58"></path>
                    <path d="M181.463584,112 L140,135.431495 C141.412426,143.436401 142.197267,151.545304 142.331647,159.686529 C142.358809,160.370937 142.381683,161.055345 142.400267,161.741159 L150.93344,161.741159 C153.888385,161.741159 156.282934,164.09513 156.282934,167 C165.373644,163.558284 173.460787,158.515868 180.498617,151.899453 C180.498617,143.710446 183.998233,138.750946 184,138.616031 C184.015388,134.432287 183.486442,124.281403 181.463584,112 Z" id="Path" fill="#243B58"></path>
                    <path d="M143,174 L143,161.692835 C143,145.710526 140.56203,129.819568 135.770254,114.575098 L131.588672,101.275715 C131.552201,101.154849 131.500299,101.041011 131.45962,100.921552 C130.727387,98.7445733 129.61501,96.7348385 128.188419,94.9822936 C126.752008,93.2199111 124.980342,91.7020696 123.012291,90.5650935 L8.89620688,24.554446 C8.73489115,24.4616892 8.57217277,24.381581 8.40664872,24.3127157 C5.92379083,23.2769295 3.04535877,24.918447 2.76200417,27.6997512 L0,54.8592768 L0,83.8837801 C0,85.519676 0.593361085,87.0993555 1.67066899,88.3276827 L13.6949963,102.055716 L132.246559,170.736641 C135.578078,172.666267 139.261686,173.756864 143,174 Z" id="Path" fill="#2EB3BD"></path>
                    <path d="M111.428115,111.556085 L111.422522,131.280744 L0,67 L0,67.5837101 L25.9781274,82.5674691 L25.9669414,109.457242 L26.5514106,109.792386 L26.5514106,94.708084 L46.1898625,106.035973 L46.1842698,121.110501 L46.7687391,121.445645 L46.7687391,94.560062 L66.5582022,105.97453 L66.5470161,132.857321 L67.1314857,133.192465 L67.1314857,106.305486 L86.9936579,117.760451 L86.9810737,144.602744 L87.565543,144.937889 L87.565543,118.091406 L111.422522,131.851887 L111.41553,158.664855 L112,159 L112,111.89123 L111.428115,111.556085 Z M46.191261,105.457849 L26.5514106,94.1271666 L26.5514106,82.8984244 L46.1954559,94.2291067 L46.191261,105.457849 Z" id="Shape" fill="#304E75"></path>
                    <path d="M110,158.164133 C110,164.751466 106.194787,167.778268 101.500667,164.927034 C96.8065481,162.074396 93,154.422415 93,147.835083 C93,141.249154 96.8065481,138.220948 101.500667,141.073586 C106.194787,143.924819 110,151.5768 110,158.164133 Z" id="Path" fill="#2E373D"></path>
                    <path d="M107,155.383395 C107,158.423758 104.984989,159.821323 102.5,158.504184 C100.015011,157.188363 98,153.656216 98,150.615853 C98,147.576808 100.015011,146.179243 102.5,147.495064 C104.984989,148.812203 107,152.343032 107,155.383395 L107,155.383395 Z" id="Path" fill="#CECECE"></path>
                    <path d="M104,153.891166 C104,155.663819 102.881366,156.479239 101.500736,155.710616 C100.120106,154.943413 99,152.882881 99,151.110229 C99,149.336158 100.120106,148.520738 101.500736,149.28936 C102.881366,150.056564 104,152.117095 104,153.891166 L104,153.891166 Z" id="Path" fill="#627681"></path>
                    <path d="M103.001001,75 L137,55.3782842 C134.723875,51.5041205 131.484075,48.2859292 127.594353,46.0376803 L55.3830716,4.30491632 C54.5874785,3.84517471 53.6896349,3.93488039 53.0187033,4.37640062 L19.2620235,23.8593529 C18.5364648,24.2181756 18,24.955444 18,25.8819357 L103.001001,75 Z" id="Path" fill="#A4EFF4"></path>
                    <path d="M102,75 L16,26.2450237 C16,24.5198241 17.9032378,23.440183 19.4252615,24.304174 L92.4852272,65.7284432 C96.4206642,67.9600724 99.6985416,71.1544744 102,75 Z" id="Path" fill="#2EB3BD"></path>
                    <path d="M142.637205,126 L177,106.470055 C175.970303,101.673227 174.723083,96.9202887 173.249867,92.2296475 L171.292171,86 L137,105.851338 L138.952047,112.065411 C140.394188,116.656945 141.621632,121.307943 142.637205,126 L142.637205,126 Z" id="Path" fill="#304E75"></path>
                    <path d="M144,132.563851 C145.228288,139.926741 145.933157,147.3751 146.103443,154.852882 L146.13415,155 L180,135.38711 C179.836693,127.8757 179.134615,120.395116 177.903536,113 L144,132.563851 Z" id="Path" fill="#304E75"></path>
                    <path d="M113,88.6182941 L9.38039391,29.2318362 C8.29971848,28.6127031 6.93480309,29.2975231 6.79549719,30.5288011 L5,46.3858744 L7.10506567,51.3319504 L113,112 L113,88.6182941 Z" id="Path" fill="#243B58"></path>
                    <path d="M118,123 L118.689167,126.168248 C121.337757,138.326834 129.082812,148.804931 140,155 L140,149.039256 C140,144.325014 139.661733,139.630183 139.010463,134.982495 L118,123 Z" id="Path" fill="#243B58"></path>
                    <path d="M137,126 C135.620024,119.842679 133.691933,113.810559 131.222647,107.981009 L128.663393,101.941855 C127.009359,98.0409522 124.160823,94.7857452 120.541326,92.6629677 L116,90 L116,113.53343 L137,126 Z" id="Path" fill="#243B58"></path>
                    <path d="M160.211307,116 L175,107.435092 C173.702427,100.452211 171.717659,93.6034235 169.059661,87 L154,95.8830243 L155.609046,103.524964 C156.539275,107.938659 158.102228,112.13552 160.211307,116 L160.211307,116 Z" id="Path" fill="#59718B"></path>
                    <path d="M166,120.322102 C169.260912,124.993556 173.317362,128.977642 178,132 L178,125.657325 C178,121.418057 177.774204,117.192066 177.337053,113 L166,120.322102 Z" id="Path" fill="#59718B"></path>
                    <g id="Group" transform="translate(26.000000, 38.000000)" fill="#304E75">
                        <polygon id="Path" points="61.5585938 58.9249624 62.8973438 59.6954529 62.8973438 36.1877806 61.5585938 35.4172904"></polygon>
                        <polygon id="Path" points="41.0076562 47.0939371 42.345 47.8644273 42.345 24.3525449 41.0076562 23.5820547"></polygon>
                        <polygon id="Path" points="20.5284377 35.305015 21.8657812 36.0741018 21.8657812 12.5594123 20.5284377 11.7889222"></polygon>
                        <polygon id="Path" points="0.19546884 23.6002994 1.53281232 24.3707896 1.53281232 0.850486707 0.19546884 0.0785928144"></polygon>
                    </g>
                    <path d="M36,115.164126 C36,121.751465 32.1947867,124.77827 27.5006673,121.927033 C22.8065479,119.074393 19,111.422405 19,104.836471 C19,98.2491321 22.8065479,95.2209226 27.5006673,98.0735634 C32.1947867,100.926204 36,108.576787 36,115.164126 Z" id="Path" fill="#2E373D"></path>
                    <path d="M31,111.383224 C31,114.423731 28.9849887,115.821362 26.5,114.504161 C24.0135742,113.188278 22,109.657282 22,106.616775 C22,103.576269 24.0135742,102.178638 26.5,103.495839 C28.9849887,104.811722 31,108.342718 31,111.383224 L31,111.383224 Z" id="Path" fill="#CECECE"></path>
                    <path d="M30,110.890576 C30,112.663232 28.8813659,113.478655 27.5007361,112.711448 C26.1201063,111.942825 25,109.882288 25,108.109631 C25,106.335556 26.1201063,105.521552 27.5007361,106.288758 C28.8813659,107.055964 30,109.1165 30,110.890576 L30,110.890576 Z" id="Path" fill="#627681"></path>
                    <polygon id="Path" fill="#304E75" points="4 77 4 85.3745411 20 94 20 85.628114"></polygon>
                </g>
                <g id="table" transform="translate(334.000000, 128.000000)" fill-rule="nonzero">
                    <polygon id="Path" fill="#554432" points="7 18.4589076 4.49203145 17 2 18.459086 2 48.540914 4.50814563 50 7 48.540914"></polygon>
                    <polygon id="Path" fill="#806749" points="4.49203145 17 2 18.5000917 4.50814563 20 7 18.4999083"></polygon>
                    <polygon id="Path" fill="#554432" points="7 18 7 48.519685 5 50 5 19.480315"></polygon>
                    <g id="Group" transform="translate(1.000000, 19.000000)" fill="#5E4C36">
                        <polygon id="Path" points="2.49981191 1.51440654 2.49981191 30.6659112 0.0133416928 29.2519579 0.0133416928 0.100626168"></polygon>
                        <polygon id="Path" points="3.73497179 4.92584112 3.73497179 7.32323364 55.8695674 36.984785 55.8695674 34.5875654"></polygon>
                    </g>
                    <polygon id="Path" fill="#554432" points="61 49.4592565 58.4919432 48 56 49.4592565 56 79.5409219 58.5080568 81 61 79.5407435"></polygon>
                    <polygon id="Path" fill="#806749" points="58.4919432 49 56 50.5001834 58.5080568 52 61 50.5"></polygon>
                    <polygon id="Path" fill="#554432" points="61 49 61 79.519504 59 81 59 50.480315"></polygon>
                    <polygon id="Path" fill="#5E4C36" points="58 50.4801423 58 81 56 79.5196767 56 49"></polygon>
                    <polygon id="Path" fill="#554432" points="88 33.4589154 85.4917661 32 83 33.4589154 83 63.5410846 85.5080568 65 88 63.5410846"></polygon>
                    <polygon id="Path" fill="#806749" points="85.4917661 33 83 34.5000917 85.5080568 36 88 34.5000917"></polygon>
                    <polygon id="Path" fill="#554432" points="88 34 88 64.5196767 86 66 86 35.4801423"></polygon>
                    <polygon id="Path" fill="#5E4C36" points="85 35.4801423 85 66 83 64.5198577 83 34"></polygon>
                    <polygon id="Path" fill="#554432" points="85 39 85 41.4450461 60 56 60 53.5551303"></polygon>
                    <polygon id="Path" fill="#806749" points="31.4920314 1 29 2.5 31.5081456 4 34 2.49981658"></polygon>
                    <polygon id="Path" fill="#554432" points="34 2 34 32.5195124 32 34 32 3.4804876"></polygon>
                    <polygon id="Path" fill="#5E4C36" points="31 3.48031496 31 34 29 32.519685 29 2"></polygon>
                    <polygon id="Path" fill="#554432" points="30.9084961 0 0 18.1319071 0 20.5912344 59.0916797 55 90 36.8680929 90 34.4087656"></polygon>
                    <polygon id="Path" fill="#806749" points="0 17.9453197 30.9084961 0 90 34.0546803 59.0915039 52"></polygon>
                    <polygon id="Path" fill="#6A563D" points="0 18 0 20.4681263 60 55 60 52.5318737"></polygon>
                    <polygon id="Path" fill="#5E4C36" points="90 34 90 36.3887128 60 54 60 51.6112872"></polygon>
                </g>
                <g id="trophy" transform="translate(370.000000, 116.000000)" fill-rule="nonzero">
                    <polygon id="Path" fill="#1D1D1F" points="24.2605735 30.5294688 24.2605735 30.5294688 12.9636629 24 1.73942646 30.5299098 1 38.041859 13.0388036 45 25 38.0413298"></polygon>
                    <polygon id="Path" fill="#3E3D43" points="24 30.4997805 12.5371997 37 1 30.5002195 12.4628903 24"></polygon>
                    <polygon id="Path" fill="#2E2E30" points="0.737043135 31 0 38.2679083 12 45 12 37.3173458"></polygon>
                    <polygon id="Path" fill="#FEDA44" points="2 37.829485 2.4783297 33 11 37.8946654 11 43"></polygon>
                    <polygon id="Path" fill="#1D1D1F" points="23.2581747 31 24 38.2676015 12 45 12 37.3175799"></polygon>
                    <path d="M5.00000983,30.4769756 L5.00000983,30.4769756 L5.00181002,31.0826813 C5.004764,32.1066185 5.71380745,33.1277745 7.12258487,33.8952277 C9.89439784,35.4053634 14.3256285,35.3619063 17.019743,33.7981444 C18.344735,33.0291268 19.0029342,32.0356095 18.9999902,31.0446997 L18.99819,30.438994 L18.99819,30.438994 C18.995236,29.4150568 18.2861926,28.3939008 16.8774151,27.6263607 C15.933665,27.1121758 14.7974589,26.7785118 13.6029789,26.623196 C13.5814954,26.5837369 13.5614442,26.5452339 13.5439889,26.5094252 C13.4337072,26.2826658 13.2965711,25.975163 13.2096527,25.7390169 C13.1456499,25.5650145 13.0726957,25.3286946 13.0243579,25.1500857 C12.9759306,24.971303 12.9181938,24.7308112 12.8871323,24.548465 C12.8353035,24.2446126 12.788756,23.8360285 12.7601114,23.529308 C12.7600219,23.5279174 12.7599324,23.5265268 12.7598429,23.5252231 L12.7598429,23.5251361 C12.7547406,23.4410031 12.7508019,23.3565224 12.7479375,23.2716941 C12.7479375,23.271781 12.7479375,23.271781 12.7479375,23.271781 C12.7449835,23.181564 12.7428351,23.0909993 12.7425666,23 C12.7428351,23.1083821 12.6709551,23.2169381 12.5260313,23.3010711 C12.2314394,23.4721184 11.7468981,23.4768118 11.4438919,23.3116746 C11.2898376,23.2278024 11.2123182,23.1160306 11.2120496,23.0041719 C11.2123182,23.1068177 11.2104384,23.208855 11.2073054,23.3104578 C11.2073054,23.3097625 11.2073054,23.3090672 11.2073949,23.3083719 C11.205157,23.3820752 11.202024,23.4556916 11.1980854,23.5288735 C11.1980854,23.5289604 11.1980854,23.5291342 11.1980854,23.5292211 C11.1979959,23.5308725 11.1979063,23.5326977 11.1977273,23.5343491 C11.1745431,23.8157775 11.1411542,24.1916818 11.0914737,24.4698075 C11.0406296,24.7547126 10.9479822,25.1300954 10.8713579,25.4094379 C10.8265112,25.5729237 10.7450531,25.78456 10.6872268,25.9440477 C10.6302061,26.1011888 10.5392595,26.3056981 10.4627247,26.454843 C10.4342591,26.5102943 10.4019444,26.5710474 10.3678394,26.6334519 C9.120725,26.8031955 7.94011976,27.1662365 6.98025699,27.7233571 C5.65517553,28.4926354 4.99706576,29.4861527 5.00000983,30.4769756 L5.00000983,30.4769756 L5.00000983,30.4769756 L5.00000983,30.4769756 Z M10.9545167,25.1510417 C10.8259741,25.6676603 10.6518686,26.1609858 10.4375711,26.6243259 C10.6519581,26.1610727 10.8260636,25.6676603 10.9545167,25.1510417 Z M11.1978168,23.5292211 C11.1746326,23.9464097 11.1226247,24.3542985 11.0441206,24.7500192 C11.1226247,24.3543854 11.1746326,23.9464097 11.1978168,23.5292211 Z M11.0078494,24.9583528 C10.9924494,25.0196273 10.9763494,25.0805543 10.9596494,25.1412204 C10.9763494,25.0807281 10.9924494,25.0197143 11.0078494,24.9583528 Z M11.0495905,24.7602751 C11.0357905,24.822245 11.0212905,24.8837803 11.0059905,24.9450549 C11.0212905,24.8837803 11.0357905,24.8221581 11.0495905,24.7602751 Z M12.9206107,24.7448913 C12.8397792,24.349692 12.785444,23.9421509 12.7598429,23.52531 C12.785444,23.9421509 12.8397792,24.3496051 12.9206107,24.7448913 Z M13.5375439,26.6149391 C13.3206505,26.1529897 13.1437701,25.6607071 13.012363,25.1449577 C13.1437701,25.6606202 13.32074,26.1529028 13.5375439,26.6149391 Z M12.9703636,24.9397531 C12.9546636,24.8784785 12.9397636,24.8167694 12.9255636,24.7547995 C12.9397636,24.8167694 12.9546636,24.8784785 12.9703636,24.9397531 Z M13.0177788,25.1354841 C13.0005788,25.0748179 12.9841788,25.0138041 12.9683788,24.9525295 C12.9841788,25.0138041 13.0005788,25.0748179 13.0177788,25.1354841 Z" id="Shape" fill="#FECE00"></path>
                    <path d="M6,30 L6.00168691,30.5315925 C6.00447031,31.4302423 6.67257085,32.3264512 8,33 L7.99831309,32.4684075 C6.6707996,31.7947825 6.0027834,30.8987261 6,30 Z" id="Path" fill="#FED322"></path>
                    <g id="Group" transform="translate(5.000000, 23.000000)" fill="#FECE00">
                        <path d="M7.7546051,0.329402299 C7.7513051,0.245885057 7.7489051,0.162126437 7.7486051,0.0778850575 C7.7516051,0.153195402 7.7524051,0.24145977 7.7546051,0.329402299 Z" id="Path"></path>
                        <path d="M6.20951529,0.567643678 C6.21411529,0.499816092 6.21741529,0.431666667 6.22011529,0.363356322 C6.21841529,0.435126437 6.21541529,0.505689655 6.20951529,0.567643678 Z" id="Path"></path>
                        <path d="M7.76677102,0.564022989 C7.75907102,0.49337931 7.75557102,0.411632184 7.75347102,0.329402299 C7.75667102,0.407931034 7.76107102,0.486137931 7.76677102,0.564022989 Z" id="Path"></path>
                        <path d="M6.21916375,0.363356322 C6.22146375,0.265678161 6.22166375,0.165586207 6.22446375,0.0817471264 C6.22476375,0.176045977 6.22266375,0.269862069 6.21916375,0.363356322 Z" id="Path"></path>
                        <path d="M0.0305767127,6.99951724 C0.0277324841,6.08227586 0.683324841,5.16254023 2.00324841,4.45055172 C2.95943949,3.93488506 4.13543949,3.59872414 5.37787261,3.44158621 C5.41175796,3.38381609 5.44403822,3.32757471 5.4723949,3.27624138 C5.54854777,3.13817241 5.6391465,2.94877011 5.69603822,2.80337931 C5.75373248,2.65573563 5.83487898,2.45965517 5.87946497,2.30847126 C5.95579618,2.04987356 6.048,1.7022069 6.09873885,1.43862069 C6.1482293,1.18114943 6.18149045,0.83316092 6.20458599,0.572632184 C6.20467516,0.571103448 6.20476433,0.569333333 6.20494268,0.567804598 C6.1431465,1.60122989 5.87571975,2.57310345 5.4476051,3.43321839 C6.46238217,3.31067816 7.51907006,3.30705747 8.53580892,3.42444828 C8.10261146,2.56674713 7.82929936,1.59672414 7.76099363,0.564183908 C7.7610828,0.565471264 7.76117197,0.566758621 7.76126115,0.568045977 C7.78979618,0.851988506 7.83616561,1.23014943 7.88779618,1.51151724 C7.91873885,1.68032184 7.97625478,1.90295402 8.02449682,2.06845977 C8.07273885,2.2338046 8.14532484,2.45257471 8.2090828,2.61365517 C8.29566879,2.83234483 8.43236943,3.11693103 8.54214013,3.32685057 C8.55943949,3.36008046 8.57950318,3.39564368 8.60090446,3.43217241 C9.79072611,3.57595402 10.9226752,3.88483908 11.8628153,4.36083908 C13.2661146,5.07129885 13.9724459,6.01662069 13.9754777,6.9645977 C12.0050446,6.96958621 10.242828,5.94831034 9.0993758,4.3552069 C9.05746497,4.34144828 9.02500637,4.33155172 9.00975796,4.3272069 C8.94082803,4.30765517 8.84898089,4.28134483 8.77915924,4.26396552 C8.69979618,4.24425287 8.59270064,4.22204598 8.51280255,4.20418391 C8.42880255,4.18551724 8.31475159,4.16886207 8.22985987,4.15389655 C8.22736306,4.15349425 7.95244586,4.10803448 7.60128662,4.08317241 C7.29355414,4.06144828 7.07196178,4.06233333 6.9395414,4.06281609 C6.38667516,4.06490805 5.85975796,4.13852874 5.65448408,4.1777931 C5.57217834,4.19348276 5.46178344,4.2123908 5.38063694,4.23234483 C5.3037707,4.25117241 5.20077707,4.27490805 5.1246242,4.29558621 C5.0562293,4.31417241 4.96643312,4.34257471 4.89875159,4.36309195 C4.89616561,4.36381609 4.89313376,4.36494253 4.89054777,4.36574713 C3.75663694,5.96448276 2.00101911,6.99452874 0.0305767127,6.99951724 Z" id="Path"></path>
                    </g>
                    <path d="M11.7839977,23 C11.7951661,26.9969917 9.20050594,30.2564412 6,30.2654831 C6.00275043,31.2610129 6.66293813,32.2538385 7.97464549,33 C10.2053314,31.6480366 12.0111169,27.2958788 12,23.2989716 C11.8565091,23.2173417 11.7843311,23.1087554 11.7839977,23 Z" id="Path" fill="#FEDA44"></path>
                    <path d="M19,29.8345108 C15.5273396,29.8443965 12.6920076,26.3295716 12.6798888,22 C12.6801601,22.1141433 12.6075382,22.2284696 12.4611185,22.3170748 C12.163486,22.4971227 11.6739433,22.5021571 11.3678096,22.3282419 C11.3799283,26.6578135 9.42049144,31.3720121 7,32.8364691 C9.80042287,34.4268773 14.2773915,34.3812017 16.9993139,32.7342253 C18.3378916,31.92433 19.0028846,30.8780016 19,29.8345108 Z" id="Path" fill="#FED322"></path>
                    <path d="M19,30.6639998 L18.9981821,30 C19.0010757,31.0861814 18.3362733,32.1753165 16.9978069,33.018441 C14.2761139,34.7327973 9.80000082,34.7804368 7,33.1248677 L7.00180849,33.7888676 C9.80180931,35.4443414 14.2780128,35.3967972 16.9996154,33.6824408 C18.3379914,32.8393163 19.0028842,31.7501813 19,30.6639998 Z" id="Path" fill="#FECE00"></path>
                    <path d="M25.9988439,7.72922187 C25.9991996,7.71100235 25.9996443,7.69170048 26,7.67402214 C26,7.68989657 25.9991107,7.70568081 25.9988439,7.72155524 C26.0246334,5.78343134 24.8030998,3.83637808 22.321882,2.33191481 C17.3177383,-0.702176297 9.08741564,-0.786509219 3.9390286,2.14349612 C1.30316258,3.64363 -0.0131697086,5.64308693 0.000792199859,7.64452816 C0.000703270506,7.62982628 0,7.61512439 0,7.6004225 C-0.000274952378,7.79091569 -0.00134210461,8.37051287 0.0442786535,9.11381513 C0.0585962793,9.3460689 0.0830518514,9.65543994 0.104750614,9.88706235 C0.125115435,10.1037123 0.160776106,10.3917069 0.184787031,10.6080863 C0.210309756,10.8378146 0.258153748,11.1425856 0.294792641,11.3707806 C0.328852583,11.5832815 0.38292163,11.8651429 0.420716605,12.0770125 C0.461001602,12.3034035 0.532145084,12.6017707 0.580433723,12.8266284 C0.628633432,13.0511254 0.706802334,13.3472377 0.766207142,13.5690287 C0.821165482,13.7739532 0.902891557,14.0448107 0.961496001,14.2486529 C1.02490263,14.4689106 1.12334742,14.7583484 1.19822594,14.9749082 C1.33455464,15.3687925 1.54095967,15.884892 1.69872034,16.2704783 C1.78560432,16.4828891 1.91410723,16.7606916 2.01335239,16.9675102 C2.16417657,17.2817518 2.51731503,18.0175679 3.0967787,18.9229517 C3.31207666,19.2593814 3.62226224,19.6924107 3.85899218,20.0135974 C4.00359131,20.2095925 4.20839561,20.4619599 4.36740129,20.6460492 C4.50755395,20.8084013 4.69297166,21.0266748 4.84272869,21.1800976 C5.11832075,21.4628609 5.4859547,21.8410512 5.78413482,22.0991009 C6.19401021,22.4537502 6.70410897,22.8950774 7.60798692,23.4496002 C7.84720688,23.5963485 8.1766012,23.7738536 8.42613697,23.9015706 C8.61635685,23.9988917 8.87425198,24.1209264 9.07283122,24.1992162 C9.36745417,24.3152078 9.7623005,24.4664659 10.0648382,24.5594576 C10.2233992,24.6081632 10.4367407,24.6665198 10.597525,24.7069274 C10.7370551,24.7421037 10.9253186,24.7799859 11.065827,24.8111936 C11.3354608,24.8710835 12.029999,24.9699379 12.4370286,24.9837379 C13.0199606,25.0035809 13.0199606,25.0035809 13.3222314,24.9927574 C13.6549161,24.9807614 13.6549161,24.9807614 14.2286883,24.919248 C14.5271352,24.8872285 14.7934786,24.831217 15.1967733,24.7465233 C15.3765884,24.7087314 15.613763,24.6455042 15.7893985,24.5912064 C16.0914026,24.497854 16.4898061,24.3587723 16.7838065,24.2423297 C17.0213368,24.1481655 17.3283209,23.9989819 17.5594483,23.8894844 C17.8344179,23.7592419 18.1834656,23.5497174 18.4453625,23.3943103 C18.6034789,23.3004166 18.8068603,23.1626879 18.9588406,23.0588727 C19.1150006,22.9522615 19.3197159,22.8046112 19.4686726,22.6878079 C19.6862827,22.5170675 19.9700563,22.2809353 20.1801963,22.1007245 C20.6092805,21.7327262 21.1849202,21.1182234 21.2256498,21.0721334 C21.4864796,20.7769231 21.8246779,20.3747407 22.0708344,20.066903 C22.2155225,19.8860607 22.3979166,19.6362188 22.5275756,19.4439217 C22.6552781,19.2546011 22.8298464,19.0048493 22.948656,18.809666 C23.1597743,18.4629539 23.4369671,17.997364 23.6268313,17.638205 C23.7326572,17.4380609 23.8721874,17.1699994 23.9661857,16.9639024 C24.0522693,16.7753033 24.1704564,16.5255516 24.2526271,16.335329 C24.3423569,16.1277888 24.4548525,15.8478216 24.5395132,15.6380265 C24.6242629,15.4280511 24.7291995,15.1446564 24.7999873,14.9295398 C24.9320474,14.5284397 25.0979006,13.9901522 25.2154652,13.5842718 C25.3022603,13.2846419 25.492747,12.4891163 25.5636237,12.1023574 C25.6416147,11.6772654 25.7353462,11.1084917 25.798575,10.680784 C25.8323682,10.4520478 25.8644717,10.1452023 25.8871487,9.91511319 C25.9099146,9.68394177 25.9387277,9.37529229 25.9503774,9.14321891 C25.9705644,8.74302086 25.9883503,8.22241163 25.9975989,7.79975486 C25.9981325,7.7762138 25.9984882,7.75276293 25.9988439,7.72922187 Z" id="Path" fill="#FEDA44"></path>
                    <path d="M5.4241869,19.727475 C5.30445256,19.6001115 5.14547603,19.4295161 5.03121734,19.2973989 C4.88739012,19.1311985 4.69619847,18.9087608 4.56414391,18.7335014 C4.34730795,18.4457675 4.06631555,18.0560531 3.86316872,17.758722 C3.74279556,17.5826554 3.59586546,17.3390503 3.48626109,17.156167 C3.17761663,16.6416902 2.89470775,16.0685544 2.8625839,15.9998498 C2.77488215,15.811585 2.65204494,15.5630468 2.57182658,15.371553 C2.42590036,15.0233663 2.2375378,14.5564265 2.10895115,14.2016922 C1.94103104,13.7380711 1.75056949,13.0954235 1.69563041,12.8808787 C1.59944139,12.5054254 1.48080218,12.0024292 1.39839356,11.6238367 C1.35385823,11.4194272 1.30704137,11.1443399 1.27281853,10.9381366 C1.23850442,10.7312157 1.19479043,10.4549625 1.17097133,10.2466065 C1.12597969,9.85249716 1.07505609,9.3259118 1.04347981,8.93063643 C1.04302351,8.92498579 0.998488175,8.32790204 1,7.51519722 C1.0049677,5.81211379 2.16991345,4.11396346 4.48456438,2.83745812 L4.48456438,2.83745812 C9.03894102,0.325795737 16.3196466,0.398087987 20.7463492,2.99890483 C22.9233787,4.27801126 24.0048207,5.93032866 24,7.57816144 C23.9924092,7.97899775 23.9807278,8.51383483 23.9538058,8.91386391 C23.9208606,9.40197114 23.9131947,9.46744675 23.8186484,10.2690297 C23.7940992,10.4765784 23.7491076,10.751845 23.7146109,10.9580484 C23.6823046,11.1507978 23.631381,11.4065115 23.5956067,11.5987227 C23.5577334,11.8026837 23.491478,12.0714028 23.4462125,12.2738391 C23.4011296,12.4754681 23.3286685,12.7414067 23.2734556,12.9405243 C23.2219844,13.1260086 23.145599,13.3710489 23.09066,13.5556363 C23.0320704,13.7525116 22.9412658,14.0111851 22.87209,14.2048314 C22.7450548,14.5605524 22.5526768,15.0266849 22.4058379,15.3749613 C22.3264409,15.5634055 22.2051552,15.8081767 22.1181835,15.9933919 C22.0310293,16.1788763 21.9021689,16.4202391 21.804611,16.6007007 C21.7167267,16.7634031 21.5914254,16.9759746 21.4998907,17.1367934 C21.397861,17.316089 21.2484669,17.5474959 21.135212,17.7200645 C20.9372671,18.0218802 20.6512553,18.4100698 20.433598,18.6985213 C20.3074754,18.8656186 20.1254099,19.0780108 19.9897049,19.2376636 C19.8502582,19.4018011 19.65715,19.6150005 19.5049268,19.7675676 C19.2672834,20.0056118 18.942942,20.3162174 18.6905143,20.5389241 C18.5284349,20.6818942 18.3032942,20.8628939 18.1303547,20.9933069 C17.9398932,21.1369945 17.6790694,21.319519 17.4803031,21.4518156 C17.2884726,21.5795379 17.0247286,21.7387423 16.8212167,21.8478982 C16.5593891,21.9882671 16.2042016,22.1654998 15.9306926,22.2826383 C15.2126516,22.590284 14.6515794,22.7223115 14.3500533,22.7932584 C14.2459246,22.8177445 13.9577225,22.880619 13.531534,22.934883 C13.189123,22.9785633 12.9149752,22.9892368 12.76768,22.9949771 C12.6609047,22.9991029 12.3746192,23.0067268 12.0225346,22.9875326 C11.6842303,22.9691456 11.508918,22.9457358 11.2663465,22.9132671 C11.0429397,22.8833995 10.7079209,22.8193589 10.4698211,22.7608794 C10.0697332,22.6626659 9.87270086,22.5966522 9.60019573,22.5043585 C9.43318823,22.4477624 9.21315813,22.3642586 9.05235637,22.2923251 C8.78450555,22.1724958 8.43114323,22.0036943 8.17250976,21.8654779 C7.95549127,21.7494157 7.67395131,21.5801657 7.46989187,21.4432948 C7.20176727,21.2632817 6.85616213,21.0062227 6.60008396,20.8100649 C6.39657209,20.6542688 6.14450941,20.4234 5.95496046,20.2513696 C5.82947668,20.13746 5.67004384,19.9774483 5.55049203,19.8575293 C5.51188865,19.8192306 5.46142136,19.7671191 5.4241869,19.727475 Z" id="Path" fill="#E8BC00"></path>
                    <path d="M7.60797689,23.4851167 C6.7040139,22.9432403 6.19400625,22.512048 5.78413262,22.1656313 C5.48595378,21.9135077 5.11832141,21.5440024 4.84273052,21.2677327 C4.69315199,21.1178332 4.50764616,20.9045724 4.36740517,20.7459486 C4.20840017,20.5659106 4.00359675,20.319515 3.85899824,20.1280209 C3.62218039,19.8142102 3.31199614,19.3911254 3.09678803,19.0624217 C2.51732685,18.1778298 2.16410097,17.4588235 2.01336637,17.1518865 C1.91412163,16.9499055 1.78561927,16.6783945 1.69873566,16.4708618 C1.5410646,16.0941303 1.33457153,15.589883 1.19824341,15.2050441 C1.12336522,14.9935457 1.02483192,14.7107548 0.961514491,14.4954671 C0.902910298,14.2963061 0.821095645,14.0317569 0.766226469,13.8314504 C0.706821916,13.6147527 0.628742279,13.3254405 0.580453848,13.1060991 C0.532165416,12.8864933 0.461111168,12.5949781 0.420737415,12.3736979 C0.382942602,12.1666939 0.329051645,11.8913054 0.294813991,11.6836845 C0.258086326,11.4606419 0.210242539,11.1630461 0.184808853,10.9385053 C0.160709102,10.7271832 0.125137513,10.4458023 0.104772779,10.2341277 C0.0829851809,10.0078244 0.0586186427,9.70555801 0.0443010783,9.4786379 C-0.00131948411,8.75240541 -0.000341265426,8.18611856 0,8 C-0.00532128783,9.87828167 1.21718528,11.7615864 3.67820564,13.219427 C8.68241673,16.1838409 16.9127041,16.2662371 22.0609801,13.4035187 C24.6775373,11.9485862 25.9943975,10.0129356 26,8.07190944 C25.9919075,8.5026611 25.972432,9.07696727 25.9501998,9.5072783 C25.9384612,9.73402217 25.9097371,10.0354955 25.8869713,10.2614462 C25.8642944,10.4863395 25.83228,10.7861384 25.798398,11.0095335 C25.7350806,11.4273309 25.6414384,11.983131 25.5633587,12.3984609 C25.4924824,12.7764261 25.3019965,13.5535944 25.2152018,13.8463434 C25.0976377,14.2427266 24.9317852,14.7687406 24.7997257,15.1607176 C24.7289382,15.370894 24.624002,15.6477807 24.5392527,15.8529341 C24.4545923,16.0579112 24.3421861,16.331361 24.2523679,16.5342231 C24.1701086,16.7201655 24.051833,16.9641817 23.9659276,17.1483615 C23.8719297,17.3497256 23.7324002,17.611631 23.6265747,17.8071789 C23.4367113,18.1580899 23.1595197,18.6129876 22.9484023,18.9517375 C22.8295932,19.1424385 22.6550257,19.3864548 22.5273237,19.5714277 C22.3976652,19.7592206 22.215183,20.0034131 22.0705845,20.1801024 C21.8244291,20.4808706 21.4862322,20.873817 21.2254035,21.1622479 C21.184674,21.2072794 20.6090368,21.8076703 20.1799545,22.1672176 C19.9699043,22.3432899 19.686132,22.5739113 19.4684338,22.7408187 C19.3194778,22.8550278 19.1147633,22.9991992 18.958604,23.1033622 C18.8066244,23.2047051 18.6032439,23.3393591 18.4451282,23.4310965 C18.1831434,23.5830228 17.8341861,23.7877356 17.5592177,23.914899 C17.3280913,24.0217938 17.0211085,24.1675514 16.7835792,24.2596413 C16.4895801,24.3735861 16.0911783,24.5093856 15.7891755,24.6005062 C15.6134518,24.653557 15.3763672,24.7153322 15.1965528,24.7522562 C14.7932599,24.8350931 14.5270066,24.8898183 14.228472,24.9211024 C13.6547912,24.9812032 13.6547912,24.9812032 13.322019,24.9929238 C13.0197495,25.0034987 13.0197495,25.0034987 12.43682,24.9841113 C12.0297921,24.9704521 11.3352569,24.8739559 11.0656242,24.8155295 C10.9251165,24.7850385 10.7369428,24.7480263 10.5973243,24.7136578 C10.4365407,24.6741781 10.2231112,24.6170735 10.0646397,24.5695745 C9.76210337,24.4788065 9.36725874,24.331022 9.07263706,24.217606 C8.87405866,24.1412022 8.61616464,24.02197 8.42594557,23.9267958 C8.17658874,23.8020117 7.8471069,23.628495 7.60797689,23.4851167 Z" id="Path" fill="#FED322"></path>
                    <path d="M3.93898829,2.10498271 C9.08739126,-0.772377561 17.3176505,-0.689559896 22.3218985,2.29001597 C27.3261466,5.26959184 27.209382,10.017657 22.060979,12.8950173 C16.912576,15.7723776 8.6823168,15.6895599 3.67806876,12.709984 C-1.32617927,9.73040816 -1.20932574,4.98243155 3.93898829,2.10498271 Z M5.18924994,2.84945595 C0.751216842,5.32982287 0.650548503,9.42269846 4.96425798,11.991109 C9.27796745,14.5595195 16.3727732,14.6309996 20.8106284,12.1505441 C25.2484837,9.67008855 25.3492409,5.57730154 21.0356204,3.00889102 C16.7219998,0.440480502 9.62728303,0.369000443 5.18924994,2.84945595" id="Shape" fill="#FFDE56"></path>
                </g>
            </g>
        </g>
    </g>
</svg>