<svg width="472" height="307" viewBox="0 0 472 307" fill="none" xmlns="http://www.w3.org/2000/svg">
<g id="Group 4">
<ellipse id="Oval Copy" cx="236" cy="182.5" rx="236" ry="124.5" fill="#F2F2F2"/>
<g id="man (1)">
<g id="Group">
<path id="Path" d="M122.055 76.4549C122.055 76.4549 121.651 80.3293 121.892 80.5699C122.133 80.8105 123.239 81.4842 123.504 81.4842C123.769 81.4842 125.707 80.742 125.933 80.2346C126.127 79.798 125.985 78.6949 125.432 78.0318C124.797 77.2701 124.879 75.9316 124.879 75.9316L122.055 76.4549Z" fill="#FFB657"/>
<path id="Path_2" d="M127.353 49.3701C126.889 49.3211 124.142 49.8552 123.612 54.0703C123.42 55.5892 123.002 61.4886 122.804 66.5607C122.577 72.3724 122.055 76.4541 122.055 76.4541C122.055 77.7804 124.389 78.7734 125.362 77.8004C125.508 77.6547 125.544 72.1476 126.719 64.2091C127.83 56.7011 130.584 49.7119 127.353 49.3701Z" fill="#FFB657"/>
</g>
<g id="Group_2">
<path id="Path_3" d="M126.53 119.755C126.53 119.755 119.974 126.16 121.396 127.055C123.377 128.301 131.429 123.158 131.429 122.746C131.429 122.333 130.858 118.324 130.858 118.324L126.53 119.755Z" fill="#884D01"/>
<path id="Path_4" d="M135.417 124.684C135.417 124.684 129.088 131.592 130.919 132.818C132.864 134.121 140.316 128.088 140.316 127.675C140.316 127.262 139.745 123.254 139.745 123.254L135.417 124.684Z" fill="#884D01"/>
</g>
<path id="Path_5" d="M125.125 80.0391L124.98 120.454C124.98 120.454 124.887 121.639 128.047 121.639C131.207 121.639 131.374 120.127 131.374 120.127L132.216 90.8504L132.369 90.8725L134.024 125.487C134.024 125.487 133.828 126.415 136.989 126.415C140.149 126.415 140.316 124.903 140.316 124.903L140.621 81.4068L125.125 80.0391Z" fill="#01544C"/>
<path id="Path_6" d="M124.636 79.7408C124.636 79.7408 124.226 72.9428 124.33 66.6789C124.417 61.4225 123.893 56.2332 123.917 54.9252C123.976 51.6828 126.016 49.3875 127.209 49.3672C127.209 49.3672 135.553 50.0541 142.522 55.4746C142.522 55.4746 141.789 82.6361 140.862 82.9506C133.219 85.5436 124.946 81.1562 124.636 79.7408Z" fill="#FF9911"/>
<path id="Path_7" d="M130.431 47.8213C130.431 47.8213 129.992 51.1375 129.783 52.9594C129.628 54.3074 132.009 55.176 133.83 54.6035C135.65 54.0311 136.385 52.685 136.385 52.685C135.527 49.7934 135.583 45.6016 135.583 45.6016L130.431 47.8213Z" fill="#FFB657"/>
<path id="Path_8" d="M125.579 37.9322C125.226 40.1748 125.511 42.5137 126.391 44.606C126.824 42.6332 127.097 40.6254 127.207 38.6082C127.239 38.018 128.123 35.3144 127.294 35.1617C126.445 35.0053 125.667 37.3717 125.579 37.9322Z" fill="#5E4C36"/>
<path id="Path_9" d="M126.095 42.3711C126.095 42.3711 126.51 48.6004 128.008 49.7131C129.506 50.8258 134.2 49.759 136.811 45.3139C138.99 41.6057 138.081 34.3323 133.398 33.561C127.929 32.6604 125.767 36.7965 126.095 42.3711Z" fill="#FEC377"/>
<path id="Path_10" d="M126.227 37.2866C125.922 39.0665 127.152 41.0022 128.933 41.3047C128.817 40.4922 128.701 39.6796 128.585 38.8672C129.688 40.344 131.762 40.5993 133.601 40.7317C133.287 40.1973 133.12 39.5774 133.123 38.9575C135.926 39.427 134.964 44.4069 134.997 45.854C135.013 44.6485 136.178 43.9405 136.667 42.838C137.228 43.3936 136.456 45.5051 136.195 46.2508C137.59 45.2542 138.13 42.0424 138.155 40.1604C138.172 38.8442 137.971 36.8151 137.269 35.7012C136.606 34.6479 135.699 33.8833 134.52 33.4817C128.996 31.5993 126.492 35.7352 126.227 37.2866Z" fill="#5E4C36"/>
<g id="Group_3">
<path id="Path_11" d="M140.757 85.6967C140.757 85.6967 140.684 88.0667 140.751 88.5186C140.817 88.9706 141.305 89.4196 141.305 89.4196C141.305 89.4196 141.261 90.5147 141.686 90.8299C142.11 91.1452 144.569 89.9505 144.947 89.5633C145.477 89.019 144.827 85.0967 144.827 85.0967C144.827 85.0967 141.371 83.7169 140.757 85.6967Z" fill="#FFB657"/>
<path id="Path_12" d="M142.522 55.4746C142.522 55.4746 139.927 56.0904 139.804 59.1787C139.68 62.2672 140.377 64.7689 140.521 74.9314C140.648 83.9137 140.747 86.0664 140.747 86.0664C140.747 86.0664 142.017 88.0717 144.936 85.8314C144.936 85.8314 144.89 71.3014 144.859 69.4799C144.669 58.1352 144.574 56.7115 142.522 55.4746Z" fill="#FFB657"/>
</g>
<path id="Path_13" d="M140.52 74.9309C140.432 68.6658 140.133 65.3139 139.946 62.9395L139.576 83.3195C139.938 83.2326 140.3 83.1287 140.661 83.0123C140.623 81.3031 140.574 78.7297 140.52 74.9309Z" fill="#F18700"/>
<path id="Path_14" d="M134.997 44.9382C134.997 44.9382 135.486 41.5032 136.504 41.4575C137.221 41.4255 137.534 42.9081 137.006 44.048C136.479 45.1878 134.997 46.2509 134.997 46.2509V44.9382Z" fill="#FEC377"/>
<g id="Group_4">
<path id="Path_15" d="M139.577 59.1802C139.577 62.2395 139.577 67.0624 139.577 67.0624C139.577 67.0624 144.244 67.6878 145.369 66.562C145.369 66.562 146.011 57.0284 142.522 55.4759C141.276 54.9212 139.577 57.5518 139.577 59.1802Z" fill="#FF9911"/>
<path id="Path_16" d="M125.157 59.5568C122.846 58.7428 122.984 57.384 122.984 57.384C123.163 49.0303 126.852 49.4328 126.852 49.4328L125.157 59.5568Z" fill="#FF9911"/>
</g>
</g>
<g id="forest">
<path id="Path_17" d="M109 118.5C109 129.821 99.8213 139 88.5 139C77.1778 139 68 129.821 68 118.5C68 107.178 77.1778 98 88.5 98C99.8213 98 109 107.178 109 118.5Z" fill="#04B558"/>
<path id="Path_18" d="M84.1187 125.36C82.3456 124.121 79.9529 124.405 78.5048 126.027L77.0601 127.645V122.035L77.0566 122.036C77.0445 120.957 76.4049 119.929 75.1024 119.159C72.1984 117.442 67.127 117.657 63.774 119.64C61.9446 120.722 61.0121 122.105 61.0078 123.419L61 123.42V163.943L61.0069 163.943C61.0113 165.029 61.6491 166.066 62.9603 166.841C65.8643 168.558 70.9357 168.343 74.2887 166.36C76.138 165.268 77.0722 163.865 77.0566 162.539H77.0601V140.081L84.7539 132.114C86.6466 130.153 86.3424 126.915 84.1187 125.36Z" fill="#53433F"/>
<path id="Path_19" d="M75.0488 119.159C72.1565 117.442 67.1032 117.658 63.7628 119.64C61.9402 120.722 61.0112 122.106 61.0069 123.419L61 123.42V163.943H61.006C61.0104 165.029 61.6467 166.065 62.9529 166.841C65.8452 168.558 70.8986 168.343 74.2389 166.36C76.0805 165.267 77.0121 163.865 76.9965 162.539L77 162.539V122.036L76.9965 122.036C76.9836 120.957 76.3464 119.93 75.0488 119.159Z" fill="#68544F"/>
<path id="Path_20" d="M75.0488 119.159C72.1565 117.442 67.1032 117.658 63.7628 119.64C61.9402 120.722 61.0112 122.106 61.0069 123.419L61 123.42V163.943H61.006C61.0104 165.029 61.6467 166.065 62.9529 166.841C65.8452 168.558 70.8986 168.343 74.2389 166.36C76.0805 165.267 77.0121 163.865 76.9965 162.539L77 162.539V122.036L76.9965 122.036C76.9836 120.957 76.3464 119.93 75.0488 119.159Z" fill="#68544F"/>
<path id="Path_21" d="M101 97.5C101 114.897 86.8965 129 69.5 129C52.1026 129 38 114.897 38 97.5C38 80.1035 52.1026 66 69.5 66C86.8965 66 101 80.1035 101 97.5Z" fill="#77DD00"/>
<path id="Path_22" d="M47.0496 147.15C44.1565 145.447 39.104 145.661 35.7637 147.626C33.9411 148.699 33.0121 150.072 33.0078 151.374H33V178.977L33.0069 178.976C33.0104 180.054 33.6467 181.082 34.9529 181.851C37.8461 183.553 42.8986 183.34 46.2389 181.374C48.0814 180.29 49.0121 178.9 48.9965 177.585H49V150.002H48.9965C48.9836 148.933 48.3473 147.913 47.0496 147.15Z" fill="#68544F"/>
<path id="Path_23" d="M68.5853 146.051L41.4976 67L14.283 151.041C13.1857 155.508 15.2693 159.95 20.706 163.105C30.6508 168.875 48.0218 168.151 59.5042 161.488C67.084 157.091 70.2001 151.205 68.5853 146.051Z" fill="#04B558"/>
</g>
<g id="man (2)">
<g id="Group_5">
<path id="Path_24" d="M135.14 255.803V260.037C135.14 260.037 136.108 261.396 137.922 260.884C139.737 260.372 146.099 257.064 145.629 256.027C144.486 253.504 141.718 255.215 138.202 255.489C136.266 255.641 135.14 255.803 135.14 255.803Z" fill="#1D1D1F"/>
<path id="Path_25" d="M125.34 250.359V254.593C125.34 254.593 126.308 255.952 128.122 255.44C129.937 254.928 136.461 251.53 135.829 250.583C134.231 248.185 131.919 249.771 128.402 250.045C126.466 250.196 125.34 250.359 125.34 250.359Z" fill="#1D1D1F"/>
</g>
<g id="Group_6">
<path id="Path_26" d="M124.147 209.069L124.342 212.75C124.342 212.75 125.567 213.566 125.703 213.702C125.839 213.838 128.871 212.734 128.871 212.387C128.871 212.039 128.198 209.891 128.198 209.574C128.198 209.256 127.971 207.623 127.971 207.623L124.147 209.069Z" fill="#A66206"/>
<path id="Path_27" d="M129.23 178.166C128.099 178.015 124.251 177.748 123.646 185.331C123.384 188.617 123.151 193.903 123.313 197.855C123.566 204.02 124.155 209.212 124.155 209.212C124.155 209.212 125.099 210.567 128.056 208.251C128.056 208.251 128.137 196.369 128.546 191.743C129.151 184.907 131.571 178.48 129.23 178.166Z" fill="#A66206"/>
</g>
<path id="Path_28" d="M124.725 184.906C124.725 184.906 123.275 195.578 124.489 207.621C124.576 208.478 124.658 209.273 124.735 210.015C124.725 214.447 126.885 213.333 128.123 212.799L124.725 184.906Z" fill="#806749"/>
<path id="Path_29" d="M129.138 178.171C127.903 178.005 123.703 177.714 123.043 185.992C123.029 186.165 123.002 186.527 123.002 186.527C123.26 188.099 124.217 188.765 126.321 189.316C127.255 183.371 131.266 178.456 129.138 178.171Z" fill="#FF5023"/>
<path id="Path_30" d="M125.206 206.396L124.725 250.563C124.725 250.563 124.629 251.779 127.872 251.779C131.115 251.779 131.286 250.228 131.286 250.228L132.578 217.768L133.166 218.091L134.51 256.1C134.51 256.1 134.415 257.316 137.658 257.316C140.9 257.316 141.072 255.765 141.072 255.765L141.537 209.284L125.206 206.396Z" fill="#1D81CD"/>
<path id="Path_31" d="M124.992 207.857C124.992 207.857 124.4 201.386 124.501 195.259C124.586 190.118 124.725 188.204 124.725 185.546C124.725 179.563 127.291 178.129 129.23 178.167C129.23 178.167 136.995 180.485 142.988 185.787L141.921 210.1C139.744 212.967 129.138 212.119 124.992 207.857Z" fill="#FF5023"/>
<g id="Group_7">
<path id="Path_32" d="M140.202 169.11C140.202 169.11 140.555 175.479 138.999 176.62C137.442 177.761 130.055 177.012 127.865 173.163C125.677 169.314 126.877 162.042 131.744 161.252C137.428 160.33 140.542 163.39 140.202 169.11Z" fill="#A66206"/>
<path id="Path_33" d="M131.901 174.971L130.608 181.553C130.608 181.553 132.77 183.884 136.791 182.215C136.791 182.215 137.163 177.149 137.527 176.377C137.889 175.606 131.901 174.971 131.901 174.971Z" fill="#A66206"/>
</g>
<path id="Path_34" d="M134.575 169.631C135.851 168.973 135.914 170.445 136.723 173.044C137.341 171.602 136.674 168.643 137.774 167.689C139.1 166.539 139.585 166.944 140.237 166.801C139.761 161.461 134.913 160.277 130.973 161.372C126.872 162.511 125.548 169.221 127.737 173.07C128.776 174.897 131.592 176.545 133.317 176.677C133.526 172.272 133.521 170.573 134.575 169.631Z" fill="#554432"/>
<g id="Group_8">
<path id="Path_35" d="M140.274 217.555C140.274 217.555 140.364 220.691 140.384 221.092C140.405 221.496 140.002 221.771 140.322 222.568C140.372 222.693 141.304 223.345 141.639 223.453C142.001 223.57 144.245 222.033 144.576 221.789C144.907 221.545 144.631 219.59 144.608 219.123C144.6 218.98 144.545 216.68 144.267 216.581C143.99 216.481 140.274 217.555 140.274 217.555Z" fill="#A66206"/>
<path id="Path_36" d="M143.356 186.067C142.707 185.084 140.1 183.455 138.89 187.568C137.681 191.682 140.291 218.116 140.291 218.116C140.291 218.116 142.327 220.197 144.432 216.975C144.432 216.975 143.851 207.272 143.851 201.073C143.851 194.874 144.576 187.919 143.356 186.067Z" fill="#A66206"/>
</g>
<path id="Path_37" d="M138.582 190.785L138.513 189.865L137.774 211.714C138.468 211.653 139.109 211.541 139.682 211.383C139.149 205.076 138.475 195.881 138.582 190.785Z" fill="#FF3502"/>
<path id="Path_38" d="M144.278 195.511C144.402 191.137 144.428 187.676 143.608 186.312C142.891 185.119 139.844 183.173 138.414 188.037C138.067 189.216 137.986 191.952 138.062 195.414C140.184 196.235 141.77 196.304 144.278 195.511Z" fill="#FF5023"/>
</g>
<g id="woman (2)">
<path id="Path_39" d="M187.681 55.7215L195.661 54.0873L187.238 46.8398L187.681 55.7215Z" fill="#3E3D43"/>
<path id="Path_40" d="M185.416 83.3535C185.416 83.3535 184.87 87.6367 185.081 87.8475C185.291 88.0582 186.26 88.6482 186.492 88.6482C186.725 88.6482 188.422 87.9982 188.62 87.5539C188.79 87.1715 188.666 86.2055 188.182 85.6248C187.626 84.9576 187.698 83.7854 187.698 83.7854L185.416 83.3535Z" fill="#FFB657"/>
<path id="Path_41" d="M199.808 129.893C199.336 128.306 196.583 129.138 196.583 129.138C196.583 129.138 194.608 135.174 194.255 136.268C193.901 137.362 192.975 138.752 194.417 138.966C196.796 139.321 198.758 136.813 199.146 133.852C199.157 133.761 199.264 133.701 199.404 133.614L199.666 137.72H200.033V132.897C200.241 132.378 200.284 131.494 199.808 129.893Z" fill="#2E2E30"/>
<path id="Path_42" d="M195.218 89.1004L196.583 129.138C196.583 129.138 195.83 130.392 197.438 130.554C198.965 130.708 199.658 129.808 199.658 129.808C199.658 129.808 202.238 119.121 200.566 110.908C200.566 110.908 204.083 98.566 204.098 94.5973C204.118 89.2941 201.049 85.5098 201.049 85.5098L195.218 89.1004Z" fill="#FFB657"/>
<path id="Path_43" d="M191.618 125.061C191.145 123.474 188.393 124.306 188.393 124.306C188.393 124.306 186.418 129.95 186.064 131.044C185.711 132.138 184.954 133.824 186.197 134.134C188.032 134.593 190.567 131.98 190.955 129.02C190.966 128.933 191.064 128.874 191.195 128.793L191.455 132.864H191.822V128.114C192.048 127.602 192.109 126.712 191.618 125.061Z" fill="#2E2E30"/>
<path id="Path_44" d="M187.028 84.2682L188.393 124.306C188.393 124.306 187.641 125.27 189.249 125.432C190.776 125.587 191.463 124.822 191.463 124.822C191.463 124.822 194.049 114.289 192.376 106.076C192.376 106.076 195.894 93.7336 195.909 89.7652C195.929 84.4621 192.859 80.6777 192.859 80.6777L187.028 84.2682Z" fill="#FFB657"/>
<path id="Path_45" d="M186.862 86.2994L186.6 101.012C186.6 101.012 188.145 103.474 195.276 105.151C199.313 106.101 202.364 105.31 202.364 105.31C202.364 105.31 205.213 95.5873 203.925 91.1883C202.797 87.3381 201.058 85.0059 201.058 85.0059L186.862 86.2994Z" fill="#1D1D1F"/>
<path id="Path_46" d="M201.627 92.9665C201.627 92.9665 201.067 95.4072 201.133 95.8587C201.2 96.3105 201.688 96.7595 201.688 96.7595C201.688 96.7595 201.644 97.854 202.068 98.1691C202.492 98.4843 204.95 97.2902 205.328 96.9031C205.858 96.3589 205.208 92.4386 205.208 92.4386C205.208 92.4386 202.241 90.9878 201.627 92.9665Z" fill="#FFB657"/>
<path id="Shape" fill-rule="evenodd" clip-rule="evenodd" d="M203.558 63.4169C204.544 64.3942 205.496 67.495 205.653 76.8296C205.684 78.6505 205.664 92.9223 205.664 92.9219C202.746 95.161 201.351 92.713 201.351 92.713C201.351 92.713 201.271 91.879 201.289 88.6928C194.988 92.6391 187.583 90.8235 186.594 86.3001C186.594 86.3001 186.739 85.576 186.927 84.3532C186.915 84.3535 186.904 84.3538 186.893 84.3542C186.872 84.3549 186.85 84.3555 186.827 84.3555C185.411 84.3555 185.169 83.5307 185.169 83.5307C185.169 83.5307 186.2 78.6245 185.877 68.77C185.717 68.1901 185.614 67.6024 185.614 67.01C185.614 66.4311 185.66 65.7969 185.747 65.1245C185.645 55.7803 188.87 56.1458 188.87 56.1458C188.87 56.1458 197.023 53.9147 203.558 63.4169ZM200.853 71.5628C200.52 72.978 200.268 74.5747 200.179 76.3421C200.079 78.3024 200.716 81.1755 201.371 83.5434C201.384 83.0091 201.398 82.4475 201.414 81.8524C201.551 76.813 201.211 73.7518 200.853 71.5628Z" fill="#2E2E30"/>
<path id="Path_47" d="M186.828 84.3553C186.863 84.3553 186.894 84.3541 186.927 84.3529C187.006 83.8373 187.093 83.2326 187.18 82.5551L187.709 76.616C187.74 75.9779 187.762 75.3256 187.773 74.6623C187.802 72.8824 186.458 70.875 185.877 68.7676C185.893 69.2516 185.905 69.725 185.915 70.1859C186.448 71.4352 186.965 72.6699 187.238 73.3912C187.949 75.2727 186.17 84.2656 186.166 84.2828C186.352 84.3273 186.57 84.3553 186.828 84.3553Z" fill="#1D1D1F"/>
<path id="Path_48" d="M192.156 58.1803V57.7734C192.156 57.7734 188.544 65.8961 189.154 71.7973L189.085 89.6016C189.955 90.1359 191.001 90.5129 192.156 90.7094L191.799 84.2975C191.58 80.3449 191.926 76.3813 192.829 72.5268L198.203 59.7264L192.156 58.1803Z" fill="#FF3E61"/>
<path id="Path_49" d="M192.156 57.7734C192.156 57.7734 188.544 65.8961 189.155 71.7973L186.764 65.099L188.765 65.6756L187.028 63.3854L192.156 57.7734Z" fill="#3E3D43"/>
<path id="Path_50" d="M192.251 54.8633C192.251 54.8633 191.812 58.1777 191.603 59.9988C191.448 61.3459 193.828 62.2143 195.648 61.6422C197.467 61.0701 198.203 59.7244 198.203 59.7244C197.344 56.8342 197.4 52.6445 197.4 52.6445L192.251 54.8633Z" fill="#FFB657"/>
<path id="Path_51" d="M188.166 48.9057C188.166 48.9057 188.602 55.2143 190.203 56.3391C191.804 57.4637 197.37 55.6727 199.627 51.8711C201.884 48.0696 201.024 40.1745 196.016 39.3999C190.167 38.4954 187.823 43.26 188.166 48.9057Z" fill="#FEC377"/>
<g id="Group_9">
<path id="Path_52" d="M188.393 124.307C188.393 124.307 186.986 128.308 186.946 128.756C186.882 129.469 188.066 129.913 188.51 129.469C189.029 128.951 191.462 124.823 191.462 124.823L188.393 124.307Z" fill="#FFB657"/>
<path id="Path_53" d="M196.589 129.139C196.589 129.139 195.182 133.14 195.142 133.588C195.078 134.301 196.262 134.745 196.706 134.301C197.225 133.783 199.659 129.809 199.659 129.809L196.589 129.139Z" fill="#FFB657"/>
</g>
<g id="Group_10">
<path id="Path_54" d="M198.497 40.5984C198.497 40.5984 195.53 37.7126 191.003 39.696C184.338 42.6154 187.681 55.7208 187.681 55.7208C187.681 55.7208 187.321 48.2443 190.994 47.5054C194.467 46.8066 195.539 44.38 195.82 43.4878C195.627 44.3376 195.309 46.6744 196.955 48.7527C198.443 50.632 197.175 56.9248 197.175 56.9248C197.175 56.9248 201.516 54.0638 202.195 52.6455C202.873 51.2271 201.986 40.9621 198.497 40.5984Z" fill="#3E3D43"/>
<path id="Path_55" d="M198.203 59.7246L192.829 72.5252L196.435 70.4393L194.943 69.0316L198.03 68.7949L198.203 59.7246Z" fill="#3E3D43"/>
</g>
</g>
<g id="stickman (3)">
<g id="Group_11">
<path id="Path_56" d="M264.565 192.986C264.565 192.986 259.098 198.47 260.215 199.172C261.77 200.151 268.093 196.112 268.093 195.788C268.093 195.464 267.645 192.316 267.645 192.316L264.565 192.986Z" fill="#971052"/>
<path id="Path_57" d="M272.961 198.015C272.961 198.015 267.672 203.893 269.11 204.856C270.637 205.879 276.489 201.142 276.489 200.818C276.489 200.494 276.041 197.346 276.041 197.346L272.961 198.015Z" fill="#971052"/>
</g>
<path id="SVGCleanerId_0" d="M279.859 160.539C279.879 155.223 276.802 151.43 276.802 151.43L262.747 150.186L264.576 192.881C264.576 192.881 264.38 193.865 265.993 194.028C267.523 194.183 267.653 193.398 267.653 193.398C267.653 193.398 269.785 180.279 268.108 172.047C268.108 172.047 269.574 166.902 270.619 162.181L271.206 162.318L272.786 198.116C272.786 198.116 272.591 199.391 274.203 199.554C275.734 199.708 275.869 198.788 275.869 198.788C275.869 198.788 277.995 185.122 276.318 176.89C276.318 176.89 279.844 164.517 279.859 160.539Z" fill="#FFB657"/>
<path id="SVGCleanerId_0_1_" d="M279.859 160.539C279.879 155.223 276.802 151.43 276.802 151.43L262.747 150.186L264.576 192.881C264.576 192.881 264.38 193.865 265.993 194.028C267.523 194.183 267.653 193.398 267.653 193.398C267.653 193.398 269.785 180.279 268.108 172.047C268.108 172.047 269.574 166.902 270.619 162.181L271.206 162.318L272.786 198.116C272.786 198.116 272.591 199.391 274.203 199.554C275.734 199.708 275.869 198.788 275.869 198.788C275.869 198.788 277.995 185.122 276.318 176.89C276.318 176.89 279.844 164.517 279.859 160.539Z" fill="#FFB657"/>
<g id="Group_12">
<path id="Path_58" d="M264.389 190.912L264.473 192.876C264.463 192.944 264.434 193.245 264.653 193.541C264.895 193.868 265.342 194.066 265.982 194.131C266.118 194.145 266.249 194.152 266.371 194.152C267.618 194.152 267.748 193.446 267.753 193.416C267.758 193.388 267.861 192.579 268.001 191.508C266.692 191.722 265.383 191.633 264.389 190.912Z" fill="#E0E0E2"/>
<path id="Path_59" d="M272.607 196.344L272.685 198.102C272.682 198.123 272.609 198.631 272.948 199.069C273.206 199.402 273.624 199.599 274.193 199.656C274.311 199.669 274.426 199.675 274.534 199.675C274.534 199.675 274.534 199.675 274.535 199.675C275.827 199.675 275.969 198.812 275.97 198.805C275.975 198.774 276.084 198.063 276.23 196.89C274.919 197.061 273.556 196.99 272.607 196.344Z" fill="#E0E0E2"/>
</g>
<path id="Path_60" d="M261.132 149.473C261.132 149.473 260.584 153.766 260.796 153.978C261.007 154.189 261.978 154.78 262.211 154.78C262.443 154.78 264.145 154.129 264.343 153.684C264.514 153.3 264.389 152.332 263.904 151.75C263.346 151.081 263.418 149.906 263.418 149.906L261.132 149.473Z" fill="#FFB657"/>
<path id="Path_61" d="M277.279 151.249L276.939 150.83L263.11 151.044L262.718 167.546C264.783 168.527 267.401 168.625 269.728 168.634C270.023 167.508 270.352 166.218 270.672 164.886L270.83 169.521C273.327 170.647 276.183 170.688 278.836 169.925C279.672 166.465 280.466 162.681 280.473 160.747C280.494 155.275 277.41 151.41 277.279 151.249Z" fill="#5AAAE7"/>
<path id="Path_62" d="M264.594 122.199C264.594 122.199 260.98 121.787 261.516 132.905C262.055 144.087 261.132 149.474 261.132 149.474C261.132 149.474 261.127 150.478 262.547 150.478C263.139 150.478 263.419 149.906 263.419 149.906C263.419 149.906 264.722 136.968 264.785 136.338C265.03 133.88 267.327 122.813 264.594 122.199Z" fill="#FFB657"/>
<path id="Path_63" d="M262.754 152.727C262.754 152.727 263.39 147.036 263.494 140.76C263.531 138.485 261.33 135.839 261.33 133.088C261.33 130.223 262.391 126.047 264.593 122.198C264.593 122.198 273.166 119.85 279.789 130.194C279.789 130.194 276.322 134.713 275.93 142.443C275.732 146.341 277.813 152.761 277.813 152.761C271.247 157.958 263.819 157.6 262.754 152.727Z" fill="#E5197C"/>
<path id="Path_64" d="M264.885 126.56C264.885 126.56 264.313 123.695 268.227 122.401C272.14 121.106 273.949 121.514 273.949 121.514L274.296 109.103C274.296 109.103 269.522 108.626 268.568 108.83C267.613 109.035 263.525 111.285 263.525 111.762C263.526 112.24 264.885 126.56 264.885 126.56Z" fill="#554432"/>
<path id="Path_65" d="M267.982 120.914C267.982 120.914 267.747 124.271 267.333 126.062C266.76 128.538 267.971 129.896 269.795 129.322C271.618 128.748 273.948 125.787 273.948 125.787C273.088 122.889 273.144 118.689 273.144 118.689L267.982 120.914Z" fill="#FFB657"/>
<path id="Path_66" d="M263.888 114.941C263.888 114.941 264.325 121.265 265.93 122.392C267.535 123.52 273.114 121.724 275.377 117.914C277.639 114.103 276.777 106.188 271.757 105.412C265.894 104.505 263.544 109.281 263.888 114.941Z" fill="#FEC377"/>
<g id="Group_13">
<path id="Path_67" d="M264.189 116.32C264.245 117.748 265.563 128.213 265.724 129.452C264.999 128.133 264.395 127.178 264.029 125.415C263.773 124.179 262.822 114.307 262.805 113.252C262.766 110.691 263.01 108.336 265.354 106.554C266.962 105.332 268.543 104.926 270.56 105.011C272.038 105.073 273.597 105.556 274.603 106.716C275.617 107.885 274.793 109.254 273.29 110.023C271.84 110.766 270.868 110.975 269.659 110.938C266.693 110.849 264.072 113.355 264.189 116.32Z" fill="#5E4C36"/>
<path id="Path_68" d="M272.617 114.469C273.497 116.22 272.946 129.364 272.625 129.868C273.502 128.784 275.158 126.738 275.82 125.51C276.011 125.155 276.194 124.792 276.315 124.406C276.469 123.911 276.839 116.248 276.885 115.733C276.991 114.527 277.09 113.314 276.981 112.109C276.872 110.905 276.539 109.743 276.034 108.644C275.902 108.354 275.43 107.634 275.216 107.536C274.817 107.352 274.526 107.703 274.139 107.911C273.286 108.369 271.579 109.627 271.307 110.673C270.986 111.912 272.096 113.432 272.617 114.469Z" fill="#5E4C36"/>
</g>
<g id="Group_14">
<path id="Path_69" d="M277.383 159.11C277.383 159.11 276.822 161.556 276.888 162.009C276.955 162.462 277.444 162.912 277.444 162.912C277.444 162.912 277.4 164.009 277.825 164.325C278.25 164.641 280.714 163.444 281.093 163.056C281.624 162.511 280.972 158.581 280.972 158.581C280.972 158.581 277.998 157.126 277.383 159.11Z" fill="#FFB657"/>
<path id="Path_70" d="M278.685 129.109C277.609 128.825 276.062 129.517 275.939 132.611C275.815 135.705 277.169 137.89 277.169 147.967C277.169 151.129 277.382 159.109 277.382 159.109C277.382 159.109 278.047 160.824 280.972 158.58C280.972 158.58 281.449 144.757 281.419 142.932C281.228 131.565 279.86 129.419 278.685 129.109Z" fill="#FFB657"/>
</g>
</g>
<g id="woman (1)">
<path id="Path_71" d="M286.242 177.71C286.606 179.286 285.662 185.2 285.575 196.298C285.526 202.609 279.681 206.61 279.681 206.61C279.681 206.61 274.891 200.952 274.246 192.195C273.86 186.957 273.997 182.352 274.076 177.099C274.137 173.065 277.181 170.873 281.234 171.495C283.511 171.844 285.723 175.463 286.242 177.71Z" fill="#791900"/>
<g id="Group_15">
<path id="Path_72" d="M273.614 258.984C273.614 258.984 268.147 264.468 269.264 265.171C270.819 266.149 277.142 262.111 277.142 261.787C277.142 261.462 276.694 258.314 276.694 258.314L273.614 258.984Z" fill="#884D01"/>
<path id="Path_73" d="M282.01 264.013C282.01 264.013 276.721 269.892 278.159 270.855C279.686 271.878 285.538 267.14 285.538 266.816C285.538 266.492 285.09 263.344 285.09 263.344L282.01 264.013Z" fill="#884D01"/>
</g>
<path id="Path_74" d="M270.325 216.557C270.325 216.557 269.764 220.961 269.98 221.177C270.197 221.394 271.193 222.001 271.432 222.001C271.67 222.001 273.416 221.332 273.619 220.875C273.794 220.482 273.666 219.489 273.168 218.892C272.597 218.206 272.67 217 272.67 217L270.325 216.557Z" fill="#FFB657"/>
<path id="Path_75" d="M289.535 228.118C289.556 222.665 286.399 218.774 286.399 218.774L271.982 217.498L273.386 258.665C273.386 258.665 273.301 259.729 274.954 259.897C276.524 260.055 276.9 259.005 276.9 259.005C276.9 259.005 279.201 248.365 277.481 239.921C277.481 239.921 278.616 235.94 279.617 231.72L280.729 231.979L281.808 263.633C281.808 263.633 281.722 264.995 283.376 265.162C284.946 265.321 285.327 264.131 285.327 264.131C285.327 264.131 287.623 253.333 285.903 244.889C285.903 244.889 289.519 232.198 289.535 228.118Z" fill="#3E3D43"/>
<path id="Path_76" d="M273.877 188.58C273.877 188.58 270.17 188.158 270.72 199.561C271.272 211.031 270.072 216.738 270.072 216.738C270.072 216.738 270.321 217.586 271.777 217.586C273.234 217.586 273.476 217.04 273.476 217.04C273.476 217.04 274.008 203.728 274.072 203.083C274.324 200.561 276.68 189.21 273.877 188.58Z" fill="#FECE00"/>
<path id="Path_77" d="M271.538 219.586C271.538 219.586 272.643 214.057 272.749 207.62C272.788 205.286 270.53 202.573 270.53 199.751C270.53 196.812 271.619 192.529 273.878 188.58C273.878 188.58 282.67 186.172 289.464 196.782C289.464 196.782 285.908 201.418 285.505 209.346C285.302 213.345 288.078 221.039 288.078 221.039C281.343 226.371 272.63 224.584 271.538 219.586Z" fill="#E0E0E2"/>
<path id="Path_78" d="M271.538 219.586C271.538 219.586 272.643 214.057 272.749 207.62C272.788 205.286 270.53 202.573 270.53 199.751C270.53 196.812 271.619 192.529 273.878 188.58C273.878 188.58 282.67 186.172 289.464 196.782C289.464 196.782 285.908 201.418 285.505 209.346C285.302 213.345 288.078 221.039 288.078 221.039C281.343 226.371 272.63 224.584 271.538 219.586Z" fill="#FECE00"/>
<path id="Path_79" d="M271.778 217.586C271.813 217.586 271.846 217.585 271.879 217.584C271.961 217.053 272.05 216.432 272.14 215.735L272.684 209.629C272.715 208.972 272.738 208.302 272.749 207.62C272.78 205.789 271.397 203.726 270.8 201.559C270.816 202.056 270.829 202.543 270.839 203.017C271.388 204.301 271.919 205.571 272.199 206.313C272.931 208.247 271.101 217.494 271.097 217.512C271.288 217.558 271.513 217.586 271.778 217.586Z" fill="#EEBF00"/>
<path id="Path_80" d="M282.516 223.84C281.667 218.329 280.642 205.289 280.642 202.497C280.642 198.968 282.558 195.634 283.339 193.234C284.12 190.835 281.018 187.812 276.549 191.063C272.079 194.314 273.822 199.206 274.636 204.228C275.28 208.198 274.538 218.78 274.199 223.038C276.298 224.282 279.351 224.663 282.516 223.84Z" fill="#E0E0E2"/>
<path id="Path_81" d="M277.354 187.263C277.354 187.263 276.903 190.671 276.687 192.544C276.528 193.929 278.976 194.822 280.846 194.234C282.717 193.646 283.473 192.262 283.473 192.262C282.59 189.29 282.647 184.982 282.647 184.982L277.354 187.263Z" fill="#FFB657"/>
<path id="Path_82" d="M273.154 181.136C273.154 181.136 273.602 187.623 275.248 188.779C276.894 189.935 282.617 188.094 284.937 184.185C287.258 180.276 286.374 172.158 281.225 171.362C275.211 170.432 272.801 175.331 273.154 181.136Z" fill="#FEC377"/>
<path id="Path_83" d="M276.68 171.789C270.259 174.701 273.559 184.166 273.559 184.166C273.559 184.166 272.701 180.407 275.755 178.254C277.537 176.998 278.366 177.038 280.769 175.571C283.967 180.561 282.779 186.854 282.779 186.854C282.779 186.854 285.119 184.866 285.807 182.825C286.496 180.784 286.466 177.455 285.794 175.409C284.645 171.909 281.17 169.752 276.68 171.789Z" fill="#791900"/>
<path id="Path_84" d="M286.995 226.441C286.995 226.441 286.419 228.951 286.487 229.415C286.556 229.879 287.057 230.341 287.057 230.341C287.057 230.341 287.012 231.467 287.448 231.791C287.884 232.115 290.411 230.887 290.8 230.489C291.345 229.929 290.676 225.899 290.676 225.899C290.676 225.899 287.626 224.407 286.995 226.441Z" fill="#FFB657"/>
<path id="Path_85" d="M288.33 195.669C287.226 195.378 285.64 196.087 285.513 199.261C285.386 202.435 287.057 204.681 286.775 215.012C286.524 224.241 286.71 226.18 286.71 226.18C286.71 226.18 288.144 228.697 291.145 226.394C291.145 226.394 291.165 211.72 291.134 209.848C290.938 198.189 289.535 195.987 288.33 195.669Z" fill="#FECE00"/>
</g>
<g id="stickman (2)">
<path id="Path_86" d="M195.19 233.193L195.381 236.807C195.381 236.807 196.584 237.609 196.718 237.743C196.851 237.876 199.829 236.792 199.829 236.451C199.829 236.109 199.168 234.001 199.168 233.689C199.168 233.377 198.945 231.773 198.945 231.773L195.19 233.193Z" fill="#FEC377"/>
<g id="Group_16">
<path id="Path_87" d="M207.445 282.842V286.23C207.445 286.23 208.22 287.317 209.672 286.907C211.123 286.497 216.214 283.851 215.838 283.021C214.923 281.002 212.709 282.371 209.895 282.591C208.346 282.712 207.445 282.842 207.445 282.842Z" fill="#CD2A01"/>
<path id="Path_88" d="M199.165 278.486V281.874C199.165 281.874 199.939 282.962 201.392 282.552C202.844 282.142 208.063 279.423 207.558 278.665C206.279 276.747 204.429 278.016 201.615 278.235C200.066 278.357 199.165 278.486 199.165 278.486Z" fill="#CD2A01"/>
</g>
<path id="Path_89" d="M196.824 233.375C196.824 233.375 194.276 238.337 194.672 244.65C194.954 249.153 198.692 261.613 198.692 261.613C197.606 272.006 199.029 279.075 199.029 279.075C199.029 279.075 199.4 279.833 200.816 279.798C201.997 279.769 202.695 278.911 202.695 278.911L203.583 253.595C204.785 259.042 206.973 266.173 206.973 266.173C205.887 276.566 207.309 283.635 207.309 283.635C207.309 283.635 207.787 284.417 209.121 284.377C210.302 284.342 210.975 283.471 210.975 283.471L212.537 238.971L196.824 233.375Z" fill="#1D81CD"/>
<g id="Group_17">
<path id="Path_90" d="M200.772 203.13C199.935 202.384 195.292 202.441 194.698 209.886C194.441 213.113 193.886 218.303 194.045 222.184C194.293 228.236 194.84 233.584 194.84 233.584C194.84 233.584 195.735 234.764 198.833 233.309C198.323 224.498 197.99 224.369 198.196 217.727C198.435 210.009 203.278 205.362 200.772 203.13Z" fill="#E0E0E2"/>
<path id="Path_91" d="M195.19 234.95C195.19 234.95 197.195 230.021 198.286 223.548C199.125 218.569 195.757 212.706 195.757 210.095C195.757 204.221 198.277 202.813 200.181 202.85C200.181 202.85 207.805 205.126 213.689 210.332C213.689 210.332 215.035 215.059 214.738 216.749C214.4 218.672 211.067 221.39 211.067 223.461C211.067 226.164 212.917 236.376 212.917 236.376C210.349 241.156 199.791 241.218 195.19 234.95Z" fill="#E0E0E2"/>
</g>
<path id="Path_92" d="M195.149 233.818C195.255 233.873 195.392 233.927 195.562 233.967C196.172 232.275 197.402 228.552 198.206 224.007C198.135 222.617 198.113 221.25 198.157 219.193C197.485 215.506 195.757 211.967 195.757 210.097C195.757 206.53 196.687 204.612 197.843 203.662C196.422 204.409 195.148 206.327 195.148 210.503C195.148 213.114 198.516 218.977 197.677 223.956C196.953 228.256 195.825 231.872 195.149 233.818Z" fill="#D8D8DA"/>
<g id="Group_18">
<path id="Path_93" d="M211.932 196.094C211.932 196.094 212.121 201.69 210.634 202.814C209.147 203.938 201.591 203.211 199.504 199.425C197.417 195.639 198.569 188.482 203.215 187.701C208.643 186.789 212.259 190.465 211.932 196.094Z" fill="#FEC377"/>
<path id="Path_94" d="M201.765 200.119L200.647 205.812C200.647 205.812 202.76 209.489 206.567 207.232C206.567 207.232 206.932 202.257 207.289 201.5C207.646 200.743 201.765 200.119 201.765 200.119Z" fill="#FEC377"/>
<path id="Path_95" d="M211.025 241.528C211.025 241.528 211.114 244.607 211.134 245C211.154 245.397 210.759 245.667 211.073 246.45C211.123 246.573 212.037 247.212 212.366 247.319C212.722 247.433 214.925 245.924 215.25 245.685C215.574 245.445 215.304 243.526 215.281 243.067C215.274 242.926 215.219 240.669 214.946 240.571C214.674 240.473 211.025 241.528 211.025 241.528Z" fill="#FEC377"/>
</g>
<path id="Path_96" d="M214.05 210.61C213.414 209.645 211.091 208.669 209.903 212.708C208.715 216.746 210.53 242.462 210.53 242.462C210.53 242.462 213.341 244.539 215.408 241.376C215.408 241.376 214.536 231.431 214.536 225.344C214.536 219.258 215.249 212.428 214.05 210.61Z" fill="#E0E0E2"/>
<path id="Path_97" d="M209.904 212.708C209.987 212.425 210.077 212.169 210.17 211.934C209.932 212.405 209.705 212.979 209.501 213.675C208.578 216.811 209.057 232.046 209.501 239.135C209.774 239.031 210.038 238.916 210.291 238.789C209.841 231.533 208.996 215.794 209.904 212.708Z" fill="#D8D8DA"/>
<path id="Path_98" d="M210.607 204.043C207.345 205.313 201.235 203.056 199.183 199.943C197.541 197.453 196.924 189.373 201.931 187.45C207.529 185.3 213.468 191.421 212.144 193.851C211.207 195.571 210.243 196.538 210.243 198.731C210.243 202.416 210.738 204.332 210.607 204.043Z" fill="#2E2E30"/>
</g>
<g id="checkered">
<g id="Group_19">
<path id="Path_99" d="M230.812 1.78521C230.82 1.32632 230.542 0.865644 229.979 0.515406C228.899 -0.155903 227.111 -0.18752 225.987 0.515406C225.44 0.857851 225.167 1.3065 225.167 1.75516C225.167 1.75382 225.167 1.75226 225.167 1.75093L225.163 112.232C225.162 112.685 225.44 113.139 225.996 113.485C227.102 114.172 228.889 114.172 229.988 113.485C230.534 113.143 230.807 112.697 230.808 112.249L230.812 1.76829C230.812 1.77386 230.812 1.77943 230.812 1.78521Z" fill="#3E3D43"/>
<path id="Path_100" d="M230.812 1.76737L230.808 112.249C230.807 112.696 230.534 113.143 229.988 113.484C228.889 114.171 227.102 114.171 225.996 113.484C225.44 113.138 225.162 112.684 225.163 112.231L225.167 1.75C225.166 2.20311 225.444 2.65688 226 3.00266C227.106 3.68978 228.893 3.68978 229.992 3.00266C230.538 2.66155 230.811 2.21491 230.812 1.76737Z" fill="#3E3D43"/>
</g>
<path id="Path_101" d="M230.114 0.585705C231.29 1.3668 231.296 2.63309 230.128 3.41418C228.961 4.19527 227.061 4.19527 225.886 3.41418C224.71 2.63309 224.704 1.3668 225.872 0.585705C227.066 -0.213102 228.966 -0.177161 230.114 0.585705Z" fill="#57565C"/>
<g id="Group_20">
<path id="Path_102" d="M231.58 5.05078L229.287 6.40954L229.176 46.3802L272.423 71.8373L274.716 70.4785L274.827 30.5079L231.58 5.05078Z" fill="#C6C5CB"/>
<path id="Path_103" d="M272.534 31.8668L274.827 30.5078L274.716 70.4785L272.423 71.8372L272.534 31.8668Z" fill="#C6C5CB"/>
</g>
<path id="Path_104" d="M229 6.36808L231.317 5L275 30.6317L272.683 32L229 6.36808Z" fill="#E0E0E2"/>
<path id="Path_105" d="M273 32.2909L272.887 72L229 46.7093L229.113 7L273 32.2909Z" fill="#D8D8DA"/>
<g id="Group_21">
<path id="Path_106" d="M234.905 11.8806L230.274 9.1875L230.259 14.5466L234.89 17.2399L234.905 11.8806Z" fill="#2E2E30"/>
<path id="Path_107" d="M239.521 19.9329L234.89 17.2402L234.875 22.6004L239.506 25.2931L239.521 19.9329Z" fill="#2E2E30"/>
<path id="Path_108" d="M244.167 17.2653L239.536 14.5723L239.521 19.9316L244.152 22.6249L244.167 17.2653Z" fill="#2E2E30"/>
<path id="Path_109" d="M248.783 25.3181L244.152 22.625L244.137 27.9852L248.768 30.6783L248.783 25.3181Z" fill="#2E2E30"/>
<path id="Path_110" d="M253.429 22.6518L248.798 19.959L248.783 25.3183L253.414 28.0112L253.429 22.6518Z" fill="#2E2E30"/>
<path id="Path_111" d="M258.045 30.705L253.414 28.0117L253.398 33.3719L258.03 36.0652L258.045 30.705Z" fill="#2E2E30"/>
<path id="Path_112" d="M234.875 22.5996L230.244 19.9062L230.229 25.2665L234.86 27.9595L234.875 22.5996Z" fill="#2E2E30"/>
<path id="Path_113" d="M239.491 30.6538L234.86 27.9609L234.845 33.3205L239.475 36.0133L239.491 30.6538Z" fill="#2E2E30"/>
<path id="Path_114" d="M244.137 27.9863L239.505 25.293L239.49 30.6532L244.122 33.3465L244.137 27.9863Z" fill="#2E2E30"/>
<path id="Path_115" d="M248.753 36.0388L244.122 33.3457L244.106 38.705L248.738 41.3983L248.753 36.0388Z" fill="#2E2E30"/>
<path id="Path_116" d="M253.398 33.3725L248.768 30.6797L248.753 36.0399L253.384 38.7327L253.398 33.3725Z" fill="#2E2E30"/>
<path id="Path_117" d="M258.015 41.4257L253.383 38.7324L253.368 44.092L257.999 46.785L258.015 41.4257Z" fill="#2E2E30"/>
<path id="Path_118" d="M234.844 33.3203L230.213 30.627L230.198 35.9872L234.829 38.6805L234.844 33.3203Z" fill="#2E2E30"/>
<path id="Path_119" d="M271.953 33.4255L267.322 30.7324L267.307 36.0917L271.938 38.785L271.953 33.4255Z" fill="#2E2E30"/>
<path id="Path_120" d="M271.924 44.1445L267.292 41.4512L267.277 46.8114L271.908 49.5047L271.924 44.1445Z" fill="#2E2E30"/>
<path id="Path_121" d="M271.893 54.8632L267.262 52.1699L267.247 57.5301L271.878 60.2234L271.893 54.8632Z" fill="#2E2E30"/>
<path id="Path_122" d="M239.46 41.3725L234.83 38.6797L234.814 44.0399L239.445 46.7325L239.46 41.3725Z" fill="#2E2E30"/>
<path id="Path_123" d="M244.106 38.7048L239.475 36.0117L239.46 41.3719L244.091 44.065L244.106 38.7048Z" fill="#2E2E30"/>
<path id="Path_124" d="M248.723 46.7597L244.091 44.0664L244.076 49.4266L248.708 52.1199L248.723 46.7597Z" fill="#2E2E30"/>
<path id="Path_125" d="M253.368 44.0913L248.738 41.3984L248.723 46.7586L253.353 49.4513L253.368 44.0913Z" fill="#2E2E30"/>
<path id="Path_126" d="M257.984 52.1445L253.353 49.4512L253.338 54.8112L257.969 57.5045L257.984 52.1445Z" fill="#2E2E30"/>
<path id="Path_127" d="M262.691 28.039L258.06 25.3457L258.045 30.7052L262.676 33.3983L262.691 28.039Z" fill="#2E2E30"/>
<path id="Path_128" d="M234.814 44.041L230.183 41.3477L230.168 46.7079L234.799 49.4012L234.814 44.041Z" fill="#2E2E30"/>
<path id="Path_129" d="M244.076 49.4257L239.445 46.7324L239.43 52.0926L244.061 54.7859L244.076 49.4257Z" fill="#2E2E30"/>
<path id="Path_130" d="M253.338 54.8116L248.707 52.1191L248.692 57.4789L253.323 60.1718L253.338 54.8116Z" fill="#2E2E30"/>
<path id="Path_131" d="M271.863 65.5839L267.232 62.8906L267.217 68.2508L271.848 70.9441L271.863 65.5839Z" fill="#2E2E30"/>
<path id="Path_132" d="M262.601 60.1989L257.969 57.5059L257.954 62.8661L262.585 65.5591L262.601 60.1989Z" fill="#2E2E30"/>
<path id="Path_133" d="M267.307 36.0913L262.676 33.3984L262.661 38.7586L267.292 41.4515L267.307 36.0913Z" fill="#2E2E30"/>
<path id="Path_134" d="M262.661 38.7575L258.03 36.0645L258.015 41.4247L262.646 44.1177L262.661 38.7575Z" fill="#2E2E30"/>
<path id="Path_135" d="M267.277 46.812L262.646 44.1191L262.631 49.4787L267.262 52.1711L267.277 46.812Z" fill="#2E2E30"/>
<path id="Path_136" d="M262.631 49.4785L257.999 46.7852L257.984 52.1454L262.616 54.8387L262.631 49.4785Z" fill="#2E2E30"/>
<path id="Path_137" d="M267.246 57.5303L262.616 54.8379L262.601 60.1976L267.231 62.8905L267.246 57.5303Z" fill="#2E2E30"/>
</g>
</g>
<g id="bus">
<path id="Path_138" d="M394.302 174.516C394.448 174.44 402 169.981 402 169.981L396.763 161.769C395.382 156.832 392.326 152.164 388.775 150.074C383.928 147.221 380 150.248 380 156.836C380 163.424 383.928 171.076 388.775 173.928C390.87 175.161 392.793 175.293 394.302 174.516Z" fill="#23292E"/>
<path id="Path_139" d="M328 126.981L322.764 118.768C321.382 113.831 318.326 109.164 314.775 107.074C309.928 104.221 306 107.249 306 113.837C306 120.423 309.928 128.075 314.775 130.928C317.072 132.279 319.163 132.309 320.726 131.265L328 126.981Z" fill="#23292E"/>
<path id="Path_140" d="M470.971 143.94C470.59 124.005 465.309 102.067 459.464 86.056C458.041 81.5278 455.096 78.0584 450.997 75.6859L336.755 9.53226C335.346 8.73531 333.743 8.88034 332.53 9.65476H332.528L291.884 33.1886C290.758 33.8053 289.911 34.9374 289.764 36.382L287 63.5923V92.671C287 94.3099 287.594 95.8925 288.672 97.1232L300.705 110.877L419.347 179.686C422.517 181.523 426.007 182.592 429.558 182.903V182.908C429.614 182.912 429.67 182.915 429.725 182.919C429.853 182.93 429.981 182.947 430.108 182.955V182.947C433.963 183.199 437.874 182.554 441.517 180.973C449.602 177.461 457.231 173.003 464.267 167.713C467.17 165.164 469.37 161.832 470.381 158.159C470.381 158.159 470.91 155.858 470.978 154.412L471 154.429V146.946C471 146.946 470.971 143.942 470.971 143.94Z" fill="#72E8F1"/>
<path id="Path_141" d="M467 161C468.396 160.276 469.553 159.304 470.441 158.178C470.731 157.093 470.918 155.982 470.974 154.853L471 154.871V147C470.998 147.142 467 152.369 467 161V161Z" fill="white"/>
<path id="Path_142" d="M438.605 171H430C431.808 175.932 437.942 178.361 443.175 176.217L444 175.879C444 173.184 441.585 171 438.605 171Z" fill="white"/>
<path id="Path_143" d="M423.26 123.12C424.583 127.366 425.72 131.664 426.677 136L467 112.897C465.283 104.181 462.827 94.8211 459.344 86C459.34 86.0028 459.336 86.0042 459.332 86.007L419 109.513C419.001 109.519 419.004 109.524 419.007 109.531C419.046 109.649 423.26 123.12 423.26 123.12Z" fill="#243B58"/>
<path id="Path_144" d="M468.464 121L427 144.431C428.412 152.436 429.197 160.545 429.332 168.687C429.359 169.371 429.382 170.055 429.4 170.741H437.933C440.888 170.741 443.283 173.095 443.283 176C452.374 172.558 460.461 167.516 467.499 160.899C467.499 152.71 470.998 147.751 471 147.616C471.015 143.432 470.486 133.281 468.464 121Z" fill="#243B58"/>
<path id="Path_145" d="M430 183V170.693C430 154.711 427.562 138.82 422.77 123.575L418.589 110.276C418.552 110.155 418.5 110.041 418.46 109.922C417.727 107.745 416.615 105.735 415.188 103.982C413.752 102.22 411.98 100.702 410.012 99.5651L295.896 33.5544C295.735 33.4617 295.572 33.3816 295.407 33.3127C292.924 32.2769 290.045 33.9184 289.762 36.6998L287 63.8593V92.8838C287 94.5197 287.593 96.0994 288.671 97.3277L300.695 111.056L419.247 179.737C422.578 181.666 426.262 182.757 430 183Z" fill="#2EB3BD"/>
<path id="Shape_2" fill-rule="evenodd" clip-rule="evenodd" d="M398.423 140.281L398.428 120.556L399 120.891V168L398.416 167.665L398.423 140.852L374.566 127.091V153.938L373.981 153.603L373.994 126.76L354.131 115.305V142.192L353.547 141.857L353.558 114.975L333.769 103.56V130.446L333.184 130.111L333.19 115.036L313.551 103.708V118.792L312.967 118.457L312.978 91.5675L287 76.5837V76L398.423 140.281ZM313.551 103.127L333.191 114.458L333.195 103.229L313.551 91.8984V103.127Z" fill="#304E75"/>
<path id="Path_146" d="M397 167.164C397 173.751 393.195 176.778 388.501 173.927C383.807 171.074 380 163.422 380 156.835C380 150.249 383.807 147.221 388.501 150.074C393.195 152.925 397 160.577 397 167.164Z" fill="#2E373D"/>
<path id="Path_147" d="M394 164.383C394 167.424 391.985 168.821 389.5 167.504C387.015 166.188 385 162.656 385 159.616C385 156.577 387.015 155.179 389.5 156.495C391.985 157.812 394 161.343 394 164.383Z" fill="#CECECE"/>
<path id="Path_148" d="M391 162.891C391 164.664 389.881 165.479 388.501 164.711C387.12 163.943 386 161.883 386 160.11C386 158.336 387.12 157.521 388.501 158.289C389.881 159.057 391 161.117 391 162.891Z" fill="#627681"/>
<path id="Path_149" d="M390.001 84L424 64.3783C421.724 60.5041 418.484 57.2859 414.594 55.0377L342.383 13.3049C341.587 12.8452 340.69 12.9349 340.019 13.3764L306.262 32.8594C305.536 33.2182 305 33.9554 305 34.8819L390.001 84Z" fill="#A4EFF4"/>
<path id="Path_150" d="M389 84L303 35.245C303 33.5198 304.903 32.4402 306.425 33.3042L379.485 74.7284C383.421 76.9601 386.699 80.1545 389 84Z" fill="#2EB3BD"/>
<path id="Path_151" d="M429.637 135L464 115.47C462.97 110.673 461.723 105.92 460.25 101.23L458.292 95L424 114.851L425.952 121.065C427.394 125.657 428.622 130.308 429.637 135Z" fill="#304E75"/>
<path id="Path_152" d="M431 141.564C432.228 148.927 432.933 156.375 433.103 163.853L433.134 164L467 144.387C466.837 136.876 466.135 129.395 464.904 122L431 141.564Z" fill="#304E75"/>
<path id="Path_153" d="M400 97.6183L296.38 38.2318C295.3 37.6127 293.935 38.2975 293.795 39.5288L292 55.3859L294.105 60.332L400 121V97.6183Z" fill="#243B58"/>
<path id="Path_154" d="M405 132L405.689 135.168C408.338 147.327 416.083 157.805 427 164V158.039C427 153.325 426.662 148.63 426.01 143.982L405 132Z" fill="#243B58"/>
<path id="Path_155" d="M424 135C422.62 128.843 420.692 122.811 418.223 116.981L415.663 110.942C414.009 107.041 411.161 103.786 407.541 101.663L403 99V122.533L424 135Z" fill="#243B58"/>
<path id="Path_156" d="M447.211 125L462 116.435C460.702 109.452 458.718 102.603 456.06 96L441 104.883L442.609 112.525C443.539 116.939 445.102 121.136 447.211 125Z" fill="#59718B"/>
<path id="Path_157" d="M453 129.322C456.261 133.994 460.317 137.978 465 141V134.657C465 130.418 464.774 126.192 464.337 122L453 129.322Z" fill="#59718B"/>
<g id="Group_22">
<path id="Path_158" d="M374.559 105.924L375.897 106.694V83.1865L374.559 82.416V105.924Z" fill="#304E75"/>
<path id="Path_159" d="M354.008 94.0939L355.345 94.8644V71.3525L354.008 70.582V94.0939Z" fill="#304E75"/>
<path id="Path_160" d="M333.528 82.3052L334.866 83.0742V59.5596L333.528 58.7891V82.3052Z" fill="#304E75"/>
<path id="Path_161" d="M313.195 70.5998L314.533 71.3703V47.85L313.195 47.0781V70.5998Z" fill="#304E75"/>
</g>
<path id="Path_162" d="M323 124.164C323 130.751 319.195 133.778 314.501 130.927C309.807 128.074 306 120.422 306 113.836C306 107.249 309.807 104.221 314.501 107.074C319.195 109.926 323 117.577 323 124.164Z" fill="#2E373D"/>
<path id="Path_163" d="M318 120.383C318 123.424 315.985 124.821 313.5 123.504C311.014 122.188 309 118.657 309 115.617C309 112.576 311.014 111.179 313.5 112.496C315.985 113.812 318 117.343 318 120.383Z" fill="#CECECE"/>
<path id="Path_164" d="M317 119.891C317 121.663 315.881 122.479 314.501 121.711C313.12 120.943 312 118.882 312 117.11C312 115.336 313.12 114.522 314.501 115.289C315.881 116.056 317 118.117 317 119.891Z" fill="#627681"/>
<path id="Path_165" d="M291 86V94.3745L307 103V94.6281L291 86Z" fill="#304E75"/>
</g>
<g id="table">
<path id="Path_166" d="M337 146.459L334.492 145L332 146.459V176.541L334.508 178L337 176.541V146.459Z" fill="#554432"/>
<path id="Path_167" d="M334.492 145L332 146.5L334.508 148L337 146.5L334.492 145Z" fill="#806749"/>
<path id="Path_168" d="M337 146V176.52L335 178V147.48L337 146Z" fill="#554432"/>
<g id="Group_23">
<path id="Path_169" d="M333.5 148.515V177.667L331.014 176.253V147.102L333.5 148.515Z" fill="#5E4C36"/>
<path id="Path_170" d="M334.735 151.928V154.325L386.87 183.987V181.589L334.735 151.928Z" fill="#5E4C36"/>
</g>
<path id="Path_171" d="M391 177.459L388.492 176L386 177.459V207.541L388.508 209L391 207.541V177.459Z" fill="#554432"/>
<path id="Path_172" d="M388.492 177L386 178.5L388.508 180L391 178.5L388.492 177Z" fill="#806749"/>
<path id="Path_173" d="M391 177V207.52L389 209V178.48L391 177Z" fill="#554432"/>
<path id="Path_174" d="M388 178.48V209L386 207.52V177L388 178.48Z" fill="#5E4C36"/>
<path id="Path_175" d="M418 161.459L415.492 160L413 161.459V191.541L415.508 193L418 191.541V161.459Z" fill="#554432"/>
<path id="Path_176" d="M415.492 161L413 162.5L415.508 164L418 162.5L415.492 161Z" fill="#806749"/>
<path id="Path_177" d="M418 162V192.52L416 194V163.48L418 162Z" fill="#554432"/>
<path id="Path_178" d="M415 163.48V194L413 192.52V162L415 163.48Z" fill="#5E4C36"/>
<path id="Path_179" d="M415 167V169.445L390 184V181.555L415 167Z" fill="#554432"/>
<path id="Path_180" d="M361.492 129L359 130.5L361.508 132L364 130.5L361.492 129Z" fill="#806749"/>
<path id="Path_181" d="M364 130V160.52L362 162V131.48L364 130Z" fill="#554432"/>
<path id="Path_182" d="M361 131.48V162L359 160.52V130L361 131.48Z" fill="#5E4C36"/>
<path id="Path_183" d="M360.908 128L330 146.132V148.591L389.092 183L420 164.868V162.409L360.908 128Z" fill="#554432"/>
<path id="Path_184" d="M330 145.945L360.908 128L420 162.055L389.092 180L330 145.945Z" fill="#806749"/>
<path id="Path_185" d="M330 146V148.468L390 183V180.532L330 146Z" fill="#6A563D"/>
<path id="Path_186" d="M420 162V164.389L390 182V179.611L420 162Z" fill="#5E4C36"/>
</g>
<g id="trophy">
<path id="Path_187" d="M390.261 146.529L378.964 140L367.739 146.53L367 154.042L379.039 161L391 154.041L390.261 146.529Z" fill="#1D1D1F"/>
<path id="Path_188" d="M390 146.5L378.537 153L367 146.5L378.463 140L390 146.5Z" fill="#3E3D43"/>
<path id="Path_189" d="M366.737 147L366 154.268L378 161V153.317L366.737 147Z" fill="#2E2E30"/>
<path id="Path_190" d="M368 153.829L368.478 149L377 153.895V159L368 153.829Z" fill="#FEDA44"/>
<path id="Path_191" d="M389.258 147L390 154.268L378 161V153.318L389.258 147Z" fill="#1D1D1F"/>
<path id="Shape_3" fill-rule="evenodd" clip-rule="evenodd" d="M371 146.477L371.002 147.083C371.005 148.107 371.714 149.128 373.123 149.895C375.894 151.405 380.326 151.362 383.02 149.798C384.345 149.029 385.003 148.036 385 147.045L384.998 146.439C384.995 145.415 384.286 144.394 382.877 143.626C381.934 143.112 380.797 142.779 379.603 142.623C379.581 142.584 379.561 142.545 379.544 142.509C379.434 142.283 379.297 141.975 379.21 141.739C379.146 141.565 379.073 141.329 379.024 141.15C378.976 140.971 378.918 140.731 378.887 140.548C378.835 140.245 378.789 139.836 378.76 139.529L378.76 139.525V139.525V139.525C378.755 139.441 378.751 139.357 378.748 139.272V139.272C378.745 139.182 378.743 139.091 378.743 139C378.743 139.108 378.671 139.217 378.526 139.301C378.231 139.472 377.747 139.477 377.444 139.312C377.29 139.228 377.212 139.116 377.212 139.004C377.212 139.107 377.21 139.209 377.207 139.31L377.207 139.308C377.205 139.382 377.202 139.456 377.198 139.529V139.529L377.198 139.534L377.197 139.542C377.174 139.823 377.141 140.194 377.091 140.47C377.041 140.755 376.948 141.13 376.871 141.409C376.835 141.542 376.775 141.706 376.722 141.848L376.722 141.848L376.722 141.848C376.71 141.882 376.698 141.914 376.687 141.944C376.63 142.101 376.539 142.306 376.463 142.455C376.434 142.51 376.402 142.571 376.368 142.633C375.121 142.803 373.94 143.166 372.98 143.723C371.655 144.493 370.997 145.486 371 146.477ZM376.955 141.151C376.826 141.668 376.652 142.161 376.438 142.624C376.652 142.161 376.826 141.668 376.955 141.151ZM377.008 140.958C376.992 141.02 376.976 141.081 376.96 141.141C376.976 141.081 376.992 141.02 377.008 140.958ZM377.05 140.76C377.036 140.822 377.021 140.884 377.006 140.945C377.021 140.884 377.036 140.822 377.05 140.76ZM379.538 142.615C379.321 142.153 379.144 141.661 379.012 141.145C379.144 141.661 379.321 142.153 379.538 142.615Z" fill="#FECE00"/>
<path id="Path_192" d="M372 146L372.002 146.532C372.004 147.43 372.673 148.326 374 149L373.998 148.468C372.671 147.795 372.003 146.899 372 146Z" fill="#FED322"/>
<g id="Group_24">
<path id="Path_193" d="M378.754 139.33C378.751 139.246 378.748 139.162 378.748 139.078C378.751 139.153 378.752 139.242 378.754 139.33Z" fill="#FECE00"/>
<path id="Path_194" d="M377.209 139.568C377.213 139.5 377.217 139.432 377.219 139.363C377.218 139.435 377.215 139.506 377.209 139.568Z" fill="#FECE00"/>
<path id="Path_195" d="M378.767 139.565C378.759 139.494 378.755 139.412 378.753 139.33C378.757 139.409 378.761 139.487 378.767 139.565Z" fill="#FECE00"/>
<path id="Path_196" d="M377.219 139.364C377.222 139.266 377.222 139.166 377.225 139.082C377.225 139.176 377.223 139.27 377.219 139.364Z" fill="#FECE00"/>
<path id="Path_197" d="M371.03 146C371.027 145.083 371.683 144.163 373.003 143.451C373.959 142.935 375.135 142.599 376.378 142.442C376.411 142.384 376.444 142.328 376.472 142.277C376.548 142.138 376.639 141.949 376.696 141.804C376.753 141.656 376.835 141.46 376.879 141.309C376.955 141.05 377.048 140.702 377.098 140.439C377.148 140.181 377.181 139.833 377.204 139.573C377.204 139.571 377.204 139.57 377.205 139.568C377.143 140.601 376.875 141.573 376.447 142.433C377.462 142.311 378.519 142.307 379.536 142.425C379.102 141.567 378.829 140.597 378.761 139.564C378.761 139.566 378.761 139.567 378.761 139.568C378.789 139.852 378.836 140.23 378.887 140.512C378.918 140.681 378.976 140.903 379.024 141.069C379.072 141.234 379.145 141.453 379.209 141.614C379.295 141.833 379.432 142.117 379.542 142.327C379.559 142.36 379.579 142.396 379.601 142.432C380.79 142.576 381.922 142.885 382.863 143.361C384.266 144.072 384.972 145.017 384.975 145.965C383.005 145.97 381.243 144.949 380.099 143.355C380.057 143.342 380.025 143.332 380.009 143.327C379.941 143.308 379.849 143.282 379.779 143.264C379.699 143.245 379.592 143.222 379.512 143.204C379.428 143.186 379.314 143.169 379.23 143.154C379.227 143.154 378.952 143.108 378.601 143.083C378.293 143.062 378.072 143.063 377.939 143.063C377.386 143.065 376.859 143.139 376.654 143.178C376.572 143.194 376.461 143.213 376.38 143.233C376.303 143.251 376.2 143.275 376.124 143.296C376.056 143.314 375.966 143.343 375.898 143.363C375.896 143.364 375.893 143.365 375.89 143.366C374.756 144.965 373.001 145.995 371.03 146Z" fill="#FECE00"/>
</g>
<path id="Path_198" d="M377.784 139C377.795 142.997 375.201 146.256 372 146.265C372.003 147.261 372.663 148.254 373.975 149C376.205 147.648 378.011 143.296 378 139.299C377.857 139.217 377.784 139.109 377.784 139Z" fill="#FEDA44"/>
<path id="Path_199" d="M385 145.835C381.527 145.844 378.692 142.33 378.68 138C378.68 138.114 378.608 138.228 378.461 138.317C378.163 138.497 377.674 138.502 377.368 138.328C377.38 142.658 375.42 147.372 373 148.836C375.8 150.427 380.277 150.381 382.999 148.734C384.338 147.924 385.003 146.878 385 145.835Z" fill="#FED322"/>
<path id="Path_200" d="M385 146.664L384.998 146C385.001 147.086 384.336 148.175 382.998 149.018C380.276 150.733 375.8 150.78 373 149.125L373.002 149.789C375.802 151.444 380.278 151.397 383 149.682C384.338 148.839 385.003 147.75 385 146.664Z" fill="#FECE00"/>
<path id="Path_201" d="M391.999 123.729C391.999 123.711 392 123.692 392 123.674C392 123.69 391.999 123.706 391.999 123.722C392.025 121.783 390.803 119.836 388.322 118.332C383.318 115.298 375.087 115.213 369.939 118.143C367.303 119.644 365.987 121.643 366.001 123.645C366.001 123.63 366 123.615 366 123.6C366 123.791 365.999 124.371 366.044 125.114C366.059 125.346 366.083 125.655 366.105 125.887C366.125 126.104 366.161 126.392 366.185 126.608C366.21 126.838 366.258 127.143 366.295 127.371C366.329 127.583 366.383 127.865 366.421 128.077C366.461 128.303 366.532 128.602 366.58 128.827C366.629 129.051 366.707 129.347 366.766 129.569C366.821 129.774 366.903 130.045 366.961 130.249C367.025 130.469 367.123 130.758 367.198 130.975C367.335 131.369 367.541 131.885 367.699 132.27C367.786 132.483 367.914 132.761 368.013 132.968C368.164 133.282 368.517 134.018 369.097 134.923C369.312 135.259 369.622 135.692 369.859 136.014C370.004 136.21 370.208 136.462 370.367 136.646C370.508 136.808 370.693 137.027 370.843 137.18C371.118 137.463 371.486 137.841 371.784 138.099C372.194 138.454 372.704 138.895 373.608 139.45C373.847 139.596 374.177 139.774 374.426 139.902C374.616 139.999 374.874 140.121 375.073 140.199C375.367 140.315 375.762 140.466 376.065 140.559C376.223 140.608 376.437 140.667 376.598 140.707C376.737 140.742 376.925 140.78 377.066 140.811C377.335 140.871 378.03 140.97 378.437 140.984C379.02 141.004 379.02 141.004 379.322 140.993C379.655 140.981 379.655 140.981 380.229 140.919C380.527 140.887 380.793 140.831 381.197 140.747C381.377 140.709 381.614 140.646 381.789 140.591C382.091 140.498 382.49 140.359 382.784 140.242C383.021 140.148 383.328 139.999 383.559 139.889C383.834 139.759 384.183 139.55 384.445 139.394C384.603 139.3 384.807 139.163 384.959 139.059C385.115 138.952 385.32 138.805 385.469 138.688C385.686 138.517 385.97 138.281 386.18 138.101C386.609 137.733 387.185 137.118 387.226 137.072C387.486 136.777 387.825 136.375 388.071 136.067C388.216 135.886 388.398 135.636 388.528 135.444C388.655 135.255 388.83 135.005 388.949 134.81C389.16 134.463 389.437 133.997 389.627 133.638C389.733 133.438 389.872 133.17 389.966 132.964C390.052 132.775 390.17 132.526 390.253 132.335C390.342 132.128 390.455 131.848 390.54 131.638C390.624 131.428 390.729 131.145 390.8 130.93C390.932 130.528 391.098 129.99 391.215 129.584C391.302 129.285 391.493 128.489 391.564 128.102C391.642 127.677 391.735 127.108 391.799 126.681C391.832 126.452 391.864 126.145 391.887 125.915C391.91 125.684 391.939 125.375 391.95 125.143C391.971 124.743 391.988 124.222 391.998 123.8C391.998 123.776 391.998 123.753 391.999 123.729Z" fill="#FEDA44"/>
<path id="Path_202" d="M371.424 135.727C371.304 135.6 371.145 135.43 371.031 135.297C370.887 135.131 370.696 134.909 370.564 134.734C370.347 134.446 370.066 134.056 369.863 133.759C369.743 133.583 369.596 133.339 369.486 133.156C369.178 132.642 368.895 132.069 368.863 132C368.775 131.812 368.652 131.563 368.572 131.372C368.426 131.023 368.238 130.556 368.109 130.202C367.941 129.738 367.751 129.095 367.696 128.881C367.599 128.505 367.481 128.002 367.398 127.624C367.354 127.419 367.307 127.144 367.273 126.938C367.239 126.731 367.195 126.455 367.171 126.247C367.126 125.852 367.075 125.326 367.043 124.931C367.043 124.925 366.998 124.328 367 123.515C367.005 121.812 368.17 120.114 370.485 118.837C375.039 116.326 382.32 116.398 386.746 118.999C388.923 120.278 390.005 121.93 390 123.578C389.992 123.979 389.981 124.514 389.954 124.914C389.921 125.402 389.913 125.467 389.819 126.269C389.794 126.477 389.749 126.752 389.715 126.958C389.682 127.151 389.631 127.407 389.596 127.599C389.558 127.803 389.491 128.071 389.446 128.274C389.401 128.475 389.329 128.741 389.273 128.941C389.222 129.126 389.146 129.371 389.091 129.556C389.032 129.753 388.941 130.011 388.872 130.205C388.745 130.561 388.553 131.027 388.406 131.375C388.326 131.563 388.205 131.808 388.118 131.993C388.031 132.179 387.902 132.42 387.805 132.601C387.717 132.763 387.591 132.976 387.5 133.137C387.398 133.316 387.248 133.547 387.135 133.72C386.937 134.022 386.651 134.41 386.434 134.699C386.307 134.866 386.125 135.078 385.99 135.238C385.85 135.402 385.657 135.615 385.505 135.768C385.267 136.006 384.943 136.316 384.691 136.539C384.528 136.682 384.303 136.863 384.13 136.993C383.94 137.137 383.679 137.32 383.48 137.452C383.288 137.58 383.025 137.739 382.821 137.848C382.559 137.988 382.204 138.166 381.931 138.283C381.213 138.59 380.652 138.722 380.35 138.793C380.246 138.818 379.958 138.881 379.532 138.935C379.189 138.979 378.915 138.989 378.768 138.995C378.661 138.999 378.375 139.007 378.023 138.988C377.684 138.969 377.509 138.946 377.266 138.913C377.043 138.883 376.708 138.819 376.47 138.761C376.07 138.663 375.873 138.597 375.6 138.504C375.433 138.448 375.213 138.364 375.052 138.292C374.785 138.172 374.431 138.004 374.173 137.865C373.955 137.749 373.674 137.58 373.47 137.443C373.202 137.263 372.856 137.006 372.6 136.81C372.397 136.654 372.145 136.423 371.955 136.251C371.829 136.137 371.67 135.977 371.55 135.858C371.512 135.819 371.461 135.767 371.424 135.727Z" fill="#E8BC00"/>
<path id="Path_203" d="M373.608 139.485C372.704 138.943 372.194 138.512 371.784 138.166C371.486 137.914 371.118 137.544 370.843 137.268C370.693 137.118 370.508 136.905 370.367 136.746C370.208 136.566 370.004 136.32 369.859 136.128C369.622 135.814 369.312 135.391 369.097 135.062C368.517 134.178 368.164 133.459 368.013 133.152C367.914 132.95 367.786 132.678 367.699 132.471C367.541 132.094 367.335 131.59 367.198 131.205C367.123 130.994 367.025 130.711 366.962 130.495C366.903 130.296 366.821 130.032 366.766 129.831C366.707 129.615 366.629 129.325 366.58 129.106C366.532 128.886 366.461 128.595 366.421 128.374C366.383 128.167 366.329 127.891 366.295 127.684C366.258 127.461 366.21 127.163 366.185 126.939C366.161 126.727 366.125 126.446 366.105 126.234C366.083 126.008 366.059 125.706 366.044 125.479C365.999 124.752 366 124.186 366 124C365.995 125.878 367.217 127.762 369.678 129.219C374.682 132.184 382.913 132.266 388.061 129.404C390.678 127.949 391.994 126.013 392 124.072C391.992 124.503 391.972 125.077 391.95 125.507C391.938 125.734 391.91 126.035 391.887 126.261C391.864 126.486 391.832 126.786 391.798 127.01C391.735 127.427 391.641 127.983 391.563 128.398C391.492 128.776 391.302 129.554 391.215 129.846C391.098 130.243 390.932 130.769 390.8 131.161C390.729 131.371 390.624 131.648 390.539 131.853C390.455 132.058 390.342 132.331 390.252 132.534C390.17 132.72 390.052 132.964 389.966 133.148C389.872 133.35 389.732 133.612 389.627 133.807C389.437 134.158 389.16 134.613 388.948 134.952C388.83 135.142 388.655 135.386 388.527 135.571C388.398 135.759 388.215 136.003 388.071 136.18C387.824 136.481 387.486 136.874 387.225 137.162C387.185 137.207 386.609 137.808 386.18 138.167C385.97 138.343 385.686 138.574 385.468 138.741C385.319 138.855 385.115 138.999 384.959 139.103C384.807 139.205 384.603 139.339 384.445 139.431C384.183 139.583 383.834 139.788 383.559 139.915C383.328 140.022 383.021 140.168 382.784 140.26C382.49 140.374 382.091 140.509 381.789 140.601C381.613 140.654 381.376 140.715 381.197 140.752C380.793 140.835 380.527 140.89 380.228 140.921C379.655 140.981 379.655 140.981 379.322 140.993C379.02 141.003 379.02 141.003 378.437 140.984C378.03 140.97 377.335 140.874 377.066 140.816C376.925 140.785 376.737 140.748 376.597 140.714C376.437 140.674 376.223 140.617 376.065 140.57C375.762 140.479 375.367 140.331 375.073 140.218C374.874 140.141 374.616 140.022 374.426 139.927C374.177 139.802 373.847 139.628 373.608 139.485Z" fill="#FED322"/>
<path id="Shape_4" fill-rule="evenodd" clip-rule="evenodd" d="M388.322 118.29C383.318 115.31 375.087 115.228 369.939 118.105C364.791 120.982 364.674 125.73 369.678 128.71C374.682 131.69 382.913 131.772 388.061 128.895C393.209 126.018 393.326 121.27 388.322 118.29ZM370.964 127.991C366.651 125.423 366.751 121.33 371.189 118.849C375.627 116.369 382.722 116.44 387.036 119.009C391.349 121.577 391.248 125.67 386.811 128.151C382.373 130.631 375.278 130.56 370.964 127.991Z" fill="#FFDE56"/>
</g>
</g>
</svg>
