<?xml version="1.0" encoding="UTF-8"?>
<svg width="298px" height="217px" viewBox="0 0 298 217" version="1.1" xmlns="http://www.w3.org/2000/svg" xmlns:xlink="http://www.w3.org/1999/xlink">
    <!-- Generator: Sketch 61.2 (89653) - https://sketch.com -->
    <title>Group 3</title>
    <desc>Created with Sketch.</desc>
    <g id="Website" stroke="none" stroke-width="1" fill="none" fill-rule="evenodd">
        <g id="Homepage" transform="translate(-434.000000, -1694.000000)">
            <g id="Group-3" transform="translate(434.000000, 1695.000000)">
                <ellipse id="Oval-Copy-3" fill="#444D4E" cx="149" cy="137.5" rx="149" ry="78.5"></ellipse>
                <g id="chair" transform="translate(163.000000, 23.000000)" fill-rule="nonzero">
                    <path d="M33,35.6360321 L17.4000273,26.6080627 L16.4757694,0.991973813 L14.7571495,0 L0,8.59089657 L1.71911946,56.2313232 L3.43773936,57.2348785 L5.15685883,56.2313232 L5.07692302,54.0243072 L16.688099,60.831665 L16.688099,64.9969482 L18.4072185,66 L20.1258384,64.9969482 L20.1258384,52.8248749 L24.4238869,50.3323517 L29.5422767,53.3329468 L29.5422767,57.5007476 L31.2613961,58.5037994 L32.980016,57.5007476 L32.980016,39.7761383 L33,35.6360321 Z M4.57582551,40.1366729 L11.6176707,44.2662049 L4.86659195,48.1862641 L4.57582551,40.1366729 Z M20.1258384,47.8126373 L20.8717393,48.2497101 L20.1258384,48.6827545 L20.1258384,47.8126373 Z M14.0312325,28.5189972 L13.6795149,28.7194062 L12.3355942,6.87332147 L13.2313748,6.35266113 L14.0312325,28.5189972 Z M10.3576825,30.6117096 L9.33000776,31.1973267 L7.98958413,9.3990783 L9.01675928,8.80238339 L10.3576825,30.6117096 Z M6.00867489,33.0896301 L4.35550247,34.03125 L3.55964147,11.973175 L4.67024965,11.3281402 L6.00867489,33.0896301 Z M14.6852073,46.6343536 L14.7571495,48.6329041 L16.4762691,49.6359559 L16.688099,49.512085 L16.688099,56.6472472 L7.11578585,51.0242157 L14.6852073,46.6343536 Z M29.5422767,47.3639832 L29.5422767,49.1480255 L28.0140039,48.2502137 L29.5422767,47.3639832 Z M24.4628556,46.1645508 L23.2333429,45.4419708 L29.5422767,41.7746887 L29.5422767,43.2153168 L24.4628556,46.1645508 Z" id="Shape" fill="#B2260B"></path>
                    <polygon id="Path" fill="#D34E13" points="17 47.2082519 16 47 16.3032785 50 17 49.8556902"></polygon>
                    <polygon id="Path" fill="#FF7E27" points="16 1.03428354 1.6694766 10 0 8.95731605 14.3310085 0"></polygon>
                    <polygon id="Path" fill="#D34E13" points="13.6006036 45.3118066 11.8948692 44.2961314 5.09758545 48.3037502 4.80482897 40.0743609 3 39 3.42354118 50.9188696 17 59 17 56.9537206 5.50804823 50.0993282"></polygon>
                    <polygon id="Path" fill="#D34E13" points="16.1154262 1 2.04587741 9.5665567 2 9.59423624 2.87692752 35 4.52182372 34.0211519 3.76102341 11.9751772 6.35357468 10.400968 7.63431891 32.1681346 9.28017083 31.1887832 7.99799289 9.40249263 10.5112145 7.87659675 11.794826 29.6920767 13.440678 28.7127252 12.1551549 6.87812134 14.5890468 5.40053878 15.3546259 27.5733359 16.9928317 26.5980106 17 26.6020367"></polygon>
                    <polygon id="Path" fill="#FF7E27" points="3 34.6311285 17.5801867 26 33 35.2732286 18.5822104 44"></polygon>
                    <path d="M18,43.6777997 L18,66 L19.7665183,64.9759374 L19.7665183,52.5488964 L26.1095515,48.8947613 L29.4453954,50.8390408 L29.4453954,48.7950282 L27.8745292,47.87841 L31.2124272,45.955722 L31.2124272,58.347291 L32.9789455,57.3232284 L33,35 L18,43.6777997 Z M31.2124272,43.7281802 L31.208319,43.7302366 L19.7665183,50.3213546 L19.7665183,46.8553755 L21.1951386,46.0307789 L22.4589182,46.7669524 L24.224923,45.7485448 L22.9606299,45.011343 L31.2124272,40.2467786 L31.2124272,43.7281802 Z" id="Shape" fill="#D34E13"></path>
                    <polygon id="Path" fill="#FF7E27" points="29.3051479 43 20 48.1525997 20 50 31 43.91587"></polygon>
                    <path d="M30.726833,33.1094991 L17.6059713,25.1180408 C17.3475435,24.9606531 17.0296674,24.9606531 16.7712396,25.1180408 L5.27316704,32.1366033 C5.09089201,32.2477617 5,32.4425486 5,32.6368161 L5,34.3904179 C5,34.5846854 5.09089201,34.7794723 5.27316704,34.8906307 L18.3935374,42.8815695 C18.6519653,43.0394768 18.9703326,43.0394768 19.2287605,42.8815695 L30.726833,35.8635265 C30.9086168,35.7523681 31,35.5575812 31,35.3633136 L31,33.6097119 C31,33.4154444 30.9086168,33.2206575 30.726833,33.1094991 Z" id="Path" fill="#BF0025"></path>
                    <path d="M5.27304677,32.5888164 L16.771228,26.109342 C17.0296582,25.9635527 17.3480285,25.9635527 17.6059676,26.109342 L30.7269531,33.4870516 C31.0910156,33.6923076 31.0910156,34.2054479 30.7269531,34.4111835 L19.228772,40.890658 C18.9703417,41.0364473 18.6519714,41.0364473 18.3935411,40.890658 L5.27304677,33.5129484 C4.90898441,33.3076923 4.90898441,32.7940724 5.27304677,32.5888164 Z" id="Path" fill="#EA2642"></path>
                </g>
                <g id="bed" transform="translate(68.000000, 28.000000)" fill-rule="nonzero">
                    <polygon id="Path" fill="#B2260B" points="87.8669518 53.3433149 52.5765159 73.3116007 10.9646638 49.5702546 9.75804718 21 0 24.9151938 0 64.1309463 3.54977439 66.1672242 7.10027869 64.1309463 7.10027869 58.107683 51.8451003 83.8425221 51.8378008 83.8439723 51.8378008 93.9637222 55.3875752 96 58.9373494 93.9637222 58.9373494 83.8439723 87.7078216 67.3419999 87.7078216 73.3514851 91.2575958 75.387763 93 70.1085241 92.9416035 55.28242"></polygon>
                    <polygon id="Path" fill="#FF7E27" points="95 54.0882509 43.3390463 24 4 46.9117491 55.6609538 77"></polygon>
                    <polygon id="Path" fill="#EF5F26" points="7 58.0215363 7 63.9842067 4 66 4 56"></polygon>
                    <path d="M42.0424672,2.36316878 C42.0424672,2.36316878 42.0417379,2.36316878 42.0417379,2.36243077 L38.8001289,0.40437078 C38.2962026,-0.0273913748 37.5508879,-0.154336843 36.8989196,0.225761364 L2.22865186,20.4838963 C0.849600549,21.2898526 0,22.7792476 0,24.3904218 L3.61718365,26.5927781 C3.61718365,25.5853328 3.61718365,25.5853328 3.61718365,26.5927781 L3.61718365,47 L43,23.9881818 L43,3.87987195 C43,3.17871975 42.5916083,2.62296416 42.0424672,2.36316878 Z M41.6989807,2.24434196 C41.686583,2.24212794 41.6741854,2.23917553 41.6617879,2.23696151 C41.6741854,2.23917553 41.686583,2.24212794 41.6989807,2.24434196 Z M41.5130166,2.21334375 C41.4940555,2.21112953 41.4750945,2.21039153 41.4561336,2.20891532 C41.4750945,2.21039153 41.4940555,2.21112953 41.5130166,2.21334375 Z M41.3197599,2.20374889 C41.2942353,2.20448709 41.2687108,2.2059631 41.242457,2.20817731 C41.2687108,2.2059631 41.2942353,2.20448709 41.3197599,2.20374889 Z M40.7166528,2.32848033 C40.6488306,2.35726434 40.5817377,2.38973895 40.5161032,2.42811762 C40.5817377,2.38973895 40.6488306,2.35726434 40.7166528,2.32848033 Z M41.1213982,2.21851018 C41.088581,2.22293842 41.0557637,2.23031906 41.0229465,2.23696151 C41.0557637,2.23031906 41.088581,2.22293842 41.1213982,2.21851018 Z M40.9193902,2.25910307 C40.8778216,2.27091195 40.8369824,2.28641106 40.795414,2.30043415 C40.8369824,2.28641106 40.8778216,2.27091195 40.9193902,2.25910307 Z" id="Shape" fill="#FF7E27"></path>
                    <path d="M4,47 L4,26.956682 C4,25.3742384 4.86291497,23.9114025 6.26357795,23.1205432 L41.4771771,3.22292861 C42.5985964,2.58937138 44,3.38168044 44,4.64879509 L44,24.3985313 L4,47 Z" id="Path" fill="#EF5F26"></path>
                    <path d="M9.06240822,34.7589788 L41.969315,15.4426352 C42.9740392,14.8524549 44.2116898,14.8524549 45.216414,15.4426352 L89.9375918,41.6934125 C90.645864,42.109137 91,42.8366549 91,43.5641729 L91,53.3708176 C91,54.0983355 90.645864,54.8258534 89.9375918,55.241578 L57.0306852,74.5579214 C56.025961,75.1473595 54.7883102,75.1473595 53.783586,74.5579214 L9.06240822,48.3071443 C8.3541362,47.8914198 8,47.1639019 8,46.4356416 L8,36.6297392 C8,35.9022211 8.3541362,35.1747034 9.06240822,34.7589788 L9.06240822,34.7589788 Z" id="Path" fill="#B6C5CE"></path>
                    <path d="M89.9375918,41.0583869 L45.216414,15.4321051 C44.2116898,14.855965 42.9740392,14.855965 41.969315,15.4321051 L9.06240818,34.2889206 C7.64586394,35.1005899 7.64586394,37.1304876 9.06240818,37.9421568 L53.783586,63.5684384 C54.7883102,64.1438539 56.025961,64.1438539 57.0306852,63.5684384 L89.9375918,44.711623 C91.3541361,43.8999538 91.3541361,41.8700561 89.9375918,41.0583869 L89.9375918,41.0583869 Z" id="Path" fill="#E4F2F1"></path>
                    <polygon id="Path" fill="#EF5F26" points="95 54 95 73.2365466 91.3979778 75.2831583 91.3979778 65.1499522 58.602022 83.7822819 58.602022 93.9533883 55 96 55 76.7248242"></polygon>
                </g>
                <g id="sofa" transform="translate(208.000000, 37.000000)" fill-rule="nonzero">
                    <g id="Group" transform="translate(2.000000, 50.000000)" fill="#3E3D43">
                        <path d="M51.5690909,28.3668354 L51.5316364,41.2271646 C51.5310909,41.4247595 51.3976364,41.622 51.1314545,41.7726329 C50.5963636,42.0756709 49.7256364,42.0760253 49.1867273,41.7726329 C48.9154545,41.6200506 48.78,41.419443 48.7805438,41.2195443 L48.818,28.3592152 C48.8174545,28.5591139 48.9529091,28.7597215 49.2241818,28.9123038 C49.7630909,29.2156962 50.6338182,29.2153418 51.1689091,28.9123038 C51.4350909,28.7613165 51.5683636,28.5642532 51.5690909,28.3668354 Z" id="Path"></path>
                        <path d="M51.1630909,27.8141013 C51.702,28.1174937 51.7045455,28.6090886 51.1689091,28.9123038 C50.6338182,29.2153418 49.7630909,29.2156962 49.2241818,28.9123038 C48.6852727,28.6089114 48.6823636,28.1171392 49.2172727,27.8141013 C49.7530909,27.5107089 50.624,27.5107089 51.1630909,27.8141013 Z" id="Path"></path>
                        <path d="M79.9307273,12.532481 L79.8932727,25.3928101 C79.8927273,25.5904051 79.7592727,25.7876456 79.4930909,25.9382785 C78.958,26.2413165 78.0872727,26.2416709 77.5483636,25.9382785 C77.2770909,25.7856962 77.1416364,25.5850886 77.1421802,25.3851899 L77.1796364,12.5248608 C77.1790909,12.7247595 77.3145455,12.9253671 77.5858182,13.0779494 C78.1247273,13.3813418 78.9954545,13.3809873 79.5305455,13.0779494 C79.7969091,12.9271392 79.9301818,12.7297215 79.9307273,12.532481 Z" id="Path"></path>
                        <path d="M79.5247273,11.9797468 C80.0636364,12.2831392 80.0661818,12.7747342 79.5305455,13.0779494 C78.9954545,13.3809873 78.1247273,13.3813418 77.5858182,13.0779494 C77.0469091,12.774557 77.044,12.2827848 77.5789091,11.9797468 C78.1147273,11.6763544 78.9858182,11.6763544 79.5247273,11.9797468 Z" id="Path"></path>
                        <path d="M2.82618182,0.788075949 L2.78872727,13.6484051 C2.78818182,13.846 2.65472727,14.0432405 2.38854545,14.1938734 C1.85345455,14.4969114 0.982727273,14.4972658 0.443818182,14.1938734 C0.172545455,14.0412911 0.0370909091,13.8406835 0.0376347229,13.6407848 L0.0750909091,0.780455696 C0.0745454545,0.98035443 0.21,1.18096203 0.481272727,1.3335443 C1.02018182,1.63693671 1.89090909,1.63658228 2.426,1.3335443 C2.69236364,1.18273418 2.82563636,0.985493671 2.82618182,0.788075949 Z" id="Path"></path>
                        <path d="M2.42018182,0.235341772 C2.95909091,0.538734177 2.96163636,1.03032911 2.426,1.3335443 C1.89090909,1.63658228 1.02018182,1.63693671 0.481272727,1.3335443 C-0.0576363636,1.0301519 -0.0605454545,0.538379747 0.474363636,0.235341772 C1.01018182,-0.0680506329 1.88127273,-0.0680506329 2.42018182,0.235341772 Z" id="Path"></path>
                    </g>
                    <path d="M84.8818536,29.5935536 C84.9146228,29.6109325 84.9479321,29.6274156 84.979801,29.6460486 L34.5114974,0.461514821 C33.5257215,-0.108584487 32.2316994,-0.17236681 30.7488044,0.392895074 C30.3595355,0.541421889 29.9724271,0.727214781 29.5907203,0.946690474 C26.2801338,2.8486937 23.3624173,7.25899054 22.804081,11.4431826 L20.4695477,28.9302891 L1.41193443,39.8789908 C0.57686073,40.3587915 -0.0742014708,41.5554268 0.00682120348,42.4607416 L1.30696505,56.9647703 C1.33973422,57.332952 1.48917604,57.5914854 1.71315872,57.7210208 L52.1814624,86.9055546 C52.1746204,86.901613 52.1686788,86.8964173 52.1618369,86.8922965 C52.4220097,87.0551564 52.787692,87.038315 53.1895645,86.807552 L81.5991749,70.4860854 C81.992405,70.2601598 82.3278389,69.7429138 82.3913966,69.2616798 L86.9059801,35.4305321 C87.2923682,32.5407986 86.462516,30.4377736 84.8818536,29.5935536 Z" id="Path" fill="#DDB201"></path>
                    <g id="Group" fill="#EEBF00">
                        <path d="M52.1531607,86.8319074 L1.78194503,57.6720494 C1.55857294,57.5426235 1.4092389,57.2843086 1.37653277,56.9164383 L51.7477484,86.0762963 C51.7804545,86.4443457 51.9297886,86.7026605 52.1531607,86.8319074 Z" id="Path"></path>
                        <path d="M34.5171882,0.461135802 C33.5333087,-0.108481481 32.2417759,-0.172209877 30.7617336,0.392574074 C30.3732135,0.540975309 29.9868499,0.726790123 29.6058774,0.945901235 C26.3016596,2.8462963 23.389556,7.2528642 22.8322939,11.4335185 L20.5022516,28.9058395 L70.8734672,58.0653395 L73.2035095,40.5930185 C73.7607717,36.4125432 76.6728753,32.0057963 79.977093,30.1054012 C80.3580655,29.8861111 80.7444292,29.7004753 81.1329493,29.5520741 C82.6129915,28.9876481 83.9043446,29.0511975 84.8884038,29.6206358 L34.5171882,0.461135802 Z" id="Path"></path>
                        <polygon id="Path" points="51.7477484 86.0762963 1.37653277 56.9164383 0.0788900634 42.4244938 50.4502854 71.5843519"></polygon>
                    </g>
                    <path d="M20.4874291,29 L1.41316784,40.0217564 C0.577364652,40.5047585 -0.0742662902,41.7093783 0.00682716221,42.6207338 L50.5193981,72 C50.4384848,71.0886445 51.0899356,69.8840248 51.9257387,69.4010226 L71,58.3792662 L20.4874291,29 Z" id="Path" fill="#FECE00"></path>
                    <path d="M80.1600605,29.9495338 C80.5362123,29.7293593 80.9176871,29.5429749 81.301291,29.3939751 C85.0117096,27.9546629 87.5221684,30.5823783 86.907373,35.2655352 L82.4584902,69.2044031 C82.39568,69.6869897 82.0651277,70.2058826 81.6777977,70.4327073 L53.6816316,86.8061424 C52.9617976,87.2272598 52.3572932,86.9422012 52.2879181,86.1457986 L51.0066952,71.5955882 C50.927029,70.6873908 51.5684389,69.4869455 52.3913598,69.005617 L71.1716281,58.0220541 L73.472187,40.4792677 C74.0223978,36.2821124 76.8976529,31.8575932 80.1600605,29.9495338 Z" id="Path" fill="#DDB201"></path>
                </g>
                <g id="coat-hanger" transform="translate(244.000000, 66.000000)" fill-rule="nonzero">
                    <polygon id="Path" fill="#D07400" points="16.4489795 83 0.005444879 92.5230922 0 94.4773097 16.5510205 104 32.9945551 94.4771087 33 92.5228913"></polygon>
                    <polygon id="Path" fill="#884D01" points="33 92 32.9947037 94.0432506 17 104 17.0054924 101.956749"></polygon>
                    <polygon id="Path" fill="#A66206" points="17 101.956714 16.9942023 104 0 94.0432864 0.0055906749 92"></polygon>
                    <polygon id="Path" fill="#D07400" points="33 92.5 16.5539535 102 0 92.5002005 16.4462482 83"></polygon>
                    <polygon id="Path" fill="#884D01" points="19.5237987 43.1758539 19.5237987 19.5987625 26.3808034 15.6678507 29 14.1366079 26.7139932 10.1533738 19.511812 14.2823335 19.5465531 1.939397 16.2075447 0 13.5885513 1.53124274 13.5885513 19.9605217 9.00170658 11.9687099 6.70066557 13.2880068 4.08167213 14.8192495 13.5048475 31.2175675 13.5048475 48.8511807 8.92023762 40.8626391 6.61919661 42.1817315 4 43.7127699 13.4233785 60.1123142 13.4233785 93.060603 16.8231331 95 19.4423297 93.4687573 19.4423297 48.4928961 26.2993344 44.5625974 28.918531 43.0313546 26.632321 39.0481205"></polygon>
                    <polygon id="Path" fill="#A66206" points="4 44 6.66156006 42.3884546 9 41 6.33843994 42.6115454"></polygon>
                    <polygon id="Path" fill="#D07400" points="6 41.5346142 8.68445055 40 16 52.4651809 13.3836447 54"></polygon>
                    <polygon id="Path" fill="#884D01" points="16 49.5135686 19 48 19 92.4864314 16 94"></polygon>
                    <polygon id="Path" fill="#A66206" points="4 15 6.66156006 13.3884706 9 12 6.33823347 13.6115294"></polygon>
                    <polygon id="Path" fill="#D07400" points="6 13.5349089 8.68460289 12 16 24.4650911 13.3859898 26"></polygon>
                    <polygon id="Path" fill="#A66206" points="17 45 19.4231203 43.3764808 26 39 23.5768797 40.6233025"></polygon>
                    <g id="Group" transform="translate(17.000000, 2.000000)" fill="#884D01">
                        <polygon id="Path" points="7.078 38.8113905 9.6562 37.277519 11.9068 41.2681238 9.3284 42.8022"></polygon>
                        <polygon id="Path" points="0.0802 19.2965571 2.6584 17.762481 2.6584 41.4128905 0.0802 42.9469667"></polygon>
                        <polygon id="Path" points="0.1026 1.634 2.6808 0.100128571 2.6466 12.4659048 0.0682 13.9995714"></polygon>
                    </g>
                    <g id="Group" transform="translate(13.000000, 0.000000)" fill="#D07400">
                        <polygon id="Path" points="0.0156 1.53682051 2.5938 0 5.8808 1.94646154 3.3026 3.48307692"></polygon>
                        <polygon id="Path" points="3.2682 15.8707692 5.8466 14.334359 12.9366 10.190359 10.3582 11.7271795"></polygon>
                    </g>
                    <polygon id="Path" fill="#A66206" points="16.7075163 3.92946733 16.6731663 16.2102991 23.7528686 12.1024534 26 16.0657111 16.6851489 21.4709853 16.6851489 44.9593217 23.672785 40.8520861 25.9199165 44.8155471 16.6048656 50.2198045 16.6048656 95 13.2629267 93.0703293 13.2629267 60.2872802 4 43.9699816 6.26190995 42.6575046 13.3430102 55.0314747 13.3430102 31.5374442 4.08008351 15.2213658 6.34179375 13.9086854 13.4252905 26.2816387 13.4252905 2"></polygon>
                    <polygon id="Path" fill="#884D01" points="23 11.6660613 25.669925 10 28 14.3339387 25.3302821 16"></polygon>
                </g>
                <polygon id="Path-2" stroke="#4FFFFC" fill-opacity="0.234866696" fill="#BAE0F9" points="50 -2.48449698e-13 50 103.06783 221 206 221 97.6573515"></polygon>
                <g id="smartphone" transform="translate(46.000000, 73.000000)" fill-rule="nonzero">
                    <path d="M57.0647243,25.6569124 L12.9183632,0.265322192 C12.3784015,-0.0450872137 11.8897804,-0.073810162 11.5367188,0.1305259 L0.566517231,6.48182484 C0.567528869,6.48132093 0.568793416,6.48081702 0.570057964,6.48031311 C0.219272518,6.68137375 0.00177036635,7.11146211 0,7.7227066 L0.0508348051,100.004752 C0.0472940724,101.233288 0.913003216,102.727133 1.98635104,103.344677 L46.0818773,128.736267 C46.6549702,129.065825 47.1698939,129.075399 47.5267491,128.826971 C47.5055047,128.841836 47.4857778,128.857962 47.4635218,128.870559 L58.4337233,122.51926 C58.7822325,122.317696 58.9984702,121.888867 59,121.278883 L59,28.9970889 C59.0037813,27.7708206 58.1360488,26.273196 57.0647243,25.6569124 Z" id="Path" fill="#2E2E30"></path>
                    <path d="M58.4109832,123.144095 L47,129 C47.3625123,128.814157 47.5874383,128.418777 47.5890168,127.855905 L59,122 C58.9984216,122.562639 58.7734956,122.958252 58.4109832,123.144095 Z" id="Path" fill="#1D1D1F"></path>
                    <path d="M1,6.85739504 L11.6577121,0.138169017 C12.0007166,-0.0780041142 12.4754192,-0.0478838135 13,0.280773981 L2.34228793,7 C1.81770716,6.67134221 1.34275886,6.6412219 1,6.85739504 Z" id="Path" fill="#3E3D43"></path>
                    <polygon id="Path" fill="#1D1D1F" points="48 35.3746887 59 29 59 121.625058 48 128"></polygon>
                    <polygon id="Path" fill="#3E3D43" points="2 6.40269234 12.9470013 0 57 25.5973077 46.0529987 32"></polygon>
                    <path d="M46,31.8984479 L57.0503347,26 C58.1294848,26.5723423 59.0035557,27.9627174 59,29.1015521 L47.9496544,35 C47.9529663,33.8611653 47.0791502,32.4705561 46,31.8984479 Z" id="Path" fill="#57565C"></path>
                    <path d="M46.0656839,32.5211152 C47.1363382,33.1341318 48.0035277,34.6233161 48,35.8430839 L48,127.635932 C47.9964507,128.857955 47.1237006,129.349171 46.0530464,128.736154 L1.98510829,103.478917 C0.912432,102.864898 0.0472644831,101.378972 0.0508030005,100.156948 L0,8.36410006 C0.00353851745,7.14433232 0.874519313,6.64985898 1.94694285,7.26387808 L46.0656839,32.5211152 Z" id="Path" fill="#2E2E30"></path>
                    <polyline id="Path" fill="#C3DFF7" points="43 41.7409824 4 19 4 89.2590176 43 112 43 41.7409824"></polyline>
                    <path d="M23.4920121,110.490353 C22.1486697,109.800618 21.0596147,108.121347 21.0637355,106.748734 C21.0681552,105.376121 22.1643733,104.820854 23.5077156,105.510345 C24.851058,106.20008 25.9401131,107.876902 25.9359923,109.24976 C25.931848,110.622128 24.83563,111.179844 23.4920121,110.490353 M23.5112972,104.425775 C21.5819644,103.435505 20.0063747,104.231542 20.0000191,106.20253 C19.9937017,108.173518 21.5593733,110.584163 23.4887061,111.574678 C25.4180389,112.564948 26.9936285,111.766707 26.9999826,109.795719 C27.006026,107.824486 25.4406299,105.41629 23.5112972,104.425775" id="Shape" fill="#77767E"></path>
                    <path d="M32.7884082,28.9669038 L16.2194003,19.1706036 C15.548368,18.7738711 15.0020207,19.0927017 15,19.8820394 C14.9979905,20.6742146 15.5403075,21.6363811 16.2115918,22.0331136 L32.7805997,31.8294138 C33.451632,32.2261463 33.9979793,31.9075737 34,31.1153985 C34.0020095,30.3263187 33.4594406,29.3636363 32.7884082,28.9669038" id="Path" fill="#1D1D1F"></path>
                    <path d="M12.0030854,17.1600963 C11.4494122,16.7876837 11.0017072,17.0874002 11,17.826767 C10.9983026,18.5683668 11.4430286,19.46702 11.9967018,19.8399288 C12.5484599,20.211349 12.9980801,19.9148579 13,19.1735062 C13.0016975,18.4336432 12.5550564,17.5315165 12.0030854,17.1600963" id="Path" fill="#3E3D43"></path>
                    <g id="Group" transform="translate(51.000000, 41.000000)" fill="#2E2E30">
                        <path d="M0.479047619,26.1422701 L1.36071429,26.6740862 C1.33666667,26.6595057 1.31714286,26.6377586 1.29571429,26.6184828 C1.47047619,26.7741724 1.73547619,26.7855402 2.03642857,26.6053851 L3.86047619,25.5123448 C4.38595238,25.1972586 4.81119048,24.4331437 4.80929209,23.8066782 L4.76285714,1.46793103 C4.76214286,1.15655172 4.6552381,0.938091954 4.48357143,0.835534483 C4.48428571,0.835781609 4.485,0.835781609 4.48547619,0.836275862 L3.60380952,0.304706897 C3.43071429,0.20041954 3.19095238,0.214752874 2.92619048,0.373408046 L1.10214286,1.46644828 C0.576666667,1.78128736 0.153333333,2.54441379 0.1547583,3.16939655 L0.201190476,25.5081437 C0.201904762,25.8197701 0.307857143,26.0392184 0.479047619,26.1422701 Z" id="Path"></path>
                        <path d="M4.48309524,29.1248391 C4.48380952,29.1250862 4.48452381,29.1250862 4.485,29.1255805 L3.60333333,28.5940115 C3.4302381,28.4897241 3.1902381,28.5040575 2.92571429,28.6627126 L1.10166667,29.7557529 C0.576190476,30.070592 0.152857143,30.8337184 0.154282109,31.4587011 L0.200714286,41.661069 C0.201428571,41.9729425 0.307380952,42.1923908 0.478571429,42.2954425 L1.3602381,42.8272586 C1.33619048,42.8126782 1.31666667,42.790931 1.2952381,42.7716552 C1.4697619,42.9273448 1.735,42.9387126 2.03595238,42.7585575 L3.86,41.6655172 C4.38547619,41.350431 4.81071429,40.5863161 4.8088159,39.9598506 L4.76238095,29.7574828 C4.76190476,29.4458563 4.6547619,29.2273966 4.48309524,29.1248391 Z" id="Path"></path>
                    </g>
                    <g id="Group" transform="translate(51.000000, 40.000000)" fill="#3E3D43">
                        <path d="M1.50368421,27.9836667 L0.529210526,27.426 C0.340263158,27.3178889 0.223157895,27.0874074 0.222105263,26.7604815 L1.19657895,27.3181481 C1.19763158,27.6450741 1.31473684,27.8752963 1.50368421,27.9836667 Z" id="Path"></path>
                        <path d="M3.98315789,0.319407407 L4.95763158,0.877074074 C4.76631579,0.767666667 4.50131579,0.782703704 4.20868421,0.949148148 L3.23421053,0.391481481 C3.52631579,0.225037037 3.79157895,0.209740741 3.98315789,0.319407407 Z" id="Path"></path>
                    </g>
                    <polygon id="Path" fill="#57565C" points="53 67 52.0502822 66.4654168 52 44 52.9499743 44.5345832"></polygon>
                    <polygon id="Path" fill="#3E3D43" points="52.9773827 42 52 41.6728019 54.0226173 41 55 41.3271981"></polygon>
                    <path d="M51.9640746,43 L51,42.5242203 C50.9981829,41.9648308 51.461082,41.2820173 52.0359307,41 L53,41.4757797 C52.4254116,41.7577969 51.9622522,42.4408317 51.9640746,43 Z" id="Path" fill="#77767E"></path>
                    <path d="M54.9382115,40.1407848 C55.4953574,39.8134752 55.9490009,40.0765561 55.9507681,40.7260371 L56,63.949606 C56.0017619,64.6011423 55.5511478,65.3957802 54.9940018,65.7230899 L53.0600214,66.8594246 C52.5028755,67.1867343 52.0507466,66.9228826 52.049232,66.2713463 L52,43.0477774 C51.9982381,42.3980395 52.4470851,41.6049431 53.0044835,41.2773765 L54.9382115,40.1407848 Z" id="Path" fill="#2E2E30"></path>
                    <g id="Group" transform="translate(51.000000, 69.000000)" fill="#3E3D43">
                        <path d="M1.50368421,14.8222881 L0.529210526,14.2754237 C0.340263158,14.1694068 0.223157895,13.9433898 0.222105263,13.6227966 L1.19657895,14.169661 C1.19763158,14.4902542 1.31473684,14.7162712 1.50368421,14.8222881 Z" id="Path"></path>
                        <path d="M3.98315789,0.179237288 L4.95763158,0.726101695 C4.76631579,0.618813559 4.50131579,0.633559322 4.20868421,0.796779661 L3.23421053,0.249915254 C3.52631579,0.0866949153 3.79157895,0.0719491525 3.98315789,0.179237288 Z" id="Path"></path>
                    </g>
                    <polygon id="Path" fill="#57565C" points="53 83 52.0502822 82.4547736 52 72 52.9499743 72.5449732"></polygon>
                    <polygon id="Path" fill="#3E3D43" points="52.9773827 71 52 70.6726996 54.0226173 70 55 70.3273004"></polygon>
                    <path d="M51.9640746,72 L51,71.5242203 C50.9981829,70.9648308 51.461082,70.2820173 52.0359307,70 L53,70.4757797 C52.4254116,70.7575758 51.9622522,71.4408317 51.9640746,72 Z" id="Path" fill="#77767E"></path>
                    <path d="M54.9382115,69.1370393 C55.4953574,68.8184377 55.9490009,69.0745193 55.9507681,69.7067209 L56,80.0310119 C56.0017619,80.665214 55.5511478,81.4387106 54.9940018,81.7570621 L53.0600214,82.8631646 C52.5028755,83.1817662 52.0507466,82.9249343 52.049232,82.2907322 L52,71.9664412 C51.9982381,71.3339896 52.4470851,70.5619935 53.0044835,70.2431418 L54.9382115,69.1370393 Z" id="Path" fill="#2E2E30"></path>
                </g>
                <g id="like" transform="translate(54.000000, 122.000000)" fill-rule="nonzero">
                    <path d="M20.5859847,5.96676522 C19.0769988,5.09559673 17.709777,5.01538805 16.7223859,5.58908309 L15.9962142,6.01100919 C15.0203731,3.82132824 13.3909299,1.81310556 11.5406659,0.744922206 C10.0311526,-0.126509959 8.66345617,-0.207351443 7.67574864,0.366607267 L1.58453395,3.90607205 C1.58769833,3.90427909 1.59107366,3.90274979 1.59423804,3.90095683 C0.61359762,4.46521245 0.00487697166,5.67182301 0,7.38958587 C-0.017695584,13.6431729 9.41842378,26.3321745 9.91507274,27 C10.1934852,26.9480041 13.2688904,26.372938 15.9354581,24.787907 C15.8969582,24.8108464 15.858511,24.8339967 15.8198529,24.8564614 L21.9110676,21.3169967 C24.0693309,20.0628726 25.9920063,18.156796 26,15.3433753 C26.0098323,11.8967754 23.5856559,7.69844991 20.5859847,5.96676522 Z" id="Path" fill="#FE0B37"></path>
                    <path d="M2,4.03484128 L7.89301815,0.378677849 C8.84858756,-0.214204684 10.1717818,-0.130643328 11.6321784,0.769466097 C13.4579548,1.89482077 15.0630542,4.02972083 16,6.34389105 L10.1069818,10 C9.17003604,7.68582978 7.56488558,5.5509842 5.73916022,4.42557505 C4.27876363,3.52546563 2.95551838,3.44195874 2,4.03484128 Z" id="Path" fill="#FF3E61"></path>
                    <path d="M10,9.64733938 L16.1188637,6.34236475 C17.1106837,5.8066771 18.4841116,5.88157194 20,6.69502537 L13.8811363,10 C12.3652479,9.18654657 10.99182,9.11165173 10,9.64733938 Z" id="Path" fill="#FF728C"></path>
                    <path d="M21.7353022,21.4398372 L15.3821153,25 C17.6331822,23.7385421 19.6385311,21.8213192 19.6468372,18.9914992 C19.6570135,15.5248504 17.1286545,11.301974 14,9.56016281 L20.3531319,6 C23.4818414,7.74181121 26.0102004,11.9646876 26,15.4313364 C25.991718,18.2611564 23.9864241,20.1783793 21.7353022,21.4398372 Z" id="Path" fill="#FF3E61"></path>
                    <path d="M14.5611558,9.84960521 C17.5746074,11.5473048 20.0098247,15.6632361 20,19.0420915 C19.9821686,25.172949 10.4615943,26.9086474 9.96055329,27 C9.4616315,26.3452809 -0.017776565,13.905307 0,7.77450122 C0.00982652016,4.39559417 2.46099108,3.03259548 5.47438969,4.73029503 C7.37020772,5.79834957 9.03688306,7.82454608 10.0097726,10.0208848 C10.9923047,8.92610173 12.6653377,8.78149897 14.5611558,9.84960521 Z" id="Path" fill="#CE2846"></path>
                </g>
            </g>
        </g>
    </g>
</svg>