<?xml version="1.0" encoding="UTF-8"?>
<svg width="192px" height="111px" viewBox="0 0 192 111" version="1.1" xmlns="http://www.w3.org/2000/svg" xmlns:xlink="http://www.w3.org/1999/xlink">
    <!-- Generator: Sketch 61.2 (89653) - https://sketch.com -->
    <title>Group 2</title>
    <desc>Created with Sketch.</desc>
    <g id="Website" stroke="none" stroke-width="1" fill="none" fill-rule="evenodd">
        <g id="Homepage" transform="translate(-144.000000, -1779.000000)">
            <g id="Group-2" transform="translate(144.000000, 1779.000000)">
                <ellipse id="Oval" fill="#4E361E" cx="96" cy="60.5" rx="96" ry="50.5"></ellipse>
                <g id="Board" transform="translate(24.000000, 3.000000)" fill-rule="nonzero">
                    <polygon id="Path" fill="#FFB657" points="150 45.4971349 75.2446662 88 0 45.4979949 74.7556268 0"></polygon>
                    <polygon id="Path" fill="#C38F5D" points="75 88.1833997 74.977518 92 0 47.8171964 0.0224820144 44"></polygon>
                    <polygon id="Path" fill="#A07143" points="150 44 149.977665 47.7965664 75 92 75.022629 88.2034336"></polygon>
                    <path d="M74.7556268,1 L150,44.9995548 L75.2443732,89 L0,45.0001484 L74.7556268,1 Z M93.0595872,32.9046556 L108.646141,23.7308726 L92.9576185,14.5570896 L77.3710643,23.7305758 L93.0595872,32.9046556 M129.432218,54.1733378 L145.018772,44.9995548 L129.330543,35.8260686 L113.743988,44.9998516 L129.432218,54.1733378 M56.923125,54.1736346 L72.5093862,44.9998516 L56.8208633,35.8260686 L41.2346021,44.9998516 L56.923125,54.1736346 M93.296049,75.4429104 L108.88231,66.2691274 L93.1940803,57.0956412 L77.6078192,66.2694242 L93.296049,75.4429104 M74.8722462,22.2692758 L90.4588004,13.0954928 L74.7720356,3.92260012 L59.1854814,13.0963831 L74.8722462,22.2692758 M111.24517,43.5385516 L126.831724,34.3647686 L111.14496,25.1918759 L95.5584054,34.3656589 L111.24517,43.5385516 M74.9917956,43.5385516 L90.5765917,34.3656589 L74.8880689,25.1918759 L59.3032728,34.3647686 L74.9917956,43.5385516 M38.8556264,64.8081241 L54.4404226,55.6352314 L38.7518997,46.4614484 L23.1671036,55.6343411 L38.8556264,64.8081241 M38.736077,43.5385516 L54.3223382,34.3647686 L38.6355734,25.1918759 L23.0493122,34.3656589 L38.736077,43.5385516 M111.364427,64.8078273 L126.949223,55.6349347 L111.260993,46.4614484 L95.6761968,55.6343411 L111.364427,64.8078273 M75.2282574,86.0771031 L90.8130536,76.9042104 L75.1248237,67.7307242 L59.5400276,76.9036169 L75.2282574,86.0771031 M75.109001,64.8081241 L90.6952622,55.6343411 L75.0084974,46.4614484 L59.4222362,55.6352314 L75.109001,64.8081241 M56.8044546,32.9037653 L72.3892507,23.7308726 L56.7024859,14.5579799 L41.1176898,23.7308726 L56.8044546,32.9037653 M20.6682854,54.1730411 L36.2530815,45.0001484 L20.5663167,35.8272557 L4.98152062,45.0001484 L20.6682854,54.1730411 M57.0412094,75.4423168 L72.6260055,66.2694242 L56.9392407,57.0962347 L41.3544446,66.2691274 L57.0412094,75.4423168 M93.1776716,54.1730411 L108.762468,45.0001484 L93.0757029,35.8272557 L77.4909068,45.0001484 L93.1776716,54.1730411" id="Shape" fill="#FEC377"></path>
                </g>
                <g id="pawn" transform="translate(56.000000, 0.000000)" fill-rule="nonzero">
                    <path d="M21.9838409,34.0162307 C21.9747169,33.8822272 21.9529803,33.7042399 21.9317803,33.5715746 C21.909507,33.4324858 21.87641,33.2470935 21.8390194,33.1111272 C21.764417,32.8399977 21.6610114,32.4771533 21.542399,32.222172 C21.434163,31.9895841 21.2791439,31.6842845 21.1531966,31.4607075 C21.0774314,31.3261687 20.9582823,31.1576383 20.870799,31.0304153 C20.735817,30.8344062 20.538577,30.5835288 20.3735394,30.4117867 C20.2546587,30.2880431 20.1005342,30.1187098 19.9753024,30.0013899 C19.8787845,29.9109241 19.7619612,29.8050239 19.645764,29.7042982 C19.4410995,28.6333409 18.6413158,27.5911114 17.2410459,26.7563107 C17.240867,26.7562215 17.2405986,26.7560431 17.2404197,26.7559539 C17.1993616,26.6259651 17.1585718,26.4941921 17.1249381,26.3822251 C17.0913045,26.2703474 16.9954127,25.9199041 16.9321707,25.6492207 C16.8713438,25.3882618 16.7096159,24.6953157 16.604958,23.7842347 C16.5916297,23.6678069 16.5740973,23.5124806 16.5648838,23.3956068 C16.5467252,23.1682826 16.5261514,22.8646782 16.5134493,22.6369971 C16.5071877,22.524941 16.5035202,22.3776442 16.5011051,22.2619301 C16.5008367,22.2483692 16.5005684,22.2348083 16.5003895,22.2212473 C16.4984215,22.1096372 16.4983321,21.9691209 16.4974376,21.8617932 L16.5164012,15.1705405 C16.5164012,15.1770534 16.5160434,15.1835662 16.515954,15.190079 C16.5267776,14.3893591 16.0135957,13.5848921 14.9711308,12.9634085 C12.8686684,11.7098246 9.41101954,11.6751193 7.2479987,12.8856116 C6.14059214,13.5053108 5.58760447,14.3314574 5.5934188,15.1583178 C5.5934188,15.1522511 5.593061,15.1460952 5.59315045,15.1400284 L5.57418678,21.8312811 C5.57400788,21.9102379 5.57293446,21.9891947 5.5717716,22.0680622 C5.57123489,22.1009832 5.57051928,22.1327443 5.56989312,22.1634349 C5.56935641,22.1920735 5.5684619,22.220712 5.56774629,22.2492614 C5.56157415,22.4736414 5.55316574,22.6164773 5.55307628,22.6185293 C5.53894299,22.8462103 5.51640127,23.1495471 5.49681144,23.376782 C5.48670345,23.4935667 5.46818704,23.6488038 5.45423265,23.7652316 C5.34528101,24.6660526 5.18391095,25.3402632 5.11503348,25.6281655 C5.05465388,25.8806488 4.95267945,26.2458128 4.9173462,26.3606347 C4.88407033,26.4686761 4.84399617,26.5951854 4.8035642,26.7206241 C3.40061069,27.5453433 2.59179243,28.5846286 2.38095581,29.6577271 C2.13219187,29.8793414 1.83396138,30.1601956 1.62035178,30.39091 C1.43724505,30.5886142 1.21630045,30.8737508 1.0635177,31.0956327 C0.894275925,31.3414247 0.693636756,31.6871394 0.564469141,31.9560386 C0.441384212,32.2124474 0.315526294,32.5717231 0.225359427,32.8415144 C0.172762088,32.9988926 0.121953774,33.2152431 0.0963707143,33.3791342 C0.0547758799,33.6450892 0.00718781121,34.0022237 0.0018207358,34.2713012 C-0.00157841196,34.4386718 -0.00193621699,34.6625165 0.0163118394,34.8288164 C0.0308923943,34.9621954 0.047172523,35.1406288 0.0684619221,35.2731156 C0.0910036389,35.4131858 0.124816214,35.5999164 0.162117388,35.736864 C0.235735772,36.0076367 0.350770089,36.3648604 0.458558853,36.6239457 C0.50883046,36.7447451 0.573503718,36.8838339 0.643007345,37.0200678 C0.584864028,37.1958247 0.52591565,37.3878191 0.493265941,37.5468925 C0.44621458,37.7755549 0.409002857,38.0864751 0.403725233,38.319866 C0.398805414,38.5413911 0.417947983,38.8375905 0.449434825,39.0568852 C0.479132642,39.2644032 0.543179742,39.5380308 0.607137391,39.7376978 C0.683618215,39.9765309 0.816095527,40.2852207 0.928625208,40.5092439 C1.02398025,40.6990078 1.1807883,40.9363242 1.29788,41.1135086 C1.40584766,41.2769536 1.56900676,41.4825981 1.70309419,41.625434 C1.92708014,41.8642671 2.24391649,42.1654627 2.48856568,42.3831515 C2.65145641,42.5280394 2.88966511,42.696659 3.06820982,42.82183 C3.22627019,42.9326371 3.44533632,43.0682465 3.60965828,43.1695075 C3.80188903,43.2880765 4.06541243,43.4357301 4.26998746,43.5314597 C4.46839034,43.6243342 4.73110869,43.7525386 4.93255292,43.8389004 C5.13086635,43.9238347 5.39734165,44.0332144 5.60191667,44.1020005 C5.80944359,44.1717679 6.08495346,44.2678543 6.2946272,44.3309305 C6.51333553,44.3967725 6.80736181,44.4767106 7.02920092,44.531222 C7.63809563,44.6811061 8.11039827,44.7580109 8.52554155,44.8217116 C8.68968461,44.8468707 9.28569833,44.9321619 10.0649977,44.974629 C10.2981971,44.9872978 10.609398,44.9972901 10.8429553,44.9996097 C11.0766914,45.0019293 11.388429,44.9932753 11.6220757,44.9903312 C11.8566169,44.987387 12.1688018,44.964726 12.4026274,44.9462581 C12.6338589,44.9279687 12.9411239,44.8916575 13.1718187,44.8680151 C13.4051971,44.844105 13.7151457,44.7980692 13.9453038,44.7530147 C14.1686635,44.7092093 14.4676096,44.6555009 14.6896277,44.6056288 C14.9188018,44.5541507 15.2227571,44.4782273 15.4490688,44.4150619 C15.8713682,44.2972066 16.423193,44.1020005 16.833327,43.9473879 C17.0487257,43.8662007 17.3282608,43.7378179 17.5360561,43.6388766 C17.7239037,43.5494814 17.9673006,43.4160132 18.151928,43.3199269 C18.3551613,43.2141158 18.6140332,43.0506708 18.8034015,42.9217527 C18.9569893,42.8171907 19.1602226,42.675247 19.3058492,42.559979 C19.478848,42.4229421 19.6990769,42.2275575 19.8643829,42.0815098 C20.0403335,41.9260051 20.2535853,41.6944877 20.4001959,41.5112366 C20.5786512,41.2882841 20.809167,40.9819139 20.9458486,40.731215 C21.0511327,40.5380609 21.1777957,40.272998 21.2648317,40.0710114 C21.3142088,39.956368 21.3642121,39.7970269 21.3995453,39.6772981 C21.462519,39.463981 21.5126117,39.1705472 21.5470505,38.9508065 C21.5651196,38.8358954 21.5660141,38.6800338 21.5741542,38.5639629 C21.5895398,38.34333 21.5686082,38.0455246 21.5286235,37.8279251 C21.4908751,37.6226374 21.4283486,37.3510618 21.3720838,37.150235 C21.3649277,37.1246298 21.3562509,37.0972403 21.3470374,37.0692262 C21.378077,37.0094511 21.4083116,36.9483376 21.4371149,36.8861536 C21.5563534,36.6284957 21.697418,36.275376 21.7752406,36.0025513 C21.8208608,35.8425858 21.8722952,35.6265922 21.9044977,35.4634148 C21.9307069,35.3311957 21.9582579,35.1533868 21.9697971,35.0191156 C21.9951118,34.717474 22.0155067,34.479533 21.9838409,34.0162307 Z" id="Path" fill="#2E2E30"></path>
                    <g id="Group" transform="translate(4.000000, 33.000000)" fill="#3E3D43">
                        <path d="M0.182697987,0.503956989 C0.134798658,0.470800491 0.0870738255,0.437643992 0.0409194631,0.403956989 C0.0408322148,0.403956989 0.0408322148,0.404045407 0.0407449664,0.404045407 C0.0868993289,0.437820827 0.134885906,0.470888908 0.182697987,0.503956989 Z" id="Path"></path>
                        <path d="M11.3959926,7.94968817 C11.3681926,7.95868817 11.3398926,7.96678817 11.3119926,7.97558817 C11.3118926,7.97558817 11.3117926,7.97568817 11.3117926,7.97568817 C11.3396926,7.96698817 11.3680926,7.95868817 11.3959926,7.94968817 Z" id="Path"></path>
                        <path d="M0.392791946,0.650354301 C0.353006711,0.621554301 0.311651007,0.593354301 0.273,0.564054301 C0.311651007,0.593354301 0.352919463,0.621554301 0.392791946,0.650354301 L0.392791946,0.650354301 Z" id="Path"></path>
                        <path d="M12.9650765,0.625612366 C12.9343765,0.645312366 12.9051765,0.665612366 12.8738765,0.685212366 L12.8739765,0.685312366 C12.9053765,0.665612366 12.9343765,0.645412366 12.9650765,0.625612366 Z" id="Path"></path>
                        <path d="M12.2301208,0.0619354839 C12.1775973,0.0976344086 12.1221074,0.132301075 12.0672282,0.167225806 C12.1221074,0.132301075 12.1775973,0.0976344086 12.2301208,0.0619354839 Z" id="Path"></path>
                        <path d="M1.90982416,7.94479892 C1.90962416,7.94469892 1.90952416,7.94469892 1.90932416,7.94459892 C1.88612416,7.93709892 1.86252416,7.93019892 1.83942416,7.92259892 C1.86272416,7.93029892 1.88642416,7.93729892 1.90982416,7.94479892 Z" id="Path"></path>
                    </g>
                    <path d="M20.3178662,37.949285 C20.079557,38.1998117 19.7480194,38.521537 19.4860035,38.7471176 C19.2812564,38.9233386 18.9933142,39.1422609 18.7645941,39.2862561 C18.553543,39.4190655 18.273059,39.5980385 18.056503,39.7217039 C17.8744859,39.8255721 17.6248116,39.9514569 17.4367569,40.0440506 C17.0610912,40.2291492 16.537681,40.427653 16.1462109,40.576087 C16.0970219,40.5932208 16.046945,40.6093781 15.9974008,40.6259793 C16.0460571,40.6096444 16.0949798,40.5940198 16.1432809,40.5771523 C16.0749135,40.6010331 16.0066349,40.6247364 15.9383562,40.6486172 C15.917846,40.6557193 15.8905878,40.6653072 15.8700776,40.6724981 C15.8495674,40.6796002 15.8223092,40.689188 15.801799,40.6963789 C15.6878829,40.7360619 15.5740556,40.7757449 15.4602283,40.8155167 C15.4383862,40.8231515 15.4156563,40.8294546 15.3938142,40.836823 C15.2603646,40.8823652 15.1255831,40.9259544 14.9890258,40.9669691 C14.9667398,40.9736273 14.9450754,40.9809957 14.9227006,40.9875652 C14.7654555,41.0337288 14.6059907,41.0764302 14.4451053,41.1166459 C14.4028419,41.1272103 14.3601344,41.1370645 14.3176046,41.1472737 C14.1893935,41.1779903 14.0602945,41.2067539 13.93013,41.2336531 C13.888488,41.2422644 13.8471124,41.2513196 13.8052929,41.2595758 C13.6407672,41.2919791 13.475176,41.3218079 13.3082529,41.3482633 C13.2793077,41.3527909 13.250185,41.3565195 13.2211511,41.3609583 C13.0792665,41.3824422 12.9367604,41.4017954 12.793544,41.419018 C12.7456868,41.4247884 12.6977408,41.4304701 12.649706,41.4357079 C12.4962789,41.4526642 12.3424078,41.4674899 12.188004,41.4795634 C12.1697135,41.4810726 12.1516006,41.4830257 12.1333989,41.4843573 C11.9620364,41.4970524 11.7901412,41.5061963 11.6178908,41.5129433 C11.5717206,41.5148076 11.5255504,41.5158729 11.4793802,41.5172934 C11.342379,41.5213771 11.205289,41.5235965 11.0681102,41.5239516 C11.0261131,41.5240404 10.984116,41.5246618 10.9421189,41.5243955 C10.7703124,41.5234189 10.5985948,41.5196903 10.4270547,41.5127658 C10.3937589,41.5114341 10.3605519,41.5091259 10.3272561,41.507528 C10.1850163,41.5008697 10.0432205,41.4920809 9.90151353,41.4812502 C9.85330119,41.4775216 9.80500005,41.4738817 9.7568765,41.4697093 C9.59590231,41.4558602 9.43554965,41.440058 9.27581851,41.4208823 C9.26480869,41.4195506 9.25353251,41.4186629 9.24252269,41.4172425 C9.0728472,41.3965576 8.90441475,41.3719665 8.7367814,41.3453337 C8.69105514,41.338054 8.64559525,41.3302417 8.59995778,41.3225181 C8.46633056,41.2998802 8.33359123,41.2753779 8.201651,41.2489226 C8.16329422,41.2411991 8.12475986,41.2341857 8.08658065,41.2261959 C7.92312038,41.1919282 7.76116952,41.1549973 7.60081685,41.1147816 C7.56681072,41.1062591 7.53333733,41.0968488 7.49950878,41.0880599 C7.36916674,41.0543249 7.23997897,41.0184593 7.11212302,40.9808182 C7.06826133,40.9679456 7.02448843,40.955073 6.98080432,40.941579 C6.82542383,40.8938174 6.67128638,40.8441914 6.52007897,40.7905705 C6.51883593,40.7901267 6.51759289,40.7897716 6.51626105,40.7893277 C6.51581711,40.7891501 6.5151068,40.7889726 6.51466285,40.788795 C6.51448528,40.7887062 6.5143077,40.7887062 6.51421891,40.7886175 C6.49397505,40.7815154 6.46795992,40.7721939 6.44807122,40.7651805 C6.4378605,40.7615407 6.42418702,40.7567468 6.41388751,40.7531069 C6.39337728,40.7459161 6.36611911,40.7361507 6.34569767,40.728871 C6.32518745,40.7215914 6.29792927,40.7119147 6.27750784,40.7046351 C6.26729712,40.7009953 6.25362363,40.6962013 6.24350171,40.6924727 C6.22299148,40.6851931 6.1957333,40.6755165 6.17531187,40.6682368 C6.15480164,40.6609571 6.12754347,40.6512805 6.10712203,40.6440009 C6.09691131,40.640361 6.08323783,40.6355671 6.07293833,40.6318385 C6.0524281,40.6245589 6.02516992,40.6148822 6.00474849,40.6076026 C5.98423826,40.6003229 5.95698009,40.5906463 5.93655865,40.5833667 C5.92634793,40.5797268 5.91267445,40.5749329 5.90237494,40.5712043 C5.88195351,40.5640134 5.85460654,40.554248 5.83418511,40.5469684 C5.89003329,40.5668543 5.94668058,40.5854973 6.00315029,40.6045842 C5.9457039,40.5851422 5.88799115,40.5660553 5.83125508,40.5459031 C5.59818434,40.4557951 5.28591396,40.3395869 5.05603963,40.2418442 C4.86443329,40.1603476 4.61564693,40.0365934 4.42697063,39.9485273 C4.21103614,39.8477662 3.93339341,39.6914312 3.73059968,39.5663453 C3.40199214,39.3638466 2.97980116,39.0682215 2.67170385,38.8358939 C2.49004187,38.6989121 2.26487334,38.4942827 2.10061397,38.3368823 C1.91930714,38.1633247 1.68703551,37.9208766 1.52961288,37.7253912 C1.36277863,37.5183648 1.16291493,37.2401399 1.00531472,37 C0.920254999,38.5170095 1.85600069,40.0531946 3.82711316,41.2313449 C7.67726405,43.5326042 14.0094185,43.5965231 17.9703778,41.374186 C20.0628647,40.2001194 21.0741697,38.6229196 20.9957691,37.0568168 C20.9500429,37.1286369 20.9074242,37.1930885 20.8717311,37.2462655 C20.7215891,37.4695379 20.5027246,37.7549537 20.3178662,37.949285 Z" id="Path" fill="#57565C"></path>
                    <g id="Group" transform="translate(0.000000, 30.000000)" fill="#3E3D43">
                        <path d="M5.4102622,3.35515 C5.3791622,3.33455 5.3502622,3.31315 5.3197622,3.29235 C5.3502622,3.31315 5.3791622,3.33455 5.4102622,3.35515 Z" id="Path"></path>
                        <path d="M17.7708386,3.67524477 C17.7387386,3.69814477 17.7085386,3.72154477 17.6757386,3.74414477 C17.7085386,3.72144477 17.7388386,3.69804477 17.7708386,3.67524477 L17.7708386,3.67524477 Z" id="Path"></path>
                        <path d="M21.9815772,4.26287791 C21.9724553,4.13188953 21.9507236,3.95790698 21.9295285,3.82822674 C21.9072602,3.69226744 21.8741707,3.51104651 21.8367886,3.37813953 C21.7621138,3.11311047 21.6587317,2.75843023 21.5402358,2.50918605 C21.4320244,2.2818314 21.2770407,1.98340116 21.151122,1.76485465 C21.075374,1.63334302 20.956252,1.46860465 20.8686992,1.3443314 C20.733748,1.15273256 20.5365528,0.9075 20.3715528,0.739622093 C20.2526992,0.618662791 20.0985203,0.453139535 19.9734065,0.338372093 C19.8761951,0.249331395 19.7586829,0.145639535 19.6417073,0.0464825581 C19.646626,0.0715988372 19.6515447,0.0968023256 19.6558374,0.121918605 C22.0277236,2.34671512 21.477813,5.2734593 18.0442033,7.15238372 C14.0444959,9.34098837 7.65054472,9.27802326 3.76271545,7.01171512 C0.485252033,5.10113372 0.0355934959,2.23465116 2.37143902,0.0704651163 C2.37546341,0.0477034884 2.37868293,0.0250290698 2.3832439,0.00218023256 C2.13426829,0.218895349 1.83619512,0.493430233 1.62245528,0.719127907 C1.43939024,0.912383721 1.21849593,1.19110465 1.06574797,1.40799419 C0.896634146,1.64825581 0.69595122,1.98619186 0.566813008,2.2490407 C0.443756098,2.49968023 0.317926829,2.85087209 0.227780488,3.11459302 C0.175195122,3.26843023 0.124398374,3.47991279 0.0988211382,3.64011628 C0.0572357724,3.90008721 0.00965853659,4.24918605 0.00429268293,4.5122093 C0.000894308943,4.67581395 0.000536585366,4.89462209 0.0187804878,5.05718023 C0.0333577236,5.18755814 0.0496341463,5.36197674 0.0709186992,5.49148256 C0.0934552846,5.62840116 0.127260163,5.81093023 0.164552846,5.94479651 C0.238154472,6.20938953 0.353162602,6.55866279 0.460926829,6.8119186 C0.511186992,6.93 0.575934959,7.0659593 0.645422764,7.19921512 C0.587292683,7.37110465 0.528357724,7.55860465 0.495626016,7.71418605 C0.448585366,7.93770349 0.411382114,8.24162791 0.406105691,8.46976744 C0.401186992,8.68630814 0.420325203,8.97584302 0.451804878,9.19020349 C0.481495935,9.39305233 0.545528455,9.66052326 0.609382114,9.85569767 C0.685845528,10.089157 0.818292683,10.3909012 0.930796748,10.6098837 C1.02613008,10.7953779 1.18290244,11.0273547 1.29996748,11.2005523 C1.408,11.3602326 1.57103252,11.5613372 1.70508943,11.7010465 C1.92902439,11.9344186 2.24578862,12.2289244 2.49038211,12.4417151 C2.65323577,12.5834302 2.89139024,12.7481686 3.06989431,12.8705233 C3.2279187,12.9788372 3.44693496,13.1113953 3.61121951,13.2103779 C3.8034065,13.3262791 4.06686992,13.4706105 4.27139837,13.564186 C4.4697561,13.6549709 4.73241463,13.7802907 4.93381301,13.8647093 C5.1320813,13.9477326 5.39849593,14.0546512 5.60302439,14.1218895 C5.81041463,14.1900872 6.08595122,14.2840116 6.29557724,14.3456686 C6.51423577,14.4100291 6.80819512,14.4881686 7.02998374,14.5414535 C7.63873984,14.6879651 8.11093496,14.7631395 8.52598374,14.825407 C8.69008943,14.85 9.28587805,14.9333721 10.0650894,14.9748837 C10.2981463,14.9872674 10.6093659,14.9970349 10.8428699,14.9993023 C11.0765528,15.0015698 11.3882195,14.9931105 11.621813,14.9902326 C11.8563008,14.9873547 12.1684146,14.9652035 12.4020976,14.9471512 C12.6332764,14.9292733 12.9404715,14.8937791 13.1711138,14.8706686 C13.404439,14.8473837 13.7143171,14.8023837 13.9444228,14.7582558 C14.1677317,14.715436 14.4666098,14.662936 14.6885772,14.614186 C14.9176992,14.5638663 15.2215854,14.4896512 15.4478455,14.427907 C15.8700488,14.3127035 16.421748,14.1218895 16.831878,13.9707558 C17.0472276,13.8913953 17.3266992,13.7659012 17.5345366,13.6692733 C17.7223415,13.5818895 17.9656829,13.4514244 18.1502683,13.3575 C18.3534553,13.2540698 18.6122683,13.0943023 18.8015041,12.9683721 C18.9550569,12.8661628 19.1583333,12.7274128 19.3038374,12.6146512 C19.4767967,12.4806977 19.6969756,12.2897093 19.8622439,12.1469477 C20.0381545,11.9949419 20.2513577,11.7686337 20.397935,11.5895058 C20.5763496,11.3715698 20.806813,11.072093 20.943374,10.8270349 C21.0486341,10.6382267 21.1752683,10.3792151 21.2622846,10.181686 C21.3116504,10.0696221 21.3616423,9.91386628 21.3969675,9.79700581 C21.4599268,9.58848837 21.5100081,9.30165698 21.544439,9.08686047 C21.5625041,8.97453488 21.5633984,8.82218023 21.5715366,8.70872093 C21.5869187,8.49305233 21.5659919,8.20194767 21.5260163,7.98924419 C21.4882764,7.78866279 21.4257642,7.52319767 21.3695122,7.32680233 C21.3623577,7.30186047 21.3534146,7.27465116 21.3442033,7.24726744 C21.3752358,7.18875 21.4058211,7.12944767 21.4345285,7.06866279 C21.5537398,6.81688953 21.6947724,6.47162791 21.7725772,6.20494186 C21.818187,6.04857558 21.8696098,5.83744186 21.9018049,5.67793605 C21.9280081,5.54869186 21.9555528,5.37488372 21.9670894,5.24363372 C21.9927561,4.94834302 22.0130569,4.71575581 21.9815772,4.26287791 Z M10.9739756,11.9940071 C11.1991626,11.9948071 11.4242602,11.9907071 11.6490894,11.9817071 C11.4243496,11.9907071 11.1991626,11.9948071 10.9739756,11.9940071 Z M10.9669106,11.9934401 C10.8566423,11.9930401 10.746374,11.9914401 10.6361951,11.9887401 C10.746374,11.9914401 10.8566423,11.9930401 10.9669106,11.9934401 Z M15.7970732,11.3099523 C15.8220244,11.3011523 15.8473333,11.2929523 15.8721951,11.2840523 C15.8472439,11.2930523 15.8218455,11.3012523 15.7968049,11.3100523 C15.7709593,11.3191523 15.7447561,11.3280523 15.7186423,11.3370523 C15.744935,11.3279523 15.7711382,11.3191523 15.7970732,11.3099523 Z M15.5664309,11.3763012 C15.5150081,11.3933012 15.4628699,11.4091012 15.411,11.4255012 C15.4627805,11.4091012 15.5150081,11.3933012 15.5664309,11.3763012 Z M15.2560163,11.4622924 C15.205935,11.4774924 15.1552276,11.4914924 15.1046992,11.5059924 C15.1551382,11.4913924 15.205935,11.4773924 15.2560163,11.4622924 Z M14.9418455,11.5413762 C14.8845203,11.5571762 14.826748,11.5716762 14.769065,11.5866762 C14.8266585,11.5716762 14.8846098,11.5570762 14.9418455,11.5413762 Z M14.624187,11.6140174 C14.5624797,11.6294174 14.5003252,11.6435174 14.4382602,11.6580174 C14.5002358,11.6435174 14.5624797,11.6295174 14.624187,11.6140174 Z M14.3028618,11.6808506 C14.2452683,11.6937506 14.1872276,11.7054506 14.1295447,11.7175506 C14.1873171,11.7054506 14.2453577,11.6938506 14.3028618,11.6808506 Z M13.9784959,11.7406099 C13.9093659,11.7544099 13.8396098,11.7669099 13.770122,11.7797099 C13.8396098,11.7669099 13.909187,11.7545099 13.9784959,11.7406099 Z M13.6518049,11.7943401 C13.583748,11.8062401 13.5152439,11.8169401 13.4469187,11.8278401 C13.5152439,11.8169401 13.583748,11.8063401 13.6518049,11.7943401 Z M13.3219837,11.8420407 C13.2651951,11.8507407 13.2079593,11.8581407 13.1509919,11.8660407 C13.2079593,11.8581407 13.2651951,11.8507407 13.3219837,11.8420407 Z M12.990374,11.8827634 C12.926252,11.8910634 12.8618618,11.8980634 12.7976504,11.9054634 C12.8619512,11.8980634 12.9263415,11.8910634 12.990374,11.8827634 Z M12.6572439,11.9168151 C12.5708537,11.9260151 12.4841057,11.9338151 12.3973577,11.9416151 C12.4841057,11.9338151 12.5707642,11.9260151 12.6572439,11.9168151 Z M12.3224146,11.9451913 C12.2489024,11.9513913 12.1752114,11.9561913 12.1016098,11.9612913 C12.1752114,11.9560913 12.2489919,11.9512913 12.3224146,11.9451913 Z M11.9861545,11.96695 C11.9305285,11.97035 11.874813,11.97255 11.8190976,11.97555 C11.8747236,11.97275 11.9305285,11.97055 11.9861545,11.96695 Z M10.6356585,11.9898145 C10.5233333,11.9870145 10.4110081,11.9829145 10.2988618,11.9777145 C10.4110081,11.9829145 10.5233333,11.9869145 10.6356585,11.9898145 Z M10.2346504,11.9760977 C10.1436992,11.9714977 10.0529268,11.9665977 9.9622439,11.9602977 C10.0529268,11.9665977 10.1437886,11.9714977 10.2346504,11.9760977 Z M9.87728455,11.9566634 C9.79357724,11.9503634 9.70986992,11.9442634 9.62625203,11.9365634 C9.70978049,11.9442634 9.7934878,11.9505634 9.87728455,11.9566634 Z M9.57590244,11.9352494 C9.48110569,11.9262494 9.3864878,11.9169494 9.29204878,11.9063494 C9.3864878,11.9170494 9.48110569,11.9263494 9.57590244,11.9352494 Z M9.17927642,11.8976599 C9.10585366,11.8887599 9.03225203,11.8802599 8.95909756,11.8701599 C9.03234146,11.8800599 9.10585366,11.8887599 9.17927642,11.8976599 Z M8.85562602,11.8608052 C8.77978862,11.8499052 8.70386179,11.8393052 8.62829268,11.8273052 C8.70377236,11.8392052 8.77969919,11.8499052 8.85562602,11.8608052 Z M8.53000813,11.8173163 C8.45300813,11.8046163 8.3759187,11.7919163 8.29927642,11.7779163 C8.37600813,11.7919163 8.45300813,11.8044163 8.53000813,11.8173163 Z M8.22281301,11.77055 C8.13946341,11.75485 8.05611382,11.73915 7.97321138,11.72195 C8.05602439,11.73905 8.13937398,11.75485 8.22281301,11.77055 Z M7.86714634,11.7079506 C7.79461789,11.6923506 7.72208943,11.6771506 7.65009756,11.6604506 C7.72208943,11.6771506 7.79470732,11.6923506 7.86714634,11.7079506 Z M7.51818699,11.6384297 C7.4554065,11.6232297 7.39235772,11.6085297 7.32993496,11.5925297 C7.39235772,11.6085297 7.45531707,11.6231297 7.51818699,11.6384297 Z M7.19927642,11.5679779 C7.13712195,11.5513779 7.07478862,11.5352779 7.0130813,11.5177779 C7.07487805,11.5352779 7.13730081,11.5513779 7.19927642,11.5679779 Z M6.88215447,11.4906855 C6.82143089,11.4727855 6.76052846,11.4554855 6.70025203,11.4367855 C6.76052846,11.4553855 6.82143089,11.4727855 6.88215447,11.4906855 Z M6.57594309,11.4089988 C6.51423577,11.3892988 6.45226016,11.3697988 6.391,11.3491988 C6.45234959,11.3698988 6.51423577,11.3892988 6.57594309,11.4089988 Z M6.27152033,11.3204651 C6.23082927,11.3062651 6.19022764,11.2921651 6.14980488,11.2776651 C6.12887805,11.2701651 6.10768293,11.2631651 6.08684553,11.2554651 C6.10750407,11.2630651 6.12860976,11.2699651 6.14935772,11.2774651 C6.18986992,11.2920651 6.23065041,11.3062651 6.27152033,11.3204651 Z M18.0123659,11.9665988 C14.0227642,14.1497093 7.64473171,14.0868314 3.76682927,11.8262791 C1.78137398,10.6689244 0.83895122,9.15985465 0.924626016,7.66962209 C1.08327642,7.90561047 1.2846748,8.17883721 1.45271545,8.3822093 C1.61127642,8.57424419 1.84531707,8.81241279 2.02784553,8.98290698 C2.19329268,9.13752907 2.42008943,9.33854651 2.60306504,9.47311047 C2.91339024,9.70133721 3.33863415,9.99174419 3.66961789,10.1906686 C3.87396748,10.3135465 4.15343902,10.4671221 4.37102439,10.5661047 C4.56106504,10.6526163 4.81173984,10.7740988 5.00464228,10.8542442 C5.23617886,10.9502616 5.55079675,11.0645058 5.78546341,11.152936 C5.84278862,11.1728198 5.90082927,11.1914826 5.95860163,11.2105814 C5.90181301,11.1918314 5.84466667,11.1734302 5.78841463,11.1539826 C5.80907317,11.1611337 5.83652846,11.1706395 5.85709756,11.1777907 C5.86738211,11.1813663 5.88115447,11.1860756 5.89152846,11.1897384 C5.91209756,11.1968895 5.93964228,11.2063953 5.96021138,11.2135465 C5.98078049,11.2206977 6.0083252,11.2302035 6.02889431,11.2373547 C6.03917886,11.2409302 6.05295122,11.2456395 6.0633252,11.2493023 C6.08389431,11.2563663 6.11143902,11.2659593 6.13200813,11.2731105 C6.15257724,11.2801744 6.18012195,11.2897674 6.20069106,11.2969186 C6.21097561,11.3004942 6.22474797,11.3052907 6.23494309,11.3088663 C6.25560163,11.3160174 6.28305691,11.3255233 6.30362602,11.3326744 C6.32428455,11.3398256 6.35173984,11.3493314 6.37230894,11.3564826 C6.3825935,11.3600581 6.39636585,11.3647674 6.40673984,11.368343 C6.42677236,11.3752326 6.45297561,11.3843895 6.47336585,11.3913663 C6.47345528,11.3913663 6.47372358,11.3914535 6.47381301,11.3915407 C6.47426016,11.3917151 6.47497561,11.3918895 6.47542276,11.392064 C6.4766748,11.3925 6.47792683,11.3928488 6.47926829,11.3932849 C6.63156911,11.4459593 6.78682114,11.4947965 6.9433252,11.5416279 C6.98723577,11.5547093 7.0313252,11.5674419 7.0755935,11.5801744 C7.20446341,11.6171512 7.33449593,11.6523837 7.46578049,11.6855233 C7.49985366,11.694157 7.53356911,11.7034012 7.56782114,11.7117733 C7.72933333,11.7511047 7.89245528,11.7875581 8.05709756,11.8212209 C8.09546341,11.8290698 8.13436585,11.8360465 8.173,11.8435465 C8.30589431,11.8695349 8.4395935,11.8936047 8.57418699,11.915843 C8.62006504,11.9234302 8.66585366,11.9311919 8.712,11.9382558 C8.88084553,11.9644186 9.05058537,11.9885756 9.22139837,12.0088953 C9.2324878,12.0102035 9.24384553,12.0111628 9.25493496,12.0124709 C9.41564228,12.0312209 9.57733333,12.0468314 9.73947154,12.060436 C9.78794309,12.0645349 9.8365935,12.0681977 9.88515447,12.0717733 C10.0277073,12.0823256 10.1707073,12.0909593 10.3139756,12.0975872 C10.3475122,12.099157 10.3809593,12.1013372 10.4144959,12.1027326 C10.587187,12.1095349 10.7602358,12.1131977 10.9332846,12.114157 C10.9755854,12.1144186 11.0178862,12.1138081 11.060187,12.1137209 C11.1982683,12.1133721 11.336439,12.1111919 11.4744309,12.1071802 C11.520935,12.1057849 11.5675285,12.1047384 11.6139431,12.102907 C11.7873496,12.0962791 11.9606667,12.0873837 12.1331789,12.0748256 C12.1516016,12.0734302 12.169935,12.0715116 12.1881789,12.0701163 C12.3437886,12.0582558 12.4987724,12.0436047 12.6532195,12.0270349 C12.7016016,12.0218023 12.7498049,12.0163081 12.7980976,12.0106395 C12.9422602,11.9937209 13.0858862,11.9747093 13.2287967,11.9536047 C13.2580407,11.9492442 13.287374,11.9456686 13.3165285,11.9411337 C13.4846585,11.9151453 13.6515366,11.885843 13.8171626,11.8540116 C13.8592846,11.8459012 13.9009593,11.837093 13.9429024,11.8285465 C14.0740081,11.8021221 14.2040407,11.7737791 14.3331789,11.7436919 C14.3760163,11.7336628 14.4189431,11.7239826 14.4616016,11.7136047 C14.6236504,11.6740988 14.7842683,11.6321512 14.9426504,11.5868023 C14.9650976,11.5803488 14.9870081,11.5731105 15.0094553,11.5665698 C15.147,11.5262791 15.2827561,11.4834593 15.4171707,11.4387209 C15.4392602,11.4313081 15.4621545,11.4252035 15.484065,11.4177907 C15.5987154,11.3788081 15.7134553,11.3398256 15.8281057,11.3007558 C15.8487642,11.2937791 15.8762195,11.2843605 15.896878,11.2772965 C15.9175366,11.2703198 15.9449919,11.2609012 15.9656504,11.2538372 C16.0345122,11.2303779 16.1032846,11.2070058 16.1720569,11.1836337 C16.1234959,11.2001163 16.0741301,11.2156395 16.025122,11.2315988 C16.0751138,11.2152907 16.1254634,11.1994186 16.1750081,11.1825872 C16.5693984,11.0365988 17.0965935,10.841686 17.4748862,10.6599419 C17.6642114,10.5689826 17.9157805,10.4453198 18.0991138,10.3432849 C18.3172358,10.2218895 18.5998374,10.0461628 18.8123252,9.91552326 C19.0426992,9.77406977 19.3327236,9.55901163 19.5389512,9.38590116 C19.8029512,9.16430233 20.1367967,8.84825581 20.3768293,8.60215116 C20.5630244,8.41125 20.7834715,8.13087209 20.9343415,7.91215116 C20.9702927,7.85991279 21.0132195,7.79659884 21.0592764,7.72604651 C21.1386016,9.26389535 20.1199837,10.8132558 18.0123659,11.9665988 Z" id="Shape"></path>
                    </g>
                    <path d="M19.608364,30.5466926 L19.6042018,32.0547975 C19.6042018,32.0653734 19.6028734,32.0758589 19.6027848,32.0864348 C19.6022535,32.1289192 19.5995082,32.1714036 19.5972057,32.2139784 C19.5949917,32.2534798 19.5933091,32.2929812 19.5895896,32.3323923 C19.5856045,32.3748766 19.5793169,32.4172706 19.573472,32.4598454 C19.5680699,32.499166 19.5632878,32.5383963 19.5563802,32.5776265 C19.5488528,32.6201109 19.5391113,32.6624145 19.5297241,32.7048085 C19.521134,32.743858 19.5132523,32.782817 19.5031566,32.8217761 C19.4921754,32.8640797 19.4788031,32.9061121 19.4660506,32.9482349 C19.4542724,32.9870132 19.4432911,33.0258819 19.4299188,33.0644794 C19.4154838,33.1065118 19.3985691,33.1482731 19.3822744,33.1901247 C19.3673966,33.228451 19.3532272,33.2668678 19.3368439,33.3051941 C19.318778,33.3470457 19.2982324,33.3885358 19.2784839,33.4300258 C19.260418,33.4678098 19.2433262,33.5057746 19.2237548,33.5433778 C19.2022351,33.5849582 19.1779701,33.6259963 19.1545021,33.6673056 C19.1334252,33.7044568 19.1133225,33.7416985 19.0907401,33.7785785 C19.0655009,33.8198878 19.0375165,33.8605643 19.0105061,33.9014216 C18.9863297,33.9377593 18.9633931,33.9743682 18.9378882,34.0104347 C18.9090182,34.0512017 18.8773143,34.0915166 18.8465845,34.1318316 C18.8194856,34.1674461 18.793538,34.2032415 18.7650222,34.2384945 C18.7457165,34.262358 18.7246396,34.2859504 18.7047139,34.3096332 C18.6945297,34.3216554 18.6839027,34.3334968 18.6735414,34.345519 C18.6735414,34.345519 18.6734528,34.345519 18.6734528,34.3454286 C18.5594781,34.4780341 18.4354078,34.6083797 18.3003562,34.7357425 C18.3004447,34.7358329 18.3005333,34.7359233 18.3006218,34.7360136 C18.2780394,34.7573462 18.2543944,34.7783172 18.231192,34.7995594 C18.1964771,34.8312871 18.1631792,34.8633764 18.1271359,34.8947425 C18.080997,34.9348767 18.0314928,34.9741973 17.9831399,35.0137892 C17.946831,35.0434378 17.9122932,35.0735385 17.8747444,35.1027352 C17.8223178,35.1435925 17.7666146,35.1835459 17.7117969,35.2237704 C17.6751337,35.2507073 17.6401532,35.2780962 17.6024273,35.3045812 C17.5400821,35.3484214 17.4742832,35.3910866 17.4090157,35.4339325 C17.3758063,35.4557171 17.344368,35.4782247 17.310273,35.4997381 C17.2095821,35.5636455 17.1056145,35.6263777 16.9983703,35.6878445 C13.5923249,37.6386909 8.14739907,37.5824669 4.83673113,35.56238 C4.73409192,35.4997381 4.63481793,35.4359212 4.53864349,35.3711099 C4.50711669,35.3498677 4.47798097,35.3277216 4.44707408,35.3062082 C4.38393193,35.2621872 4.32034698,35.2182565 4.26012726,35.1733315 C4.22452677,35.1466658 4.19149448,35.1191866 4.15686814,35.0922497 C4.10453012,35.0514827 4.05130651,35.010987 4.00118244,34.9696777 C3.96522772,34.9399387 3.93201831,34.9092957 3.89739197,34.879195 C3.85187294,34.8396936 3.80520266,34.8004634 3.76180903,34.7604196 C3.73763258,34.7381831 3.71558154,34.7154946 3.69211356,34.6929869 L3.69220211,34.6928965 C3.55759332,34.5643587 3.43272595,34.4333803 3.31928261,34.2997805 C3.31910549,34.2998708 3.31892838,34.3000516 3.31875126,34.300142 C3.3086556,34.2883006 3.29988832,34.2762785 3.28996977,34.2643467 C3.27881141,34.2509686 3.26836152,34.2373194 3.25738028,34.2239413 C3.22461366,34.1838071 3.19105002,34.1437634 3.16014313,34.1032676 C3.13348705,34.0681954 3.1093106,34.0325808 3.08407145,33.9973279 C3.0552014,33.9569225 3.02553433,33.9167883 2.99843546,33.8760214 C2.97452468,33.8400453 2.95318211,33.8037076 2.93077683,33.7674603 C2.90562623,33.7268741 2.87959006,33.6861976 2.8562992,33.6453403 C2.83539941,33.6087314 2.8168907,33.571761 2.79740785,33.5349713 C2.77571103,33.4940236 2.75339431,33.4530759 2.73346867,33.4117666 C2.71549131,33.374525 2.69999359,33.3371026 2.68352172,33.2995898 C2.66536724,33.2582805 2.64659286,33.217152 2.63020955,33.1756619 C2.61533174,33.137878 2.60275644,33.1000036 2.58929556,33.0621292 C2.57459486,33.0205488 2.55927426,32.9792395 2.54634473,32.9375686 C2.5344779,32.8994231 2.52482503,32.8610968 2.5144637,32.82268 C2.50321678,32.7810092 2.49143851,32.7396095 2.4818742,32.6978483 C2.47310691,32.6593412 2.46646503,32.6206533 2.45911468,32.5820558 C2.45123299,32.5402945 2.44290849,32.4986237 2.43679796,32.4569528 C2.43113022,32.4182649 2.42741077,32.3794866 2.42324852,32.3407084 C2.41873205,32.2989471 2.41377277,32.2570955 2.41102746,32.2152439 C2.40845927,32.1763752 2.4077508,32.1375065 2.40677666,32.0985474 C2.40597963,32.0675429 2.40323432,32.0367191 2.40332288,32.0058049 L2.40748513,30.4976999 C2.40739657,30.5286141 2.41005332,30.5595283 2.4109389,30.5904424 C2.40544828,30.3932969 2.41864349,30.1963321 2.45167578,30 C0.138618423,32.2431751 0.583890156,35.2142793 3.82937911,37.1945935 C7.67919071,39.543618 14.0107635,39.6089716 17.9715388,37.3403963 C21.3716507,35.3929848 21.9161964,32.3594196 19.56745,30.0533315 C19.5956116,30.227879 19.6093382,30.4029688 19.6069471,30.5781491 C19.6071242,30.567754 19.6082755,30.5572685 19.608364,30.5466926 Z" id="Path" fill="#57565C"></path>
                    <g id="Group" transform="translate(2.000000, 27.000000)" fill="#3E3D43">
                        <path d="M0.125956122,3.69208333 C0.132856122,3.73066667 0.142256122,3.76908333 0.151156122,3.8075 C0.142256122,3.76908333 0.132856122,3.73058333 0.125956122,3.69208333 Z" id="Path"></path>
                        <path d="M0.101559184,3.46933333 C0.104659184,3.50791667 0.110259184,3.54641667 0.115359184,3.585 C0.110159184,3.54641667 0.104659184,3.50783333 0.101559184,3.46933333 Z" id="Path"></path>
                        <path d="M16.8933781,3.80325 C16.9011781,3.76708333 16.9066781,3.73091667 16.9126781,3.69466667 C16.9066781,3.73083333 16.9011781,3.76708333 16.8933781,3.80325 Z" id="Path"></path>
                        <path d="M16.8704418,3.9205 C16.8616418,3.95349578 16.8534418,3.98649156 16.8432418,4.01923418 C16.8433418,4.01965612 16.8434418,4.01999367 16.8436418,4.0205 C16.8539418,3.98725105 16.8615418,3.95383333 16.8704418,3.9205 Z" id="Path"></path>
                        <path d="M16.9266133,3.57716667 C16.9308133,3.54075 16.9328133,3.50433333 16.9352133,3.468 C16.9328133,3.5045 16.9308133,3.54083333 16.9266133,3.57716667 Z" id="Path"></path>
                        <path d="M0.188394898,3.98335 C0.182794898,3.96105 0.175894898,3.93905 0.170594898,3.91675 C0.175894898,3.93975 0.181894898,3.96275 0.187694898,3.98575 C0.187994898,3.98505 0.188194898,3.98425 0.188394898,3.98335 Z" id="Path"></path>
                        <path d="M0.0915918367,3.36175 C0.0927193878,3.39758333 0.0933265306,3.4335 0.0958418367,3.46933333 C0.0985306122,3.50791667 0.103387755,3.54641667 0.107811224,3.585 C0.111887755,3.62066667 0.115530612,3.6565 0.121081633,3.69208333 C0.127066327,3.73066667 0.135219388,3.76908333 0.142938776,3.8075 C0.150137755,3.84308333 0.156642857,3.87875 0.165229592,3.91416667 C0.169739796,3.93275 0.175637755,3.95108333 0.180668367,3.96966667 C0.185959184,3.98958333 0.191423469,4.0095 0.197234694,4.02941667 C0.207382653,4.06466667 0.216923469,4.1 0.228459184,4.13525 C0.241122449,4.17366667 0.256127551,4.21183333 0.27052551,4.25008333 C0.283709184,4.285 0.29602551,4.32 0.310596939,4.35475 C0.326642857,4.393 0.345117347,4.431 0.362897959,4.46908333 C0.379030612,4.50358333 0.394295918,4.53808333 0.411729592,4.57233333 C0.431244898,4.61041667 0.453188776,4.64816667 0.474352041,4.68608333 C0.493346939,4.72008333 0.51147449,4.75408333 0.531857143,4.78775 C0.554668367,4.82541667 0.580168367,4.86291667 0.60480102,4.90033333 C0.626744898,4.93366667 0.647647959,4.96716667 0.671066327,5.00041667 C0.697520408,5.03791667 0.726663265,5.075 0.754938776,5.11225 C0.779658163,5.14483333 0.803336735,5.17766667 0.829443878,5.20991667 C0.859627551,5.24725 0.892413265,5.284 0.924418367,5.321 C0.951826531,5.35258333 0.978020408,5.38458333 1.00672959,5.41591667 C1.04072959,5.453 1.0775051,5.4895 1.11332653,5.52616667 C1.14325,5.55683333 1.17187245,5.58775 1.20309694,5.618 C1.24117347,5.655 1.28228571,5.69133333 1.32235714,5.72791667 C1.35444898,5.75716667 1.38515306,5.78675 1.41863265,5.81575 C1.46139286,5.85291667 1.50727551,5.88925 1.55211735,5.92583333 C1.58594388,5.95341667 1.61829592,5.9815 1.65325,6.00875 C1.70216837,6.047 1.75438265,6.08425 1.80564286,6.12175 C1.83955612,6.14658333 1.87190816,6.17191667 1.90677551,6.1965 C1.9144949,6.20191667 1.92290816,6.20708333 1.93071429,6.2125 C1.93661224,6.21658333 1.94303061,6.22058333 1.94901531,6.22475 C1.99489796,6.25641667 2.04234184,6.28783333 2.08995918,6.319 C2.12022959,6.33883333 2.14876531,6.35925 2.17964286,6.37883333 C2.21806633,6.40325 2.25926531,6.42675 2.29872959,6.45075 C2.35597449,6.48566667 2.4120051,6.52091667 2.47159184,6.55516667 C5.71408163,8.4175 11.0468776,8.46933333 14.3827806,6.67083333 C14.4879031,6.61416667 14.5896429,6.55633333 14.6882602,6.49741667 C14.6943316,6.49375 14.6998827,6.48991667 14.7058673,6.48633333 C14.7329286,6.47008333 14.7583418,6.45316667 14.7849694,6.43666667 C14.8488929,6.39716667 14.9134235,6.35783333 14.974398,6.31741667 C15.0028469,6.29858333 15.0290408,6.279 15.0568827,6.26 C15.064949,6.2545 15.0728418,6.24883333 15.0808214,6.24333333 C15.0812551,6.243 15.0817755,6.24266667 15.0823827,6.24225 C15.1357245,6.20541667 15.1900204,6.16883333 15.2411071,6.13133333 C15.2780561,6.10408333 15.3123163,6.07616667 15.3481378,6.04858333 C15.3952347,6.01233333 15.4433724,5.97633333 15.4883878,5.9395 C15.5237755,5.91058333 15.556301,5.881 15.590301,5.85175 C15.6325408,5.81541667 15.6758214,5.77941667 15.7160663,5.74258333 C15.7492857,5.71216667 15.7799031,5.68108333 15.8117347,5.65025 C15.849551,5.61375 15.8883214,5.57766667 15.9242296,5.54075 C15.9550204,5.50916667 15.9831224,5.47683333 16.0126122,5.44491667 C16.0464388,5.40816667 16.0811327,5.37158333 16.1131378,5.3345 C16.1411531,5.302 16.1664796,5.26891667 16.1930204,5.23616667 C16.2232041,5.19891667 16.2541684,5.16183333 16.2824439,5.12425 C16.3074235,5.091 16.3300612,5.05725 16.3535663,5.02375 C16.3801071,4.98608333 16.4075153,4.94841667 16.4322347,4.9105 C16.454352,4.8765 16.4740408,4.84216667 16.4946837,4.80791667 C16.5175816,4.76983333 16.5413469,4.73191667 16.5625102,4.69366667 C16.5815918,4.659 16.5984184,4.62408333 16.6161122,4.58925 C16.6355408,4.55091667 16.6556633,4.51266667 16.6732704,4.47416667 C16.6894031,4.439 16.7031939,4.40358333 16.7177653,4.36808333 C16.7337245,4.3295 16.7502041,4.291 16.7644286,4.25225 C16.7774388,4.21666667 16.7882806,4.18083333 16.7998163,4.14508333 C16.8123061,4.10625 16.8254031,4.0675 16.8361582,4.0285 C16.8370255,4.02508333 16.8377194,4.02158333 16.8385867,4.01825 C16.8473469,3.98575 16.8545459,3.95316667 16.8621786,3.92075 C16.8713724,3.88166667 16.8808265,3.84266667 16.888199,3.8035 C16.8949643,3.76733333 16.8997347,3.73116667 16.9049388,3.69491667 C16.9106633,3.65583333 16.9167347,3.61666667 16.9206378,3.57741667 C16.9242806,3.541 16.9260153,3.50458333 16.9280969,3.46825 C16.930352,3.42908333 16.9329541,3.38991667 16.9335612,3.35066667 C16.9358163,3.18925 16.9222857,3.02783333 16.8948776,2.86683333 C16.890801,2.84283333 16.8860306,2.81875 16.8811735,2.79475 C16.6822041,1.795 15.9087041,0.821916667 14.5517398,0.0425 C14.5515663,0.0424166667 14.5513061,0.04225 14.5511327,0.0421666667 C14.5849592,0.145333333 14.6189592,0.247333333 14.6488827,0.3355 C14.6822755,0.433416667 14.7312806,0.562583333 14.7680561,0.659416667 C14.8920867,0.985666667 15.0210612,1.27525 15.0222755,1.27791667 C15.0639949,1.36958333 15.1174235,1.49283333 15.1615714,1.5835 C15.2032041,1.669 15.2574133,1.78341667 15.3001735,1.86841667 C15.344148,1.956 15.4043418,2.07216667 15.4504847,2.15875 C15.4570765,2.171 15.4626276,2.1835 15.4689592,2.19591667 C15.4781531,2.21366667 15.4869133,2.2315 15.4955867,2.24941667 C15.5160561,2.29133333 15.5352245,2.33333333 15.5532653,2.3755 C15.5600306,2.39141667 15.5673163,2.40733333 15.5737347,2.42341667 C15.5966327,2.48025 15.6178827,2.53733333 15.6363571,2.5945 C15.6389592,2.60258333 15.6409541,2.61075 15.6435561,2.61891667 C15.6590816,2.6685 15.672699,2.71816667 15.6848418,2.768 C15.6891786,2.786 15.6930816,2.80408333 15.6970714,2.82216667 C15.7064388,2.86458333 15.7144184,2.90708333 15.7212704,2.94966667 C15.7239592,2.96666667 15.7270816,2.9835 15.7294235,3.00041667 C15.7374031,3.05833333 15.7438214,3.11633333 15.7473776,3.17433333 C15.7476378,3.17841667 15.747551,3.18258333 15.7477245,3.18666667 C15.7501531,3.23066667 15.7517143,3.2745 15.7516276,3.3185 C15.7516276,3.32683333 15.7505,3.33525 15.7504133,3.34366667 C15.7499796,3.37725 15.7477245,3.41091667 15.7457296,3.4445 C15.7439082,3.47583333 15.7424337,3.50716667 15.7393112,3.53841667 C15.7359286,3.57208333 15.7307245,3.60575 15.7257806,3.63933333 C15.7212704,3.6705 15.7171939,3.70166667 15.7113827,3.73266667 C15.705051,3.76625 15.696898,3.79983333 15.6890051,3.83333333 C15.6817194,3.86433333 15.6750408,3.89533333 15.6665408,3.92625 C15.6572602,3.95975 15.6460714,3.993 15.6354031,4.0265 C15.6255153,4.05725 15.6163214,4.08791667 15.6050459,4.1185 C15.5928163,4.15191667 15.5785918,4.18508333 15.564801,4.21833333 C15.5523112,4.24866667 15.5404286,4.279 15.5266378,4.30916667 C15.5115459,4.34225 15.494199,4.37508333 15.4775459,4.408 C15.4622806,4.43808333 15.4478827,4.46808333 15.4314031,4.49791667 C15.4132755,4.53083333 15.3928929,4.56341667 15.3731173,4.59608333 C15.3553367,4.6255 15.3384235,4.655 15.3194286,4.68425 C15.2981786,4.71691667 15.2747602,4.74908333 15.251949,4.7815 C15.2316531,4.81041667 15.2122245,4.83941667 15.1907143,4.86808333 C15.1664286,4.90041667 15.139801,4.93216667 15.1139541,4.96408333 C15.0911429,4.99233333 15.0692857,5.02066667 15.0452602,5.04875 C15.0177653,5.08066667 14.9879286,5.11225 14.958699,5.14383333 C14.9335459,5.17125 14.9094337,5.19883333 14.8828929,5.226 C14.8520153,5.25775 14.8186224,5.28883333 14.7860969,5.32025 C14.7586888,5.34666667 14.7324082,5.37333333 14.7038724,5.3995 C14.669352,5.43108333 14.6321429,5.46208333 14.5958878,5.49325 C14.5666582,5.51841667 14.5385561,5.54391667 14.508199,5.56883333 C14.4694286,5.60058333 14.4278827,5.63158333 14.3872908,5.66283333 C14.3566735,5.68641667 14.3273571,5.71025 14.2957857,5.73358333 C14.2519847,5.76583333 14.2054082,5.79708333 14.1597857,5.82866667 C14.1285612,5.85025 14.0987245,5.87225 14.0665459,5.89358333 C14.0143316,5.92816667 13.9591684,5.96175 13.9046122,5.99558333 C13.8764235,6.01308333 13.8496224,6.031 13.8208265,6.04825 C13.736,6.09891667 13.6485714,6.14866667 13.5581939,6.19733333 C10.6909184,7.74316667 6.10733673,7.69866667 3.32037755,6.098 C3.2339898,6.04833333 3.15037755,5.99783333 3.06954082,5.9465 C3.04256633,5.92933333 3.0175,5.9115 2.99104592,5.89416667 C2.93839796,5.85958333 2.88531633,5.82516667 2.83509694,5.78983333 C2.80447959,5.76833333 2.77611735,5.74608333 2.74636735,5.72425 C2.70291327,5.69241667 2.65876531,5.66075 2.61721939,5.6285 C2.58677551,5.60475 2.55867347,5.58041667 2.52918367,5.55641667 C2.49102041,5.52525 2.45190306,5.49425 2.41547449,5.46258333 C2.38667857,5.43758333 2.36022449,5.41208333 2.33255612,5.38683333 C2.29820918,5.3555 2.2629949,5.32441667 2.23029592,5.29258333 C2.20332143,5.26633333 2.17851531,5.23966667 2.1527551,5.21325 C2.12213776,5.18183333 2.09056633,5.15066667 2.0615102,5.11891667 C2.03679082,5.09191667 2.0142398,5.06441667 1.99056122,5.03716667 C1.96306633,5.0055 1.93487755,4.97383333 1.90911735,4.94191667 C1.8867398,4.91416667 1.86644388,4.886 1.84519388,4.85808333 C1.82090816,4.826 1.79584184,4.79408333 1.77303061,4.76175 C1.7529949,4.73333333 1.73504082,4.70466667 1.71630612,4.67608333 C1.69496939,4.64375 1.67319898,4.61158333 1.65342347,4.57908333 C1.63581633,4.55008333 1.62029082,4.52083333 1.60389796,4.49166667 C1.58568367,4.45916667 1.56686224,4.42675 1.55003571,4.39408333 C1.53494388,4.36458333 1.52184694,4.33475 1.50796939,4.30516667 C1.49261735,4.2725 1.47691837,4.23983333 1.46312755,4.207 C1.45063776,4.17708333 1.43996939,4.147 1.42860714,4.117 C1.41620408,4.08408333 1.40328061,4.05125 1.39243878,4.01825 C1.38246429,3.988 1.37431122,3.95775 1.36563776,3.92741667 C1.35609694,3.89441667 1.34612245,3.86141667 1.33814286,3.82825 C1.33068367,3.79775 1.32521939,3.76725 1.31906122,3.73666667 C1.31246939,3.70358333 1.30544388,3.67058333 1.3002398,3.63741667 C1.29546939,3.60666667 1.29234694,3.57591667 1.28879082,3.54516667 C1.28497449,3.51208333 1.28089796,3.47891667 1.27855612,3.44583333 C1.27638776,3.41508333 1.27586735,3.38433333 1.27491327,3.3535 C1.27421939,3.32891667 1.27196429,3.30441667 1.27205102,3.27975 C1.27205102,3.26958333 1.27291837,3.25933333 1.27317857,3.24916667 C1.27343878,3.2315 1.27439286,3.21383333 1.27508673,3.19616667 C1.27682143,3.15358333 1.27968367,3.11108333 1.2837602,3.06858333 C1.2854949,3.05108333 1.28696939,3.0335 1.28905102,3.016 C1.29572959,2.96041667 1.30396939,2.90491667 1.31481122,2.8495 C1.3152449,2.847 1.3155051,2.8445 1.31611224,2.842 C1.32756122,2.78416667 1.34195918,2.72666667 1.35783163,2.66916667 C1.36251531,2.65216667 1.36797959,2.63516667 1.37309694,2.61825 C1.3857602,2.57616667 1.39955102,2.53425 1.41464286,2.49241667 C1.42106122,2.47466667 1.42730612,2.45683333 1.4342449,2.439 C1.45332653,2.38941667 1.47405612,2.34008333 1.49652041,2.29091667 C1.4999898,2.28333333 1.50293878,2.27566667 1.5064949,2.268 C1.52947959,2.21883333 1.55411224,2.16966667 1.58056633,2.12091667 C1.66851531,1.95366667 1.78309184,1.72925 1.86679082,1.56 C1.91154592,1.46941667 1.96601531,1.34641667 2.00842857,1.25483333 C2.00964286,1.25225 2.14477551,0.95325 2.26698469,0.63775 C2.30454082,0.541 2.35441327,0.412083333 2.3885,0.314166667 C2.42007143,0.2235 2.45580612,0.118333333 2.49136735,0.0121666667 C1.13310204,0.782166667 0.347892857,1.75125 0.143545918,2.75275 C0.139122449,2.77441667 0.135913265,2.79616667 0.132096939,2.818 C0.0990510204,2.99833333 0.0862142857,3.18 0.0915918367,3.36175 Z" id="Path"></path>
                    </g>
                    <path d="M4.99755,23.0612598 C4.99925,23.0203906 5.00115,22.9796094 5.00245,22.9387402 C5.00095,22.9840918 4.99925,23.0253125 4.99755,23.0612598 Z" id="Path" fill="#2E2E30"></path>
                    <path d="M4.03068941,27.2453437 C3.90399875,27.5638704 3.76409992,27.8658231 3.762842,27.868347 C3.7189046,27.960809 3.66247784,28.0850731 3.61611445,28.1764414 C3.52949758,28.3473151 3.41080371,28.5738847 3.31960441,28.7427393 C3.29219969,28.7919569 3.26677171,28.8415112 3.2428712,28.8912337 C3.23918729,28.8988897 3.23622219,28.90663 3.23253828,28.9143702 C3.20926673,28.9640085 3.18788207,29.0138993 3.16802488,29.0638742 C3.16092661,29.0817944 3.15436745,29.0997989 3.14771844,29.1178033 C3.13217412,29.1601221 3.11779788,29.2023568 3.10467955,29.2448438 C3.09937831,29.2620069 3.09380752,29.27917 3.08886568,29.296249 C3.072333,29.3543006 3.0575075,29.4124364 3.0456471,29.4707404 C3.04519784,29.4732644 3.04492829,29.4757884 3.04429933,29.4783123 C3.03315774,29.5342607 3.02462184,29.5902931 3.01761342,29.6464097 C3.01545699,29.6640776 3.01383966,29.6817455 3.01213248,29.6994975 C3.00790946,29.7424052 3.00476465,29.7853971 3.00314733,29.8283048 C3.00242851,29.846141 3.00153,29.8639771 3.00117059,29.8818133 C3.00099089,29.8920775 3,29.9024258 3,29.91269 C3,29.9375092 3.00224881,29.9622442 3.00296762,29.9871475 C3.00386614,30.0181925 3.0044951,30.0493217 3.00674139,30.0803667 C3.00916738,30.1138515 3.0133904,30.1472522 3.01734387,30.180653 C3.02102778,30.211698 3.02417258,30.242743 3.02920427,30.273788 C3.03459536,30.3071887 3.04178348,30.3405894 3.04870205,30.3739901 C3.05508151,30.4048669 3.06092186,30.4356595 3.06846939,30.4664521 C3.07682558,30.499937 3.08706865,30.5332535 3.09695232,30.5665701 C3.10593747,30.5971945 3.11438352,30.6277347 3.12471644,30.6582749 C3.13594789,30.6915915 3.14933576,30.7247398 3.16218453,30.7579723 C3.17395508,30.7883442 3.18491697,30.818632 3.19794544,30.8488357 C3.21223183,30.881984 3.22867466,30.9148799 3.24439868,30.9479441 C3.25877493,30.9778954 3.27234251,31.0079308 3.28797667,31.0377138 C3.30531802,31.070778 3.32490565,31.1035057 3.34377447,31.1362333 C3.36066656,31.1656798 3.37683983,31.1952104 3.39507969,31.2244886 C3.41556584,31.2573846 3.43829828,31.2897757 3.46022205,31.3224192 C3.47971983,31.3512768 3.49822925,31.3803026 3.51898495,31.4089077 C3.54252605,31.4415513 3.568583,31.4737741 3.59374142,31.5061653 C3.6156652,31.5343497 3.63678031,31.5627866 3.659962,31.5908029 C3.68673776,31.623194 3.71602935,31.6549962 3.74433259,31.6869667 C3.76886205,31.7144781 3.79222345,31.7422419 3.81783114,31.7695009 C3.8479314,31.8015555 3.8805475,31.8330212 3.91235495,31.8647393 C3.9391307,31.8914935 3.96473839,31.9183319 3.99268221,31.9448337 C4.02655624,31.9768042 4.06303596,32.0082698 4.09861716,32.0399879 C4.1272798,32.0654801 4.15477437,32.0912248 4.18451523,32.1164646 C4.22225287,32.1484351 4.26268606,32.1796483 4.30231058,32.2111981 C4.3328601,32.2354284 4.36188214,32.2600793 4.39350988,32.283973 C4.43654876,32.3167007 4.48228319,32.348587 4.52729881,32.3806416 C4.55811788,32.4026003 4.58749933,32.4251479 4.61921692,32.4468541 C4.67124096,32.4825264 4.72623009,32.5172733 4.78076997,32.5521884 C4.80817469,32.569688 4.83396208,32.5876924 4.8620856,32.6050238 C4.94591708,32.6568496 5.0324441,32.7080023 5.12193623,32.7579772 C8.00904555,34.3740001 12.7573394,34.418927 15.7276513,32.8582635 C15.8212766,32.80913 15.9118469,32.7589027 15.9997217,32.7077499 C16.0296423,32.6903344 16.0574064,32.6722459 16.0866081,32.654578 C16.1432146,32.6205042 16.2002703,32.5865146 16.2543609,32.5515995 C16.2876959,32.5300615 16.3186048,32.5078504 16.3509513,32.48606 C16.3983031,32.4541737 16.4465534,32.4225397 16.4918385,32.3900645 C16.5246343,32.3665914 16.5549143,32.3424453 16.5866319,32.3186357 C16.6286824,32.2870859 16.6717213,32.2557885 16.7118849,32.2237339 C16.743333,32.1985782 16.7724449,32.1728336 16.8027248,32.1474255 C16.8402828,32.1159598 16.8787392,32.0846624 16.91459,32.0527761 C16.9441511,32.0264425 16.9713761,31.9994359 16.9997692,31.9727658 C17.0334635,31.9411318 17.0680564,31.9096662 17.1000435,31.8776116 C17.1274482,31.8501843 17.152427,31.8223363 17.1785738,31.7946566 C17.208674,31.7627703 17.2396728,31.730884 17.2682456,31.6986611 C17.2931345,31.6704766 17.315777,31.6417032 17.339408,31.6131822 C17.3661838,31.5809593 17.3937682,31.5487365 17.4189266,31.5162612 C17.4412996,31.4873195 17.4613365,31.4580413 17.4823618,31.4288472 C17.5059927,31.3961196 17.5303425,31.3636443 17.5522663,31.3306642 C17.5719438,31.3011336 17.5894648,31.2713506 17.6078844,31.2416517 C17.6282807,31.2086717 17.6493958,31.1757757 17.6682646,31.1425433 C17.6853364,31.1124237 17.7002517,31.0820518 17.7160656,31.051764 C17.7333171,31.0185315 17.7512874,30.9853832 17.7669216,30.9519825 C17.781208,30.9215264 17.7935176,30.8909021 17.8064562,30.8602777 C17.8207426,30.8267088 17.8354783,30.7932239 17.8481474,30.7594866 C17.8597382,30.7286099 17.8693523,30.6975649 17.8795954,30.666604 C17.890737,30.6329509 17.9023278,30.5992978 17.9118521,30.5653923 C17.9206575,30.534179 17.927666,30.5028816 17.9351236,30.4715842 C17.9432103,30.4377628 17.9517462,30.4038573 17.9583053,30.3699518 C17.9643254,30.3385702 17.9685484,30.3071046 17.9732207,30.275723 C17.9782524,30.2418175 17.9837333,30.2078279 17.9872375,30.1738382 C17.990562,30.1422884 17.9919997,30.1106545 17.9938865,30.0790205 C17.9959531,30.045115 17.9982893,30.0111254 17.9987385,29.9772199 C17.9988284,29.9688066 18,29.9603092 18,29.9518117 C18,29.9073896 17.998469,29.8631358 17.9959531,29.8187137 C17.9956836,29.8145911 17.9958633,29.8103845 17.9955937,29.806262 C17.9919098,29.7477056 17.9852608,29.6891491 17.9769944,29.6306768 C17.9745685,29.6135979 17.9714237,29.5965189 17.9685484,29.57944 C17.9614501,29.5364481 17.9531838,29.4935404 17.9434798,29.4507168 C17.9393467,29.4325441 17.9353033,29.4142031 17.9308108,29.3960305 C17.9182315,29.345719 17.904035,29.2955759 17.8880414,29.2455169 C17.8854357,29.237356 17.8833692,29.229111 17.8805838,29.220866 C17.8614454,29.1629826 17.8394318,29.1055199 17.815711,29.0481413 C17.8090619,29.0319878 17.8015144,29.0160026 17.794506,28.999765 C17.7758169,28.9571938 17.7560495,28.9147908 17.7347547,28.872472 C17.7257696,28.8544676 17.7166047,28.8364632 17.7071703,28.8184588 C17.7006111,28.8060071 17.6947708,28.7933872 17.6880319,28.7809355 C17.6401411,28.6935216 17.577874,28.5763246 17.5323192,28.4878169 C17.4881123,28.4020014 17.4318652,28.2864871 17.3887365,28.2001668 C17.3430919,28.1086303 17.2877434,27.984282 17.2444349,27.8916518 C17.243177,27.8891279 17.1096576,27.5965981 16.9810801,27.2672182 C16.9429831,27.1694559 16.8921271,27.0391342 16.8576241,26.940194 C16.8265355,26.8511815 16.7913137,26.7482029 16.7563614,26.6440465 C16.7151196,26.521465 16.6741473,26.3972009 16.6403631,26.2916142 C16.6065789,26.1861117 16.5102581,25.855638 16.4467331,25.6003791 C16.385634,25.3542907 16.2231825,24.7008312 16.118146,23.841667 C16.1047581,23.7318737 16.0871472,23.5853985 16.0778925,23.4751845 C16.0598324,23.2628334 16.0395259,22.9803154 16.0266772,22.7662816 C16.0241613,22.7073886 16.020747,22.6484956 16.0188601,22.5895185 C16.017692,22.5567909 16.0167935,22.5244839 16.0159848,22.4925976 C16.0120314,22.3380456 16.0096054,22.1834095 16.0100546,22.0286893 C16.0077185,22.8027111 15.4519868,23.5745454 14.3477115,24.1546411 C12.1751015,25.2961549 8.70189069,25.2633431 6.59002035,24.0812772 C5.55151638,23.4999196 5.03558891,22.7489502 5.03783519,22 C5.03783519,22.0001683 5.03783519,22.0003365 5.03783519,22.0005048 C5.03783519,22.0003365 5.03783519,22.0001683 5.03783519,22 C5.03738594,22.1542996 5.03406143,22.3083467 5.02920945,22.4623939 C5.02920945,22.4622256 5.02920945,22.4620573 5.02920945,22.4619732 C5.02795153,22.5015998 5.0263342,22.5411422 5.02471687,22.5807687 C5.02471687,22.5804322 5.02471687,22.5800957 5.02471687,22.579675 C5.02256043,22.6352027 5.01905623,22.6907303 5.01636068,22.7461738 C5.01636068,22.7460897 5.01636068,22.7459214 5.01636068,22.7458373 C4.99524557,23.1743256 4.95912526,23.6018885 4.90404627,24.0278529 C4.9590354,23.6021409 4.99524557,23.1746622 5.01636068,22.7463421 C5.00216414,22.9606283 4.9796114,23.2444924 4.96011362,23.4576849 C4.9499604,23.5678148 4.93136113,23.7142058 4.91734429,23.8239991 C4.80790513,24.673488 4.64581297,25.3092796 4.57653745,25.5807762 C4.51588766,25.818872 4.41345692,26.1632276 4.37796557,26.2715065 C4.34427124,26.3740644 4.30365835,26.4944584 4.26277591,26.6136746 C4.22593678,26.7208598 4.18891795,26.8270354 4.15621199,26.9185719 C4.1213496,27.0174279 4.06950527,27.1476655 4.03068941,27.2453437 Z" id="Path" fill="#57565C"></path>
                    <g id="Group" transform="translate(2.000000, 12.000000)" fill="#2E2E30">
                        <path d="M0.0841305357,19.8739209 C0.0841305357,19.9047662 0.0866479592,19.9354317 0.0875153061,19.9661871 C0.0886428571,20.0048561 0.0891632653,20.0436151 0.0916785714,20.0822842 C0.0943673469,20.1239209 0.0992244898,20.1654676 0.103647959,20.2071043 C0.10772449,20.2456835 0.111367347,20.2842626 0.116918367,20.3227518 C0.122903061,20.3642986 0.131056122,20.4058453 0.13877551,20.4472122 C0.14597449,20.4856115 0.152479592,20.5241007 0.161066327,20.5624101 C0.170433673,20.6039568 0.181882653,20.6452338 0.192984694,20.6866007 C0.203132653,20.7246403 0.212673469,20.7627698 0.224209184,20.8008993 C0.236872449,20.8423561 0.251877551,20.8835432 0.26627551,20.9248201 C0.279459184,20.9625 0.29177551,21.0002698 0.306346939,21.0377698 C0.322392857,21.0790468 0.340780612,21.119964 0.358561224,21.1610612 C0.374693878,21.1982914 0.389959184,21.2357014 0.407479592,21.2726619 C0.426994898,21.313759 0.448765306,21.3544065 0.470102041,21.3952338 C0.489096939,21.4319245 0.50722449,21.4686151 0.527780612,21.505036 C0.550678571,21.5456835 0.576091837,21.5861511 0.60072449,21.6265288 C0.622668367,21.6625 0.643571429,21.6986511 0.666989796,21.7345324 C0.693443878,21.775 0.722586735,21.815018 0.750862245,21.8552158 C0.775581633,21.8903777 0.799173469,21.9258094 0.825367347,21.9606115 C0.85555102,22.0008993 0.888510204,22.0407374 0.920602041,22.0806655 C0.931270408,22.0939748 0.941938776,22.107464 0.952780612,22.1206835 C0.952693878,22.1207734 0.952607143,22.1207734 0.952520408,22.1208633 C0.962234694,22.1327338 0.970908163,22.1446043 0.980709184,22.1564748 C0.980882653,22.1563849 0.981056122,22.156205 0.981229592,22.1561151 C1.09233673,22.2889388 1.21471939,22.4193345 1.34646939,22.5472122 C1.36945408,22.5695144 1.39096429,22.5922662 1.41464286,22.6143885 C1.45722959,22.6542266 1.50285204,22.6933453 1.54743367,22.732554 C1.58143367,22.7625 1.61395918,22.7928957 1.64908673,22.8225719 C1.6980051,22.8638489 1.75021939,22.9040468 1.80156633,22.9445144 C1.83547959,22.9713129 1.86783163,22.9986511 1.90269898,23.0251799 C1.96159184,23.0698741 2.02395408,23.1134892 2.08579592,23.1573741 C2.11606633,23.178777 2.14460204,23.2008094 2.17547959,23.2219424 C2.26967347,23.2865108 2.36690306,23.3499101 2.46742857,23.4122302 C5.70991837,25.4219424 11.0427143,25.4778777 14.3786173,23.5370504 C14.4837398,23.4758993 14.5854796,23.4134892 14.6840969,23.3499101 C14.7173163,23.3285072 14.7482806,23.3061151 14.7808061,23.2844424 C14.8447296,23.2418165 14.9092602,23.1992806 14.9702347,23.1557554 C15.0071837,23.1293165 15.0413571,23.1020683 15.077352,23.0753597 C15.1310408,23.0353417 15.1856837,22.9956835 15.2369439,22.954946 C15.2736327,22.9258094 15.3075459,22.8958633 15.3431071,22.8664568 C15.3904643,22.8270683 15.4388622,22.7881295 15.4841378,22.7480216 C15.5195255,22.7168165 15.552051,22.6848921 15.5861378,22.6533273 C15.6088622,22.6321942 15.6317602,22.6111511 15.6538776,22.5898381 C15.7860612,22.4630396 15.9076633,22.3334532 16.0192908,22.2015288 L16.0193776,22.2015288 C16.0295255,22.1895683 16.0399337,22.1778777 16.0499082,22.1658273 C16.0498214,22.1657374 16.049648,22.1656475 16.0495612,22.1655576 C16.0691633,22.1419964 16.0901531,22.118795 16.1089745,22.094964 C16.1369898,22.0598921 16.1623163,22.0242806 16.1888571,21.9888489 C16.2190408,21.9486511 16.2500051,21.9086331 16.2782806,21.8680755 C16.3032602,21.8321942 16.325898,21.7957734 16.3494031,21.7596223 C16.3759439,21.7189748 16.403352,21.6783273 16.4279847,21.6374101 C16.450102,21.6007194 16.4697908,21.5636691 16.4904337,21.5267086 C16.5133316,21.4856115 16.5370969,21.4446942 16.5582602,21.4034173 C16.5773418,21.3660072 16.5941684,21.3283273 16.6118622,21.2906475 C16.6312908,21.2492806 16.6514133,21.2080036 16.6690204,21.1664568 C16.6851531,21.1285072 16.6989439,21.0902878 16.7135153,21.0519784 C16.7294745,21.0103417 16.7459541,20.968795 16.7601786,20.9269784 C16.7731888,20.8885791 16.7840306,20.8499101 16.7955663,20.8113309 C16.8080561,20.7694245 16.8211531,20.7276079 16.8319082,20.6855216 C16.8417959,20.6468525 16.849602,20.6080036 16.8579286,20.5691547 C16.8671224,20.5269784 16.8765765,20.4848921 16.8840357,20.4426259 C16.890801,20.4035971 16.8955714,20.3645683 16.9007755,20.3254496 C16.9065,20.2832734 16.9125714,20.2410072 16.9165612,20.1986511 C16.9202041,20.1593525 16.9219388,20.1202338 16.9240204,20.0808453 C16.9262755,20.0385791 16.9288776,19.9963129 16.9294847,19.9539568 C16.9295714,19.9434353 16.9308724,19.9330036 16.9308724,19.922482 L16.934949,18.4221223 C16.934949,18.4326439 16.933648,18.4430755 16.9335612,18.4535971 C16.9330408,18.4958633 16.930352,18.5381295 16.9280969,18.5804856 C16.9259286,18.6197842 16.9242806,18.6590827 16.9206378,18.6982914 C16.9167347,18.7405576 16.9106633,18.7827338 16.9049388,18.8250899 C16.899648,18.8642086 16.8949643,18.9032374 16.888199,18.9422662 C16.8808265,18.9845324 16.8712857,19.0267086 16.8621786,19.068795 C16.8544592,19.1043165 16.8478673,19.1399281 16.8389337,19.1753597 C16.8381531,19.1786871 16.8369388,19.1818345 16.8361582,19.1851619 C16.8254031,19.2272482 16.8123061,19.2690647 16.7998163,19.3109712 C16.7882806,19.3495504 16.7775255,19.3882194 16.7644286,19.4266187 C16.7502908,19.4684353 16.7337245,19.509982 16.7177653,19.5516187 C16.7031939,19.5897482 16.6893163,19.6279676 16.6732704,19.6660971 C16.6555765,19.7077338 16.6355408,19.7490108 16.6161122,19.7902878 C16.5984184,19.8278777 16.5816786,19.8655576 16.5625102,19.9029676 C16.5414337,19.9443345 16.5176684,19.9852518 16.4946837,20.026259 C16.4740408,20.0632194 16.454352,20.1001799 16.4322347,20.1369604 C16.4075153,20.1780576 16.3801939,20.2185252 16.3535663,20.2591727 C16.3299745,20.2953237 16.3074235,20.3317446 16.2824439,20.3676259 C16.2541684,20.4081835 16.2231173,20.4482914 16.1930204,20.4883993 C16.1664796,20.5238309 16.1410663,20.5594424 16.1131378,20.5945144 C16.0812194,20.6346223 16.0465255,20.6740108 16.0126122,20.7136691 C15.9832092,20.7481115 15.9550204,20.7829137 15.9242296,20.8170863 C15.8883214,20.8569245 15.849551,20.8959532 15.8117347,20.9352518 C15.7798163,20.9684353 15.7492857,21.0019784 15.7160663,21.0348921 C15.6758214,21.0746403 15.6325408,21.1135791 15.590301,21.1526978 C15.556301,21.1842626 15.5236888,21.2161871 15.488301,21.2473921 C15.4432857,21.2871403 15.395148,21.3259892 15.348051,21.3651079 C15.3122296,21.3947842 15.2779694,21.4250899 15.2410204,21.4544065 C15.1900204,21.4948741 15.1357245,21.5343525 15.0822959,21.5741007 C15.0817755,21.5744604 15.0813418,21.5748201 15.0807347,21.5752698 L15.0807347,21.5752698 C15.0726684,21.581295 15.0648622,21.5873201 15.0567959,21.5932554 L15.0568827,21.5932554 C15.0290408,21.6138489 15.0027602,21.6348921 14.9743112,21.6552158 C14.91325,21.6988309 14.8488061,21.741277 14.7848827,21.7839029 C14.7582551,21.8016187 14.7330153,21.819964 14.7059541,21.8375899 C14.6998827,21.8415468 14.6942449,21.8455935 14.6881735,21.8494604 C14.5895561,21.9130396 14.4877296,21.9754496 14.3826939,22.0366007 C11.0468776,23.9774281 5.7139949,23.9214928 2.4715051,21.9117806 C2.41209184,21.8749101 2.35588776,21.8367806 2.29855612,21.7991906 C2.2590051,21.7732914 2.21797959,21.7477518 2.17955612,21.7214928 C2.14867857,21.7002698 2.12014286,21.6783273 2.08987245,21.6569245 C2.0422551,21.6232014 1.99463776,21.5895683 1.9487551,21.5553058 C1.94884184,21.5553058 1.94884184,21.5552158 1.94892857,21.5552158 C1.94294388,21.5508094 1.93652551,21.5464928 1.93062755,21.5419964 C1.93054082,21.5419964 1.93045408,21.5420863 1.93036735,21.5420863 C1.92256122,21.536241 1.91440816,21.5304856 1.90668878,21.5247302 C1.87182143,21.4982014 1.83946939,21.4708633 1.80555612,21.4440647 C1.75429592,21.4035971 1.70216837,21.3632194 1.65316327,21.3221223 C1.61820918,21.2926259 1.58585714,21.2624101 1.55203061,21.2326439 C1.50718878,21.1931655 1.46130612,21.1538669 1.41854592,21.1138489 C1.38515306,21.082554 1.35444898,21.0506295 1.32227041,21.0190647 C1.28219898,20.9795863 1.24117347,20.9404676 1.2030102,20.9004496 C1.17178571,20.8677158 1.14307653,20.8343525 1.1132398,20.8013489 C1.07733163,20.7617806 1.04055612,20.7223921 1.00664286,20.6823741 C0.977933673,20.6485612 0.951739796,20.6140288 0.924331633,20.579946 C0.892326531,20.540018 0.859454082,20.5003597 0.829357143,20.4600719 C0.80325,20.4251799 0.779571429,20.3897482 0.754852041,20.3546763 C0.726576531,20.3144784 0.697520408,20.2745504 0.670979592,20.2339928 C0.647561224,20.1982014 0.626658163,20.1620504 0.604714286,20.1259892 C0.580081633,20.0856115 0.554581633,20.0451439 0.531770408,20.0044964 C0.51130102,19.9681655 0.493260204,19.9313849 0.474265306,19.8947842 C0.452928571,19.8539568 0.431071429,19.8132194 0.411642857,19.7720324 C0.394122449,19.734982 0.378857143,19.6978417 0.362811224,19.6606115 C0.345030612,19.6195144 0.326556122,19.5785072 0.310510204,19.5372302 C0.295938776,19.4997302 0.283622449,19.4619604 0.270438776,19.4242806 C0.256040816,19.3829137 0.241035714,19.3418165 0.228372449,19.3003597 C0.21675,19.2624101 0.207295918,19.2242806 0.197147959,19.1861511 C0.191596939,19.1653777 0.185178571,19.1446942 0.180147959,19.1238309 C0.175030612,19.1031475 0.169913265,19.082464 0.165316327,19.0617806 C0.156729592,19.0234712 0.15022449,18.984982 0.14302551,18.9466727 C0.135306122,18.9051259 0.127153061,18.8636691 0.121168367,18.8221223 C0.115617347,18.7836331 0.11197449,18.745054 0.107897959,18.7065647 C0.10347449,18.6649281 0.0986173469,18.6233813 0.0959285714,18.5817446 C0.0934132653,18.5430755 0.0927193878,18.5043165 0.0916785714,18.4656475 C0.0908979592,18.4348022 0.0882091837,18.4041367 0.0882959184,18.3733813 L0.0841305357,19.8739209 Z" id="Path"></path>
                        <path d="M3.26972449,3.38444245 C3.27232653,3.40872302 3.2744949,3.43291367 3.27805102,3.45710432 C3.28186735,3.48336331 3.28698469,3.50953237 3.29184184,3.53579137 C3.29626531,3.55980216 3.30034184,3.58381295 3.30580612,3.60773381 C3.31170408,3.63399281 3.3189898,3.66007194 3.32592857,3.68615108 C3.3322602,3.70998201 3.3382449,3.73390288 3.34553061,3.75773381 C3.3535102,3.78381295 3.36296429,3.80980216 3.37198469,3.83579137 C3.38022449,3.85935252 3.38803061,3.88318345 3.39713776,3.90665468 C3.40719898,3.93255396 3.41882143,3.95845324 3.4300102,3.98426259 C3.44015816,4.00764388 3.44978571,4.03102518 3.46071429,4.05431655 C3.47294388,4.08003597 3.48673469,4.10566547 3.5000051,4.13129496 C3.51197449,4.15431655 3.52342347,4.17751799 3.5362602,4.20035971 C3.55065816,4.22598921 3.56661735,4.25125899 3.58214286,4.27679856 C3.59593367,4.29946043 3.60903061,4.32221223 3.62377551,4.34460432 C3.64034184,4.37005396 3.65864286,4.39523381 3.67642347,4.4205036 C3.69203571,4.4426259 3.70686735,4.46483813 3.7232602,4.48678058 C3.74208163,4.51196043 3.76272449,4.53678058 3.78258673,4.56169065 C3.80002041,4.58327338 3.81658673,4.60521583 3.83480102,4.62661871 C3.85605102,4.65161871 3.87894898,4.67616906 3.90132653,4.70071942 C3.92023469,4.72167266 3.93844898,4.74280576 3.95822449,4.76357914 C3.98207653,4.78848921 4.00775,4.81303957 4.03272959,4.83758993 C4.05311224,4.85764388 4.07262755,4.8778777 4.09370408,4.8977518 C4.12033163,4.9227518 4.14895408,4.94730216 4.17696939,4.97185252 C4.19847959,4.99073741 4.21894898,5.00989209 4.24115306,5.02859712 C4.27133673,5.05404676 4.30360204,5.07886691 4.3352602,5.10386691 C4.35720408,5.12122302 4.37810714,5.13893885 4.40065816,5.15602518 C4.43639286,5.18309353 4.47412245,5.20953237 4.5115051,5.23597122 C4.53188776,5.25044964 4.55122959,5.26528777 4.57213265,5.27967626 C4.63128571,5.32014388 4.69243367,5.36007194 4.75557653,5.39919065 C6.79410204,6.66276978 10.1468316,6.6977518 12.2441633,5.47760791 C12.3102551,5.43920863 12.3742653,5.39991007 12.4362806,5.35989209 C12.4565765,5.34685252 12.475398,5.33318345 12.4952602,5.3198741 C12.5360255,5.29271583 12.5772245,5.26555755 12.6161684,5.23776978 C12.6391531,5.22131295 12.6604898,5.20431655 12.6827806,5.18767986 C12.7167806,5.16241007 12.751301,5.13723022 12.7838265,5.11151079 C12.8067245,5.09334532 12.8279745,5.07464029 12.8500918,5.05629496 C12.880102,5.03138489 12.9106327,5.00665468 12.9392551,4.98138489 C12.9611122,4.96205036 12.9813214,4.94226619 13.002398,4.92266187 C13.0292857,4.8977518 13.0568673,4.87293165 13.0824541,4.84766187 C13.1030102,4.82733813 13.1218316,4.80665468 13.1415204,4.78624101 C13.1656327,4.76115108 13.190352,4.73615108 13.2133367,4.71079137 C13.2323316,4.68965827 13.2497653,4.66816547 13.2679796,4.64676259 C13.2895765,4.62149281 13.3116939,4.59640288 13.3319898,4.57086331 C13.3495102,4.54901079 13.3652092,4.52670863 13.3818622,4.50458633 C13.4008571,4.47922662 13.4204592,4.45395683 13.4383265,4.42832734 C13.4541122,4.40566547 13.4683367,4.38282374 13.4830816,4.36007194 C13.4997347,4.33453237 13.5169082,4.30908273 13.5324337,4.28327338 C13.5463112,4.26016187 13.5587143,4.2368705 13.5716378,4.21366906 C13.5860357,4.18785971 13.6010408,4.16205036 13.6143112,4.13606115 C13.6262806,4.11267986 13.6366888,4.08920863 13.6477908,4.06564748 C13.6601071,4.03938849 13.6727704,4.01339928 13.6839592,3.98696043 C13.6940204,3.96330935 13.7026071,3.93929856 13.711801,3.91555755 C13.7218622,3.88920863 13.7323571,3.86294964 13.7413776,3.83651079 C13.7495306,3.81232014 13.7562959,3.78803957 13.7635816,3.76375899 C13.7714745,3.73741007 13.7796276,3.71124101 13.7863929,3.68480216 C13.7926378,3.66034173 13.7975816,3.63597122 13.8027857,3.61151079 C13.8085102,3.58498201 13.8145816,3.55854317 13.8190918,3.53192446 C13.8233418,3.5073741 13.8263776,3.48291367 13.8295867,3.45836331 C13.8332296,3.4317446 13.8370459,3.40521583 13.8394745,3.37859712 C13.8417296,3.35395683 13.8428571,3.32922662 13.8441582,3.30458633 C13.8456327,3.27796763 13.8472806,3.25152878 13.8476276,3.22491007 C13.8581224,2.41771583 13.3609592,1.60692446 12.3501531,0.980485612 C10.3115408,-0.283093525 6.95889796,-0.31807554 4.86156633,0.902068345 C3.77070408,1.53669065 3.23581122,2.38597122 3.25905612,3.23264388 C3.25966327,3.25701439 3.26018367,3.28120504 3.26165816,3.30548561 C3.26391327,3.33210432 3.26686224,3.35827338 3.26972449,3.38444245 Z" id="Path"></path>
                    </g>
                    <path d="M7.55272146,24.0230192 C9.66640536,25.2942633 13.1425089,25.3294575 15.3170745,24.1019122 C16.4222082,23.4780969 16.978507,22.6480019 16.9808452,21.8157356 L17,15.0302182 C17,15.0368227 16.9991906,15.0435178 16.9991906,15.0501224 C16.9988309,15.0769025 16.9971223,15.1035922 16.9955935,15.1302819 C16.9941546,15.1551622 16.9930755,15.1799519 16.9907373,15.2047417 C16.9882193,15.2315219 16.9841726,15.2582116 16.9804855,15.2849917 C16.9769783,15.309691 16.9740106,15.3342998 16.9696041,15.3589991 C16.9648379,15.3857793 16.9586328,15.412288 16.9526975,15.4390682 C16.9471219,15.463677 16.9421759,15.4881954 16.935701,15.5128042 C16.9287765,15.5394034 16.9202333,15.5657312 16.9120497,15.59224 C16.9044957,15.6166678 16.8974813,15.6410957 16.889028,15.6654331 C16.8797653,15.6920323 16.868884,15.7184506 16.8583623,15.7449593 C16.8488299,15.7688444 16.8399269,15.7930008 16.8294952,15.8167954 C16.8178944,15.8433041 16.8047648,15.8695414 16.7919949,15.8959597 C16.780574,15.9195733 16.7696926,15.9432774 16.7572825,15.9668005 C16.7434335,15.9929474 16.7279657,16.0189133 16.7130376,16.0448792 C16.6996382,16.0682214 16.6866884,16.091654 16.6723898,16.1149058 C16.6562926,16.1407812 16.6384867,16.1663852 16.6212204,16.1921702 C16.6058426,16.21506 16.5911842,16.2381307 16.5748172,16.2608396 C16.5562918,16.2866246 16.535968,16.3120477 16.5162736,16.3375612 C16.4990972,16.3598177 16.4826403,16.3821647 16.4645646,16.4042402 C16.4435213,16.4299347 16.4204995,16.4551768 16.3981972,16.4805999 C16.3793122,16.5020421 16.3612365,16.5236653 16.3415421,16.5450171 C16.317801,16.5705306 16.2920814,16.5956823 16.2670812,16.6209244 C16.2465774,16.6415524 16.2270629,16.6623613 16.2058397,16.6827179 C16.1792209,16.7081409 16.1508034,16.7331116 16.1228356,16.7581728 C16.1009829,16.7778056 16.0800295,16.7978002 16.0573675,16.817252 C16.027691,16.8426751 15.9960361,16.8675553 15.9649208,16.8926165 C15.941899,16.9111636 15.9200464,16.9299821 15.8962153,16.9481673 C15.862492,16.9740427 15.8267004,16.9993753 15.7914484,17.0247984 C15.7683367,17.041536 15.7461243,17.0586355 15.7223831,17.0751922 C15.6820051,17.1031485 15.639289,17.1304715 15.5970225,17.1577945 C15.5764289,17.1710942 15.5569143,17.1848461 15.535871,17.1980553 C15.471572,17.2382255 15.4052046,17.2777625 15.336679,17.3164852 C13.1622033,18.5440305 9.68600982,18.5087458 7.57232591,17.2375922 C7.50685783,17.1981458 7.4434581,17.158066 7.38212674,17.1173529 C7.36045392,17.1028771 7.34039983,17.0880394 7.31926658,17.0733827 C7.28059725,17.046693 7.24138834,17.0201843 7.20433772,16.9929517 C7.18095626,16.9757617 7.15919352,16.9579384 7.13653149,16.940477 C7.10370752,16.9153254 7.07025405,16.8902642 7.03895886,16.8647507 C7.01593712,16.8459322 6.99471395,16.8266613 6.97241163,16.8076618 C6.94336467,16.7828721 6.91377813,16.7582633 6.88608009,16.7331116 C6.86413749,16.7132074 6.84390354,16.6927604 6.82286022,16.6725848 C6.79696076,16.6477951 6.77034187,16.6231862 6.74561148,16.5981251 C6.72501781,16.5772257 6.70622271,16.5559644 6.68661826,16.534884 C6.66341666,16.5100038 6.63967548,16.4853045 6.61764295,16.4603338 C6.59875793,16.4388011 6.58158155,16.416816 6.56350588,16.3950119 C6.54282229,16.3699507 6.52150919,16.34498 6.50199466,16.3196474 C6.48499814,16.2976624 6.46962033,16.2752249 6.45343317,16.2529684 C6.43499779,16.2275453 6.41602283,16.2023032 6.39884646,16.1766087 C6.38364851,16.1539903 6.36997935,16.1311005 6.35568068,16.1083917 C6.33958345,16.0827876 6.32294664,16.0572741 6.30810841,16.0315796 C6.29479896,16.0085088 6.28292838,15.9852571 6.27051822,15.9620959 C6.2566692,15.9363109 6.24246047,15.9106164 6.22978052,15.8846505 C6.21835958,15.8612179 6.20846742,15.8376947 6.19794576,15.8141716 C6.18625504,15.7882057 6.17429452,15.7621493 6.16386279,15.7360929 C6.15433035,15.7124793 6.1463267,15.6885038 6.13778347,15.6647998 C6.12843089,15.6386529 6.11862866,15.612506 6.11035522,15.5862687 C6.10280121,15.5623837 6.09659613,15.5382272 6.09003134,15.5142517 C6.08283704,15.4880144 6.07528303,15.4616866 6.06916788,15.4353588 C6.0635923,15.4112928 6.05936566,15.3870459 6.05468936,15.3629799 C6.04965336,15.3365617 6.04425764,15.3102339 6.0403907,15.2838156 C6.03670363,15.2593877 6.03436548,15.2350503 6.03175755,15.2107129 C6.02887983,15.1844756 6.02573233,15.1581478 6.02393375,15.13182 C6.02222511,15.1073921 6.02186539,15.0829643 6.02123589,15.0585364 C6.02069632,15.0390846 6.01898767,15.0194518 6.0190776,15 L6,21.7855174 C5.99704507,22.5902798 6.51332568,23.3979373 7.55272146,24.0230192 Z" id="Path" fill="#3E3D43"></path>
                    <g id="Group" transform="translate(2.000000, 7.000000)" fill="#2E2E30">
                        <path d="M17.9605385,5.66890909 C18.0169615,4.22372727 17.1373846,2.766 15.3189519,1.66309091 C11.8061827,-0.467454545 6.12960577,-0.467363636 2.63968269,1.66318182 C0.900432692,2.725 0.0330576923,4.11563636 0.034875,5.50718182 C0.034875,5.50272727 0.0343557692,5.49827273 0.0344423077,5.49390909 L0.023785812,6.48181818 C0.0199903846,7.88690909 0.902769231,9.29427273 2.67049038,10.3662727 C6.18325962,12.4968182 11.8598365,12.4967273 15.3497596,10.3661818 C17.0835577,9.30781818 17.9512788,7.92263636 17.9550865,6.53545455 L17.9657308,5.54754545 C17.9654712,5.58790909 17.9620962,5.62836364 17.9605385,5.66890909 Z" id="Path"></path>
                        <path d="M17.9655577,5.54754545 L17.9549135,6.53545455 C17.9511923,7.92263636 17.0832981,9.30772727 15.3495865,10.3661818 C11.85975,12.4967273 6.18308654,12.4967273 2.67031731,10.3662727 C0.902682692,9.29418182 0.0198173077,7.88681818 0.0236127363,6.48181818 L0.0342692308,5.49390909 C0.0304615385,6.89909091 0.913240385,8.30636364 2.68096154,9.37836364 C6.19373077,11.5089091 11.8703077,11.5088182 15.3602308,9.37827273 C17.0940288,8.31981818 17.9618365,6.93472727 17.9655577,5.54754545 Z" id="Path"></path>
                    </g>
                    <path d="M17.3431548,9.61079109 C20.8693787,11.7587264 20.887882,15.2411018 17.3846787,17.3890371 C13.8814753,19.5369724 8.18306904,19.5369724 4.65684517,17.3891287 C1.1306213,15.2412851 1.11211801,11.758818 4.61532135,9.61097439 C8.11852469,7.46313074 13.8170178,7.46294744 17.3431548,9.61079109 Z" id="Path" fill="#57565C"></path>
                    <circle id="Oval" fill="#3E3D43" cx="11" cy="8" r="8"></circle>
                </g>
                <g id="building" transform="translate(96.000000, 16.000000)" fill-rule="nonzero">
                    <path d="M39.9960956,4.1619834 C39.9422139,3.05922909 39.2202772,2.01336442 37.8033449,1.22369139 C34.549359,-0.588864445 28.8656211,-0.361682722 25.1083491,1.73155363 C23.0733389,2.86520158 22.0234268,4.31343782 22.0027332,5.6908446 L22,5.69122133 L22,33.8026019 L22.0027332,33.8022251 C22.0425587,34.917789 22.7644954,35.978347 24.1966552,36.7763087 C27.450641,38.5888644 33.1343789,38.3616828 36.8920414,36.2684463 C38.9247088,35.1359287 39.9750114,33.6895762 39.9976574,32.3129229 L40,32.3129229 L40,4.16160667 L39.9960956,4.1619834 Z" id="Path" fill="#5566B4"></path>
                    <path d="M24.1967417,8.77954759 C20.9428059,6.97201567 21.3508169,3.81418871 25.1084216,1.72675424 C28.8656358,-0.360680236 34.5492862,-0.587232274 37.803222,1.22029965 C41.0571578,3.02820726 40.6491468,6.18603422 36.8919325,8.27309301 C33.1343278,10.3605275 27.4506774,10.5874552 24.1967417,8.77954759 L24.1967417,8.77954759 Z" id="Path" fill="#7180C3"></path>
                    <polygon id="Path" fill="#C93E30" points="16.040415 16 0 25.3818076 0 40.2732652 14.959585 49 31 39.6181924 31 24.7267348"></polygon>
                    <polygon id="Path" fill="#BADD50" points="14.959585 34 0 25.3257681 16.040415 16 31 24.6746082"></polygon>
                    <polygon id="Path" fill="#33AEFF" points="15 49 31 39.7238116 31 25 15 34.2758142"></polygon>
                    <path d="M5,24.9584413 L5.00253915,24.9580629 C5.04715693,26.2982524 5.84918834,27.5718486 7.44055501,28.5302619 C11.0560442,30.7074077 17.3714519,30.434224 21.5462955,27.9203282 C23.8051148,26.560085 24.9717059,24.8226061 24.997098,23.169504 L25,23.1691256 L14.9998186,1 L5,24.9584413 Z" id="Path" fill="#FFD800"></path>
                </g>
                <g id="profits" transform="translate(110.000000, 52.000000)" fill-rule="nonzero">
                    <polygon id="Path" fill="#2DB357" points="0 39.212021 16.9999637 49 51 29.4242594 50.999891 9.78776163 33.9998183 0 0 19.6364977"></polygon>
                    <polygon id="Path" fill="#0E834C" points="0 19.7954293 16.9999637 29.5302141 50.999891 10 51 29.5302141 16.9999637 49 0 39.264999"></polygon>
                    <polygon id="Path" fill="#1A4541" points="17 49 17 29.5302141 50.999891 10 51 29.5302141"></polygon>
                    <g id="Group" transform="translate(4.000000, 2.000000)" fill="#FFFFFF">
                        <path d="M29.9745013,0.0181333333 L0.10875827,16.73216 L13.0647786,23.9387733 L42.9305216,7.22506667 L29.9745013,0.0181333333 Z M13.0624809,22.3086933 L3.03035115,16.72832 L29.9769084,1.64832 L40.0089288,7.22869333 L13.0624809,22.3086933 Z" id="Shape"></path>
                        <ellipse id="Oval" cx="21.9339389" cy="11.5739733" rx="5.59765903" ry="3.09866667"></ellipse>
                    </g>
                    <g id="Group" transform="translate(14.000000, 8.000000)" fill="#5EE1EB">
                        <ellipse id="Oval" cx="20.5151111" cy="1.4732605" rx="2.45666667" ry="1.37133613"></ellipse>
                        <ellipse id="Oval" cx="2.55288889" cy="11.5542689" rx="2.45666667" ry="1.37155462"></ellipse>
                    </g>
                    <g id="Group" transform="translate(0.000000, 22.000000)" fill="#2DB357">
                        <polygon id="Path" points="0 0.040109589 0 0.522739726 16.9962949 10.6450411 16.9974936 10.1628493"></polygon>
                        <polygon id="Path" points="0 2.69052055 0 3.17326027 16.9962949 13.2954521 16.9974936 12.8133699"></polygon>
                        <polygon id="Path" points="0 5.3410411 0 5.82378082 16.9962949 15.9461918 16.9974936 15.464"></polygon>
                        <polygon id="Path" points="0 7.99156164 0 8.47430137 16.9962949 18.5966027 16.9974936 18.1146301"></polygon>
                        <polygon id="Path" points="0 10.6421918 0 11.1249315 16.9962949 21.2472329 16.9974936 20.7650411"></polygon>
                        <polygon id="Path" points="0 13.2927123 0 13.7754521 16.9962949 23.8976438 16.9974936 23.4155616"></polygon>
                    </g>
                    <g id="Group" transform="translate(17.000000, 13.000000)" fill="#0E834C">
                        <polygon id="Path" points="33.9925048 0.08175 0.107214058 19.4724643 0.106127796 19.9426071 33.9925048 0.550928571"></polygon>
                        <polygon id="Path" points="33.9925048 2.673 0.107214058 22.0638214 0.106127796 22.5338571 33.9925048 3.14217857"></polygon>
                        <polygon id="Path" points="33.9925048 5.26435714 0.107214058 24.6552857 0.106127796 25.1254286 33.9925048 5.73353571"></polygon>
                        <polygon id="Path" points="33.9926134 7.85560714 0.107214058 27.2466429 0.106127796 27.7166786 33.9926134 8.32489286"></polygon>
                        <polygon id="Path" points="0.107214058 29.838 0.106127796 30.3080357 33.9926134 10.9164643 33.9926134 10.4469643"></polygon>
                        <polygon id="Path" points="0.107214058 32.4293571 0.106127796 32.8992857 33.9926134 13.5077143 33.9926134 13.0382143"></polygon>
                    </g>
                </g>
            </g>
        </g>
    </g>
</svg>