<svg width="20" height="16" viewBox="0 0 20 16" fill="none" xmlns="http://www.w3.org/2000/svg">
<path fill-rule="evenodd" clip-rule="evenodd" d="M6.87831 0L5.55556 2.66667H1.85185C0.825688 2.66667 0 3.49896 0 4.53333V14.1333C0 15.1677 0.825688 16 1.85185 16H17.1958C18.2219 16 19.0476 15.1677 19.0476 14.1333V4.53333C19.0476 3.49896 18.2219 2.66667 17.1958 2.66667H13.4921L12.1693 0H6.87831ZM9.33333 4.57143C11.954 4.57143 14.0952 6.71265 14.0952 9.33333C14.0952 11.954 11.954 14.0952 9.33333 14.0952C6.71265 14.0952 4.57143 11.954 4.57143 9.33333C4.57143 6.71265 6.71265 4.57143 9.33333 4.57143ZM9.33333 6.09524C7.53508 6.09524 6.09524 7.53508 6.09524 9.33333C6.09524 11.1316 7.53508 12.5714 9.33333 12.5714C11.1316 12.5714 12.5714 11.1316 12.5714 9.33333C12.5714 7.53508 11.1316 6.09524 9.33333 6.09524Z" fill="white"/>
</svg>
