<svg width="21" height="19" viewBox="0 0 21 19" fill="none" xmlns="http://www.w3.org/2000/svg">
<path d="M18.625 0.5H2.625C1.49124 0.5 0.625 1.36624 0.625 2.5V11.8338C0.625 12.9 1.49124 13.8338 2.625 13.8338H13.2913L17.9575 18.5V13.8338H18.6237C19.7575 13.8338 20.6238 12.9 20.6238 11.8338L20.625 2.5C20.625 1.36624 19.7588 0.5 18.625 0.5H18.625ZM15.625 5.16625C16.5588 5.16625 17.2913 5.90001 17.2913 6.83249C17.2913 7.76625 16.5575 8.49873 15.625 8.49873C14.6913 8.49998 13.9588 7.76622 13.9588 6.83374C13.9588 5.89998 14.6913 5.16625 15.625 5.16625ZM4.95877 8.50001C4.025 8.50001 3.29252 7.76625 3.29252 6.83377C3.29252 5.90001 4.02628 5.16753 4.95877 5.16753C5.89253 5.16753 6.62501 5.90129 6.62501 6.83377C6.62501 7.76628 5.89125 8.50001 4.95877 8.50001ZM10.2913 8.50001C9.35749 8.50001 8.62501 7.76625 8.62501 6.83377C8.62501 5.90001 9.35877 5.16753 10.2913 5.16753C11.225 5.16753 11.9575 5.90129 11.9575 6.83377C11.9587 7.76628 11.225 8.50001 10.2913 8.50001Z" fill="white"/>
</svg>
