<svg width="21" height="16" viewBox="0 0 21 16" fill="none" xmlns="http://www.w3.org/2000/svg">
<path fill-rule="evenodd" clip-rule="evenodd" d="M13.8667 0V2.36667C10.3584 3.25835 5.35733 5.64373 3.73333 10.6667C7.7928 7.10427 13.5312 7.4928 13.8667 7.50827V9.87493L20.2667 4.9416L13.8667 0ZM0 2.66667V15.2C0 15.6187 0.381253 16 0.8 16H14.4C14.8187 16 15.2 15.6187 15.2 15.2V10.1917L14.5167 10.7167L13.6 11.4251V14.4H1.6V3.46667H8.45013C9.60429 2.77709 10.7907 2.25728 11.9168 1.86667H0.8C0.364587 1.86667 0.00832 2.32917 0 2.66667Z" fill="white"/>
</svg>
