<svg width="22" height="22" viewBox="0 0 22 22" fill="none" xmlns="http://www.w3.org/2000/svg">
<g clip-path="url(#clip0_48:183)">
<path d="M10.3529 6.03895V6.90176H3.45127V6.03895H10.3529ZM3.45127 7.76458H10.3529V8.6274H3.45127V7.76458ZM3.45127 9.49022H10.3529V10.353H3.45127V9.49022ZM3.45127 11.2159H10.3529V12.0787H3.45127V11.2159ZM3.45127 12.9415H10.3529V13.8043H3.45127V12.9415ZM3.45127 14.6671H10.3529V15.5299H3.45127V14.6671ZM15.5297 10.7846L17.6867 8.11025H17.6859C18.535 8.80204 19.0042 9.85564 18.9526 10.9487C18.9002 12.0427 18.3321 13.0464 17.4221 13.654C16.5111 14.2625 15.3664 14.4025 14.3361 14.0313C13.3066 13.6609 12.5134 12.823 12.1997 11.7745C11.8852 10.7252 12.088 9.58999 12.7446 8.71432C13.4011 7.83861 14.435 7.32557 15.5298 7.33332H15.6157L15.5297 10.7846ZM21.9999 18.3332C21.9999 18.6194 21.8865 18.8935 21.6837 19.0963C21.4817 19.2983 21.2076 19.4117 20.9214 19.4117H1.07851C0.482966 19.4117 0 18.9288 0 18.3332V3.66627V3.66713C0 3.07159 0.482966 2.58862 1.07851 2.58862H20.9214C21.2076 2.58862 21.4817 2.70206 21.6837 2.90402C21.8865 3.10683 21.9999 3.38097 21.9999 3.66715V18.3341V18.3332ZM1.29417 18.1175H20.7057V3.88284H1.29417V18.1184V18.1175Z" fill="white"/>
</g>
<defs>
<clipPath id="clip0_48:183">
<rect width="22" height="22" fill="white"/>
</clipPath>
</defs>
</svg>
