<svg width="20" height="18" viewBox="0 0 20 18" fill="none" xmlns="http://www.w3.org/2000/svg">
<path d="M10.6523 8.99465L14.8563 1.53596C15.0349 1.21916 15.0349 0.828833 14.8563 0.512018C14.6778 0.195203 14.3478 2.48595e-05 13.9906 0H5.00511C4.453 0 4.00542 0.45845 4.00542 1.02398C4.00542 1.5895 4.453 2.04795 5.00511 2.04795H12.2603L4.13942 16.4544C3.95617 16.7715 3.95338 17.165 4.13211 17.4848C4.31085 17.8046 4.64353 18.0013 5.00327 18C5.36301 17.9987 5.69431 17.7995 5.8708 17.4784L9.50266 11.0426L13.1292 17.4784C13.3057 17.7995 13.637 17.9987 13.9967 18C14.3565 18.0013 14.6892 17.8046 14.8679 17.4848C15.0466 17.165 15.0438 16.7715 14.8606 16.4544L10.6523 8.99465Z" fill="#FFCDB6"/>
<path d="M4.84503 13.3769L2.30567 8.97839L4.83819 4.58787C5.12009 4.07742 4.94151 3.43522 4.43656 3.14361C3.93161 2.85199 3.28615 3.01828 2.98496 3.51759L0.14356 8.44382C-0.0478532 8.7749 -0.0478532 9.18301 0.14356 9.51409L2.99293 14.4472C3.18014 14.7861 3.53585 14.9976 3.92307 15C4.31029 15.0024 4.66862 14.7955 4.86006 14.4589C5.0515 14.1222 5.04619 13.7085 4.84617 13.3769H4.84503Z" fill="#FFCDB6"/>
<path d="M19.8562 8.43768L17.0091 3.49766C16.7012 3.01279 16.0669 2.85664 15.5698 3.14334C15.0727 3.43004 14.8889 4.05799 15.1528 4.56824L17.6872 8.97412L15.1437 13.388C14.8477 13.9022 15.0237 14.5595 15.537 14.8561C16.0502 15.1526 16.7062 14.9762 17.0022 14.462L19.8562 9.5117C20.0479 9.17946 20.0479 8.76992 19.8562 8.43768Z" fill="#FFCDB6"/>
</svg>
