<svg width="106" height="134" viewBox="0 0 106 134" fill="none" xmlns="http://www.w3.org/2000/svg">
<path d="M103.867 134H12.1333C10.9551 134 10 133.063 10 131.906V2.09375C10 0.937404 10.9551 0 12.1333 0H81.8123C82.378 0.000118585 82.9205 0.220787 83.3205 0.613469L105.375 22.2587C105.775 22.6512 106 23.1837 106 23.7389V131.906C106 133.063 105.045 134 103.867 134Z" fill="url(#paint0_linear_1:463)"/>
<path d="M0 69.1237L8.24499 65L14 75H0V69.1237Z" fill="url(#paint1_linear_1:463)"/>
<path d="M99.8667 134H8.13333C6.95513 134 6 133.063 6 131.906V2.09375C6 0.937404 6.95513 0 8.13333 0H78.6955L102 22.8721V131.906C102 133.063 101.045 134 99.8667 134Z" fill="url(#paint2_linear_1:463)"/>
<path d="M82 0V21.803C82 23.0164 82.9836 24 84.197 24H106L95.2347 11.0377L82 0Z" fill="url(#paint3_linear_1:463)"/>
<path d="M82.2684 110H3.73161C2.74176 110.001 1.79228 109.602 1.09235 108.893C0.392412 108.184 -0.000559119 107.221 5.9709e-07 106.218V72H82.2684C84.3288 72.0012 85.9988 73.6936 86 75.7816V106.218C86 108.307 84.3293 110 82.2684 110Z" fill="url(#paint4_linear_1:463)"/>
<path d="M6 65H2.652C1.94878 64.9996 1.27423 65.3153 0.776844 65.8778C0.279454 66.4403 3.12692e-07 67.2034 4.25304e-07 67.9992C-0.000397806 68.7952 0.278881 69.5587 0.776313 70.1216C1.27375 70.6844 1.94852 71.0005 2.652 71H6V65Z" fill="url(#paint5_linear_1:463)"/>
<path fill-rule="evenodd" clip-rule="evenodd" d="M18 84.8087V98.125C18 99.0553 18.8064 99.8095 19.8011 99.8095C20.7958 99.8095 21.6021 99.0553 21.6021 98.125V94.0567C21.6021 93.9129 21.6632 93.775 21.7719 93.6734C21.8806 93.5717 22.028 93.5146 22.1817 93.5146C24.0212 93.5601 25.8617 93.4802 27.6888 93.2756C30.1524 92.7416 31.8382 90.6152 31.669 88.2553C31.86 86.0333 30.3538 83.9921 28.0648 83.371C25.3207 83.1051 22.5599 83.0213 19.8031 83.1203C19.3246 83.1203 18.8656 83.2983 18.5274 83.6149C18.1892 83.9316 17.9994 84.3611 18 84.8087ZM21.6021 90.1379V86.4873H21.6042C21.6036 86.3435 21.6642 86.2055 21.7725 86.1034C21.8808 86.0014 22.028 85.9438 22.1817 85.9433C23.4342 85.9191 24.6873 85.9573 25.9355 86.0579C27.01 86.2312 27.8303 87.0514 27.9434 88.0657C28.0565 89.0799 27.4347 90.0409 26.4216 90.4177C25.0274 90.6833 23.6012 90.7715 22.1817 90.68C21.8616 90.68 21.6021 90.4373 21.6021 90.1379Z" fill="white"/>
<path fill-rule="evenodd" clip-rule="evenodd" d="M35.1465 83.6146C34.8083 83.9313 34.6186 84.3608 34.6191 84.8084V98.1228C34.6226 99.0519 35.4289 99.8033 36.4223 99.8033C39.1494 99.926 41.8829 99.8076 44.5863 99.4497C46.7633 98.8476 48.4473 97.2277 49.0297 95.1755C49.4201 94.0279 49.6054 92.8279 49.5781 91.6239C49.6131 90.2884 49.416 88.9564 48.9944 87.6799C48.373 85.6713 46.726 84.0821 44.5987 83.4387C41.8918 83.0743 39.1523 82.9676 36.4223 83.12C35.9437 83.12 35.4847 83.298 35.1465 83.6146ZM38.2213 96.4558V86.487H38.2192C38.218 86.1899 38.4728 85.9473 38.7905 85.943C40.125 85.9125 41.4603 85.9657 42.7873 86.1023C44.1118 86.3419 45.1662 87.2803 45.4878 88.5056C45.7686 89.473 45.8919 90.4745 45.8534 91.4763C45.8866 92.506 45.7635 93.5349 45.4878 94.5324C45.2646 95.6855 44.3168 96.5973 43.0906 96.8385C41.6693 97.0184 40.2329 97.0717 38.8008 96.9979C38.4808 96.9979 38.2213 96.7552 38.2213 96.4558Z" fill="white"/>
<path d="M52.6543 98.1248V84.8085C52.6543 83.876 53.4625 83.1201 54.4595 83.1201H63.3776C64.2116 83.1201 64.8878 83.7525 64.8878 84.5326C64.8878 84.907 64.7286 85.2661 64.4453 85.5306C64.1621 85.7952 63.7779 85.9436 63.3776 85.9431H56.8464C56.6923 85.9431 56.5446 86.0005 56.4358 86.1025C56.3271 86.2046 56.2663 86.343 56.2668 86.4871V89.3509C56.2663 89.495 56.3271 89.6333 56.4358 89.7354C56.5446 89.8375 56.6923 89.8949 56.8464 89.8949H62.2059C63.0392 89.8949 63.715 90.5261 63.7162 91.3054C63.715 92.085 63.0395 92.7168 62.2059 92.7178H56.8464C56.6927 92.7178 56.5453 92.7749 56.4366 92.8766C56.3279 92.9783 56.2668 93.1161 56.2668 93.2599V98.117C56.2657 99.0476 55.4587 99.8015 54.4637 99.8015C53.986 99.8036 53.527 99.6281 53.1877 99.3136C52.8484 98.9992 52.6565 98.5716 52.6543 98.1248H52.6543Z" fill="white"/>
<defs>
<linearGradient id="paint0_linear_1:463" x1="56.0755" y1="-66.9728" x2="56.0755" y2="-61.6002" gradientUnits="userSpaceOnUse">
<stop stop-color="#F3F7FF"/>
<stop offset="0.99" stop-color="#B5D1FF"/>
</linearGradient>
<linearGradient id="paint1_linear_1:463" x1="-138.799" y1="63.2964" x2="-138.799" y2="271.581" gradientUnits="userSpaceOnUse">
<stop stop-color="#FF5252"/>
<stop offset="1" stop-color="#D50000"/>
</linearGradient>
<linearGradient id="paint2_linear_1:463" x1="-65.5545" y1="-11.367" x2="-65.5545" y2="322.389" gradientUnits="userSpaceOnUse">
<stop stop-color="#F3F7FF"/>
<stop offset="0.99" stop-color="#B5D1FF"/>
</linearGradient>
<linearGradient id="paint3_linear_1:463" x1="72.6562" y1="-51.4735" x2="72.6562" y2="-8.78579" gradientUnits="userSpaceOnUse">
<stop stop-color="#F3F7FF"/>
<stop offset="0.99" stop-color="#B5D1FF"/>
</linearGradient>
<linearGradient id="paint4_linear_1:463" x1="-83.7661" y1="67.3082" x2="-83.7661" y2="179.334" gradientUnits="userSpaceOnUse">
<stop stop-color="#FF5252"/>
<stop offset="1" stop-color="#D50000"/>
</linearGradient>
<linearGradient id="paint5_linear_1:463" x1="-20.2014" y1="39.7813" x2="-20.2014" y2="86.1842" gradientUnits="userSpaceOnUse">
<stop stop-color="#FF5252"/>
<stop offset="1" stop-color="#D50000"/>
</linearGradient>
</defs>
</svg>
