<svg width="22" height="17" viewBox="0 0 22 17" fill="none" xmlns="http://www.w3.org/2000/svg">
<path fill-rule="evenodd" clip-rule="evenodd" d="M18.4994 0H3.49966C1.84281 0 0.5 1.343 0.5 2.99987V13.3335C0.5 14.9904 1.8429 16.3333 3.49966 16.3333H18.4994C20.1563 16.3333 21.4991 14.9903 21.4991 13.3335L21.5 2.99987C21.4991 1.3429 20.1562 0 18.4994 0H18.4994ZM14.6015 9.15071L8.66904 12.6706C8.02662 13.0521 7.5 12.7395 7.5 11.9774V4.93888C7.5 4.17676 8.02662 3.8651 8.66904 4.24569L14.6015 7.76554C15.2439 8.14613 15.2439 8.77036 14.6015 9.15098V9.15071Z" fill="white"/>
</svg>
