<svg xmlns="http://www.w3.org/2000/svg" xmlns:xlink="http://www.w3.org/1999/xlink" viewBox="0 0 91.87 39.37"><defs><style>.cls-1{fill:#414042;}.cls-2{fill:url(#linear-gradient);}.cls-3{fill:url(#linear-gradient-2);}.cls-4{fill:url(#linear-gradient-3);}.cls-5{fill:url(#linear-gradient-4);}.cls-6{fill:url(#linear-gradient-5);}.cls-7{fill:url(#linear-gradient-6);}.cls-8{fill:#b1b3b6;}</style><linearGradient id="linear-gradient" y1="25.01" x2="10.61" y2="25.01" gradientUnits="userSpaceOnUse"><stop offset="0" stop-color="#0077c0"/><stop offset="0.26" stop-color="#0085ca"/><stop offset="0.68" stop-color="#0095d7"/><stop offset="1" stop-color="#009bdb"/></linearGradient><linearGradient id="linear-gradient-2" x1="21.22" y1="4.73" x2="31.82" y2="4.73" xlink:href="#linear-gradient"/><linearGradient id="linear-gradient-3" x1="10.61" y1="15.7" x2="21.22" y2="15.7" xlink:href="#linear-gradient"/><linearGradient id="linear-gradient-4" x1="-1410.89" y1="25.01" x2="-1400.28" y2="25.01" gradientTransform="matrix(-1, 0, 0, 1, -1389.67, 0)" gradientUnits="userSpaceOnUse"><stop offset="0" stop-color="#0072bc"/><stop offset="1" stop-color="#00467d"/></linearGradient><linearGradient id="linear-gradient-5" x1="-1391.78" y1="15.7" x2="-1381.17" y2="15.7" gradientTransform="matrix(-1, 0, 0, 1, -1359.95, 0)" xlink:href="#linear-gradient-4"/><linearGradient id="linear-gradient-6" x1="-1402.67" y1="4.73" x2="-1392.06" y2="4.73" gradientTransform="matrix(-1, 0, 0, 1, -1360.24, 0)" xlink:href="#linear-gradient-4"/></defs><g id="Layer_2" data-name="Layer 2"><g id="Layer_1-2" data-name="Layer 1"><polygon class="cls-1" points="34.16 36.44 33.45 36.44 32.4 37.68 32.4 36.44 31.82 36.44 31.82 39.32 32.4 39.32 32.4 37.98 32.41 37.98 33.45 39.32 34.21 39.32 32.97 37.8 34.16 36.44"/><path class="cls-1" d="M36.9,36.8a1.25,1.25,0,0,0-.44-.31,1.64,1.64,0,0,0-.6-.1,1.36,1.36,0,0,0-1,.4,1.78,1.78,0,0,0,0,2.17,1.33,1.33,0,0,0,1,.41,1.43,1.43,0,0,0,.6-.11,1.1,1.1,0,0,0,.45-.31,1.33,1.33,0,0,0,.27-.48,2,2,0,0,0,0-1.2A1.47,1.47,0,0,0,36.9,36.8Zm-.28,1.46a1.1,1.1,0,0,1-.14.33.82.82,0,0,1-.25.24.75.75,0,0,1-.37.09.7.7,0,0,1-.37-.09.75.75,0,0,1-.26-.24,1.1,1.1,0,0,1-.14-.33,1.61,1.61,0,0,1,0-.39,1.58,1.58,0,0,1,0-.38,1.24,1.24,0,0,1,.15-.33.64.64,0,0,1,.26-.23.76.76,0,0,1,.72,0,.61.61,0,0,1,.25.23.91.91,0,0,1,.15.33,1.58,1.58,0,0,1,.05.38A1.6,1.6,0,0,1,36.62,38.26Z"/><path class="cls-1" d="M39.32,38a.23.23,0,0,0-.18-.09h0a.7.7,0,0,0,.44-.23.68.68,0,0,0,.16-.44.82.82,0,0,0-.11-.44.58.58,0,0,0-.3-.23,1.67,1.67,0,0,0-.4-.1l-.55,0h-.63v2.89h.58v-1.2h.19a.36.36,0,0,1,.25.07.54.54,0,0,1,.15.23l.35.9h.64l-.46-1.13A.77.77,0,0,0,39.32,38Zm-.24-.52a.29.29,0,0,1-.14.13.59.59,0,0,1-.19,0l-.23,0h-.19v-.78h.42l.19.05a.28.28,0,0,1,.14.12.3.3,0,0,1,.05.2A.31.31,0,0,1,39.08,37.47Z"/><polygon class="cls-1" points="40.91 38.06 41.94 38.06 41.94 37.6 40.91 37.6 40.91 36.89 42.03 36.89 42.03 36.44 40.33 36.44 40.33 39.32 42.04 39.32 42.04 38.87 40.91 38.87 40.91 38.06"/><path class="cls-1" d="M43.45,36.43l-1.12,2.89h.6l.25-.66h1.17l.25.66h.64l-1.13-2.89Zm-.1,1.78.42-1.2h0l.42,1.2Z"/><polygon class="cls-1" points="46.77 39.32 47.34 39.32 47.34 38.06 48.32 38.06 48.32 37.6 47.34 37.6 47.34 36.89 48.37 36.89 48.37 36.44 46.77 36.44 46.77 39.32"/><polygon class="cls-1" points="49.41 38.06 50.44 38.06 50.44 37.6 49.41 37.6 49.41 36.89 50.54 36.89 50.54 36.44 48.83 36.44 48.83 39.32 50.54 39.32 50.54 38.87 49.41 38.87 49.41 38.06"/><path class="cls-1" d="M53.1,36.73a1.7,1.7,0,0,0-.53-.23,3.16,3.16,0,0,0-.65-.07h-.79v2.89h.79a2.59,2.59,0,0,0,.65-.07A1.34,1.34,0,0,0,53.1,39a1.2,1.2,0,0,0,.36-.44,1.95,1.95,0,0,0,0-1.4A1.16,1.16,0,0,0,53.1,36.73Zm-.19,1.56a1.07,1.07,0,0,1-.22.32,1,1,0,0,1-.3.19,1.1,1.1,0,0,1-.36.07h-.32v-2H52a.89.89,0,0,1,.36.07,1,1,0,0,1,.3.19,1.06,1.06,0,0,1,.22,1.14Z"/><polygon class="cls-1" points="54.7 38.06 55.73 38.06 55.73 37.6 54.7 37.6 54.7 36.89 55.82 36.89 55.82 36.44 54.12 36.44 54.12 39.32 55.83 39.32 55.83 38.87 54.7 38.87 54.7 38.06"/><path class="cls-1" d="M57.94,38a.23.23,0,0,0-.18-.09h0a.68.68,0,0,0,.43-.23.63.63,0,0,0,.16-.44.74.74,0,0,0-.11-.44.6.6,0,0,0-.29-.23,1.76,1.76,0,0,0-.41-.1l-.55,0h-.62v2.89H57v-1.2h.18a.38.38,0,0,1,.26.07.53.53,0,0,1,.14.23l.35.9h.65l-.47-1.13A.56.56,0,0,0,57.94,38Zm-.24-.52a.35.35,0,0,1-.14.13.67.67,0,0,1-.19,0l-.23,0H57v-.78h.42l.19.05a.32.32,0,0,1,.14.12.37.37,0,0,1,0,.2A.39.39,0,0,1,57.7,37.47Z"/><path class="cls-1" d="M59.77,36.43l-1.12,2.89h.6l.25-.66h1.17l.25.66h.64l-1.14-2.89Zm-.11,1.78.42-1.2h0l.42,1.2Z"/><polygon class="cls-1" points="61.3 36.89 62.13 36.89 62.13 39.32 62.7 39.32 62.7 36.89 63.53 36.89 63.53 36.44 61.3 36.44 61.3 36.89"/><rect class="cls-1" x="63.85" y="36.43" width="0.58" height="2.89"/><path class="cls-1" d="M67.37,36.8a1.21,1.21,0,0,0-.45-.31,1.57,1.57,0,0,0-.6-.1,1.33,1.33,0,0,0-1,.4,1.78,1.78,0,0,0,0,2.17,1.29,1.29,0,0,0,1,.41,1.48,1.48,0,0,0,.61-.11,1.14,1.14,0,0,0,.44-.31,1.33,1.33,0,0,0,.27-.48,1.85,1.85,0,0,0,0-1.2A1.29,1.29,0,0,0,67.37,36.8Zm-.28,1.46a1.1,1.1,0,0,1-.14.33.75.75,0,0,1-.26.24.7.7,0,0,1-.37.09.75.75,0,0,1-.37-.09.72.72,0,0,1-.25-.24,1.1,1.1,0,0,1-.14-.33,1.6,1.6,0,0,1,0-.39,1.58,1.58,0,0,1,0-.38,1,1,0,0,1,.15-.33.61.61,0,0,1,.25-.23.74.74,0,0,1,.36-.09.69.69,0,0,1,.36.09.64.64,0,0,1,.26.23.91.91,0,0,1,.15.33,1.58,1.58,0,0,1,0,.38A1.61,1.61,0,0,1,67.09,38.26Z"/><polygon class="cls-1" points="70.06 38.59 70.05 38.59 68.95 36.44 68.24 36.44 68.24 39.32 68.79 39.32 68.79 37.16 68.8 37.16 69.91 39.32 70.61 39.32 70.61 36.44 70.06 36.44 70.06 38.59"/><path class="cls-1" d="M74.72,36.8a1.25,1.25,0,0,0-.44-.31,1.64,1.64,0,0,0-.6-.1,1.36,1.36,0,0,0-1.05.4,1.78,1.78,0,0,0,0,2.17,1.33,1.33,0,0,0,1.05.41,1.46,1.46,0,0,0,.6-.11,1.1,1.1,0,0,0,.45-.31,1.5,1.5,0,0,0,.27-.48,2,2,0,0,0,0-1.2A1.47,1.47,0,0,0,74.72,36.8Zm-.28,1.46a1.1,1.1,0,0,1-.14.33.72.72,0,0,1-.25.24.75.75,0,0,1-.37.09.7.7,0,0,1-.37-.09.75.75,0,0,1-.26-.24,1.1,1.1,0,0,1-.14-.33,1.61,1.61,0,0,1,0-.39,1.58,1.58,0,0,1,0-.38,1.24,1.24,0,0,1,.15-.33.64.64,0,0,1,.26-.23.76.76,0,0,1,.72,0,.61.61,0,0,1,.25.23.91.91,0,0,1,.15.33,1.58,1.58,0,0,1,0,.38A1.6,1.6,0,0,1,74.44,38.26Z"/><polygon class="cls-1" points="75.62 39.32 76.2 39.32 76.2 38.06 77.18 38.06 77.18 37.6 76.2 37.6 76.2 36.89 77.23 36.89 77.23 36.44 75.62 36.44 75.62 39.32"/><path class="cls-1" d="M80.2,37.83h0a.66.66,0,0,0,.42-.22.58.58,0,0,0,.16-.42.74.74,0,0,0-.09-.38.63.63,0,0,0-.23-.23,1,1,0,0,0-.29-.11c-.11,0-.21,0-.32,0h-1v2.89h1a1.84,1.84,0,0,0,.33,0,.93.93,0,0,0,.33-.12.63.63,0,0,0,.25-.26.77.77,0,0,0,.1-.42.61.61,0,0,0-.18-.45A.76.76,0,0,0,80.2,37.83Zm-.78-.94h.43A.61.61,0,0,1,80,37a.25.25,0,0,1,.12.11.33.33,0,0,1,0,.19.35.35,0,0,1,0,.18.36.36,0,0,1-.13.11l-.17.05h-.43Zm.82,1.77a.43.43,0,0,1-.14.13.6.6,0,0,1-.19.06l-.22,0h-.27V38h.27l.22,0a.53.53,0,0,1,.19.06.35.35,0,0,1,.14.13.49.49,0,0,1,.05.23A.36.36,0,0,1,80.24,38.66Z"/><path class="cls-1" d="M82.19,36.43l-1.12,2.89h.6l.25-.66h1.17l.25.66H84l-1.13-2.89Zm-.11,1.78L82.5,37h0l.42,1.2Z"/><polygon class="cls-1" points="86.14 38.59 86.13 38.59 85.03 36.44 84.32 36.44 84.32 39.32 84.88 39.32 84.88 37.16 84.89 37.16 85.99 39.32 86.7 39.32 86.7 36.44 86.14 36.44 86.14 38.59"/><polygon class="cls-1" points="89.67 36.44 88.96 36.44 87.92 37.68 87.92 36.44 87.34 36.44 87.34 39.32 87.92 39.32 87.92 37.98 87.92 37.98 88.96 39.32 89.72 39.32 88.48 37.8 89.67 36.44"/><path class="cls-1" d="M91.8,38.15a.58.58,0,0,0-.18-.23.87.87,0,0,0-.23-.16l-.31-.13a2.06,2.06,0,0,1-.36-.17.23.23,0,0,1-.11-.22.38.38,0,0,1,0-.19.29.29,0,0,1,.1-.12l.15-.07.16,0a1.52,1.52,0,0,1,.59.12l0-.47a2.13,2.13,0,0,0-.69-.1,1.58,1.58,0,0,0-.38,0,1.2,1.2,0,0,0-.32.16.71.71,0,0,0-.23.28,1,1,0,0,0-.08.4.67.67,0,0,0,.07.33.66.66,0,0,0,.17.23,1.14,1.14,0,0,0,.23.15l.29.13a2,2,0,0,1,.39.19.27.27,0,0,1,.12.24.32.32,0,0,1-.16.28.75.75,0,0,1-.36.1,1.26,1.26,0,0,1-.33-.05,1.79,1.79,0,0,1-.32-.13l0,.52.06,0,.35.07a1.62,1.62,0,0,0,.33,0,1.42,1.42,0,0,0,.42,0,1,1,0,0,0,.34-.15.78.78,0,0,0,.24-.27,1,1,0,0,0,.08-.4A.75.75,0,0,0,91.8,38.15Z"/><path class="cls-1" d="M33.59,30.57H31.82v2.81A1.15,1.15,0,0,0,33,34.49h7.5V33.33h-6.9Z"/><rect class="cls-1" x="29.67" y="28.46" width="12.19" height="1.17"/><polygon class="cls-1" points="51.65 25.59 52.38 25.59 52.38 28.78 54.09 28.78 54.09 21.55 52.38 21.55 52.38 24.3 51.65 24.3 51.65 21.55 49.96 21.55 49.96 28.78 51.65 28.78 51.65 25.59"/><path class="cls-1" d="M60.11,30.11H58.35v3.43a1,1,0,0,0,1,1h7.14V33.34h-6.4Z"/><polygon class="cls-1" points="78.5 21.55 76.74 21.55 76.74 28.83 78.5 28.83 78.5 25.97 80.01 25.97 80.01 24.7 78.5 24.7 78.5 21.55"/><path class="cls-1" d="M76.74,31H72.83V29.7H71.07v3.84a1,1,0,0,0,1,1H78.5V29.7H76.74Zm0,2.35H72.83V32.11h3.91Z"/><path class="cls-1" d="M35.76,27.58a3.36,3.36,0,0,0,3.55-3.13,3.37,3.37,0,0,0-3.55-3.13,3.37,3.37,0,0,0-3.55,3.13A3.36,3.36,0,0,0,35.76,27.58Zm0-5a1.93,1.93,0,1,1-1.71,1.92A1.82,1.82,0,0,1,35.76,22.53Z"/><path class="cls-1" d="M49.14,25.73A2.74,2.74,0,0,0,48.5,24l-.15-.17h1.1V22.65H46.82V21.3H45v1.35H42.3V23.8h1.15l-.14.17a2.7,2.7,0,0,0-.65,1.76,3.26,3.26,0,0,0,6.48,0ZM45.9,27.45a1.6,1.6,0,0,1-1.43-1.72,1.46,1.46,0,1,1,2.86,0A1.6,1.6,0,0,1,45.9,27.45Z"/><path class="cls-1" d="M50.24,29.35c-2.23,0-4.05,1.29-4.05,2.88s1.82,2.89,4.05,2.89,4-1.29,4-2.89S52.47,29.35,50.24,29.35Zm0,4.61a2,2,0,0,1-2.15-1.73,2.2,2.2,0,0,1,4.29,0A2,2,0,0,1,50.24,34Z"/><path class="cls-1" d="M61.93,27.26l0,0h2.7v3.05h1.76V21.55H64.66v1.13H62l0,0a3.8,3.8,0,0,0-2.72-1.12,3.54,3.54,0,0,0-3.66,3.4,3.54,3.54,0,0,0,3.66,3.39A3.8,3.8,0,0,0,61.93,27.26Zm.87-3.2,0-.18h1.91V26H62.73l0-.14a4,4,0,0,0,.17-1A4.13,4.13,0,0,0,62.8,24.06Zm-5.31.87a1.82,1.82,0,1,1,3.57,0,1.82,1.82,0,1,1-3.57,0Z"/><path class="cls-1" d="M75.26,25.73A2.7,2.7,0,0,0,74.61,24l-.14-.17h1.15V22.65H72.94V21.3H71.1v1.35H68.42V23.8h1.15l-.14.17a2.7,2.7,0,0,0-.65,1.76,3.26,3.26,0,0,0,6.48,0Zm-4.63,0a1.42,1.42,0,1,1,2.78,0,1.42,1.42,0,1,1-2.78,0Z"/><path class="cls-1" d="M89.84,21.55V30H86.1V28.49a3,3,0,0,0,2.44-2.82,2.68,2.68,0,0,0-.78-1.87h1.17V22.65H86.08V21.3H84.27v1.35H81.42V23.8h1.16a2.68,2.68,0,0,0-.78,1.87,3,3,0,0,0,2.5,2.83V30H80.68v1.17h9.16v3.33h1.77v-13Zm-6.19,4.12a1.53,1.53,0,1,1,1.52,1.7A1.62,1.62,0,0,1,83.65,25.67Z"/><polygon class="cls-2" points="10.61 27.8 10.61 22.21 0 23.14 0 26.87 10.61 27.8"/><polygon class="cls-3" points="31.82 5.58 31.82 0 21.22 5 21.22 9.47 31.82 5.58"/><polygon class="cls-4" points="21.22 17.56 21.22 11.97 10.61 15.23 10.61 19.42 21.22 17.56"/><polygon class="cls-5" points="10.61 27.8 10.61 22.21 21.22 23.14 21.22 26.87 10.61 27.8"/><polygon class="cls-6" points="21.22 17.56 21.22 11.97 31.82 15.23 31.82 19.42 21.22 17.56"/><polygon class="cls-7" points="31.82 5.58 31.82 0 42.43 5 42.43 9.47 31.82 5.58"/><polygon class="cls-8" points="31.82 5.58 21.22 9.47 31.82 12.73 42.43 9.47 31.82 5.58"/><polygon class="cls-8" points="21.22 17.56 10.61 19.42 21.22 21.28 31.82 19.42 21.22 17.56"/></g></g></svg>