<?xml version="1.0" standalone="no"?>
<!DOCTYPE svg PUBLIC "-//W3C//DTD SVG 20010904//EN"
 "http://www.w3.org/TR/2001/REC-SVG-20010904/DTD/svg10.dtd">
<svg version="1.0" xmlns="http://www.w3.org/2000/svg"
 width="189.000000pt" height="189.000000pt" viewBox="0 0 189.000000 189.000000"
 preserveAspectRatio="xMidYMid meet">
<metadata>
Created by potrace 1.11, written by Peter Selinger 2001-2013
</metadata>
<g transform="translate(0.000000,189.000000) scale(0.100000,-0.100000)"
fill="#000000" stroke="none">
<path d="M499 1769 c-74 -16 -100 -103 -46 -157 l27 -27 359 0 c198 0 358 -2
356 -5 -5 -9 -268 -466 -363 -630 -52 -91 -103 -178 -112 -195 -10 -16 -81
-140 -158 -275 -148 -255 -152 -268 -120 -320 19 -30 63 -44 101 -34 32 10 57
41 109 134 14 25 67 117 118 205 52 88 110 188 129 222 20 35 38 63 41 63 3 0
83 -135 178 -299 95 -165 178 -304 185 -309 60 -50 160 3 151 81 -1 16 -69
143 -151 284 -159 274 -159 275 -216 375 l-37 67 19 33 c10 18 93 162 184 319
90 157 174 303 185 325 26 50 18 99 -20 127 -25 19 -44 20 -457 21 -236 1
-444 -2 -462 -5z"/>
<path d="M304 1464 c-22 -11 -61 -70 -168 -254 -124 -215 -138 -244 -132 -274
8 -42 258 -475 288 -497 48 -37 121 -11 139 49 13 46 16 40 -129 289 l-100
171 115 197 c72 124 116 210 118 232 6 65 -71 116 -131 87z"/>
<path d="M1524 1470 c-43 -10 -54 -18 -69 -53 -17 -40 -9 -64 60 -183 32 -55
69 -119 83 -143 14 -25 38 -67 53 -94 l29 -48 -117 -202 c-132 -230 -138 -251
-83 -300 27 -24 39 -28 69 -23 22 3 45 16 60 33 13 15 79 125 147 243 89 155
124 224 124 248 0 24 -36 95 -136 268 -145 249 -160 267 -220 254z"/>
</g>
</svg>
