<svg width="100" height="100" viewBox="0 0 100 100" fill="none" xmlns="http://www.w3.org/2000/svg">
<g id="Logo">
<rect id="Rectangle" width="100" height="100" fill="url(#paint0_linear_7:460)"/>
<g id="Jakdang-Logo-Temp-White">
<path id="Path" d="M52.9331 49.9863L63.6343 30.9252C64.0888 30.1156 64.0888 29.1181 63.6343 28.3085C63.1798 27.4989 62.3398 27.0001 61.4307 27H38.5585C37.1531 27 36.0138 28.1716 36.0138 29.6168C36.0138 31.0621 37.1531 32.2337 38.5585 32.2337H57.0263L36.3549 69.0502C35.8884 69.8605 35.8813 70.8661 36.3363 71.6833C36.7912 72.5005 37.6381 73.0034 38.5538 73C39.4695 72.9966 40.3128 72.4876 40.762 71.667L50.0068 55.22L59.238 71.667C59.6872 72.4876 60.5305 72.9966 61.4462 73C62.3619 73.0034 63.2088 72.5005 63.6637 71.6833C64.1187 70.8661 64.1116 69.8605 63.6451 69.0502L52.9331 49.9863Z" fill="white"/>
<path id="Path_2" d="M35.6281 60.0775L29.5336 49.4478L35.6117 38.8373C36.2882 37.6038 35.8596 36.0518 34.6477 35.347C33.4359 34.6423 31.8868 35.0442 31.1639 36.2508L24.3445 48.1559C23.8852 48.956 23.8852 49.9423 24.3445 50.7424L31.183 62.664C31.6323 63.4832 32.486 63.9941 33.4154 63.9999C34.3447 64.0058 35.2047 63.5057 35.6641 62.6922C36.1236 61.8787 36.1108 60.8788 35.6308 60.0775H35.6281Z" fill="white"/>
<path id="Path_3" d="M75.6549 48.1411L68.8217 36.2027C68.0828 35.0309 66.5606 34.6536 65.3675 35.3464C64.1745 36.0393 63.7335 37.5568 64.3667 38.7899L70.4492 49.4375L64.3448 60.1043C63.6344 61.347 64.057 62.9354 65.2887 63.6521C66.5204 64.3689 68.0948 63.9425 68.8053 62.6999L75.6549 50.7366C76.115 49.9337 76.115 48.944 75.6549 48.1411Z" fill="white"/>
</g>
</g>
<defs>
<linearGradient id="paint0_linear_7:460" x1="-55.4138" y1="26.0875" x2="25.6804" y2="150.651" gradientUnits="userSpaceOnUse">
<stop stop-color="#FF9C82"/>
<stop offset="1" stop-color="#FD1A67"/>
</linearGradient>
</defs>
</svg>
