<svg xmlns="http://www.w3.org/2000/svg" viewBox="0 0 1497.88 301.58"><g id="Layer_2" data-name="Layer 2"><g id="Layer_1-2" data-name="Layer 1"><path d="M0,4.48H58.38V239.54H179.85v57.55H0Z"/><path d="M304.94,0c81.59,0,146.49,65.4,146.49,149.48,0,85.21-66.35,152.1-147.94,152.1S156.64,235.43,156.64,151C156.64,66.89,223.36,0,304.94,0Zm-.72,242.91c48.95,0,87.38-41.86,87.38-92.31s-38.43-91.93-87.38-91.93-87.39,41.48-87.39,91.93S255.27,242.91,304.22,242.91Z"/><path d="M729.9,162.56c0,91.18-65.26,139-134.52,139-87.75,0-147.21-67.27-147.21-150.6,0-85.21,67.08-151,147.94-151,70.7,0,115.66,42.6,127.63,89.31l-57.29,17.94c-6.16-25-32.63-49.7-71.07-49.7-47.86,0-87.38,40-87.38,93.05,0,50.83,35.89,93.43,87.38,93.43,38.44,0,66.36-20.56,73.25-49.33h-86.3V139.76H729.9Z"/><path d="M872.77,0c81.58,0,146.49,65.4,146.49,149.48,0,85.21-66.36,152.1-147.94,152.1S724.47,235.43,724.47,151C724.47,66.89,791.18,0,872.77,0ZM872,242.91c49,0,87.39-41.86,87.39-92.31S921,58.67,872,58.67s-87.38,41.48-87.38,91.93S823.09,242.91,872,242.91Z"/><path d="M1071.11,214.88l56.2-13.83c4.35,26.91,22.48,44.1,49.31,44.1,24.66,0,47.14-17.19,47.14-44.47,0-29.9-21-45.22-47.5-45.22-16.68,0-30.82,7.47-41.34,20.93l-55.11-24.67L1103.74,4.48h166.43V59.42h-120l-11.24,64.28a80.49,80.49,0,0,1,50.4-18.69c54.39,0,93.19,37.37,93.19,95.29,0,61.67-47.86,100.53-106.6,100.53C1124.41,300.83,1079.44,270.93,1071.11,214.88Z"/><path d="M1286.49,133.79c0-22.8,17.4-41.11,39.16-41.11,22.12,0,39.16,18.31,39.16,41.11,0,21.67-17,40-39.16,40C1304.26,173.77,1286.49,155.46,1286.49,133.79Zm0,127.43c0-22.42,17.4-40.74,39.16-40.74,22.12,0,39.16,18.32,39.16,40.74,0,22-17,40.36-39.16,40.36C1304.26,301.58,1286.49,283.27,1286.49,261.22Z"/><path d="M1439.14,76.61l-59.83,35.13-26.1-49,96.45-58.3h48.22V297.09h-58.74Z"/></g></g></svg>