<?xml version="1.0" encoding="UTF-8"?>
<svg width="100px" height="100px" viewBox="0 0 100 100" version="1.1" xmlns="http://www.w3.org/2000/svg" xmlns:xlink="http://www.w3.org/1999/xlink">
    <!-- Generator: Sketch 61.2 (89653) - https://sketch.com -->
    <title>Logo</title>
    <desc>Created with Sketch.</desc>
    <g id="Website" stroke="none" stroke-width="1" fill="none" fill-rule="evenodd">
        <g id="Homepage" transform="translate(-52.000000, 0.000000)">
            <g id="Logo" transform="translate(52.000000, 0.000000)">
                <rect id="Rectangle" fill="#5C2186" x="0" y="0" width="100" height="100"></rect>
                <g id="Jakdang-Logo-Temp-White" transform="translate(24.000000, 27.000000)" fill="#FFFFFF" fill-rule="nonzero">
                    <path d="M28.9331352,22.9863151 L39.6342735,3.92523971 C40.0888191,3.11561829 40.0888356,2.11812754 39.6343167,1.30849024 C39.1797979,0.498852934 38.3397911,0 37.4306999,0 L14.5584718,0 C13.1530908,0 12.0138044,1.17159312 12.0138044,2.61682647 C12.0138044,4.06205983 13.1530908,5.23365295 14.5584718,5.23365295 L33.0262597,5.23365295 L12.3548981,42.0501743 C11.8884445,42.8605098 11.8813385,43.8660843 12.3362911,44.6833054 C12.7912436,45.5005264 13.6380886,46.0033566 14.5537835,46 C15.4694784,45.9966097 16.3127983,45.487553 16.7620454,44.6670008 L26.0067677,28.219968 L35.2379546,44.6670008 C35.6872017,45.487553 36.5305216,45.9966097 37.4462165,46 C38.3619114,46.0033566 39.2087564,45.5005264 39.6637089,44.6833054 C40.1186615,43.8660843 40.1115555,42.8605098 39.6451019,42.0501743 L28.9331352,22.9863151 Z" id="Path"></path>
                    <path d="M11.6280665,33.0774679 L5.53359606,22.4477653 L11.6116541,11.8373444 C12.2882244,10.6037551 11.8596188,9.05178793 10.6477413,8.34704731 C9.43586381,7.64230668 7.8867647,8.04418323 7.16389426,9.25084772 L0.344542878,21.1558943 C-0.114847626,21.9560066 -0.114847626,22.9422786 0.344542878,23.7423909 L7.18304206,35.6639646 C7.63234252,36.4831733 8.48604394,36.9940883 9.41537389,37 C10.3447038,37.0058098 11.204693,36.5057021 11.6641474,35.6922244 C12.1236018,34.8787467 12.1108496,33.8787962 11.6308019,33.0774679 L11.6280665,33.0774679 Z" id="Path"></path>
                    <path d="M51.6548971,21.1410618 L44.8217226,9.20267036 C44.0828165,8.03090434 42.5605754,7.65355618 41.3675427,8.34641413 C40.1745099,9.03927207 39.7334582,10.5568095 40.3667339,11.7899207 L46.4491908,22.4374511 L40.3448152,33.1043306 C39.6343796,34.3469841 40.0569676,35.9353859 41.2886919,36.6521253 C42.5204162,37.3688646 44.0948479,36.9425269 44.8052835,35.6998734 L51.6548971,23.7366046 C52.1150343,22.9336939 52.1150343,21.9439724 51.6548971,21.1410618 L51.6548971,21.1410618 Z" id="Path"></path>
                </g>
            </g>
        </g>
    </g>
</svg>