<?xml version="1.0" encoding="utf-8"?>
<!-- Generator: Adobe Illustrator 24.1.0, SVG Export Plug-In . SVG Version: 6.00 Build 0)  -->
<svg version="1.1" id="Layer_1" xmlns="http://www.w3.org/2000/svg" xmlns:xlink="http://www.w3.org/1999/xlink" x="0px" y="0px"
	 viewBox="0 0 1497.9 301.6" style="enable-background:new 0 0 1497.9 301.6;" xml:space="preserve">
<style type="text/css">
	.st0{fill:#FFFFFF;}
</style>
<g id="Layer_2_1_">
	<g id="Layer_1-2">
		<path class="st0" d="M0,4.5h58.4v235.1h121.5v57.6H0V4.5z"/>
		<path class="st0" d="M304.9,0c81.6,0,146.5,65.4,146.5,149.5c0,85.2-66.4,152.1-147.9,152.1S156.6,235.4,156.6,151
			C156.6,66.9,223.4,0,304.9,0z M304.2,242.9c49,0,87.4-41.9,87.4-92.3s-38.4-91.9-87.4-91.9s-87.4,41.5-87.4,91.9
			S255.3,242.9,304.2,242.9z"/>
		<path class="st0" d="M729.9,162.6c0,91.2-65.3,139-134.5,139c-87.8,0-147.2-67.3-147.2-150.6c0-85.2,67.1-151,147.9-151
			c70.7,0,115.7,42.6,127.6,89.3l-57.3,17.9c-6.2-25-32.6-49.7-71.1-49.7c-47.9,0-87.4,40-87.4,93.1c0,50.8,35.9,93.4,87.4,93.4
			c38.4,0,66.4-20.6,73.2-49.3h-86.3v-54.9h147.6V162.6z"/>
		<path class="st0" d="M872.8,0c81.6,0,146.5,65.4,146.5,149.5c0,85.2-66.4,152.1-147.9,152.1S724.5,235.4,724.5,151
			C724.5,66.9,791.2,0,872.8,0z M872,242.9c49,0,87.4-41.9,87.4-92.3S921,58.7,872,58.7s-87.4,41.5-87.4,91.9S823.1,242.9,872,242.9
			z"/>
		<path class="st0" d="M1071.1,214.9l56.2-13.8c4.3,26.9,22.5,44.1,49.3,44.1c24.7,0,47.1-17.2,47.1-44.5c0-29.9-21-45.2-47.5-45.2
			c-16.7,0-30.8,7.5-41.3,20.9l-55.1-24.7l23.9-147.2h166.4v54.9h-120l-11.2,64.3c14.2-11.8,32-18.4,50.4-18.7
			c54.4,0,93.2,37.4,93.2,95.3c0,61.7-47.9,100.5-106.6,100.5C1124.4,300.8,1079.4,270.9,1071.1,214.9z"/>
		<path class="st0" d="M1286.5,133.8c0-22.8,17.4-41.1,39.2-41.1c22.1,0,39.2,18.3,39.2,41.1c0,21.7-17,40-39.2,40
			C1304.3,173.8,1286.5,155.5,1286.5,133.8z M1286.5,261.2c0-22.4,17.4-40.7,39.2-40.7c22.1,0,39.2,18.3,39.2,40.7
			c0,22-17,40.4-39.2,40.4C1304.3,301.6,1286.5,283.3,1286.5,261.2z"/>
		<path class="st0" d="M1439.1,76.6l-59.8,35.1l-26.1-49l96.4-58.3h48.2v292.6h-58.7V76.6z"/>
	</g>
</g>
</svg>
